<svg width="24" height="24" viewBox="0 0 24 24" fill="none" xmlns="http://www.w3.org/2000/svg">
<path d="M3.42131 11.9993C3.42131 15.3948 5.39458 18.3292 8.25599 19.7197L4.164 8.50816C3.68802 9.57503 3.42131 10.7557 3.42131 11.9993Z" fill="#04071E"/>
<path d="M17.7909 11.5664C17.7909 10.5063 17.4101 9.77204 17.0835 9.20058C16.6486 8.49396 16.241 7.89556 16.241 7.18894C16.241 6.40038 16.8391 5.66634 17.6815 5.66634C17.7196 5.66634 17.7556 5.67107 17.7927 5.67319C16.2665 4.27497 14.2331 3.42128 11.9998 3.42128C9.00295 3.42128 6.3663 4.9589 4.83244 7.28786C5.0337 7.2939 5.22337 7.29814 5.38448 7.29814C6.28175 7.29814 7.67067 7.18927 7.67067 7.18927C8.1331 7.16201 8.18762 7.8412 7.72568 7.89589C7.72568 7.89589 7.26096 7.95057 6.74385 7.97766L9.86774 17.2695L11.745 11.6392L10.4085 7.97734C9.94658 7.95024 9.50896 7.89556 9.50896 7.89556C9.04669 7.86846 9.10088 7.16168 9.56315 7.18894C9.56315 7.18894 10.9798 7.29781 11.8227 7.29781C12.7198 7.29781 14.1089 7.18894 14.1089 7.18894C14.5717 7.16168 14.626 7.84088 14.1639 7.89556C14.1639 7.89556 13.6982 7.95024 13.1821 7.97734L16.2822 17.1988L17.1378 14.3395C17.5087 13.153 17.7909 12.3008 17.7909 11.5664Z" fill="#04071E"/>
<path d="M12.1503 12.7497L9.5765 20.2287C10.345 20.4546 11.1577 20.5782 11.9998 20.5782C12.9988 20.5782 13.9568 20.4055 14.8485 20.0919C14.8255 20.0552 14.8046 20.0162 14.7874 19.9737L12.1503 12.7497Z" fill="#04071E"/>
<path d="M19.5267 7.88364C19.5636 8.15689 19.5845 8.45021 19.5845 8.76573C19.5845 9.63624 19.4219 10.6148 18.9323 11.8384L16.3119 19.4143C18.8622 17.9271 20.5776 15.1642 20.5776 11.9995C20.5778 10.508 20.1968 9.10558 19.5267 7.88364Z" fill="#04071E"/>
<path d="M11.9998 1.99988C6.48603 1.99988 2 6.48558 2 11.9993C2 17.5137 6.48603 21.9992 11.9998 21.9992C17.5133 21.9992 22 17.5137 22 11.9993C21.9998 6.48558 17.5133 1.99988 11.9998 1.99988ZM11.9998 21.5409C6.73887 21.5409 2.45851 17.2605 2.45851 11.9993C2.45851 6.73843 6.73871 2.45839 11.9998 2.45839C17.2605 2.45839 21.5405 6.73843 21.5405 11.9993C21.5405 17.2605 17.2605 21.5409 11.9998 21.5409Z" fill="#04071E"/>
</svg>
