<svg width="24" height="24" viewBox="0 0 24 24" fill="none" xmlns="http://www.w3.org/2000/svg">
<path d="M7.72717 10.2444L11.9995 5.97224L16.2741 10.2467L18.7601 7.76073L11.9995 1L5.24122 7.75847L7.72717 10.2444Z" fill="#04071E"/>
<path d="M5.97224 11.9994L3.48634 9.51351L1.00031 11.9995L3.48621 14.4854L5.97224 11.9994Z" fill="#04071E"/>
<path d="M12.0002 18.0274L7.72789 13.7552L5.23829 16.2378L12.0002 22.9996L18.7608 16.2391L18.762 16.2377L16.2747 13.7531L12.0002 18.0274Z" fill="#04071E"/>
<path d="M20.514 14.4866L23 12.0006L20.5141 9.51468L18.0281 12.0007L20.514 14.4866Z" fill="#04071E"/>
<path d="M14.523 11.9985H14.522L14.5242 11.9997L14.523 12.0011L12.0004 14.5237L9.48005 12.0034L9.47657 11.9997L12.0004 9.47589L14.523 11.9985Z" fill="#04071E"/>
</svg>
