<svg width="24" height="24" viewBox="0 0 24 24" fill="none" xmlns="http://www.w3.org/2000/svg">
<path d="M21.3082 16.3506C21.2049 16.1026 21.1015 15.834 20.9982 15.6067C20.8329 15.2348 20.6676 14.8835 20.523 14.5529L20.5023 14.5322C19.0766 11.4328 17.5475 8.29205 15.9358 5.19262L15.8738 5.06864C15.7085 4.7587 15.5432 4.42809 15.3779 4.09749C15.1713 3.72556 14.9647 3.33296 14.6341 2.96103C13.9728 2.13451 13.0224 1.67993 12.0099 1.67993C10.9767 1.67993 10.0469 2.13451 9.36502 2.9197C9.05508 3.29164 8.82778 3.68423 8.62116 4.05616C8.45585 4.38677 8.29055 4.71737 8.12525 5.02732L8.06326 5.15129C6.47221 8.25072 4.9225 11.3915 3.49676 14.4909L3.47609 14.5322C3.33145 14.8628 3.16615 15.2141 3.00085 15.586C2.89753 15.8133 2.79422 16.0613 2.6909 16.3299C2.42229 17.0944 2.33964 17.8176 2.44295 18.5615C2.67024 20.1112 3.70339 21.413 5.12913 21.9915C5.66636 22.2188 6.22426 22.3221 6.80282 22.3221C6.96812 22.3221 7.17475 22.3015 7.34006 22.2808C8.02193 22.1982 8.72447 21.9709 9.40635 21.5783C10.2535 21.103 11.0594 20.4212 11.9685 19.4293C12.8777 20.4212 13.7042 21.103 14.5307 21.5783C15.2126 21.9709 15.9152 22.1982 16.597 22.2808C16.7623 22.3015 16.969 22.3221 17.1343 22.3221C17.7128 22.3221 18.2914 22.2188 18.808 21.9915C20.2544 21.413 21.2668 20.0905 21.4941 18.5615C21.6594 17.8383 21.5768 17.1151 21.3082 16.3506ZM11.9892 17.425C10.8734 16.02 10.1502 14.6975 9.90225 13.5817C9.79894 13.1065 9.77828 12.6932 9.84027 12.3213C9.88159 11.9907 10.0056 11.7014 10.1709 11.4535C10.5635 10.8956 11.2247 10.5443 11.9892 10.5443C12.7537 10.5443 13.4356 10.8749 13.8075 11.4535C13.9728 11.7014 14.0968 11.9907 14.1381 12.3213C14.2001 12.6932 14.1795 13.1272 14.0762 13.5817C13.8282 14.6769 13.105 15.9993 11.9892 17.425ZM20.2337 18.3962C20.0891 19.4707 19.3659 20.4005 18.3534 20.8137C17.8575 21.0204 17.3202 21.0824 16.783 21.0204C16.2664 20.9584 15.7499 20.7931 15.2126 20.4831C14.4688 20.0699 13.7249 19.4293 12.857 18.4788C14.2208 16.8052 15.0473 15.2761 15.3573 13.9123C15.5019 13.2718 15.5226 12.6932 15.4606 12.156C15.3779 11.6394 15.192 11.1642 14.9027 10.7509C14.2621 9.8211 13.1877 9.28387 11.9892 9.28387C10.7908 9.28387 9.71629 9.84176 9.07574 10.7509C8.78646 11.1642 8.60049 11.6394 8.51784 12.156C8.43519 12.6932 8.45585 13.2925 8.62116 13.9123C8.9311 15.2761 9.77828 16.8258 11.1214 18.4995C10.2742 19.45 9.50966 20.0905 8.7658 20.5038C8.22856 20.8137 7.71199 20.979 7.19542 21.041C6.63752 21.103 6.10028 21.0204 5.62504 20.8344C4.61255 20.4212 3.88935 19.4913 3.74471 18.4169C3.68272 17.9003 3.72405 17.3837 3.93068 16.8052C3.99267 16.5985 4.09598 16.3919 4.1993 16.1439C4.34394 15.8133 4.50924 15.4621 4.67454 15.1108L4.69521 15.0695C6.12095 11.9907 7.65 8.84995 9.24104 5.79184L9.30303 5.66787C9.46833 5.35792 9.63364 5.02732 9.79894 4.71737C9.96424 4.38677 10.1502 4.07682 10.3775 3.80821C10.8114 3.3123 11.39 3.04368 12.0305 3.04368C12.6711 3.04368 13.2496 3.3123 13.6836 3.80821C13.9109 4.07682 14.0968 4.38677 14.2621 4.71737C14.4274 5.02732 14.5927 5.35792 14.758 5.66787L14.82 5.79184C16.3904 8.87061 17.9195 12.0114 19.3452 15.0901V15.1108C19.5105 15.4414 19.6551 15.8133 19.8204 16.1439C19.9238 16.3919 20.0271 16.5985 20.0891 16.8052C20.2544 17.3424 20.3164 17.859 20.2337 18.3962Z" fill="#04071E"/>
</svg>
