<svg width="24" height="24" viewBox="0 0 24 24" fill="none" xmlns="http://www.w3.org/2000/svg">
<path d="M5.5357 2H18.4642C20.4286 2 22 3.57141 22 5.5357V18.4643C22 20.4286 20.4286 22 18.4642 22H5.5357C3.57141 22 2 20.4286 2 18.4643V5.5357C2 3.57141 3.57141 2 5.5357 2Z" fill="#FA0F00"/>
<path d="M17.9489 13.5357C17.0202 12.5714 14.4845 12.9643 13.8774 13.0357C12.9846 12.1785 12.3775 11.1428 12.1632 10.7857C12.4846 9.82139 12.6988 8.85709 12.7346 7.82146C12.7346 6.92857 12.3775 5.96436 11.3774 5.96436C11.0203 5.96436 10.6988 6.17857 10.5202 6.46428C10.0917 7.21436 10.2702 8.71436 10.9488 10.2501C10.556 11.3572 10.1988 12.4286 9.19879 14.3215C8.16308 14.7499 5.98449 15.75 5.8059 16.8215C5.73449 17.1428 5.8416 17.4644 6.0916 17.7143C6.3416 17.9286 6.663 18.0357 6.98449 18.0357C8.3059 18.0357 9.5916 16.2144 10.4845 14.6785C11.2345 14.4286 12.4131 14.0714 13.5917 13.8571C14.9845 15.0714 16.1988 15.2499 16.8417 15.2499C17.6988 15.2499 18.0203 14.8928 18.1274 14.5713C18.3059 14.2143 18.1988 13.8214 17.9489 13.5357ZM17.0559 14.1429C17.0202 14.3929 16.6989 14.6428 16.1274 14.5C15.4488 14.3215 14.8417 14 14.306 13.5714C14.7703 13.4999 15.8059 13.3928 16.556 13.5357C16.8417 13.6071 17.1274 13.7857 17.0559 14.1429ZM11.0917 6.78568C11.1631 6.67857 11.2703 6.60717 11.3774 6.60717C11.6988 6.60717 11.7702 6.99998 11.7702 7.32146C11.7345 8.07154 11.5916 8.82147 11.3417 9.53576C10.8059 8.10717 10.9131 7.10709 11.0917 6.78568ZM11.0203 13.7143C11.306 13.1429 11.6989 12.1428 11.8417 11.7142C12.1631 12.2498 12.6988 12.8928 12.9846 13.1785C12.9846 13.2143 11.8774 13.4285 11.0203 13.7143ZM8.91308 15.1429C8.09168 16.5 7.23449 17.3571 6.77019 17.3571C6.69879 17.3571 6.6273 17.3214 6.5559 17.2857C6.44871 17.2142 6.413 17.1071 6.44871 16.9643C6.5559 16.4643 7.48449 15.7857 8.91308 15.1429Z" fill="white"/>
</svg>
