<svg width="24" height="24" viewBox="0 0 24 24" fill="none" xmlns="http://www.w3.org/2000/svg">
<path d="M4.50076 15.9593C4.41423 15.4921 4.30173 15.0334 4.24116 14.5661C3.99886 12.7402 4.38827 11.0528 5.46995 9.54711C6.31799 8.36158 7.47756 7.5395 8.8102 6.96837C10.4111 6.28474 12.1331 5.91264 13.8725 5.87803C15.4215 5.83476 16.7714 6.40589 17.9483 7.37508C19.1598 8.37889 20.0944 9.61634 20.8126 11.0095C21.1587 11.6845 21.4789 12.3768 21.8077 13.0691C21.8424 13.147 21.8683 13.2335 21.8856 13.32C21.427 13.5969 20.9857 13.8825 20.5184 14.1335C18.7877 15.0853 16.9185 15.7344 14.9715 16.0718C13.9071 16.2536 12.8341 16.3574 11.761 16.4266C10.7399 16.4959 9.71882 16.5305 8.69771 16.5045C7.30449 16.4699 5.91993 16.2536 4.50076 15.9593ZM6.69875 11.3211C6.67279 12.8441 7.91024 14.0729 9.41595 14.0902C10.8697 14.1075 12.2283 12.9912 12.2283 11.3557C12.2283 9.6596 10.9217 8.58657 9.45921 8.58657C7.94485 8.58657 6.7074 9.80671 6.69875 11.3211ZM17.3339 12.1172C18.156 12.1778 19.0732 11.4941 19.0819 10.3692C19.0906 9.43461 18.3377 8.67311 17.4031 8.66445H17.3685C16.4166 8.64715 15.6378 9.40865 15.6205 10.3519V10.3778C15.6205 11.3643 16.356 12.1172 17.3339 12.1172Z" fill="#1E61C6"/>
<path d="M21.9376 13.7095C22.0587 15.1633 21.6953 16.444 20.9684 17.6209C19.9819 19.2131 18.5108 20.2169 16.7801 20.8486C15.0148 21.489 13.137 21.7399 11.2678 21.6015C10.1515 21.5236 9.02656 21.3592 8.02276 20.8313C6.29206 19.914 5.21903 18.4516 4.65655 16.5911C4.63059 16.4786 4.62193 16.3574 4.61328 16.2449C10.714 17.6555 16.5032 17.0324 21.9376 13.7095Z" fill="#1E60C6"/>
<path d="M21.6519 8.42214C22.1019 8.25772 22.1019 8.24907 22.0586 7.82505C22.0327 7.58275 22.024 7.34045 22.1452 7.10681C22.1971 7.01162 22.1884 6.89047 22.1971 6.77797C22.2144 6.43183 22.5 6.16357 22.8461 6.16357C23.1922 6.16357 23.4865 6.44049 23.5038 6.78663C23.5038 7.13277 23.2269 7.41833 22.8807 7.43564C22.7682 7.44429 22.6557 7.43564 22.5 7.43564C22.4827 7.60871 22.448 7.76447 22.4653 7.91158C22.5173 8.3356 22.448 8.69039 21.9634 8.87212L22.9499 10.6201L21.4702 11.5374C20.8471 10.0923 19.8953 8.89808 18.753 7.80774L19.6357 6.73471C20.4577 7.12411 21.0721 7.74716 21.6519 8.42214ZM3.84303 13.7786L2.40655 13.2941C2.33732 12.4287 2.51905 11.6239 2.83923 10.8365L2.33732 10.0403C2.1556 10.0403 1.97388 10.075 1.81811 10.0317C1.47197 9.9538 1.13449 9.84996 0.814308 9.72016C0.563357 9.61632 0.450861 9.27018 0.520089 9.01923C0.615278 8.71635 0.900843 8.52598 1.21237 8.55194C1.50659 8.5779 1.74889 8.80289 1.79215 9.09711C1.80946 9.23556 1.79215 9.38267 1.79215 9.55574H2.55366C2.87384 9.68555 2.85653 10.075 3.09883 10.3259C3.57477 9.70285 4.04206 9.0798 4.75165 8.63847L5.40931 9.14903C4.90741 9.84131 4.37089 10.4903 4.18917 11.2951C4.00745 12.1085 3.95553 12.922 3.84303 13.7786Z" fill="#2163C7"/>
<path d="M9.72684 6.4752L9.43262 5.74831C10.246 5.0993 11.172 4.83104 12.1498 4.70124C12.1671 4.44163 12.0373 4.32914 11.8383 4.22529C11.1633 3.87915 11.0508 3.06573 11.5873 2.57248C11.9075 2.27826 12.2883 2.23499 12.669 2.3821C13.0152 2.50325 13.2575 2.82343 13.2834 3.19553C13.344 3.59359 13.1536 3.983 12.8075 4.18203C12.7123 4.23395 12.6084 4.27721 12.5133 4.32048L12.6171 4.64931C13.4911 4.63201 14.3478 4.64066 15.1958 4.97815L15.0747 5.69639C13.2834 5.70504 11.4662 5.60985 9.72684 6.4752Z" fill="#2162C6"/>
</svg>
