<svg width="24" height="24" viewBox="0 0 24 24" fill="none" xmlns="http://www.w3.org/2000/svg">
<path fill-rule="evenodd" clip-rule="evenodd" d="M2.04396 7.11309C0.70441 9.17874 0 11.8537 0 14.4201C0 15.8314 0.278759 17.07 0.846293 18.0139C1.54152 19.1723 2.66407 19.941 4.43928 19.941C5.93574 19.941 7.07247 19.2691 8.40367 17.4964C9.16317 16.4841 9.54792 15.8706 11.0669 13.1773L12.0088 11.5088C12.0695 11.6083 12.1306 11.7094 12.1919 11.8119L14.3444 15.4074C15.068 16.6176 16.0086 17.9638 16.8132 18.7216C17.8598 19.709 18.8062 19.941 19.8745 19.941C21.593 19.941 22.6145 19.0338 23.1387 18.1257C23.6812 17.1868 24 15.9983 24 14.3808C24 11.66 23.319 9.0235 21.916 6.93031C20.634 5.01906 18.959 4 17.2004 4C16.153 4 15.1123 4.46738 14.1474 5.30866C13.4953 5.87741 12.8892 6.59531 12.3273 7.35441C11.6357 6.47889 10.9926 5.81159 10.3692 5.30282C9.18653 4.33718 8.05397 4 6.91473 4C4.94756 4 3.23244 5.28112 2.04396 7.11309ZM2.59229 14.5127C2.59229 15.4291 2.79343 16.1327 3.05634 16.5583C3.40103 17.1159 3.91515 17.3521 4.43928 17.3521C5.11531 17.3521 5.73376 17.1843 6.92558 15.5359C7.59861 14.6046 8.35625 13.4083 9.00993 12.3762C9.28359 11.9441 9.53903 11.5407 9.76241 11.1977L10.7829 9.62977C10.2846 8.92023 9.85603 8.38026 9.54791 8.05285C8.93114 7.39769 8.13826 6.60648 6.873 6.60648M2.59229 14.5127C2.59229 12.291 3.22242 9.97746 4.2515 8.42425C4.79554 7.60257 5.41887 6.99357 6.12671 6.73844C6.36577 6.65228 6.61447 6.60648 6.873 6.60648M14.7617 10.9623C14.3219 10.2298 13.9045 9.5709 13.5051 8.97825C13.5762 8.86799 13.647 8.76035 13.7176 8.65544C14.8385 6.98873 15.8359 6.05397 17.0753 6.05397C18.2212 6.05397 19.2628 6.81179 20.0665 8.05202C21.1991 9.80052 21.7132 12.2476 21.7132 14.4526C21.7132 16 21.3459 17.3521 19.8745 17.3521C19.2945 17.3521 18.848 17.1217 18.2103 16.3489C17.7146 15.7471 16.8674 14.471 15.3785 11.9905L14.7617 10.9623Z" fill="#04071E"/>
</svg>
