<svg width="24" height="24" viewBox="0 0 24 24" fill="none" xmlns="http://www.w3.org/2000/svg">
<path d="M12 22C17.5228 22 22 17.5228 22 12C22 6.47715 17.5228 2 12 2C6.47715 2 2 6.47715 2 12C2 17.5228 6.47715 22 12 22Z" fill="#40A4C4"/>
<path d="M12.0732 18.2667C13.0666 18.2667 16.9866 13.86 16.9866 10.9067C16.9866 8.08 14.7532 5.73334 12.0732 5.73334C9.25323 5.73334 7.0199 8.08 7.0199 10.9067C7.0199 13.86 10.9399 18.2667 12.0732 18.2667Z" fill="white"/>
<path d="M11.3466 7.78C11.58 7.72666 11.8266 7.7 12.0866 7.7C13.6666 7.7 15.02 9.02 15.02 10.7267C15.02 12.2667 13.6666 13.5867 12.0866 13.5867C10.3333 13.5867 8.97998 12.2667 8.97998 10.7267C8.97998 10.0733 9.17998 9.48 9.51998 8.99333C9.62665 9.54 10.1133 9.95333 10.7066 9.95333C11.3733 9.95333 11.9133 9.42666 11.9133 8.77333C11.9133 8.35333 11.6866 7.98666 11.3466 7.78Z" fill="#E94F3C"/>
</svg>
