<svg width="24" height="24" viewBox="0 0 24 24" fill="none" xmlns="http://www.w3.org/2000/svg">
<path d="M13.4444 12L15.5888 14.4512L18.4724 16.2939L18.9752 12.0151L18.4724 7.83185L15.5335 9.45085L13.4444 12Z" fill="#00832D"/>
<path d="M1 15.8966V19.5419C1 20.3753 1.675 21.0503 2.50839 21.0503H6.15366L6.90785 18.295L6.15366 15.8966L3.65225 15.1425L1 15.8966Z" fill="#0066DA"/>
<path d="M6.15366 2.94965L1 8.1033L3.65225 8.8575L6.15366 8.1033L6.89528 5.73765L6.15366 2.94965Z" fill="#E94235"/>
<path d="M6.15366 8.10333H1V15.8967H6.15366V8.10333Z" fill="#2684FC"/>
<path d="M21.7659 5.13181L18.4725 7.83182V16.2939L21.7809 19.0065C22.2762 19.3936 23.0002 19.0404 23.0002 18.4106V5.71505C23.0002 5.07776 22.2599 4.72832 21.7659 5.13181ZM13.4446 12V15.8967H6.15405V21.0503H16.9642C17.7975 21.0503 18.4725 20.3753 18.4725 19.5419V16.2939L13.4446 12Z" fill="#00AC47"/>
<path d="M16.9642 2.94965H6.15405V8.1033H13.4446V12L18.4725 7.83431V4.45803C18.4725 3.62465 17.7975 2.94965 16.9642 2.94965Z" fill="#FFBA00"/>
</svg>
