<svg width="24" height="24" viewBox="0 0 24 24" fill="none" xmlns="http://www.w3.org/2000/svg">
<path d="M7.50781 13.4551C7.2493 13.4551 7.03906 13.2543 7.03906 13.0074V10.2227H6.30766C6.05398 10.2227 5.84766 10.0167 5.84766 9.76367C5.84766 9.51062 6.05406 9.30469 6.30766 9.30469H8.70797C8.96164 9.30469 9.16797 9.51062 9.16797 9.76367C9.16797 10.0167 8.96156 10.2227 8.70797 10.2227H7.97656V13.0074C7.97656 13.2543 7.76633 13.4551 7.50781 13.4551Z" fill="#04071E"/>
<path fill-rule="evenodd" clip-rule="evenodd" d="M11.6181 13.449C11.4227 13.449 11.2731 13.3696 11.228 13.242L10.9959 12.6343L9.56656 12.6342L9.3343 13.2423C9.28938 13.3697 9.13992 13.449 8.94445 13.449C8.84164 13.4491 8.74 13.427 8.64648 13.3843C8.51727 13.3247 8.39305 13.1608 8.53539 12.7187L9.65664 9.76742C9.73563 9.54297 9.97555 9.31172 10.2809 9.30477C10.587 9.31164 10.827 9.54297 10.9061 9.76789L12.0269 12.7178C12.1695 13.1609 12.0453 13.3249 11.9161 13.3844C11.8226 13.427 11.7209 13.4491 11.6181 13.449ZM10.7495 11.804L10.2812 10.4739L9.81305 11.804H10.7495Z" fill="#04071E"/>
<path d="M12.7813 13.3867C12.5335 13.3867 12.332 13.1939 12.332 12.957V9.77344C12.332 9.51492 12.5467 9.30469 12.8105 9.30469C13.0744 9.30469 13.2891 9.51492 13.2891 9.77344V12.5273H14.2852C14.5329 12.5273 14.7344 12.7202 14.7344 12.957C14.7344 13.1939 14.5329 13.3867 14.2852 13.3867H12.7813Z" fill="#04071E"/>
<path d="M15.3855 13.449C15.127 13.449 14.9167 13.2387 14.9167 12.9802V9.77344C14.9167 9.51492 15.127 9.30469 15.3855 9.30469C15.644 9.30469 15.8542 9.51492 15.8542 9.77344V10.7809L17.162 9.47312C17.2293 9.40586 17.3217 9.36883 17.422 9.36883C17.5391 9.36883 17.6566 9.4193 17.7446 9.50727C17.8267 9.5893 17.8757 9.69484 17.8824 9.80445C17.8892 9.915 17.8524 10.0163 17.779 10.0898L16.7108 11.1579L17.8646 12.6865C17.9019 12.7355 17.929 12.7915 17.9445 12.8511C17.9599 12.9107 17.9634 12.9728 17.9546 13.0337C17.9463 13.0947 17.9259 13.1535 17.8947 13.2065C17.8634 13.2596 17.822 13.306 17.7727 13.3429C17.6917 13.4045 17.5926 13.4377 17.4908 13.4375C17.4182 13.4378 17.3465 13.4212 17.2814 13.3888C17.2164 13.3564 17.1599 13.3093 17.1163 13.2512L16.017 11.7946L15.8544 11.9573V12.98C15.8542 13.1043 15.8048 13.2235 15.7169 13.3114C15.629 13.3994 15.5098 13.4488 15.3855 13.449Z" fill="#04071E"/>
<path fill-rule="evenodd" clip-rule="evenodd" d="M20.4375 22C21.3005 22 22 21.3005 22 20.4375V3.5625C22 2.69953 21.3005 2 20.4375 2H3.5625C2.69953 2 2 2.69953 2 3.5625V20.4375C2 21.3005 2.69953 22 3.5625 22H20.4375ZM12 4.8125C7.51266 4.8125 3.875 7.6807 3.875 11.2188C3.875 13.5062 5.39578 15.5133 7.68344 16.6466C7.55898 17.0759 6.88367 19.4079 6.8568 19.5911C6.8568 19.5911 6.84062 19.7287 6.92977 19.7812C7.01891 19.8337 7.12375 19.793 7.12375 19.793C7.37937 19.7573 10.088 17.8546 10.5569 17.5242C11.0252 17.5905 11.5075 17.625 12 17.625C16.4873 17.625 20.125 14.7569 20.125 11.2188C20.125 7.6807 16.4873 4.8125 12 4.8125Z" fill="#04071E"/>
</svg>
