<svg width="24" height="24" viewBox="0 0 24 24" fill="none" xmlns="http://www.w3.org/2000/svg">
<path d="M18.6741 1.3369C18.0393 0.984568 16.2197 1.20242 14.0342 1.87893C10.2093 4.49338 6.98122 8.34515 6.75596 14.5304C6.71494 14.6783 6.33769 14.5103 6.26307 14.4646C5.23021 12.4849 4.82101 10.4003 5.68342 7.39313C5.84417 7.12551 5.31863 6.79605 5.22413 6.89015C5.03483 7.07976 4.24569 7.9204 3.72157 8.82951C1.1236 13.3363 2.82256 19.1108 7.36787 21.638C11.9122 24.169 17.6508 22.5363 20.1811 17.9906C23.1083 12.7441 20.3902 2.29539 18.6742 1.33706L18.6741 1.3369Z" fill="#04071E"/>
</svg>
