<svg width="24" height="24" viewBox="0 0 24 24" fill="none" xmlns="http://www.w3.org/2000/svg">
<path d="M14.334 12C14.334 10.7113 13.2893 9.66667 12.0007 9.66667C10.7119 9.66667 9.6673 10.7113 9.6673 12C9.6673 13.2886 10.7119 14.3333 12.0007 14.3333C13.2893 14.3333 14.334 13.2886 14.334 12Z" fill="#04071E"/>
<path fill-rule="evenodd" clip-rule="evenodd" d="M11.7673 6.26139C11.6258 6.26133 11.4946 6.26127 11.3727 6.26146L11.3727 6.2597C10.0681 6.26117 9.8178 6.26991 9.17204 6.29908C8.48954 6.33044 8.11897 6.44419 7.87222 6.54044C7.54555 6.66761 7.31221 6.81927 7.06721 7.06427C6.82221 7.30927 6.67024 7.5426 6.54337 7.86927C6.44755 8.11602 6.33352 8.48643 6.30231 9.16894C6.26876 9.90685 6.26205 10.1274 6.26205 11.9966C6.26205 13.8659 6.26876 14.0876 6.30231 14.8255C6.33337 15.508 6.44755 15.8784 6.54337 16.1249C6.67054 16.4517 6.82221 16.6845 7.06721 16.9295C7.31221 17.1745 7.54555 17.3261 7.87222 17.453C8.11912 17.5488 8.48954 17.6629 9.17204 17.6944C9.90997 17.7279 10.1315 17.7352 12.0007 17.7352C13.8697 17.7352 14.0913 17.7279 14.8293 17.6944C15.5118 17.6631 15.8825 17.5494 16.1289 17.4531C16.4558 17.3263 16.6884 17.1746 16.9334 16.9296C17.1784 16.6848 17.3303 16.4521 17.4572 16.1255C17.553 15.879 17.6671 15.5086 17.6983 14.8261C17.7318 14.0882 17.7391 13.8665 17.7391 11.9984C17.7391 10.1303 17.7318 9.9086 17.6983 9.17069C17.6672 8.48819 17.553 8.11777 17.4572 7.87131C17.33 7.54465 17.1784 7.31132 16.9334 7.06631C16.6885 6.82131 16.4556 6.66964 16.1289 6.54277C15.8822 6.44696 15.5118 6.33292 14.8293 6.30171C14.0912 6.26817 13.8697 6.26146 12.0007 6.26146C11.9199 6.26146 11.8422 6.26143 11.7673 6.26139ZM14.8972 8.26346C14.8972 7.79957 15.2735 7.42375 15.7372 7.42375C16.201 7.42375 16.5773 7.79971 16.5773 8.26346C16.5773 8.72721 16.201 9.10346 15.7372 9.10346C15.2735 9.10346 14.8972 8.72721 14.8972 8.26346ZM8.40583 12C8.40583 10.0148 10.0153 8.40528 12.0005 8.40521C13.9858 8.40521 15.5949 10.0148 15.5949 12C15.5949 13.9852 13.9859 15.5941 12.0007 15.5941C10.0154 15.5941 8.40583 13.9852 8.40583 12Z" fill="#04071E"/>
<path fill-rule="evenodd" clip-rule="evenodd" d="M12.0029 3C8.24552 3 7.14662 3.00388 6.93301 3.0216C6.16193 3.08571 5.68212 3.20716 5.15938 3.46748C4.75653 3.66758 4.43882 3.89952 4.12526 4.22466C3.55422 4.8176 3.20813 5.54707 3.08284 6.4142L3.0798 6.43522C3.02134 6.83864 3.00415 6.95726 3.00061 9.07122C2.99973 9.52731 2.99997 10.0751 3.00027 10.7393C3.00043 11.1188 3.00061 11.5364 3.00061 11.9965C3.00061 15.7519 3.00476 16.85 3.02276 17.0632C3.08506 17.8137 3.20273 18.2859 3.45191 18.8024C3.92813 19.7911 4.83765 20.5333 5.90914 20.8103C6.28015 20.9058 6.68992 20.9585 7.21598 20.9834C7.43886 20.9931 9.71058 21 11.9837 21C14.2568 21 16.5299 20.9972 16.7473 20.9862C17.3564 20.9575 17.7101 20.91 18.1012 20.8089C19.1796 20.5306 20.0725 19.7994 20.5584 18.7969C20.8027 18.2928 20.9266 17.8026 20.9827 17.0913C20.9949 16.9362 21 14.4635 21 11.9941C21 9.5243 20.9945 7.05615 20.9823 6.90106C20.9255 6.17824 20.8016 5.6922 20.5494 5.17846C20.3424 4.75791 20.1126 4.44385 19.779 4.12274C19.1836 3.55389 18.4554 3.20771 17.5877 3.08253L17.5644 3.07916C17.1634 3.02107 17.0433 3.00367 14.9322 3H12.0029ZM9.11429 5.04229C9.86097 5.00831 10.0996 5 12.0007 5H11.9985C13.9002 5 14.1379 5.00831 14.8845 5.04229C15.6298 5.07642 16.1387 5.1944 16.585 5.3675C17.0458 5.54614 17.4352 5.78531 17.8246 6.17469C18.2139 6.56377 18.4531 6.95431 18.6325 7.41471C18.8046 7.8598 18.9227 8.36845 18.9577 9.11367C18.9912 9.86034 19 10.0989 19 12C19 13.9011 18.9912 14.1391 18.9577 14.8858C18.9227 15.6307 18.8046 16.1395 18.6325 16.5847C18.4531 17.045 18.2139 17.4355 17.8246 17.8246C17.4356 18.214 17.0457 18.4537 16.5854 18.6325C16.14 18.8056 15.6308 18.9236 14.8856 18.9577C14.1389 18.9917 13.901 19 11.9998 19C10.0988 19 9.86039 18.9917 9.11371 18.9577C8.36864 18.9236 7.85982 18.8056 7.41444 18.6325C6.95433 18.4537 6.56379 18.214 6.17484 17.8246C5.78561 17.4355 5.54644 17.045 5.3675 16.5846C5.19455 16.1395 5.07657 15.6308 5.04229 14.8856C5.00846 14.1389 5 13.9011 5 12C5 10.0989 5.00875 9.86019 5.04215 9.11352C5.07568 8.3686 5.19381 7.8598 5.36736 7.41456C5.54673 6.95431 5.78591 6.56378 6.17528 6.17469C6.56437 5.78546 6.95492 5.54629 7.41531 5.36751C7.86041 5.1944 8.36908 5.07642 9.11429 5.04229Z" fill="#04071E"/>
</svg>
