<svg width="24" height="24" viewBox="0 0 24 24" fill="none" xmlns="http://www.w3.org/2000/svg">
<path d="M19.0281 19.1154C17.2219 20.9 14.7396 22.0016 12 22.0016C10.9668 22.0016 9.9702 21.845 9.03267 21.554C9.44394 20.8858 10.0433 19.8121 10.2634 18.9481L10.8889 16.5695C11.2099 17.1951 12.1646 17.7218 13.177 17.7218C16.1893 17.7218 18.3621 14.9482 18.3621 11.4996C18.3621 8.19095 15.6626 5.72181 12.1975 5.72181C7.87654 5.72181 5.58848 8.61893 5.58848 11.7712C5.58848 13.2444 6.37037 15.0634 7.6214 15.6477C7.8107 15.7383 7.9177 15.6971 7.95885 15.5161C7.97252 15.458 8.01031 15.3062 8.05513 15.1262C8.11827 14.8727 8.19536 14.5632 8.23868 14.3802C8.26337 14.2815 8.25514 14.1909 8.17284 14.0922C7.76132 13.5901 7.4321 12.6683 7.4321 11.8123C7.4321 9.60659 9.10288 7.4749 11.9506 7.4749C14.4115 7.4749 16.1317 9.14568 16.1317 11.5407C16.1317 14.2403 14.7654 16.1169 12.9877 16.1169C12.0082 16.1169 11.2675 15.3021 11.5062 14.3062C11.6087 13.8813 11.7436 13.445 11.8748 13.0205C12.1122 12.2528 12.3374 11.5241 12.3374 10.9728C12.3374 10.2074 11.9259 9.56543 11.07 9.56543C10.0658 9.56543 9.25926 10.6025 9.25926 11.9934C9.25926 12.8741 9.55556 13.4749 9.55556 13.4749C9.55556 13.4749 8.5679 17.6642 8.38683 18.4461C8.18951 19.3094 8.26322 20.5258 8.35362 21.316C4.63404 19.8588 2 16.2378 2 12.0016C2 6.47901 6.47737 2.00165 12 2.00165C12.045 2.00165 12.09 2.00195 12.1349 2.00254C17.5954 2.07475 21.9999 6.52419 21.9835 12.0181C21.9835 14.7929 20.8533 17.3037 19.0281 19.1154Z" fill="#04071E"/>
</svg>
