<svg width="24" height="24" viewBox="0 0 24 24" fill="none" xmlns="http://www.w3.org/2000/svg">
<path d="M12 22.0016C17.5228 22.0016 22 17.5245 22 12.0016C22 6.4788 17.5228 2.00165 12 2.00165C6.47715 2.00165 2 6.4788 2 12.0016C2 17.5245 6.47715 22.0016 12 22.0016Z" fill="white"/>
<path d="M12 2.00165C6.47737 2.00165 2 6.47901 2 12.0016C2 16.2403 4.63374 19.8617 8.35391 21.3185C8.26337 20.5284 8.1893 19.3103 8.38683 18.4461C8.5679 17.6642 9.55556 13.4749 9.55556 13.4749C9.55556 13.4749 9.25926 12.8741 9.25926 11.9934C9.25926 10.6025 10.0658 9.56543 11.07 9.56543C11.9259 9.56543 12.3374 10.2074 12.3374 10.9728C12.3374 11.8288 11.7942 13.1128 11.5062 14.3062C11.2675 15.3021 12.0082 16.1169 12.9877 16.1169C14.7654 16.1169 16.1317 14.2403 16.1317 11.5407C16.1317 9.14568 14.4115 7.4749 11.9506 7.4749C9.10288 7.4749 7.4321 9.60659 7.4321 11.8123C7.4321 12.6683 7.76132 13.5901 8.17284 14.0922C8.25514 14.1909 8.26337 14.2815 8.23868 14.3802C8.16461 14.693 7.99177 15.3761 7.95885 15.5161C7.9177 15.6971 7.8107 15.7383 7.6214 15.6477C6.37037 15.0634 5.58848 13.2444 5.58848 11.7712C5.58848 8.61893 7.87654 5.72181 12.1975 5.72181C15.6626 5.72181 18.3621 8.19095 18.3621 11.4996C18.3621 14.9482 16.1893 17.7218 13.177 17.7218C12.1646 17.7218 11.2099 17.1951 10.8889 16.5695C10.8889 16.5695 10.3868 18.479 10.2634 18.9481C10.0412 19.8206 9.4321 20.907 9.02058 21.5737C9.95885 21.8617 10.9465 22.0181 11.9835 22.0181C17.5062 22.0181 21.9835 17.5407 21.9835 12.0181C22 6.47901 17.5226 2.00165 12 2.00165Z" fill="#E60019"/>
</svg>
