<svg width="24" height="24" viewBox="0 0 24 24" fill="none" xmlns="http://www.w3.org/2000/svg">
<path fill-rule="evenodd" clip-rule="evenodd" d="M18.4587 2.24963H5.54134C3.58346 2.24963 2 3.83309 2 5.79097V18.209C2 20.1669 3.58346 21.7504 5.54134 21.7504H18.4587C20.4165 21.7504 22 20.1669 22 18.209V5.79097C22 3.83309 20.4165 2.24963 18.4587 2.24963ZM12.4984 16.0328H7.21758C7.12398 16.0328 7.08497 15.986 7.08497 15.8846V7.36663C7.07717 7.31203 7.11618 7.25743 7.17858 7.24963H8.84004C8.87905 7.24183 8.93365 7.27303 8.93365 7.31983V14.3401H12.787C12.8728 14.3401 12.8962 14.3791 12.8806 14.4571L12.6388 15.908C12.6388 15.947 12.6154 15.986 12.592 16.0094C12.5608 16.025 12.5296 16.0328 12.4984 16.0328ZM13.8334 9.36351H15.292C15.3778 9.36351 15.4402 9.41811 15.4636 9.49611C15.4948 9.55071 15.5182 9.62092 15.5338 9.69112C15.5494 9.77691 15.5651 9.86274 15.5728 9.94853C15.5806 10.0421 15.5884 10.1435 15.5884 10.2449C15.8381 9.95633 16.1423 9.71452 16.4777 9.52731C16.8599 9.31671 17.2889 9.2153 17.7179 9.2309C17.7725 9.2231 17.8271 9.2621 17.8349 9.32451V10.986C17.8349 11.0562 17.7959 11.0796 17.7023 11.0796C17.1641 11.0484 16.6181 11.1498 16.1267 11.3604C15.9629 11.4384 15.7991 11.532 15.6743 11.6724V15.9236C15.6743 16.0094 15.6431 16.0406 15.565 16.0406H13.9426C13.8724 16.0484 13.8178 16.0094 13.81 15.9392V11.2902C13.81 11.0874 13.81 10.8845 13.8022 10.6662C13.7983 10.558 13.7964 10.4498 13.7944 10.3426C13.7925 10.2334 13.7905 10.125 13.7866 10.0187C13.7788 9.83152 13.7632 9.65212 13.7398 9.46491C13.732 9.42591 13.7554 9.37911 13.7944 9.37131C13.81 9.35571 13.8178 9.35571 13.8334 9.36351Z" fill="#04071E"/>
</svg>
