<svg width="24" height="24" viewBox="0 0 24 24" fill="none" xmlns="http://www.w3.org/2000/svg">
<path d="M5.54134 2.24963H18.4587C20.4165 2.24963 22 3.83309 22 5.79097V18.209C22 20.1669 20.4165 21.7504 18.4587 21.7504H5.54134C3.58346 21.7504 2 20.1669 2 18.209V5.79097C2 3.83309 3.58346 2.24963 5.54134 2.24963Z" fill="#001E36"/>
<path d="M12.4986 16.0327H7.21782C7.12422 16.0327 7.08522 15.9859 7.08522 15.8845V7.36661C7.07742 7.31201 7.11642 7.25741 7.17882 7.24961C7.18662 7.24961 7.19442 7.24961 7.21002 7.24961H8.84029C8.87929 7.24181 8.93389 7.27301 8.93389 7.31981C8.93389 7.32761 8.93389 7.33541 8.93389 7.34321V14.3401H12.7872C12.873 14.3401 12.8965 14.3791 12.8808 14.4571L12.639 15.9079C12.639 15.9469 12.6156 15.9859 12.5922 16.0093C12.561 16.0249 12.5298 16.0327 12.4986 16.0327Z" fill="#31A8FF"/>
<path d="M13.833 9.36354H15.2917C15.3775 9.36354 15.4399 9.41814 15.4633 9.49614C15.4945 9.55074 15.5179 9.62095 15.5335 9.69115C15.5491 9.77695 15.5647 9.86276 15.5725 9.94856C15.5803 10.0422 15.5881 10.1436 15.5881 10.245C15.8377 9.95636 16.1419 9.71455 16.4773 9.52734C16.8595 9.31674 17.2886 9.21533 17.7176 9.23093C17.7722 9.22313 17.8268 9.26213 17.8346 9.32454C17.8346 9.33234 17.8346 9.34014 17.8346 9.35574V10.986C17.8346 11.0562 17.7956 11.0796 17.702 11.0796C17.1637 11.0484 16.6177 11.1498 16.1263 11.3604C15.9625 11.4384 15.7987 11.532 15.6739 11.6724V15.9236C15.6739 16.0094 15.6427 16.0406 15.5647 16.0406H13.9422C13.872 16.0484 13.8174 16.0094 13.8096 15.9392C13.8096 15.9314 13.8096 15.9158 13.8096 15.908V11.2902C13.8096 11.0874 13.8096 10.8846 13.8018 10.6662C13.794 10.4478 13.794 10.2294 13.7862 10.0188C13.7784 9.83156 13.7628 9.65215 13.7394 9.46494C13.7316 9.42594 13.755 9.37914 13.794 9.37134C13.8096 9.35574 13.8174 9.35574 13.833 9.36354Z" fill="#31A8FF"/>
</svg>
