<svg width="24" height="24" viewBox="0 0 24 24" fill="none" xmlns="http://www.w3.org/2000/svg">
<circle cx="12" cy="12" r="10" fill="#2A2A2A"/>
<path d="M11.653 14.7344C13.8822 14.4337 16.0006 13.5493 17.2002 11.6609C18.185 10.1426 18.2223 8.20231 17.3097 6.64672C16.162 4.92863 14.0733 4.58045 12.2367 5.40241C10.422 6.20984 9.45915 7.91302 9.13335 9.81639C9.01049 10.6607 8.96967 11.5345 8.99636 12.4012C8.70981 12.4153 8.40914 12.3871 8.12259 12.3329C7.07847 12.2026 6.01197 11.9353 5.03418 11.5404V14.1028C5.59942 14.2881 6.18232 14.44 6.77465 14.5581C7.56716 14.7085 8.37459 14.8038 9.19655 14.8313C9.26485 15.3911 9.34689 15.9277 9.41519 16.4313C9.62637 17.8679 9.90545 19.2975 10.2521 20.7122H12.785C12.5837 19.9566 12.4027 19.1939 12.243 18.4312C11.9831 17.172 11.7919 15.9869 11.6557 14.743L11.653 14.7344ZM11.8441 9.07608C12.2952 8.13558 13.607 6.97252 14.7029 7.52088C14.9628 7.64374 15.1814 7.84903 15.3043 8.09476C15.4546 8.3813 15.5367 8.69611 15.5229 9.02073C15.5229 9.13025 15.5088 9.23937 15.4958 9.33475C15.4275 9.84072 15.2093 10.3196 14.867 10.6976C14.6213 10.9575 14.3477 11.1894 14.0301 11.3673C13.2082 11.8458 12.2971 12.1598 11.3492 12.3078C11.3633 12.3078 11.1988 10.3302 11.841 9.07137L11.8441 9.07608Z" fill="black" fill-opacity="0.201"/>
<path d="M11.2823 14.5122C13.5115 14.2115 15.6299 13.3272 16.8295 11.4387C17.8143 9.92041 17.8516 7.98014 16.939 6.42455C15.7909 4.70646 13.7026 4.35829 11.8656 5.18024C10.0509 5.98767 9.08806 7.69085 8.76226 9.59422C8.6394 10.4385 8.59857 11.3123 8.62526 12.179C8.33872 12.1931 8.03804 12.1649 7.7515 12.1107C6.70737 11.9804 5.64087 11.7131 4.66309 11.3182V13.8806C5.22833 14.0659 5.81123 14.2178 6.40356 14.336C7.19607 14.4863 8.0035 14.5817 8.82545 14.6092C8.89375 15.1689 8.97579 15.7055 9.04409 16.2091C9.25527 17.6458 9.53436 19.0753 9.88096 20.49H12.4139C12.2126 19.7344 12.0316 18.9717 11.8719 18.209C11.612 16.9498 11.4208 15.7648 11.2846 14.5208L11.2823 14.5122ZM11.4734 8.85391C11.9245 7.91341 13.2363 6.75035 14.3322 7.29871C14.5921 7.42157 14.8107 7.62687 14.9336 7.87259C15.0839 8.15914 15.166 8.47394 15.1522 8.79856C15.1522 8.90808 15.1381 9.0172 15.1251 9.11259C15.0568 9.61856 14.8386 10.0974 14.4963 10.4754C14.2506 10.7353 13.977 10.9673 13.6594 11.1451C12.8375 11.6236 11.9264 11.9376 10.9785 12.0856C10.9926 12.0856 10.8281 10.108 11.4703 8.8492L11.4734 8.85391Z" fill="url(#paint0_radial_106_425)"/>
<defs>
<radialGradient id="paint0_radial_106_425" cx="0" cy="0" r="1" gradientUnits="userSpaceOnUse" gradientTransform="translate(2.75285 2.69437) scale(33.4321 33.2513)">
<stop stop-color="#4BA6A8"/>
<stop offset="0.0858" stop-color="#45AFC0"/>
<stop offset="0.176" stop-color="#41B6D1"/>
<stop offset="0.274" stop-color="#3FBADC"/>
<stop offset="0.391" stop-color="#3EBBDF"/>
<stop offset="0.686" stop-color="#9C46CD"/>
<stop offset="0.859" stop-color="#D400C3"/>
</radialGradient>
</defs>
</svg>
