<svg width="24" height="24" viewBox="0 0 24 24" fill="none" xmlns="http://www.w3.org/2000/svg">
<path d="M6.11621 2.70537C6.11621 2.18744 6.53607 1.76758 7.054 1.76758H22.0614C22.5794 1.76758 22.9992 2.18744 22.9992 2.70537L22.9996 21.2947C22.9996 21.8126 22.5797 22.2324 22.0618 22.2324H7.054C6.53607 22.2324 6.11621 21.8126 6.11621 21.2947V18.6279H11.3188C12.389 18.6279 13.2566 17.7603 13.2566 16.6901V7.31011C13.2566 6.23989 12.389 5.37231 11.3188 5.37231H6.11621V2.70537Z" fill="#04071E"/>
<path fill-rule="evenodd" clip-rule="evenodd" d="M11.3188 6.37231C11.8367 6.37231 12.2566 6.79218 12.2566 7.31011V16.6901C12.2566 17.208 11.8367 17.6279 11.3188 17.6279H1.93877C1.42084 17.6279 1.00098 17.208 1.00098 16.6901V7.31011C1.00098 6.79218 1.42084 6.37231 1.93877 6.37231H11.3188ZM5.87795 11.9912L3.90515 15.0481H5.33411L6.50725 12.9055C6.56159 12.8187 6.60587 12.726 6.63925 12.6292H6.65613C6.693 12.728 6.73854 12.8234 6.79221 12.9142L7.93159 15.0481H9.35184L7.45117 11.9743L9.30476 8.9522H7.96995L6.91551 10.8784C6.84388 11.0173 6.77567 11.1603 6.71086 11.3077H6.69808C6.6643 11.2171 6.60189 11.08 6.51082 10.8953L5.52442 8.95117H4.07041L5.87795 11.9912Z" fill="#04071E"/>
</svg>
