<svg width="24" height="24" viewBox="0 0 24 24" fill="none" xmlns="http://www.w3.org/2000/svg">
<path d="M5.54167 2.25H18.4583C20.4167 2.25 22 3.83333 22 5.79167V18.2083C22 20.1667 20.4167 21.75 18.4583 21.75H5.54167C3.58333 21.75 2 20.1667 2 18.2083V5.79167C2 3.83333 3.58333 2.25 5.54167 2.25Z" fill="#001E36"/>
<path d="M6.5 15.925V7.35004C6.5 7.29171 6.525 7.25837 6.58333 7.25837C6.725 7.25837 6.85833 7.25837 7.05 7.25004C7.25 7.24171 7.45833 7.24171 7.68333 7.23337C7.90833 7.22504 8.15 7.22504 8.40833 7.21671C8.66667 7.20837 8.91667 7.20837 9.16667 7.20837C9.85 7.20837 10.4167 7.29171 10.8833 7.46671C11.3 7.60837 11.6833 7.84171 12 8.15004C12.2667 8.41671 12.475 8.74171 12.6083 9.10004C12.7333 9.45004 12.8 9.80837 12.8 10.1834C12.8 10.9 12.6333 11.4917 12.3 11.9584C11.9667 12.425 11.5 12.775 10.9583 12.975C10.3917 13.1834 9.76667 13.2584 9.08333 13.2584C8.88333 13.2584 8.75 13.2584 8.66667 13.25C8.58333 13.2417 8.46667 13.2417 8.30833 13.2417V15.9167C8.31667 15.975 8.275 16.025 8.21667 16.0334C8.20833 16.0334 8.2 16.0334 8.18333 16.0334H6.6C6.53333 16.0334 6.5 16 6.5 15.925ZM8.31667 8.86671V11.6667C8.43333 11.675 8.54167 11.6834 8.64167 11.6834H9.08333C9.40833 11.6834 9.73333 11.6334 10.0417 11.5334C10.3083 11.4584 10.5417 11.3 10.725 11.0917C10.9 10.8834 10.9833 10.6 10.9833 10.2334C10.9917 9.97504 10.925 9.71671 10.7917 9.49171C10.65 9.27504 10.45 9.10837 10.2083 9.01671C9.9 8.89171 9.56667 8.84171 9.225 8.85004C9.00833 8.85004 8.81667 8.85004 8.65833 8.85837C8.49167 8.85004 8.375 8.85837 8.31667 8.86671Z" fill="#31A8FF"/>
<path d="M17.9998 11.1584C17.7498 11.025 17.4832 10.9334 17.1998 10.875C16.8915 10.8084 16.5832 10.7667 16.2665 10.7667C16.0998 10.7584 15.9248 10.7834 15.7665 10.825C15.6582 10.85 15.5665 10.9084 15.5082 10.9917C15.4665 11.0584 15.4415 11.1417 15.4415 11.2167C15.4415 11.2917 15.4748 11.3667 15.5248 11.4334C15.5998 11.525 15.6998 11.6 15.8082 11.6584C15.9998 11.7584 16.1998 11.85 16.3998 11.9334C16.8498 12.0834 17.2832 12.2917 17.6832 12.5417C17.9582 12.7167 18.1832 12.95 18.3415 13.2334C18.4748 13.5 18.5415 13.7917 18.5332 14.0917C18.5415 14.4834 18.4248 14.875 18.2082 15.2C17.9748 15.5334 17.6498 15.7917 17.2748 15.9417C16.8665 16.1167 16.3665 16.2084 15.7665 16.2084C15.3832 16.2084 15.0082 16.175 14.6332 16.1C14.3415 16.05 14.0498 15.9584 13.7832 15.8334C13.7248 15.8 13.6832 15.7417 13.6915 15.675V14.225C13.6915 14.2 13.6998 14.1667 13.7248 14.15C13.7498 14.1334 13.7748 14.1417 13.7998 14.1584C14.1248 14.35 14.4665 14.4834 14.8332 14.5667C15.1498 14.65 15.4832 14.6917 15.8165 14.6917C16.1332 14.6917 16.3582 14.65 16.5082 14.575C16.6415 14.5167 16.7332 14.375 16.7332 14.225C16.7332 14.1084 16.6665 14 16.5332 13.8917C16.3998 13.7834 16.1248 13.6584 15.7165 13.5C15.2915 13.35 14.8998 13.15 14.5332 12.9C14.2748 12.7167 14.0582 12.475 13.8998 12.1917C13.7665 11.925 13.6998 11.6334 13.7082 11.3417C13.7082 10.9834 13.8082 10.6417 13.9915 10.3334C14.1998 10 14.5082 9.73336 14.8665 9.56669C15.2582 9.36669 15.7498 9.27502 16.3415 9.27502C16.6832 9.27502 17.0332 9.30002 17.3748 9.35002C17.6248 9.38336 17.8665 9.45002 18.0915 9.54169C18.1248 9.55002 18.1582 9.58336 18.1748 9.61669C18.1832 9.65002 18.1915 9.68336 18.1915 9.71669V11.075C18.1915 11.1084 18.1748 11.1417 18.1498 11.1584C18.0748 11.175 18.0332 11.175 17.9998 11.1584Z" fill="#31A8FF"/>
</svg>
