<svg width="24" height="24" viewBox="0 0 24 24" fill="none" xmlns="http://www.w3.org/2000/svg">
<path d="M8.31667 8.86667V11.6667L8.34167 11.6685C8.44885 11.6762 8.54885 11.6833 8.64167 11.6833H9.08333C9.40833 11.6833 9.73333 11.6333 10.0417 11.5333C10.3083 11.4583 10.5417 11.3 10.725 11.0917C10.9 10.8833 10.9833 10.6 10.9833 10.2333C10.9917 9.975 10.925 9.71667 10.7917 9.49167C10.65 9.275 10.45 9.10833 10.2083 9.01667C9.9 8.89167 9.56667 8.84167 9.225 8.85C9.00833 8.85 8.81667 8.85 8.65833 8.85833C8.49167 8.85 8.375 8.85833 8.31667 8.86667Z" fill="#04071E"/>
<path fill-rule="evenodd" clip-rule="evenodd" d="M18.4583 2.25H5.54167C3.58333 2.25 2 3.83333 2 5.79167V18.2083C2 20.1667 3.58333 21.75 5.54167 21.75H18.4583C20.4167 21.75 22 20.1667 22 18.2083V5.79167C22 3.83333 20.4167 2.25 18.4583 2.25ZM6.5 15.925V7.35C6.5 7.29167 6.525 7.25833 6.58333 7.25833C6.725 7.25833 6.85834 7.25833 7.05 7.25C7.153 7.24571 7.2582 7.24363 7.36675 7.24148C7.46899 7.23946 7.57421 7.23737 7.68333 7.23333C7.79971 7.22902 7.92054 7.22694 8.04583 7.22478C8.16277 7.22277 8.28363 7.22069 8.40833 7.21667C8.66667 7.20833 8.91667 7.20833 9.16667 7.20833C9.85 7.20833 10.4167 7.29167 10.8833 7.46667C11.3 7.60833 11.6833 7.84167 12 8.15C12.2667 8.41667 12.475 8.74166 12.6083 9.1C12.7333 9.45 12.8 9.80833 12.8 10.1833C12.8 10.9 12.6333 11.4917 12.3 11.9583C11.9667 12.425 11.5 12.775 10.9583 12.975C10.3917 13.1833 9.76667 13.2583 9.08333 13.2583C8.88333 13.2583 8.75 13.2583 8.66667 13.25C8.58333 13.2417 8.46667 13.2417 8.30833 13.2417V15.9167C8.31667 15.975 8.275 16.025 8.21667 16.0333H6.6C6.53333 16.0333 6.5 16 6.5 15.925ZM17.9998 11.1583C17.7498 11.025 17.4832 10.9333 17.1998 10.875C16.8915 10.8083 16.5832 10.7667 16.2665 10.7667C16.0998 10.7583 15.9248 10.7833 15.7665 10.825C15.6582 10.85 15.5665 10.9083 15.5082 10.9917C15.4665 11.0583 15.4415 11.1417 15.4415 11.2167C15.4415 11.2917 15.4748 11.3667 15.5248 11.4333C15.5998 11.525 15.6998 11.6 15.8082 11.6583C15.9998 11.7583 16.1998 11.85 16.3998 11.9333C16.8498 12.0833 17.2832 12.2917 17.6832 12.5417C17.9582 12.7167 18.1832 12.95 18.3415 13.2333C18.4748 13.5 18.5415 13.7917 18.5332 14.0917C18.5415 14.4833 18.4248 14.875 18.2082 15.2C17.9748 15.5333 17.6498 15.7917 17.2748 15.9417C16.8665 16.1167 16.3665 16.2083 15.7665 16.2083C15.3832 16.2083 15.0082 16.175 14.6332 16.1C14.3415 16.05 14.0498 15.9583 13.7832 15.8333C13.7248 15.8 13.6832 15.7417 13.6915 15.675V14.225C13.6915 14.2 13.6998 14.1667 13.7248 14.15C13.7498 14.1333 13.7748 14.1417 13.7998 14.1583C14.1248 14.35 14.4665 14.4833 14.8332 14.5667C15.1498 14.65 15.4832 14.6917 15.8165 14.6917C16.1332 14.6917 16.3582 14.65 16.5082 14.575C16.6415 14.5167 16.7332 14.375 16.7332 14.225C16.7332 14.1083 16.6665 14 16.5332 13.8917C16.3998 13.7833 16.1248 13.6583 15.7165 13.5C15.2915 13.35 14.8998 13.15 14.5332 12.9C14.2748 12.7167 14.0582 12.475 13.8998 12.1917C13.7665 11.925 13.6998 11.6333 13.7082 11.3417C13.7082 10.9833 13.8082 10.6417 13.9915 10.3333C14.1998 10 14.5082 9.73333 14.8665 9.56667C15.2582 9.36667 15.7498 9.275 16.3415 9.275C16.6832 9.275 17.0332 9.3 17.3748 9.35C17.6248 9.38333 17.8665 9.45 18.0915 9.54167C18.1248 9.55 18.1582 9.58333 18.1748 9.61667C18.1832 9.65 18.1915 9.68333 18.1915 9.71667V11.075C18.1915 11.1083 18.1748 11.1417 18.1498 11.1583C18.0748 11.175 18.0332 11.175 17.9998 11.1583Z" fill="#04071E"/>
</svg>
