<svg width="24" height="24" viewBox="0 0 24 24" fill="none" xmlns="http://www.w3.org/2000/svg">
<path d="M22 19C22 20.6568 20.6568 22 19 22H5C3.3432 22 2 20.6568 2 19V5C2 3.3432 3.3432 2 5 2H19C20.6568 2 22 3.3432 22 5V19Z" fill="#2DC100"/>
<path d="M15.3873 9.4584C13.7729 9.5424 12.3697 10.032 11.2297 11.1376C10.0777 12.2544 9.55212 13.6232 9.69612 15.32C9.06492 15.2416 8.49052 15.156 7.91292 15.1072C7.71292 15.0904 7.47612 15.1144 7.30732 15.2096C6.74652 15.5264 6.20812 15.884 5.57052 16.2824C5.68732 15.7528 5.76332 15.2896 5.89772 14.844C5.99612 14.516 5.95052 14.3344 5.64892 14.1208C3.71132 12.7528 2.89452 10.7056 3.50572 8.5976C4.07052 6.648 5.45932 5.4648 7.34652 4.8488C9.92252 4.0072 12.8169 4.8656 14.3833 6.9104C14.9481 7.6488 15.2953 8.4784 15.3873 9.4584ZM7.95772 8.8016C7.97292 8.416 7.63852 8.0688 7.24172 8.0568C6.83532 8.0448 6.50172 8.3552 6.48972 8.756C6.47772 9.1616 6.78812 9.4872 7.19692 9.4976C7.60252 9.508 7.94252 9.1968 7.95772 8.8016ZM11.8337 8.0568C11.4353 8.064 11.0993 8.4032 11.1057 8.7904C11.1129 9.1912 11.4433 9.5056 11.8529 9.5008C12.2633 9.496 12.5753 9.1784 12.5713 8.7688C12.5681 8.3672 12.2393 8.0496 11.8337 8.0568Z" fill="white"/>
<path d="M19.0137 19.5216C18.5025 19.2944 18.0337 18.9528 17.5345 18.9008C17.0369 18.8488 16.5145 19.136 15.9945 19.1888C14.4097 19.3512 12.9897 18.9096 11.8193 17.8264C9.59286 15.7672 9.91126 12.6096 12.4865 10.9216C14.7761 9.4216 18.1337 9.9216 19.7473 12.0032C21.1561 13.8192 20.9905 16.2296 19.2705 17.7552C18.7729 18.1968 18.5937 18.56 18.9129 19.1424C18.9729 19.2504 18.9793 19.3864 19.0137 19.5216ZM13.1953 13.8888C13.5209 13.8888 13.7889 13.6344 13.8009 13.3128C13.8137 12.9728 13.5401 12.6872 13.1993 12.6856C12.8617 12.684 12.5793 12.9736 12.5913 13.3088C12.6025 13.6296 12.8721 13.888 13.1953 13.8888ZM16.9457 12.6872C16.6297 12.6848 16.3617 12.9432 16.3489 13.2624C16.3353 13.6032 16.6001 13.884 16.9377 13.8848C17.2641 13.8856 17.5225 13.6392 17.5337 13.3144C17.5473 12.972 17.2817 12.6896 16.9457 12.6872Z" fill="white"/>
</svg>
