<svg width="24" height="24" viewBox="0 0 24 24" fill="none" xmlns="http://www.w3.org/2000/svg">
<path d="M7.24172 8.0568C7.63852 8.0688 7.97292 8.416 7.95772 8.8016C7.94252 9.1968 7.60252 9.508 7.19692 9.4976C6.78812 9.4872 6.47772 9.1616 6.48972 8.756C6.50172 8.3552 6.83532 8.0448 7.24172 8.0568Z" fill="#04071E"/>
<path d="M11.1057 8.7904C11.0993 8.4032 11.4353 8.064 11.8337 8.0568C12.2393 8.0496 12.5681 8.3672 12.5713 8.7688C12.5753 9.1784 12.2633 9.496 11.8529 9.5008C11.4433 9.5056 11.1129 9.1912 11.1057 8.7904Z" fill="#04071E"/>
<path d="M13.8009 13.3128C13.7889 13.6344 13.5209 13.8888 13.1953 13.8888C12.8721 13.888 12.6025 13.6296 12.5913 13.3088C12.5793 12.9736 12.8617 12.684 13.1993 12.6856C13.5401 12.6872 13.8137 12.9728 13.8009 13.3128Z" fill="#04071E"/>
<path d="M16.3489 13.2624C16.3617 12.9432 16.6297 12.6848 16.9457 12.6872C17.2817 12.6896 17.5473 12.972 17.5337 13.3144C17.5225 13.6392 17.2641 13.8856 16.9377 13.8848C16.6001 13.884 16.3353 13.6032 16.3489 13.2624Z" fill="#04071E"/>
<path fill-rule="evenodd" clip-rule="evenodd" d="M19 22C20.6568 22 22 20.6568 22 19V5C22 3.3432 20.6568 2 19 2H5C3.3432 2 2 3.3432 2 5V19C2 20.6568 3.3432 22 5 22H19ZM11.2297 11.1376C12.3697 10.032 13.7729 9.5424 15.3873 9.4584C15.2953 8.4784 14.9481 7.6488 14.3833 6.9104C12.8169 4.8656 9.92252 4.0072 7.34652 4.8488C5.45932 5.4648 4.07052 6.648 3.50572 8.5976C2.89452 10.7056 3.71132 12.7528 5.64892 14.1208C5.95052 14.3344 5.99612 14.516 5.89772 14.844C5.80429 15.1537 5.73909 15.472 5.66878 15.8151C5.63794 15.9656 5.60613 16.1209 5.57052 16.2824C5.75368 16.168 5.92865 16.0569 6.09832 15.9492C6.51929 15.6819 6.90761 15.4354 7.30732 15.2096C7.47612 15.1144 7.71292 15.0904 7.91292 15.1072C8.32756 15.1422 8.74056 15.1962 9.1741 15.2529C9.34449 15.2752 9.51804 15.2979 9.69612 15.32C9.55212 13.6232 10.0777 12.2544 11.2297 11.1376ZM18.5496 19.29C18.7017 19.3702 18.8556 19.4514 19.0137 19.5216C19.0025 19.4779 18.9943 19.4341 18.9863 19.3912C18.9695 19.3014 18.9534 19.2154 18.9129 19.1424C18.5937 18.56 18.7729 18.1968 19.2705 17.7552C20.9905 16.2296 21.1561 13.8192 19.7473 12.0032C18.1337 9.9216 14.7761 9.4216 12.4865 10.9216C9.91126 12.6096 9.59286 15.7672 11.8193 17.8264C12.9897 18.9096 14.4097 19.3512 15.9945 19.1888C16.2093 19.167 16.4245 19.1052 16.6382 19.0438C16.9418 18.9566 17.2424 18.8703 17.5345 18.9008C17.8793 18.9367 18.2097 19.1109 18.5496 19.29Z" fill="#04071E"/>
</svg>
