<svg width="24" height="24" viewBox="0 0 24 24" fill="none" xmlns="http://www.w3.org/2000/svg">
<path d="M6.36528 2.31985C5.58283 1.88738 4.66413 1.89738 3.88667 2.3261L12.9987 10.7319L16.0597 7.67081L6.36528 2.31985ZM2.97547 3.18606C2.75298 3.54979 2.62549 3.96601 2.62549 4.40724V19.5889C2.62549 20.0164 2.74173 20.4239 2.95172 20.7801L12.115 11.6168L2.97547 3.18606ZM20.1183 9.91069L17.1984 8.29952L13.9174 11.5793L17.9384 15.2879L20.1195 14.0842C20.9045 13.6492 21.3745 12.8693 21.3745 11.9968C21.3732 11.1244 20.9045 10.3444 20.1183 9.91069ZM13.0337 12.4643L3.84542 21.6525C4.24415 21.88 4.68162 22 5.1216 22C5.54658 22 5.97405 21.8925 6.36528 21.6763L16.786 15.9254L13.0337 12.4643Z" fill="#04071E"/>
</svg>
