<svg width="24" height="24" viewBox="0 0 24 24" fill="none" xmlns="http://www.w3.org/2000/svg">
<path d="M11.2733 11.5496L2.82618 20.3996C2.92103 20.7357 3.09149 21.0458 3.32453 21.306C3.55757 21.5662 3.84701 21.7697 4.17074 21.9009C4.49447 22.032 4.84391 22.0875 5.19235 22.0629C5.54079 22.0384 5.879 21.9345 6.18113 21.7592L15.6858 16.3459L11.2733 11.5496Z" fill="#EA4335"/>
<path d="M19.8148 10.045L15.7045 7.69092L11.078 11.7508L15.7234 16.3332L19.8022 14.0043C20.1635 13.8151 20.4662 13.5306 20.6774 13.1816C20.8886 12.8326 21.0002 12.4325 21.0002 12.0247C21.0002 11.6168 20.8886 11.2167 20.6774 10.8677C20.4662 10.5187 20.1635 10.2342 19.8022 10.045H19.8148Z" fill="#FBBC04"/>
<path d="M2.82605 3.60596C2.77499 3.79472 2.74958 3.9895 2.75051 4.18505V19.8205C2.75102 20.0159 2.77641 20.2105 2.82605 20.3996L11.5628 11.7762L2.82605 3.60596Z" fill="#4285F4"/>
<path d="M11.3363 12.0025L15.7046 7.69083L6.2126 2.25242C5.8555 2.04328 5.44936 1.93251 5.03553 1.9314C4.53574 1.93041 4.04933 2.09287 3.65046 2.39402C3.25158 2.69517 2.96211 3.11848 2.82618 3.59943L11.3363 12.0025Z" fill="#34A853"/>
</svg>
