<svg width="24" height="24" viewBox="0 0 24 24" fill="none" xmlns="http://www.w3.org/2000/svg">
<g clip-path="url(#clip0_114_754)">
<path fill-rule="evenodd" clip-rule="evenodd" d="M23.7866 16.9158C23.3177 17.5073 22.1691 17.9293 22.1691 17.9293L13.6242 20.9985V18.735L19.9126 16.4944C20.6263 16.2387 20.7358 15.8773 20.1558 15.6876C19.5768 15.4973 18.5285 15.5518 17.8143 15.8086L13.6242 17.2843V14.9352L13.8657 14.8535C13.8657 14.8535 15.0765 14.425 16.779 14.2363C18.4816 14.0488 20.5663 14.262 22.2029 14.8824C24.0471 15.4651 24.2548 16.3243 23.7866 16.9158ZM14.4376 13.0615V7.27299C14.4376 6.59318 14.3122 5.96733 13.6744 5.79015C13.1859 5.63369 12.8828 6.08727 12.8828 6.76654V21.2624L8.97342 20.0216V2.73779C10.6356 3.04635 13.0572 3.77578 14.3591 4.21464C17.6698 5.3513 18.7923 6.76599 18.7923 9.95355C18.7923 13.0604 16.8745 14.238 14.4376 13.0615ZM1.80019 18.4984C-0.0931612 17.9653 -0.408265 16.8542 0.454726 16.2142C1.2523 15.6232 2.60866 15.1784 2.60866 15.1784L8.21401 13.1853V15.4575L4.18036 16.9011C3.46783 17.1568 3.35826 17.5188 3.93722 17.7085C4.51673 17.8982 5.56562 17.8442 6.27923 17.588L8.21401 16.8858V18.9187C8.09135 18.9405 7.95452 18.9623 7.82804 18.9836C5.89271 19.2998 3.83146 19.1679 1.80019 18.4984ZM22.5414 19.3985C22.7862 19.3985 23.0157 19.4933 23.1885 19.6683C23.3613 19.8406 23.4567 20.0707 23.4567 20.3149C23.4567 20.5602 23.3613 20.7892 23.1885 20.9615C23.0157 21.1354 22.7862 21.2302 22.5414 21.2302C22.2966 21.2302 22.0677 21.1354 21.8943 20.9615C21.7215 20.7892 21.6266 20.5602 21.6266 20.3149C21.6266 19.8101 22.0366 19.3985 22.5414 19.3985ZM21.7804 20.3149C21.7804 20.5182 21.8594 20.7096 22.0033 20.8524C22.1467 20.9974 22.3386 21.0759 22.5414 21.0759C22.9617 21.0759 23.3025 20.7347 23.3025 20.3149C23.3025 20.111 23.2239 19.9197 23.0795 19.7763C22.9361 19.6313 22.7442 19.5533 22.5414 19.5533C22.3386 19.5533 22.1467 19.6313 22.0033 19.7763C21.8594 19.9197 21.7804 20.111 21.7804 20.3149ZM22.8178 19.8215C22.9181 19.8657 22.9688 19.9507 22.9688 20.0718C22.9688 20.1339 22.9557 20.1862 22.929 20.2271C22.9099 20.2566 22.8827 20.2806 22.8521 20.3013C22.8761 20.3154 22.8974 20.3323 22.9132 20.352C22.935 20.3803 22.9476 20.4256 22.9492 20.4872L22.9541 20.6175C22.9557 20.6524 22.9579 20.6791 22.9634 20.6954C22.9688 20.7194 22.9792 20.7347 22.9923 20.7396L23.0059 20.7461V20.8055H22.8085L22.802 20.7941C22.7965 20.7832 22.7927 20.7707 22.7889 20.7543C22.7862 20.7396 22.7835 20.714 22.7818 20.6747L22.7736 20.5128C22.7715 20.4566 22.7524 20.4218 22.7164 20.4032C22.694 20.3929 22.657 20.388 22.6068 20.388H22.3293V20.8056H22.1522V19.7866H22.6254C22.7028 19.7866 22.7676 19.7981 22.8178 19.8215ZM22.3293 20.232H22.6117C22.6684 20.232 22.7137 20.2217 22.7458 20.2004C22.7753 20.1792 22.7895 20.1404 22.7895 20.0843C22.7895 20.0232 22.7693 19.9834 22.7268 19.9622C22.7033 19.9507 22.6706 19.9442 22.6292 19.9442H22.3293V20.232Z" fill="#04071E"/>
</g>
<defs>
<clipPath id="clip0_114_754">
<rect width="24" height="24" fill="white"/>
</clipPath>
</defs>
</svg>
