<svg width="24" height="24" viewBox="0 0 24 24" fill="none" xmlns="http://www.w3.org/2000/svg">
<path d="M12.0324 14.6973C14.2647 14.6973 16.0473 12.8836 16.0473 10.6669V10.5429H14.6212V10.6669C14.6212 12.1085 13.4431 13.2866 12.0014 13.2866C10.5598 13.2866 9.38168 12.1085 9.38168 10.6669V10.5429H7.95553V10.6979C7.97104 12.9301 9.78472 14.7128 12.0014 14.6973H12.0324Z" fill="#04071E"/>
<path fill-rule="evenodd" clip-rule="evenodd" d="M15.0399 2.017H8.97875C6.97905 2.017 5.97145 2.017 4.90184 2.35803C3.72373 2.79208 2.79363 3.72217 2.35959 4.90029C2.01855 5.9699 2.01855 6.9775 2.01855 8.9772V15.0228C2.01855 17.0225 2.01855 18.0301 2.35959 19.1152C2.79363 20.2933 3.72373 21.2234 4.90184 21.642C5.98695 21.983 6.99455 21.983 8.99426 21.983H15.0399C17.0551 21.983 18.0472 21.983 19.1323 21.642C20.2949 21.2234 21.225 20.2933 21.659 19.1152C22.0001 18.0301 22.0001 17.0225 22.0001 15.0228V8.9772C22.0001 6.962 22.0001 5.9699 21.659 4.88479C21.2405 3.72217 20.3104 2.79208 19.1323 2.35803C18.0472 2.017 17.0396 2.017 15.0399 2.017ZM12.0014 8.79118C12.6215 7.47355 13.9546 6.65197 15.3963 6.69847C17.427 6.69847 19.1787 8.40364 19.1787 10.5119C19.1787 14.6043 15.2413 17.9371 12.0014 17.9371C8.76162 17.9371 4.82422 14.6198 4.82422 10.5119C4.83972 8.41914 6.51389 6.72947 8.6066 6.69847C10.0482 6.65197 11.3814 7.47355 12.0014 8.79118Z" fill="#04071E"/>
</svg>
