<svg width="24" height="24" viewBox="0 0 24 24" fill="none" xmlns="http://www.w3.org/2000/svg">
<path d="M10.8293 7.64451L12.2852 7.19371C12.2898 6.8147 12.2486 6.25363 12.0587 5.85788C11.8568 5.94118 11.6863 6.08703 11.5644 6.21778C11.2368 6.56924 10.9702 7.10569 10.8293 7.64451Z" fill="black"/>
<path d="M11.7631 5.4914C11.6473 5.41516 11.5116 5.37981 11.3505 5.38316C10.2915 5.41364 9.36766 7.06764 9.13188 8.17011L10.3276 7.79988C10.4607 7.09979 10.7945 6.37384 11.2304 5.9063C11.3985 5.72597 11.5778 5.58761 11.7631 5.4914Z" fill="black"/>
<path d="M10.7248 12.3956C10.3464 12.1529 10.0336 11.9523 10.0153 11.6621C10.0068 11.5275 10.0158 10.9906 10.8669 10.9368C11.4474 10.9002 11.937 11.1232 11.937 11.1232L12.376 9.48108C12.376 9.48108 11.9973 9.29224 11.2577 9.33894C9.33812 9.46017 8.4682 10.8023 8.55185 12.1271C8.60767 13.0113 9.12861 13.381 9.58521 13.7051C9.9414 13.9579 10.2584 14.1829 10.2849 14.6027C10.2996 14.8342 10.1558 15.1615 9.75334 15.1869C9.13726 15.2258 8.36761 14.6451 8.36761 14.6451L8.07331 15.8973C8.07331 15.8973 8.83812 16.7168 10.227 16.6292C11.3844 16.5561 12.1877 15.6304 12.1022 14.2771C12.0366 13.2367 11.3039 12.7669 10.7248 12.3956Z" fill="black"/>
<path d="M12.5329 5.80392C12.6948 6.22172 12.7363 6.70502 12.7413 7.05247L13.4181 6.84291C13.3099 6.49168 13.0536 5.9026 12.5329 5.80392Z" fill="black"/>
<path fill-rule="evenodd" clip-rule="evenodd" d="M4.16105 22.0001H19.8389C21.0324 22.0001 22 21.0325 22 19.8389V4.16111C22 2.96758 21.0324 2 19.8389 2H4.16105C2.96752 2 1.99994 2.96758 1.99994 4.16111V19.839C1.99994 21.0325 2.96752 22.0001 4.16105 22.0001ZM13.8549 6.70767L14.2786 6.57654C14.3024 6.56951 14.3405 6.56159 14.3831 6.55886V19.074L5.75043 17.5811C5.75043 17.5811 6.79078 9.53528 6.83026 9.25166C6.88239 8.87698 6.89487 8.8645 7.29254 8.73972L8.64338 8.32134C8.72762 7.71915 9.02392 6.94111 9.41393 6.32176C9.96801 5.44177 10.6511 4.94625 11.3373 4.92659C11.6928 4.91617 11.9898 5.03677 12.2211 5.28433C12.2377 5.30212 12.2535 5.32077 12.2691 5.33958L12.2738 5.33915C12.309 5.33597 12.3441 5.33279 12.3794 5.33279H12.3812C12.9124 5.33357 13.352 5.63673 13.6522 6.20947C13.7453 6.38703 13.8106 6.56378 13.8549 6.70767ZM18.2498 18.1498L14.6685 19.0399V6.69534C14.8995 6.92121 15.5142 7.51821 15.5142 7.51821C15.5142 7.51821 16.5224 7.53359 16.574 7.53788C16.6257 7.54221 16.6883 7.58173 16.6981 7.65325C16.7079 7.72477 18.2498 18.1498 18.2498 18.1498Z" fill="black"/>
</svg>
