<svg width="24" height="24" viewBox="0 0 24 24" fill="none" xmlns="http://www.w3.org/2000/svg">
<path d="M11.2633 1.84704C11.4184 1.84704 11.4959 1.92515 11.651 2.00325C10.7204 2.39377 9.7898 3.40913 9.32449 5.59605L7.61837 6.06468C8.16122 4.50259 9.24694 1.84704 11.2633 1.84704ZM12.1163 2.62808C12.2714 3.09671 12.4265 3.64344 12.4265 4.50259C12.4265 4.58069 12.4265 4.58069 12.4265 4.6588L10.1776 5.28363C10.6429 3.64344 11.4184 2.9405 12.1163 2.62808ZM14.1327 4.03396L13.1245 4.34638C13.1245 4.26828 13.1245 4.19017 13.1245 4.11207C13.1245 3.40913 13.0469 2.8624 12.8918 2.39377C13.4347 2.54998 13.9 3.25292 14.1327 4.03396ZM19.1735 5.28363C19.1735 5.20553 19.0959 5.12742 19.0184 5.12742C18.8633 5.12742 17.2347 4.97122 17.2347 4.97122C17.2347 4.97122 16.0714 3.79965 15.9163 3.72155C15.7612 3.56534 15.5286 3.64344 15.451 3.64344C15.451 3.64344 15.2184 3.72155 14.8306 3.87775C14.4429 2.78429 13.7449 1.76894 12.5816 1.76894H12.5041C12.1939 1.30031 11.7286 1.1441 11.3408 1.1441C8.54898 1.066 7.23061 4.58069 6.76531 6.37709C6.1449 6.5333 5.52449 6.76761 4.82653 7.00193C4.20612 7.15814 4.20612 7.23624 4.12857 7.78297C4.05102 8.17349 2.5 20.514 2.5 20.514L14.8306 22.8571L21.5 21.3731C21.5 21.3731 19.1735 5.43984 19.1735 5.28363Z" fill="#8DB849"/>
<path d="M18.9408 5.12741C18.8632 5.12741 17.2346 4.97121 17.2346 4.97121C17.2346 4.97121 16.0714 3.79964 15.9163 3.72154C15.8387 3.64343 15.8387 3.64343 15.7612 3.64343L14.8306 22.8571L21.5 21.3731C21.5 21.3731 19.1734 5.43983 19.1734 5.28362C19.1734 5.20552 19.0183 5.12741 18.9408 5.12741Z" fill="#5A863E"/>
<path d="M12.5814 8.87646L11.7283 11.3758C11.7283 11.3758 11.0304 10.9853 10.0998 10.9853C8.78139 10.9853 8.70383 11.7663 8.70383 12.0006C8.70383 13.0941 11.6508 13.5627 11.6508 16.2183C11.6508 18.3271 10.3324 19.6549 8.54873 19.6549C6.45486 19.6549 5.36914 18.3271 5.36914 18.3271L5.912 16.4526C5.912 16.4526 6.99771 17.3898 7.92832 17.3898C8.54873 17.3898 8.78139 16.9212 8.78139 16.5307C8.78139 15.0467 6.3773 14.9686 6.3773 12.5474C6.3773 10.5166 7.85077 8.56404 10.7202 8.56404C12.0385 8.48593 12.5814 8.87646 12.5814 8.87646Z" fill="#FFFFFE"/>
</svg>
