<svg width="24" height="24" viewBox="0 0 24 24" fill="none" xmlns="http://www.w3.org/2000/svg">
<path d="M15.2812 4.11419L14.6711 4.30487C14.6073 4.09564 14.5132 3.83865 14.3791 3.58047C13.9467 2.74771 13.3138 2.3069 12.5488 2.30577H12.5462C12.4931 2.30577 12.4403 2.31082 12.3874 2.31564C12.3649 2.28829 12.3422 2.26118 12.3182 2.23531C11.9851 1.87535 11.5574 1.69999 11.0455 1.71514C10.0573 1.74373 9.07362 2.46422 8.27571 3.74374C7.71406 4.64429 7.28737 5.77557 7.16606 6.65117C6.03164 7.00585 5.23788 7.25405 5.22075 7.2595C4.64809 7.44092 4.63011 7.45908 4.55504 8.00387C4.49818 8.41625 3 20.115 3 20.115L15.4317 22.2857V4.0885C15.3703 4.09247 15.3155 4.10398 15.2812 4.11419ZM12.4105 5.01157C11.7117 5.23004 11.0128 5.44853 10.314 5.66705C10.5169 4.88359 10.9008 4.10359 11.3726 3.59255C11.5481 3.40244 11.7937 3.19038 12.0844 3.06926C12.3579 3.64469 12.4172 4.46048 12.4105 5.01157ZM11.0645 2.37901C11.2965 2.37413 11.4919 2.42553 11.6587 2.53638C11.3919 2.67628 11.1337 2.87745 10.8915 3.13966C10.2638 3.81947 9.7831 4.87502 9.59139 5.89295L7.86953 6.43128C8.20907 4.82827 9.53942 2.42331 11.0645 2.37901ZM9.14172 11.5087C9.20847 12.5765 11.9907 12.8098 12.1471 15.3109C12.2701 17.2786 11.1134 18.6246 9.4466 18.7309C7.4465 18.8583 6.34511 17.6667 6.34511 17.6667L6.76893 15.8461C6.76893 15.8461 7.87728 16.6904 8.76448 16.6339C9.344 16.5969 9.5511 16.121 9.53003 15.7844C9.44294 14.3915 7.17736 14.4735 7.03425 12.1847C6.91378 10.2585 8.16654 8.30704 10.9308 8.13078C11.9959 8.06287 12.5413 8.33745 12.5413 8.33745L11.9092 10.725C11.9092 10.725 11.2041 10.4009 10.3681 10.4542C9.14251 10.5324 9.12953 11.313 9.14172 11.5087ZM13.0674 4.8062C13.0601 4.30101 13.0004 3.59828 12.7673 2.9908C13.517 3.13427 13.8862 3.9908 14.042 4.5015C13.7531 4.59187 13.4239 4.69473 13.0674 4.8062ZM15.8427 22.2362L21 20.9419C21 20.9419 18.7795 5.78374 18.7654 5.67975C18.7513 5.57577 18.6611 5.5183 18.5868 5.512C18.5124 5.50576 17.0605 5.48341 17.0605 5.48341C17.0605 5.48341 16.1753 4.61536 15.8427 4.28694V22.2362Z" fill="#04071E"/>
</svg>
