<svg width="24" height="24" viewBox="0 0 24 24" fill="none" xmlns="http://www.w3.org/2000/svg">
<path d="M11.0669 15.2233L9.41614 15.2217V13.2479C9.41614 12.8262 9.57973 12.6067 9.94062 12.5565H11.0669C11.87 12.5565 12.3896 13.0629 12.3896 13.8825C12.3896 14.7243 11.8832 15.2225 11.0669 15.2233Z" fill="#04071E"/>
<path d="M9.41614 9.38003C9.41614 8.92543 9.6085 8.70922 10.0302 8.68127H10.8753C11.5996 8.68127 12.0336 9.1145 12.0336 9.8404C12.0336 10.3928 11.736 11.0382 10.9016 11.0382H9.41614V9.38003Z" fill="#04071E"/>
<path fill-rule="evenodd" clip-rule="evenodd" d="M22.2474 5.80443C22.2474 3.68045 20.5222 1.95605 18.3983 1.95605H5.60157C3.47762 1.95605 1.75244 3.68045 1.75244 5.80443V18.1516C1.75244 20.275 3.47762 22 5.60158 22H18.3983C20.5222 22 22.2474 20.275 22.2474 18.1516L22.2474 5.80443ZM13.1747 11.8693L12.8763 11.7016L13.1369 11.4788C13.4402 11.2182 13.9482 10.6321 13.9482 9.6209C13.9482 8.07211 12.7472 7.07329 10.8885 7.07329H8.76752L8.52583 7.07247C7.97504 7.09302 7.53359 7.54105 7.52783 8.09514V16.8831H10.9304C12.9963 16.8831 14.3297 15.7585 14.3297 14.0165C14.3297 13.0785 13.8989 12.277 13.1747 11.8693ZM16.4248 14.4547C15.7578 14.4547 15.2163 14.9978 15.2163 15.6691C15.2163 16.3396 15.7577 16.8836 16.4248 16.8836C17.0936 16.8836 17.6376 16.3396 17.6376 15.6691C17.6376 14.9978 17.0936 14.4547 16.4248 14.4547Z" fill="#04071E"/>
</svg>
