<svg width="24" height="24" viewBox="0 0 24 24" fill="none" xmlns="http://www.w3.org/2000/svg">
<path d="M12 22C17.5228 22 22 17.5228 22 12C22 6.47715 17.5228 2 12 2C6.47715 2 2 6.47715 2 12C2 17.5228 6.47715 22 12 22Z" fill="#4A8CFF"/>
<path d="M5.58398 8.86919V13.5686C5.58645 14.0783 5.79118 14.5662 6.15318 14.925C6.51519 15.2838 7.00485 15.4843 7.51455 15.4822H14.3647C14.4573 15.4827 14.5463 15.4464 14.6122 15.3813C14.678 15.3162 14.7154 15.2277 14.7161 15.1351V10.4357C14.7136 9.92595 14.5089 9.43808 14.1469 9.07925C13.7849 8.72042 13.2952 8.52 12.7855 8.52202H5.9375C5.89147 8.52152 5.84579 8.53011 5.80309 8.5473C5.76039 8.56449 5.7215 8.58994 5.68865 8.6222C5.65581 8.65445 5.62966 8.69287 5.61169 8.73526C5.59373 8.77764 5.58432 8.82316 5.58398 8.86919ZM15.1521 10.7024L17.9803 8.63633C18.2258 8.43269 18.4163 8.48392 18.4163 8.85225V15.152C18.4163 15.5711 18.1835 15.5203 17.9803 15.3675L15.1521 13.3061V10.7024Z" fill="white"/>
</svg>
