<svg width="24" height="24" viewBox="0 0 24 24" fill="none" xmlns="http://www.w3.org/2000/svg">
<path fill-rule="evenodd" clip-rule="evenodd" d="M20.1964 1.99573H3.81086C2.81045 1.99573 1.99951 2.80667 1.99951 3.80707V20.185C1.99951 21.193 2.81045 22.0039 3.81086 22.0039H20.1888C21.1892 22.0039 22.0001 21.193 22.0001 20.1926V3.80707C22.0077 2.80667 21.1968 1.99573 20.1964 1.99573ZM8.68357 8.29374C9.35051 8.29374 9.90377 7.7708 9.90377 7.08871C9.90377 6.40661 9.34294 5.88367 8.68357 5.88367C8.01664 5.88367 7.46338 6.40661 7.46338 7.08871C7.46338 7.7708 8.02421 8.29374 8.68357 8.29374ZM6.04621 15.6452C6.04621 15.38 6.08411 15.0465 6.15231 14.7434L7.06178 10.9994H5.64453L6.07653 9.40784H9.49459L8.14555 14.7585C8.05461 15.1071 8.01671 15.3876 8.01671 15.5846C8.01671 15.9257 8.18345 16.0242 8.44871 16.0848C8.60786 16.1151 9.88111 16.0924 10.5784 14.5463L11.4651 10.9994H10.0251L10.4571 9.40784H13.5341L13.14 11.2116C13.6781 10.2036 14.7543 9.24869 15.8154 9.24869C16.9522 9.24869 17.8844 10.052 17.8844 11.5981C17.8844 11.9922 17.8313 12.4242 17.6873 12.9093L17.1113 14.9783C17.0583 15.1981 17.0204 15.38 17.0204 15.5391C17.0204 15.8953 17.1644 16.0772 17.4372 16.0772C17.7101 16.0772 18.0511 15.8802 18.4452 14.7813L19.2334 15.0844C18.7635 16.7214 17.9223 17.4035 16.8612 17.4035C15.6183 17.4035 15.0272 16.6684 15.0272 15.6604C15.0272 15.3724 15.0651 15.0617 15.156 14.7585L15.7471 12.6364C15.8229 12.4091 15.8381 12.1893 15.8381 11.9922C15.8381 11.3101 15.4288 10.8933 14.7619 10.8933C13.9131 10.8933 13.3598 11.4996 13.0718 12.6668L11.9198 17.2823H9.90385L10.2676 15.8347C9.67648 16.8124 8.85797 17.4111 7.8424 17.4111C6.6222 17.4111 6.04621 16.7063 6.04621 15.6452Z" fill="#04071E"/>
</svg>
