<svg width="24" height="24" viewBox="0 0 24 24" fill="none" xmlns="http://www.w3.org/2000/svg">
<path d="M20.1964 1.99573H3.81086C2.81045 1.99573 1.99951 2.80667 1.99951 3.80707V20.185C1.99951 21.193 2.81045 22.0039 3.81086 22.0039H20.1888C21.1892 22.0039 22.0001 21.193 22.0001 20.1926V3.80707C22.0077 2.80667 21.1968 1.99573 20.1964 1.99573Z" fill="#FF3366"/>
<path d="M8.68357 8.29374C9.35051 8.29374 9.90377 7.7708 9.90377 7.08871C9.90377 6.40661 9.34294 5.88367 8.68357 5.88367C8.01664 5.88367 7.46338 6.40661 7.46338 7.08871C7.46338 7.7708 8.02421 8.29374 8.68357 8.29374Z" fill="white"/>
<path d="M6.15231 14.7433C6.08411 15.0465 6.04621 15.38 6.04621 15.6452C6.04621 16.7063 6.6222 17.4111 7.8424 17.4111C8.85797 17.4111 9.67648 16.8124 10.2676 15.8347L9.90385 17.2822H11.9198L13.0718 12.6667C13.3598 11.4996 13.9131 10.8933 14.7619 10.8933C15.4288 10.8933 15.8381 11.3101 15.8381 11.9922C15.8381 12.1893 15.8229 12.409 15.7471 12.6364L15.156 14.7585C15.0651 15.0616 15.0272 15.3724 15.0272 15.6604C15.0272 16.6684 15.6183 17.4035 16.8612 17.4035C17.9223 17.4035 18.7635 16.7214 19.2334 15.0844L18.4452 14.7812C18.0511 15.8802 17.7101 16.0772 17.4372 16.0772C17.1644 16.0772 17.0204 15.8953 17.0204 15.5391C17.0204 15.38 17.0583 15.1981 17.1113 14.9783L17.6873 12.9092C17.8313 12.4242 17.8844 11.9922 17.8844 11.5981C17.8844 10.052 16.9522 9.24866 15.8154 9.24866C14.7543 9.24866 13.6781 10.2036 13.14 11.2116L13.5341 9.40781H10.4571L10.0251 10.9994H11.4651L10.5784 14.5463C9.88111 16.0924 8.60786 16.1151 8.44871 16.0848C8.18345 16.0242 8.01671 15.9256 8.01671 15.5846C8.01671 15.3875 8.05461 15.1071 8.14555 14.7585L9.49459 9.40781H6.07653L5.64453 10.9994H7.06178L6.15231 14.7433Z" fill="white"/>
</svg>
