<svg width="24" height="24" viewBox="0 0 24 24" fill="none" xmlns="http://www.w3.org/2000/svg">
<path d="M12 22C17.5229 22 22 17.5229 22 12C22 6.47715 17.5229 2 12 2C6.47715 2 2 6.47715 2 12C2 17.5229 6.47715 22 12 22Z" fill="black"/>
<path fill-rule="evenodd" clip-rule="evenodd" d="M16.5116 16.7363V15.1797C16.5116 14.8691 16.3417 14.7129 16.0604 14.7129C15.7264 14.7129 15.451 14.9609 15.4393 15.2617V16.7344H14.8749V15.1777C14.8749 14.8672 14.705 14.7109 14.4237 14.7109C14.0897 14.7109 13.8143 14.959 13.8026 15.2598V16.7324H13.2382V14.2988H13.746L13.8026 14.5059L13.83 14.5312L13.8573 14.5059C13.9706 14.3496 14.2518 14.2461 14.4784 14.2461C14.8846 14.2461 15.1776 14.4062 15.326 14.6602L15.4667 14.5039C15.6073 14.3477 15.8905 14.2441 16.1151 14.2441C16.7362 14.2441 17.0761 14.6074 17.0761 15.125V16.7324H16.5116V16.7363ZM7.19324 16.6094L16.662 7.14063L16.8593 7.33789L7.3905 16.8066L7.19324 16.6094ZM7.9198 9.15625H7.81628V10.8359H7.2616V6.92383H8.60925C9.21472 6.92383 9.74597 7.32617 9.74597 8.02148C9.74597 8.69141 9.17957 9.11914 8.5741 9.11914L9.82019 10.7266V10.834H9.18738L7.9198 9.15625ZM8.6405 8.60156C8.94519 8.60156 9.22449 8.38867 9.22449 8.04297C9.22449 7.69727 8.94519 7.48437 8.6405 7.48437H7.828V8.60156H8.6405Z" fill="white"/>
</svg>
