<svg width="24" height="24" viewBox="0 0 24 24" fill="none" xmlns="http://www.w3.org/2000/svg">
<path d="M11.8443 1.51963C11.7323 1.5657 11.4174 1.90054 11.4174 1.97685C11.4174 2.00229 10.9244 3.04875 10.32 4.29873C9.71565 5.54871 9.19724 6.64055 9.16698 6.72718C9.14154 6.80831 9.09548 6.90525 9.07554 6.93551C9.0501 6.96576 8.90777 7.24009 8.75582 7.54537C8.59356 7.8809 8.4203 8.16004 8.32404 8.23636C8.09027 8.43438 8.24772 8.41444 3.5689 8.93767C1.45536 9.17625 1.22159 9.212 1.09508 9.32889C1.00363 9.41002 0.967881 9.70498 1.03389 9.87756C1.05451 9.92294 1.96346 10.7872 3.05599 11.7979C6.51027 14.9882 6.28681 14.7647 6.28681 15.0033C6.28681 15.1202 6.21599 15.5416 6.13417 15.948C6.04754 16.3543 5.85503 17.3705 5.69758 18.2087C5.54013 19.0468 5.35724 20.0073 5.29123 20.3422C4.94058 22.1305 4.93576 22.1814 5.11865 22.3746C5.29123 22.5575 5.48925 22.5368 6.01248 22.2728C6.49995 22.0239 6.54602 21.9985 7.50585 21.4347C7.8565 21.2312 8.31373 20.9671 8.52206 20.8503C8.73039 20.7334 9.1161 20.5051 9.37531 20.3477C9.63452 20.1902 9.85798 20.063 9.8731 20.063C9.88342 20.063 10.0409 19.9716 10.2183 19.8595C10.3956 19.7474 10.5586 19.6567 10.5792 19.6567C10.5998 19.6567 10.7827 19.5549 10.9856 19.4284C11.4682 19.1286 11.8849 18.976 12.1235 19.022C12.2252 19.0427 12.4686 19.1389 12.6618 19.2455C13.1699 19.515 16.3705 21.3591 17.3661 21.9531C18.2145 22.4612 18.4634 22.5575 18.7529 22.4811C18.9461 22.4351 19.0018 22.1559 18.9358 21.6024C18.9055 21.3535 18.8595 21.0737 18.834 20.9775C18.7935 20.8152 18.6257 19.9159 18.2193 17.66C18.0316 16.5881 18.0316 16.5675 18.4531 16.41C19.0375 16.1914 19.3119 15.9989 19.2053 15.8916C19.1695 15.8559 18.8443 15.8971 18.1691 16.0188C16.9144 16.2471 16.6552 16.2828 15.3295 16.4052C13.821 16.5475 12.4287 16.5778 10.5689 16.5118C9.1161 16.4609 7.38896 16.3337 7.29202 16.2732C7.2157 16.2223 7.25145 16.0649 7.36834 15.9631C7.42953 15.9074 8.20165 15.3533 9.08035 14.729C11.834 12.7784 13.6223 11.4878 13.7695 11.3503C14.0232 11.1117 14.0033 11.1014 12.9465 10.9639C11.275 10.7508 10.8384 10.715 8.11502 10.5878C7.20539 10.5472 6.38238 10.4964 6.28612 10.4812C5.29054 10.3135 10.3654 9.85624 12.5092 9.92225C13.9166 9.96281 15.5729 10.0797 16.5479 10.2069C17.4575 10.3286 17.5132 10.3389 17.5132 10.4407C17.5132 10.5218 17.417 10.5933 15.278 12.066C14.3993 12.6759 13.4642 13.3208 13.2002 13.5037C12.941 13.6866 12.6721 13.8743 12.6109 13.9149C12.3263 14.1081 11.3713 14.7736 11.1073 14.9662C10.9395 15.0879 10.8075 15.2199 10.8075 15.2611C10.8075 15.3574 11.0564 15.4186 11.8237 15.51C13.8609 15.7486 17.6507 15.8806 17.8185 15.7135C17.8542 15.6778 17.8487 15.5664 17.7931 15.3326C17.7525 15.1545 17.7167 14.9868 17.7167 14.962C17.7167 14.8905 18.5803 14.027 19.7739 12.9097C22.9284 9.95319 22.9999 9.88168 22.9999 9.64791C22.9999 9.4444 22.8322 9.26151 22.5833 9.201C22.4616 9.17075 21.7348 9.08893 20.9675 9.0133C20.2002 8.94179 19.3517 8.86066 19.0877 8.83522C18.8237 8.80497 18.2647 8.74859 17.8432 8.70321C16.233 8.54095 15.74 8.47976 15.6231 8.42406C15.3997 8.32231 15.1913 7.90565 13.6519 4.44105C12.5546 1.96173 12.4583 1.76371 12.3057 1.62689C12.1792 1.51 11.9811 1.46463 11.8436 1.52032L11.8443 1.51963Z" fill="#04071E"/>
</svg>
