<svg width="24" height="24" viewBox="0 0 24 24" fill="none" xmlns="http://www.w3.org/2000/svg">
<path fill-rule="evenodd" clip-rule="evenodd" d="M8.14471 9.87256C12.4356 8.42491 13.166 4.65387 12.6182 1.18666C12.6182 1.06156 12.7278 0.972198 12.8373 1.00794C16.9457 2.97389 21.5652 7.26322 21.5652 13.6972C21.5652 18.63 17.6578 22.9908 11.9791 22.9908C9.95285 23.081 7.95357 22.5081 6.29686 21.3626C4.64015 20.217 3.42036 18.5641 2.83002 16.6646C2.23968 14.7652 2.31241 12.7274 3.03673 10.8729C3.76105 9.01839 5.0957 7.4528 6.83004 6.42322C6.9396 6.35174 7.08567 6.42322 7.08567 6.54833C7.14045 7.2096 7.32304 8.87172 8.07167 9.87256H8.14471Z" fill="#04071E"/>
</svg>
