<svg width="24" height="24" viewBox="0 0 24 24" fill="none" xmlns="http://www.w3.org/2000/svg">
<path d="M23.0001 12.1126L22.9993 12L22.9995 11.8853C22.9832 6.30406 18.4628 1.78363 12.8816 1.76733H12.653C9.55347 1.77638 6.78113 3.17455 4.92569 5.37207H11.318C12.3882 5.37207 13.2558 6.23967 13.2558 7.30988V16.6901C13.2558 17.7603 12.3882 18.6279 11.318 18.6279H4.92657C6.78239 20.8255 9.55514 22.2237 12.655 22.2326H12.8801C18.4626 22.2165 22.9841 17.695 23.0001 12.1126Z" fill="#04071E"/>
<path d="M6.51256 11.9525H5.4668V9.83898H6.55145C7.35026 9.83898 7.74968 10.1826 7.74968 10.8699C7.76991 11.1718 7.65545 11.4673 7.43707 11.6767C7.17304 11.8787 6.84409 11.9769 6.51256 11.9525Z" fill="#04071E"/>
<path fill-rule="evenodd" clip-rule="evenodd" d="M11.318 17.6279C11.8359 17.6279 12.2558 17.208 12.2558 16.6901V7.30988C12.2558 6.79195 11.8359 6.37207 11.318 6.37207H1.93781C1.41988 6.37207 1 6.79195 1 7.30988V16.6901C1 17.208 1.41988 17.6279 1.93781 17.6279H11.318ZM8.4373 9.3739C7.94546 9.00969 7.3401 8.83232 6.72948 8.87353H4.25269V15.1103H5.4678V12.9052H6.65426C7.0862 12.9143 7.51449 12.8244 7.90622 12.6422C8.24888 12.4824 8.53798 12.2269 8.73865 11.9065C8.93685 11.5804 9.03851 11.2048 9.0318 10.8233C9.06671 10.2745 8.84752 9.74013 8.4373 9.3739Z" fill="#04071E"/>
</svg>
