<svg width="24" height="24" viewBox="0 0 24 24" fill="none" xmlns="http://www.w3.org/2000/svg">
<path d="M14.3025 13.0233L12.7676 1.76746H12.653C7.07176 1.78375 2.55133 6.30418 2.53503 11.8854V12L14.3025 13.0233Z" fill="#ED6C47"/>
<path d="M12.8816 1.76746H12.767V12L17.8832 14.0465L22.9995 12V11.8854C22.9832 6.30418 18.4628 1.78375 12.8816 1.76746Z" fill="#FF8F6B"/>
<path d="M23.0001 12V12.1126C22.9841 17.695 18.4626 22.2165 12.8801 22.2326H12.655C7.07256 22.2165 2.55105 17.695 2.53503 12.1126V12H23.0001Z" fill="#D35230"/>
<path opacity="0.1" d="M13.2792 6.79676V17.7149C13.2767 18.0943 13.0468 18.4351 12.696 18.5795C12.5843 18.6268 12.4642 18.6512 12.3429 18.6512H4.94993C4.80667 18.4875 4.66854 18.3135 4.54063 18.1395C3.23715 16.4007 2.53335 14.2857 2.53505 12.1126V11.8875C2.53206 9.92732 3.10492 8.00947 4.18249 6.3721C4.29505 6.19815 4.41271 6.02419 4.54063 5.86047H12.3429C12.8584 5.86438 13.2753 6.28129 13.2792 6.79676Z" fill="black"/>
<path opacity="0.2" d="M12.7676 7.30836V18.2265C12.7676 18.3478 12.7432 18.4678 12.696 18.5795C12.5515 18.9303 12.2107 19.1602 11.8313 19.1628H5.41552C5.25364 18.9984 5.09832 18.8278 4.94993 18.6511C4.80667 18.4874 4.66854 18.3135 4.54063 18.1395C3.23715 16.4007 2.53335 14.2857 2.53505 12.1125V11.8874C2.53206 9.92728 3.10492 8.00944 4.18249 6.37207H11.8313C12.3468 6.37597 12.7637 6.79288 12.7676 7.30836Z" fill="black"/>
<path opacity="0.2" d="M12.7676 7.30834V17.2032C12.7637 17.7187 12.3468 18.1356 11.8313 18.1395H4.54063C3.23715 16.4007 2.53335 14.2857 2.53505 12.1125V11.8874C2.53206 9.92728 3.10492 8.00944 4.18249 6.37207H11.8313C12.3468 6.37595 12.7637 6.79287 12.7676 7.30834Z" fill="black"/>
<path opacity="0.2" d="M12.256 7.30834V17.2032C12.2521 17.7187 11.8352 18.1356 11.3197 18.1395H4.54063C3.23715 16.4007 2.53335 14.2857 2.53505 12.1125V11.8874C2.53206 9.92728 3.10492 8.00944 4.18249 6.37207H11.3197C11.8352 6.37595 12.2521 6.79287 12.256 7.30834Z" fill="black"/>
<path d="M1.93781 6.37207H11.318C11.8359 6.37207 12.2558 6.79195 12.2558 7.30988V16.6901C12.2558 17.208 11.8359 17.6279 11.318 17.6279H1.93781C1.41988 17.6279 1 17.208 1 16.6901V7.30988C1 6.79195 1.41988 6.37207 1.93781 6.37207Z" fill="url(#paint0_linear_114_385)"/>
<path d="M6.72948 8.87341C7.3401 8.8322 7.94546 9.00957 8.4373 9.37378C8.84752 9.74001 9.06671 10.2744 9.0318 10.8232C9.03851 11.2047 8.93685 11.5803 8.73865 11.9063C8.53798 12.2268 8.24888 12.4823 7.90622 12.6421C7.51449 12.8243 7.0862 12.9142 6.65427 12.905H5.4678V15.1101H4.25269V8.87341H6.72948ZM5.46678 11.9524H6.51256C6.84409 11.9767 7.17304 11.8786 7.43707 11.6766C7.65545 11.4671 7.76991 11.1717 7.74968 10.8698C7.74968 10.1825 7.35026 9.83885 6.55145 9.83885H5.4668V11.9524H5.46678Z" fill="white"/>
<defs>
<linearGradient id="paint0_linear_114_385" x1="2.95536" y1="5.63928" x2="10.3005" y2="18.3607" gradientUnits="userSpaceOnUse">
<stop stop-color="#CA4C28"/>
<stop offset="0.5" stop-color="#C5401E"/>
<stop offset="1" stop-color="#B62F14"/>
</linearGradient>
</defs>
</svg>
