<svg width="24" height="24" viewBox="0 0 24 24" fill="none" xmlns="http://www.w3.org/2000/svg">
<path d="M5.02777 12.5879C7.39591 12.0791 7.07262 9.2459 7.00326 8.62683C6.88653 7.67194 5.76419 6.00447 4.24124 6.13769C2.32382 6.30851 2.04392 9.07815 2.04392 9.07815C1.78418 10.3606 2.6636 13.0979 5.02777 12.5879ZM9.42549 7.83847C10.7327 7.83847 11.7893 6.33203 11.7893 4.47114C11.7893 2.60995 10.7327 1.10596 9.42549 1.10596C8.11766 1.10596 7.05826 2.60995 7.05826 4.47114C7.05826 6.33203 8.11736 7.83847 9.42549 7.83847ZM15.0614 8.06C16.8113 8.28918 17.9325 6.42248 18.1567 5.00802C18.3859 3.59539 17.2553 1.95237 16.0193 1.67034C14.7778 1.38494 13.228 3.37233 13.0883 4.66884C12.9181 6.25473 13.3132 7.83602 15.0614 8.06ZM21.9913 10.4364C21.9913 9.75986 21.4312 7.72052 19.3454 7.72052C17.2553 7.72052 16.9791 9.64497 16.9791 11.0047C16.9791 12.3025 17.0873 14.1126 19.6827 14.0564C22.2755 13.999 21.9913 11.1175 21.9913 10.4364ZM19.3454 16.3753C19.3454 16.3753 16.6402 14.2828 15.0614 12.0204C12.9175 8.68458 9.87589 10.0431 8.85896 11.7372C7.8451 13.4355 6.26898 14.508 6.04348 14.7928C5.81583 15.0718 2.77636 16.7142 3.45074 19.7133C4.12666 22.71 6.49694 22.6532 6.49694 22.6532C6.49694 22.6532 8.24386 22.824 10.2698 22.3708C12.2999 21.9189 14.0466 22.4818 14.0466 22.4818C14.0466 22.4818 18.7822 24.0698 20.0763 21.0141C21.3719 17.9609 19.3454 16.3753 19.3454 16.3753Z" fill="#2319DC"/>
<path d="M9.84547 13.458V15.4711H8.20518C8.20518 15.4711 6.56582 15.607 5.99197 17.4652C5.79182 18.7058 6.16858 19.4364 6.23428 19.5925C6.30059 19.7484 6.83044 20.6559 8.16088 20.9223H11.2388V13.48L9.84547 13.458ZM9.82071 19.7007H8.58073C8.58073 19.7007 7.71689 19.6558 7.4538 18.6612C7.31812 18.2205 7.47396 17.7115 7.54241 17.5113C7.60505 17.3109 7.89503 16.8476 8.49303 16.6692H9.82041L9.82071 19.7007Z" fill="white"/>
<path d="M11.9937 15.6516V19.5702C11.9937 19.5702 12.0579 20.5453 13.4329 20.9006H16.9751V15.651H15.4463V19.5919H13.9875C13.9875 19.5919 13.5212 19.5241 13.4335 19.1494V15.6284L11.9937 15.6516Z" fill="white"/>
</svg>
