<svg width="24" height="24" viewBox="0 0 24 24" fill="none" xmlns="http://www.w3.org/2000/svg">
<path d="M7.00376 8.63128C7.07415 9.25937 7.39028 12.0803 5.02777 12.5879C2.6636 13.0979 1.78418 10.3606 2.04392 9.07815C2.04392 9.07815 2.32382 6.30851 4.24124 6.13769C5.76419 6.00447 6.88653 7.67194 7.00326 8.62683L7.00376 8.63128Z" fill="#04071E"/>
<path d="M11.7893 4.47114C11.7893 6.33203 10.7327 7.83847 9.42549 7.83847C8.11736 7.83847 7.05826 6.33203 7.05826 4.47114C7.05826 2.60995 8.11766 1.10596 9.42549 1.10596C10.7327 1.10596 11.7893 2.60995 11.7893 4.47114Z" fill="#04071E"/>
<path d="M18.1567 5.00802C17.9325 6.42248 16.8113 8.28918 15.0614 8.06C13.3132 7.83602 12.9181 6.25473 13.0883 4.66884C13.228 3.37233 14.7778 1.38494 16.0193 1.67034C17.2553 1.95237 18.3859 3.59539 18.1567 5.00802Z" fill="#04071E"/>
<path d="M19.3454 7.72052C21.4312 7.72052 21.9913 9.75986 21.9913 10.4364C21.9913 10.4877 21.9929 10.5515 21.9948 10.6256C22.0178 11.5356 22.0802 14.0033 19.6827 14.0564C17.0873 14.1126 16.9791 12.3025 16.9791 11.0047C16.9791 9.64497 17.2553 7.72052 19.3454 7.72052Z" fill="#04071E"/>
<path d="M9.82035 19.7008H8.58036C8.58036 19.7008 7.71652 19.6559 7.45343 18.6613C7.31776 18.2207 7.4736 17.7116 7.54204 17.5114C7.60469 17.311 7.89467 16.8477 8.49266 16.6693H9.82004L9.82035 19.7008Z" fill="#04071E"/>
<path fill-rule="evenodd" clip-rule="evenodd" d="M15.0614 12.0204C16.6402 14.2828 19.3454 16.3753 19.3454 16.3753C19.3454 16.3753 21.3719 17.9609 20.0763 21.0141C18.7822 24.0698 14.0466 22.4818 14.0466 22.4818C14.0466 22.4818 12.2999 21.9189 10.2698 22.3708C8.24386 22.824 6.49694 22.6532 6.49694 22.6532C6.49694 22.6532 4.12666 22.71 3.45074 19.7133C2.87773 17.165 4.98595 15.5962 5.77237 15.011C5.9115 14.9075 6.00926 14.8348 6.04348 14.7928C6.09974 14.7218 6.24008 14.6017 6.43479 14.4351C7.02047 13.9339 8.09806 13.0118 8.85896 11.7372C9.87589 10.0431 12.9175 8.68458 15.0614 12.0204ZM9.8451 13.4581V15.4712H8.20482C8.20482 15.4712 6.56545 15.6072 5.9916 17.4653C5.80449 18.6251 6.1216 19.3392 6.21737 19.5548C6.22404 19.5699 6.22964 19.5825 6.23392 19.5926C6.30022 19.7485 6.83008 20.656 8.16051 20.9225H11.2385V13.4801L9.8451 13.4581ZM11.9941 15.6518V19.5703C11.9941 19.5703 12.0583 20.5454 13.4334 20.9008H16.9755V15.6512H15.4467V19.592H13.988C13.988 19.592 13.5217 19.5242 13.434 19.1496V15.6285L11.9941 15.6518Z" fill="#04071E"/>
</svg>
