<svg width="24" height="24" viewBox="0 0 24 24" fill="none" xmlns="http://www.w3.org/2000/svg">
<path fill-rule="evenodd" clip-rule="evenodd" d="M20.0469 2C21.1249 2 22 2.87514 22 3.95307V20.0467C22 21.1247 21.1249 22 20.0469 22H3.95329C2.87529 22 2 21.1247 2 20.0467V3.95307C2 2.87514 2.87529 2 3.95329 2H20.0469ZM19.7538 20.5351C20.1829 20.5351 20.5317 20.1882 20.5351 19.7599V14.6978H8.4992L11.8693 20.5351H19.7538ZM3.46484 16.3264V19.7538C3.46484 20.185 3.81484 20.5351 4.24606 20.5351H11.1011L7.51913 14.3307L13.7923 3.46479H10.8904L3.46484 16.3264ZM10.0459 14.0321H12.9798L10.7197 10.1173L9.25206 12.6597C9.08806 12.9433 9.08806 13.2929 9.25206 13.5764C9.41563 13.8602 9.71827 14.0321 10.0459 14.0321ZM20.5352 4.24007C20.5318 3.81164 20.183 3.46479 19.7539 3.46479H14.5606L11.1038 9.45207L13.7485 14.0321H20.5352V4.24007Z" fill="#04071E"/>
</svg>
