<svg width="24" height="24" viewBox="0 0 24 24" fill="none" xmlns="http://www.w3.org/2000/svg">
<path d="M22 3.95307C22 2.87514 21.1249 2 20.0469 2H3.95329C2.87529 2 2 2.87514 2 3.95307V20.0467C2 21.1247 2.87529 22 3.95329 22H20.0469C21.1249 22 22 21.1247 22 20.0467V3.95307Z" fill="#134881"/>
<path d="M20.5351 19.76C20.5317 20.1883 20.1829 20.5352 19.7538 20.5352H11.8693L8.4992 14.6978H20.5351V19.76ZM3.46484 19.7538V16.3265L10.8904 3.46484H13.7923L7.51913 14.3308L11.1011 20.5351H4.24606C3.81484 20.5351 3.46484 20.1851 3.46484 19.7538ZM12.9798 14.0321H10.0459C9.71827 14.0321 9.41563 13.8603 9.25206 13.5765C9.08806 13.2929 9.08806 12.9433 9.25206 12.6598L10.7197 10.1173L12.9798 14.0321ZM19.7539 3.46484C20.183 3.46484 20.5318 3.8117 20.5352 4.24013V14.0321H13.7485L11.1038 9.45213L14.5606 3.46484H19.7539Z" fill="url(#paint0_radial_106_287)"/>
<defs>
<radialGradient id="paint0_radial_106_287" cx="0" cy="0" r="1" gradientUnits="userSpaceOnUse" gradientTransform="translate(16.5196 0.245932) scale(20.2771)">
<stop stop-color="#6BE1FB"/>
<stop offset="1" stop-color="#38BDFA"/>
</radialGradient>
</defs>
</svg>
