<svg width="24" height="24" viewBox="0 0 24 24" fill="none" xmlns="http://www.w3.org/2000/svg">
<path d="M11.4018 12.6586C12.914 12.6586 13.6902 13.3871 14.3063 14.317C14.6719 13.5231 14.846 12.451 14.846 11.1223C14.846 7.80382 13.8081 6.09975 11.384 6.09975C8.99519 6.09975 7.96291 7.80382 7.96291 11.1223C7.96291 14.4232 8.99497 16.1097 11.384 16.1097C11.7636 16.1097 12.1076 16.0678 12.4236 15.9757C11.9294 15.0033 11.3499 14.0211 10.2193 14.0211C10.0032 14.0211 9.78737 14.0569 9.58933 14.1472L9.20525 13.3787C9.67344 12.977 10.4296 12.6586 11.4018 12.6586Z" fill="#04071E"/>
<path fill-rule="evenodd" clip-rule="evenodd" d="M1.97314 1.97308H22.0001V22H1.97314V1.97308ZM17.949 16.145H18.8789C18.9335 16.7214 18.6451 19.1162 16.0462 19.1162C14.4721 19.1162 13.6399 18.2038 13.0157 17.1337C12.4921 17.2741 11.9358 17.3516 11.384 17.3516C8.20302 17.3516 5.08838 14.8133 5.08838 11.1221C5.08838 7.39571 8.20302 4.85696 11.3837 4.85696C14.6181 4.85696 17.7027 7.37747 17.7027 11.1221C17.7027 13.2049 16.7307 14.8976 15.3181 15.9915C15.7745 16.6753 16.2445 17.1295 16.8987 17.1295C17.6128 17.1295 17.901 16.5779 17.949 16.145Z" fill="#04071E"/>
</svg>
