<svg width="24" height="24" viewBox="0 0 24 24" fill="none" xmlns="http://www.w3.org/2000/svg">
<path d="M22.0624 1.76746H7.05427C6.53633 1.76746 6.11646 2.18733 6.11646 2.70527V6.88373L14.8141 9.44187L23.0002 6.88373V2.70527C23.0002 2.18733 22.5803 1.76746 22.0624 1.76746Z" fill="#41A5EE"/>
<path d="M23.0002 6.88367H6.11646V11.9999L14.8141 13.5348L23.0002 11.9999V6.88367Z" fill="#2B7CD3"/>
<path d="M6.11646 12V17.1163L14.3025 18.1395L23.0002 17.1163V12H6.11646Z" fill="#185ABD"/>
<path d="M7.05427 22.2326H22.0624C22.5803 22.2326 23.0002 21.8127 23.0002 21.2948V17.1163H6.11646V21.2948C6.11646 21.8127 6.53633 22.2326 7.05427 22.2326Z" fill="#103F91"/>
<path opacity="0.1" d="M12.3414 5.86047H6.11646V18.6512H12.3414C12.8587 18.6495 13.2776 18.2306 13.2792 17.7134V6.79829C13.2776 6.28105 12.8587 5.86216 12.3414 5.86047Z" fill="black"/>
<path opacity="0.2" d="M11.8298 6.37207H6.11646V19.1628H11.8298C12.347 19.1611 12.7659 18.7422 12.7676 18.225V7.30989C12.7659 6.79265 12.347 6.37375 11.8298 6.37207Z" fill="black"/>
<path opacity="0.2" d="M11.8298 6.37207H6.11646V18.1395H11.8298C12.347 18.1378 12.7659 17.7189 12.7676 17.2017V7.30989C12.7659 6.79265 12.347 6.37375 11.8298 6.37207Z" fill="black"/>
<path opacity="0.2" d="M11.3182 6.37207H6.11646V18.1395H11.3182C11.8354 18.1378 12.2543 17.7189 12.256 17.2017V7.30989C12.2543 6.79265 11.8354 6.37375 11.3182 6.37207Z" fill="black"/>
<path d="M1.93782 6.37207H11.318C11.8359 6.37207 12.2558 6.79194 12.2558 7.30989V16.6901C12.2558 17.208 11.8359 17.6279 11.318 17.6279H1.93782C1.41987 17.6279 1 17.208 1 16.6901V7.30989C1 6.79194 1.41987 6.37207 1.93782 6.37207Z" fill="url(#paint0_linear_114_324)"/>
<path d="M4.84979 13.5646C4.86821 13.7094 4.88049 13.8352 4.88612 13.9432H4.9076C4.91578 13.8409 4.93283 13.7176 4.95876 13.5733C4.98469 13.429 5.00805 13.3071 5.02886 13.2075L6.01528 8.95175H7.29077L8.31402 13.1435C8.37348 13.4042 8.41603 13.6684 8.44142 13.9345H8.45831C8.47738 13.6767 8.51293 13.4203 8.56473 13.1671L9.38077 8.94971H10.5417L9.10807 15.0483H7.75175L6.77965 11.0095C6.75152 10.8934 6.71929 10.7414 6.68398 10.5547C6.64868 10.3679 6.62668 10.2313 6.61798 10.1454H6.60109C6.58984 10.2446 6.56783 10.392 6.53509 10.5874C6.50235 10.7829 6.47608 10.9275 6.45629 11.0213L5.54252 15.0473H4.16317L2.72192 8.95174H3.90378L4.79248 13.2162C4.81244 13.3037 4.83137 13.4203 4.84979 13.5646Z" fill="white"/>
<defs>
<linearGradient id="paint0_linear_114_324" x1="2.95536" y1="5.63928" x2="10.3005" y2="18.3607" gradientUnits="userSpaceOnUse">
<stop stop-color="#2368C4"/>
<stop offset="0.5" stop-color="#1A5DBE"/>
<stop offset="1" stop-color="#1146AC"/>
</linearGradient>
</defs>
</svg>
