<svg width="24" height="24" viewBox="0 0 24 24" fill="none" xmlns="http://www.w3.org/2000/svg">
<path d="M10.6874 13.3402C10.7245 14.0344 11.4749 14.3586 12.1968 14.318C12.9042 14.2789 13.7065 14.0016 13.8433 12.293C13.4765 12.2125 13.0729 12.1707 12.6417 12.1707C12.5108 12.1707 12.3772 12.1746 12.2413 12.1824C11.0538 12.2508 10.6601 12.8254 10.6874 13.3402Z" fill="#04071E"/>
<path fill-rule="evenodd" clip-rule="evenodd" d="M17.8984 2H6.10156C3.8457 2 2 3.8457 2 6.10156V17.8984C2 20.1543 3.8457 22 6.10156 22H17.8984C20.1543 22 22 20.1543 22 17.8984V6.10156C22 3.8457 20.1543 2 17.8984 2ZM15.0038 11.4359C15.0628 11.4609 15.121 11.4875 15.178 11.5148C15.987 11.9027 16.5784 12.4902 16.8886 13.2133C17.321 14.2219 17.3604 15.8645 16.0487 17.175C15.046 18.177 13.8288 18.6289 12.1022 18.641H12.0944C10.1522 18.6277 8.6585 17.9738 7.65537 16.6984C6.7624 15.5637 6.30186 13.9844 6.28662 12.0047V11.9953C6.30186 10.0156 6.7624 8.43633 7.65537 7.30156C8.6585 6.02617 10.1522 5.37266 12.0944 5.35899H12.1022C14.0483 5.37266 15.5585 6.02344 16.5913 7.29414C17.1011 7.9211 17.4753 8.67695 17.7132 9.55391L16.5964 9.85195C16.3999 9.13945 16.1022 8.52813 15.7073 8.04219C14.9015 7.05117 13.6874 6.54258 12.0983 6.53086C10.5202 6.54258 9.32686 7.04883 8.55107 8.03516C7.82451 8.9586 7.44912 10.2926 7.43506 12C7.44912 13.7074 7.82451 15.0414 8.55107 15.9648C9.32686 16.9512 10.5202 17.4574 12.0983 17.4691C13.5206 17.4586 14.462 17.1203 15.2448 16.3379C16.1386 15.4449 16.1218 14.3496 15.8362 13.6832C15.6679 13.291 15.3636 12.9648 14.953 12.7172C14.853 13.4625 14.6265 14.0543 14.2683 14.5109C13.7964 15.1121 13.1206 15.441 12.2585 15.4879C11.6062 15.5238 10.978 15.3664 10.4905 15.0445C9.91396 14.6637 9.57646 14.0813 9.54053 13.4035C9.46943 12.0684 10.5288 11.1074 12.1765 11.0125C12.7616 10.9789 13.3085 11.0055 13.8147 11.0914C13.7476 10.6805 13.6116 10.3551 13.4089 10.1191C13.1304 9.7957 12.6995 9.62969 12.1288 9.62617H12.1132C11.655 9.62617 11.0327 9.7543 10.6362 10.3559L9.68311 9.70195C10.2409 8.85547 11.1362 8.44766 12.1362 8.4543C13.8694 8.46524 14.9015 9.54688 15.0038 11.4359Z" fill="#04071E"/>
</svg>
