<svg width="24" height="24" viewBox="0 0 24 24" fill="none" xmlns="http://www.w3.org/2000/svg">
<path d="M16.4276 11.3165C16.347 11.2779 16.2651 11.2407 16.1822 11.2051C16.0377 8.54321 14.5832 7.0193 12.141 7.0037C12.1299 7.00364 12.1189 7.00364 12.1078 7.00364C10.6471 7.00364 9.43214 7.62717 8.68437 8.76181L10.0275 9.68319C10.5862 8.83566 11.4628 8.65498 12.1085 8.65498C12.1159 8.65498 12.1234 8.65498 12.1308 8.65505C12.935 8.66018 13.5418 8.89398 13.9345 9.34993C14.2203 9.68188 14.4115 10.1406 14.5061 10.7195C13.7932 10.5983 13.0221 10.5611 12.1978 10.6083C9.87583 10.7421 8.38307 12.0963 8.48333 13.978C8.5342 14.9326 9.00973 15.7537 9.82225 16.2902C10.5092 16.7436 11.394 16.9654 12.3135 16.9152C13.5279 16.8486 14.4806 16.3853 15.1452 15.5381C15.6499 14.8947 15.9692 14.061 16.1101 13.0105C16.6889 13.3597 17.1178 13.8193 17.3547 14.3719C17.7574 15.3111 17.7809 16.8545 16.5216 18.1127C15.4182 19.215 14.0919 19.6919 12.0875 19.7066C9.86408 19.6901 8.18253 18.9771 7.08923 17.5872C6.06545 16.2858 5.53635 14.406 5.51661 12C5.53635 9.594 6.06545 7.71419 7.08923 6.41276C8.18253 5.02292 9.86405 4.30987 12.0875 4.29334C14.327 4.30999 16.0379 5.02647 17.1731 6.42302C17.7297 7.10787 18.1493 7.96912 18.426 8.9733L19.9999 8.55335C19.6646 7.31731 19.137 6.25221 18.4189 5.36888C16.9637 3.57845 14.8353 2.66102 12.093 2.642H12.082C9.34524 2.66096 7.24071 3.58187 5.8269 5.37914C4.56879 6.9785 3.91982 9.20388 3.89802 11.9934L3.89795 12L3.89802 12.0066C3.91982 14.7961 4.56879 17.0215 5.8269 18.6209C7.24071 20.4181 9.34524 21.3391 12.082 21.358H12.093C14.5261 21.3411 16.2412 20.7041 17.654 19.2925C19.5025 17.4458 19.4468 15.1309 18.8376 13.7099C18.4005 12.6908 17.5672 11.8632 16.4276 11.3165ZM12.2266 15.2662C11.2089 15.3236 10.1517 14.8668 10.0995 13.8884C10.0609 13.1629 10.6158 12.3535 12.2891 12.257C12.4807 12.246 12.6687 12.2406 12.8535 12.2406C13.4612 12.2406 14.0298 12.2996 14.5468 12.4126C14.354 14.8206 13.223 15.2115 12.2266 15.2662Z" fill="#04071E"/>
</svg>
