<svg width="24" height="24" viewBox="0 0 24 24" fill="none" xmlns="http://www.w3.org/2000/svg">
<path d="M9.52837 10.4504C9.06904 10.3236 8.89741 9.6634 9.23501 9.32196C9.45078 9.10374 9.51043 9.09543 10.861 9.09543C12.0735 9.09543 12.1143 9.09808 12.2924 9.1882C12.5498 9.31846 12.6616 9.50211 12.6616 9.7945C12.6616 10.0586 12.5566 10.2436 12.3223 10.3924C12.1965 10.4722 12.1213 10.4772 10.9334 10.4842C10.1998 10.4885 9.61541 10.4744 9.52837 10.4504Z" fill="#04071E"/>
<path d="M9.47082 14.8932C9.27365 14.8072 9.09004 14.5681 9.05831 14.3561C9.02809 14.1542 9.12939 13.8766 9.28467 13.7358C9.48041 13.5583 9.56632 13.5524 11.9735 13.5505L12.0089 13.5505C14.1026 13.5489 14.3917 13.5486 14.5791 13.6866C14.6091 13.7087 14.6365 13.7343 14.6683 13.7641L14.6716 13.7672C15.0032 14.0774 14.9333 14.6296 14.5336 14.8564L14.123 14.9233L11.9825 14.9484C10.1015 14.9704 9.56872 14.936 9.47082 14.8932Z" fill="#04071E"/>
<path fill-rule="evenodd" clip-rule="evenodd" d="M3.29017 21.4742C3.58803 21.6776 3.91098 21.8226 4.28525 21.9213C4.55981 21.9937 4.92159 21.9974 11.9656 21.9995C19.2509 22.0017 19.3626 22.0005 19.6835 21.9185C20.9379 21.5976 21.8096 20.6156 21.964 19.3495C21.997 19.0789 22.0062 16.9073 21.9962 11.7344C21.9829 4.85609 22.0028 4.33643 21.8016 3.9248C21.765 3.84989 21.7211 3.77856 21.6683 3.67314C21.2371 2.81184 20.4919 2.24169 19.5439 2.04777C19.1938 1.97614 4.6922 1.98877 4.36758 2.06099C3.23853 2.31217 2.36311 3.15414 2.08041 4.26076C2.00047 4.57369 1.99881 4.7338 2.00027 12.0153C2.00173 19.3338 2.00305 19.4552 2.08461 19.7601C2.16457 20.059 2.36078 20.49 2.53147 20.7417C2.67123 20.9477 3.03873 21.3026 3.29017 21.4742ZM14.8301 18.1642C15.7286 18.0414 16.4326 17.6807 17.0931 17.0047C17.571 16.5156 17.8701 15.9863 18.0656 15.2838C18.1468 14.992 18.1536 14.8499 18.1685 13.1364C18.1797 11.8431 18.1703 11.2374 18.1367 11.0845C18.088 10.8629 17.9499 10.657 17.7923 10.5712C17.7438 10.5448 17.433 10.5112 17.1018 10.4964C16.5467 10.4717 16.4845 10.4609 16.3093 10.358C16.0314 10.1949 15.9549 10.0187 15.9541 9.54034C15.9526 8.62637 15.573 7.77784 14.8228 7.01201C14.2883 6.46642 13.6921 6.09713 13.0116 5.8902C12.8487 5.84066 12.484 5.8238 11.2623 5.80934C9.34527 5.78664 8.91975 5.82601 8.26714 6.08641C7.06396 6.5665 6.19945 7.57827 5.8841 8.8754C5.82487 9.11902 5.81337 9.50948 5.79938 11.7524C5.78185 14.5623 5.80119 14.975 5.97645 15.5318C6.12126 15.9919 6.26737 16.2738 6.56836 16.6739C7.14175 17.4362 8.00109 17.9868 8.86025 18.1423C9.26911 18.2163 14.3135 18.2348 14.8301 18.1642Z" fill="#04071E"/>
</svg>
