<svg width="24" height="24" viewBox="0 0 24 24" fill="none" xmlns="http://www.w3.org/2000/svg">
<path d="M8.22151 2.6001H2.44438C2.19891 2.6001 2 2.78627 2 3.01593V8.42169C2 8.65134 2.19891 8.83752 2.44438 8.83752H8.22151C8.46698 8.83752 8.66607 8.65134 8.66607 8.42169V3.01593C8.66607 2.78627 8.46698 2.6001 8.22151 2.6001Z" fill="#04071E"/>
<path d="M14.8857 8.83797H9.10844C8.86315 8.83797 8.66406 9.02414 8.66406 9.2538V14.6596C8.66406 14.8892 8.86315 15.0754 9.10844 15.0754H14.8857C15.1312 15.0754 15.3301 14.8892 15.3301 14.6596V9.2538C15.3301 9.02414 15.1312 8.83797 14.8857 8.83797Z" fill="#04071E"/>
<path d="M15.7784 2.6001H21.5557C21.8011 2.6001 22 2.78627 22 3.01593V8.42169C22 8.65134 21.8011 8.83752 21.5557 8.83752H15.7784C15.5331 8.83752 15.334 8.65134 15.334 8.42169V3.01593C15.334 2.78627 15.5331 2.6001 15.7784 2.6001Z" fill="#04071E"/>
<path d="M8.22151 15.0752H2.44438C2.19891 15.0752 2 15.2614 2 15.4911V20.8969C2 21.1265 2.19891 21.3127 2.44438 21.3127H8.22151C8.46698 21.3127 8.66607 21.1265 8.66607 20.8969V15.4911C8.66607 15.2614 8.46698 15.0752 8.22151 15.0752Z" fill="#04071E"/>
<path d="M15.7784 15.0752H21.5557C21.8011 15.0752 22 15.2614 22 15.4911V20.8969C22 21.1265 21.8011 21.3127 21.5557 21.3127H15.7784C15.5331 21.3127 15.334 21.1265 15.334 20.8969V15.4911C15.334 15.2614 15.5331 15.0752 15.7784 15.0752Z" fill="#04071E"/>
</svg>
