<svg width="24" height="24" viewBox="0 0 24 24" fill="none" xmlns="http://www.w3.org/2000/svg">
<path d="M18 22H6C3.79086 22 2 20.2091 2 18V6C2 3.79086 3.79086 2 6 2H18C20.2091 2 22 3.79086 22 6V18C22 20.2091 20.2091 22 18 22Z" fill="#0F88EB"/>
<path d="M10.072 14.0052L9.50085 14.4495C9.61904 13.9166 9.70772 13.3234 9.77407 12.724H12.447C12.447 11.7344 12.0958 11.724 12.0958 11.724C12.0958 11.724 11.0494 11.724 9.8655 11.724C9.99044 10.0433 9.96785 8.56424 9.96785 8.56424H12.197V8.18706C12.197 7.88477 11.952 7.63974 11.6497 7.63974H7.92336L8.53035 5.8073C8.03035 5.78647 7.38452 6.01563 7.07202 6.97397C6.75952 7.9323 5.82202 10.1406 5.82202 10.1406C7.07202 10.1406 7.42619 9.14063 7.42619 9.14063L7.61713 8.56424H8.88452L8.86369 11.724C7.80983 11.724 6.84619 11.724 6.60327 11.724C6.00952 11.724 5.88452 12.724 5.88452 12.724H8.74605C8.11375 16.7094 5.63452 18.1615 5.63452 18.1615C7.67619 18.349 8.00952 17.7448 9.03035 15.849C9.19106 15.5505 9.32432 15.1653 9.43494 14.7283L11.6866 17.5156C11.6866 17.5156 11.9887 16.224 11.6345 15.8073C11.2804 15.3906 10.072 14.0052 10.072 14.0052Z" fill="white"/>
<path d="M13.0356 7.43312V16.8065H14.0523L14.389 17.9331L16.1723 16.8065H18.3656V7.43312H13.0356ZM17.279 15.7231H16.0923L14.8523 16.5165L14.579 15.7231H14.119V8.51645H17.279V15.7231Z" fill="white"/>
</svg>
