<svg width="24" height="24" viewBox="0 0 24 24" fill="none" xmlns="http://www.w3.org/2000/svg">
<path d="M17.2785 15.7231H16.0918L14.8518 16.5165L14.5785 15.7231H14.1185V8.51646H17.2785V15.7231Z" fill="#04071E"/>
<path fill-rule="evenodd" clip-rule="evenodd" d="M6 22H18C20.2091 22 22 20.2091 22 18V6C22 3.79086 20.2091 2 18 2H6C3.79086 2 2 3.79086 2 6V18C2 20.2091 3.79086 22 6 22ZM10.0723 14.0052L9.5011 14.4494C9.61928 13.9166 9.70797 13.3234 9.77431 12.724H12.4473C12.4473 11.7344 12.0961 11.724 12.0961 11.724H9.86574C9.99068 10.0433 9.9681 8.56423 9.9681 8.56423H12.1973V8.18705C12.1973 7.88477 11.9522 7.63973 11.6499 7.63973H7.9236L8.5306 5.80729C8.0306 5.78646 7.38477 6.01563 7.07227 6.97396C6.75977 7.93229 5.82227 10.1406 5.82227 10.1406C7.07227 10.1406 7.42643 9.14062 7.42643 9.14062L7.61737 8.56423H8.88477L8.86393 11.724H6.60352C6.00977 11.724 5.88477 12.724 5.88477 12.724H8.7463C8.11399 16.7094 5.63477 18.1615 5.63477 18.1615C7.67643 18.349 8.00977 17.7448 9.0306 15.849C9.1913 15.5505 9.32456 15.1653 9.43518 14.7283L11.6868 17.5156C11.6868 17.5156 11.9889 16.224 11.6348 15.8073C11.2806 15.3906 10.0723 14.0052 10.0723 14.0052ZM13.0352 7.43312V16.8065H14.0518L14.3885 17.9331L16.1718 16.8065H18.3652V7.43312H13.0352Z" fill="#04071E"/>
</svg>
