<svg width="24" height="24" viewBox="0 0 24 24" fill="none" xmlns="http://www.w3.org/2000/svg">
<path d="M11.3152 3.37343C13.2227 3.24786 15.1602 3.63057 16.8704 4.48568C19.3939 5.7235 21.4031 7.96592 22.3539 10.609C22.7725 11.7751 22.9997 13.0129 22.9997 14.2507V18.8551C22.9997 19.0405 23.0057 19.2378 22.9638 19.4172C22.8622 19.8837 22.5333 20.2903 22.0908 20.4876C21.7858 20.6311 21.439 20.6491 21.1161 20.5953C20.4104 20.4637 19.8723 19.8059 19.8603 19.0943C19.8543 17.6652 19.8603 16.242 19.8603 14.8068C19.8723 14.4002 19.8723 13.9696 19.651 13.6109C19.2982 12.9531 18.4311 12.6361 17.7375 12.9172C17.1515 13.1265 16.7209 13.7185 16.7149 14.3464C16.709 15.7995 16.7149 17.2466 16.7149 18.6937C16.7149 18.9628 16.7269 19.2438 16.6492 19.501C16.4997 20.0092 16.0751 20.4218 15.5668 20.5654C14.8971 20.7507 14.1257 20.4577 13.7848 19.8358C13.5516 19.4591 13.5696 19.0106 13.5755 18.598C13.5696 17.1569 13.5815 15.7157 13.5696 14.2746C13.5576 13.5451 12.9536 12.8873 12.2241 12.7916C11.7517 12.7199 11.2554 12.8753 10.9145 13.2102C10.6036 13.5032 10.4302 13.9218 10.4302 14.3464V18.5442C10.4242 18.897 10.466 19.2618 10.3345 19.5907C10.1252 20.1886 9.52122 20.6311 8.88138 20.6132C8.22958 20.6491 7.58975 20.2006 7.38045 19.5847C7.26684 19.2797 7.29076 18.9568 7.29076 18.6339C7.29076 17.1868 7.29674 15.7397 7.29076 14.2866C7.28478 13.569 6.72865 12.9172 6.02304 12.7856C5.38918 12.6481 4.68356 12.971 4.36065 13.5451C4.22312 13.7843 4.15136 14.0593 4.15136 14.3344V19.0465C4.15734 19.5069 3.94206 19.9554 3.59524 20.2484C3.06303 20.7149 2.20792 20.7388 1.64582 20.3142C1.23919 20.0391 1 19.5667 1 19.0764V14.3165C1.00598 12.5165 1.46044 10.7166 2.31556 9.13796C3.02117 7.84632 3.98392 6.69222 5.13803 5.77133C6.90207 4.35412 9.0847 3.51097 11.3152 3.37343Z" fill="#04071E"/>
</svg>
