<svg width="24" height="24" viewBox="0 0 24 24" fill="none" xmlns="http://www.w3.org/2000/svg">
<path fill-rule="evenodd" clip-rule="evenodd" d="M12.0009 2.44336C9.62789 2.44459 7.33266 3.28507 5.52566 4.81452C3.71865 6.34397 2.51771 8.46265 2.13756 10.7917C1.75741 13.1208 2.22285 15.5084 3.45065 17.5275C4.67845 19.5467 6.58855 21.0658 8.8394 21.8132C9.33597 21.9053 9.52301 21.5976 9.52301 21.3359C9.52301 21.0742 9.51308 20.3155 9.50977 19.486C6.72895 20.0867 6.14134 18.3125 6.14134 18.3125C5.68781 17.1604 5.03233 16.8576 5.03233 16.8576C4.12525 16.242 5.1002 16.2535 5.1002 16.2535C6.10493 16.3243 6.63296 17.2789 6.63296 17.2789C7.52348 18.798 8.97181 18.3586 9.54122 18.1018C9.6306 17.4583 9.89048 17.0205 10.1768 16.772C7.9555 16.5218 5.62159 15.6693 5.62159 11.8608C5.60783 10.8731 5.97644 9.91794 6.65116 9.19292C6.54854 8.94276 6.2059 7.93221 6.74882 6.55959C6.74882 6.55959 7.58804 6.29296 9.49819 7.57836C11.1366 7.13286 12.8652 7.13286 14.5037 7.57836C16.4122 6.29296 17.2497 6.55959 17.2497 6.55959C17.7943 7.92892 17.4517 8.93946 17.349 9.19292C18.0259 9.91806 18.3953 10.8749 18.3802 11.8641C18.3802 15.6808 16.0414 16.5218 13.8167 16.767C14.1743 17.0765 14.4937 17.6805 14.4937 18.6087C14.4937 19.9386 14.4821 21.0084 14.4821 21.3359C14.4821 21.6009 14.6626 21.9103 15.1691 21.8132C17.4202 21.0657 19.3305 19.5463 20.5582 17.5268C21.786 15.5073 22.2512 13.1194 21.8706 10.7901C21.4901 8.46081 20.2885 6.34211 18.4809 4.81293C16.6733 3.28374 14.3776 2.44381 12.0042 2.44336H12.0009Z" fill="#04071E"/>
<path d="M5.79019 16.7144C5.76867 16.7638 5.68922 16.7786 5.62467 16.744C5.56011 16.7094 5.51211 16.6453 5.53529 16.5942C5.55846 16.5432 5.63626 16.53 5.70081 16.5646C5.76537 16.5992 5.81502 16.665 5.79019 16.7144Z" fill="#04071E"/>
<path d="M6.19569 17.1637C6.16141 17.1809 6.12219 17.1857 6.08475 17.1772C6.04731 17.1688 6.01398 17.1478 5.99044 17.1176C5.92589 17.0485 5.91264 16.953 5.9623 16.9102C6.01195 16.8674 6.10134 16.8872 6.1659 16.9563C6.23045 17.0254 6.24535 17.1209 6.19569 17.1637Z" fill="#04071E"/>
<path d="M6.58972 17.7348C6.52847 17.7776 6.42419 17.7348 6.36625 17.6492C6.35023 17.6339 6.33749 17.6154 6.32879 17.5951C6.32009 17.5747 6.3156 17.5528 6.3156 17.5307C6.3156 17.5086 6.32009 17.4867 6.32879 17.4663C6.33749 17.446 6.35023 17.4276 6.36625 17.4122C6.4275 17.3711 6.53178 17.4122 6.58972 17.4961C6.64765 17.5801 6.6493 17.692 6.58972 17.7348Z" fill="#04071E"/>
<path d="M7.1244 18.2878C7.06977 18.3487 6.95887 18.3322 6.86784 18.2499C6.7768 18.1676 6.75527 18.0557 6.8099 17.9965C6.86452 17.9372 6.97542 17.9537 7.06977 18.0343C7.16412 18.115 7.18233 18.2285 7.1244 18.2878Z" fill="#04071E"/>
<path d="M7.87415 18.6104C7.84932 18.6877 7.73676 18.7223 7.62421 18.6894C7.51165 18.6565 7.43716 18.5643 7.45868 18.4853C7.4802 18.4063 7.59441 18.3701 7.70862 18.4063C7.82284 18.4425 7.89567 18.5297 7.87415 18.6104Z" fill="#04071E"/>
<path d="M8.69187 18.6663C8.69187 18.747 8.59918 18.8161 8.48001 18.8177C8.36083 18.8194 8.26317 18.7536 8.26317 18.6729C8.26317 18.5923 8.35586 18.5231 8.47504 18.5215C8.59421 18.5198 8.69187 18.584 8.69187 18.6663Z" fill="#04071E"/>
<path d="M9.45329 18.5396C9.46819 18.6202 9.38543 18.7042 9.26625 18.7239C9.14707 18.7437 9.04279 18.696 9.02789 18.617C9.01299 18.538 9.09907 18.4524 9.21494 18.431C9.3308 18.4096 9.43839 18.459 9.45329 18.5396Z" fill="#04071E"/>
</svg>
