<svg width="24" height="24" viewBox="0 0 24 24" fill="none" xmlns="http://www.w3.org/2000/svg">
<path d="M21.4391 17.2062C18.0323 15.5565 17.4893 13.0095 17.4651 12.8206C17.4359 12.5917 17.4027 12.4118 17.6551 12.179C17.8985 11.9541 18.9783 11.2856 19.2779 11.0764C19.7731 10.7301 19.9911 10.3843 19.8304 9.95923C19.718 9.66517 19.4442 9.5544 19.1559 9.5544C19.0649 9.55468 18.9743 9.56486 18.8855 9.58476C18.3414 9.70284 17.813 9.97553 17.5073 10.0492C17.4705 10.0587 17.4328 10.0638 17.3948 10.0644C17.2318 10.0644 17.17 9.99184 17.1857 9.79561C17.224 9.20074 17.3049 8.03967 17.211 6.95507C17.0823 5.46283 16.6012 4.72346 16.0306 4.06955C15.7547 3.75243 14.4731 2.39008 11.9999 2.39008C9.52667 2.39008 8.24679 3.75243 7.97249 4.06561C7.40027 4.71952 6.91969 5.45889 6.79209 6.95113C6.69822 8.03574 6.78254 9.19624 6.81738 9.79167C6.82863 9.97835 6.77129 10.0604 6.60829 10.0604C6.57035 10.0598 6.53262 10.0547 6.49587 10.0453C6.19065 9.9716 5.66228 9.6989 5.11818 9.58083C5.02942 9.56092 4.93877 9.55074 4.84781 9.55047C4.55833 9.55047 4.28572 9.66292 4.1733 9.95529C4.01254 10.3804 4.22951 10.7262 4.7264 11.0725C5.026 11.2817 6.10578 11.9496 6.34916 12.1751C6.60098 12.4079 6.56838 12.5878 6.53915 12.8166C6.51498 13.0084 5.97143 15.5554 2.56515 17.2023C2.36561 17.299 2.02611 17.5036 2.62474 17.8342C3.56455 18.3538 4.19016 18.2981 4.67637 18.6113C5.08895 18.8772 4.845 19.4507 5.14516 19.6577C5.51389 19.9124 6.60379 19.6397 8.01183 20.1047C9.19223 20.4937 9.90946 21.593 12.0027 21.593C14.0959 21.593 14.8339 20.4887 15.9935 20.1047C17.3988 19.6397 18.4909 19.9124 18.8602 19.6577C19.1598 19.4507 18.9164 18.8772 19.329 18.6113C19.8152 18.2981 20.4403 18.3538 21.3806 17.8342C21.9781 17.5076 21.6386 17.3029 21.4391 17.2062Z" fill="white"/>
<path d="M22.9213 17.0126C22.7685 16.5965 22.4773 16.3738 22.1457 16.1894C22.0833 16.1529 22.0259 16.1236 21.977 16.1012C21.8781 16.05 21.7769 16.0005 21.6763 15.9482C20.6426 15.4 19.8355 14.7084 19.2756 13.8887C19.1166 13.6579 18.9787 13.4132 18.8636 13.1577C18.8158 13.0211 18.8181 12.9435 18.8524 12.8727C18.8864 12.8181 18.9314 12.7712 18.9845 12.7349C19.1621 12.6174 19.3453 12.4982 19.4695 12.4178C19.691 12.2744 19.8664 12.1608 19.9794 12.0804C20.4037 11.7836 20.7005 11.4681 20.886 11.1156C21.0154 10.872 21.0909 10.6034 21.1073 10.3281C21.1237 10.0527 21.0806 9.7771 20.981 9.51989C20.7 8.77996 20.0013 8.32059 19.1548 8.32059C18.9762 8.32042 18.7982 8.33927 18.6236 8.37682C18.5769 8.38694 18.5303 8.39762 18.4848 8.40943C18.4926 7.90339 18.4814 7.36925 18.4364 6.84353C18.2768 4.99538 17.6298 4.02661 16.9553 3.25406C16.5234 2.76995 16.0146 2.36038 15.4495 2.04183C14.4259 1.45708 13.2652 1.1602 11.9999 1.1602C10.7346 1.1602 9.57952 1.45708 8.55482 2.04183C7.9883 2.36048 7.4785 2.77087 7.04617 3.25631C6.37166 4.02886 5.72469 4.99932 5.56505 6.84578C5.52009 7.3715 5.50884 7.90845 5.51615 8.41168C5.47062 8.39987 5.42453 8.38919 5.37788 8.37907C5.20331 8.34152 5.02525 8.32267 4.8467 8.32284C3.99963 8.32284 3.29982 8.78221 3.0199 9.52214C2.91984 9.77946 2.87634 10.0553 2.89234 10.3309C2.90835 10.6066 2.98348 10.8755 3.11264 11.1195C3.2987 11.4721 3.59548 11.7875 4.01986 12.0844C4.13228 12.1631 4.30821 12.2767 4.52968 12.4217C4.6494 12.4993 4.82422 12.6129 4.99565 12.7265C5.05564 12.7653 5.10662 12.8164 5.14517 12.8766C5.18114 12.9502 5.18227 13.0295 5.12887 13.1757C5.01529 13.4259 4.87967 13.6654 4.7236 13.8915C4.17612 14.6927 3.39257 15.3719 2.39204 15.9156C1.86199 16.1967 1.31114 16.3845 1.07843 17.0171C0.903058 17.4944 1.01772 18.0376 1.46346 18.4953C1.62705 18.6661 1.81679 18.8098 2.02556 18.9209C2.45994 19.1597 2.92183 19.3445 3.401 19.4713C3.49988 19.4969 3.59375 19.5389 3.67867 19.5956C3.84112 19.7379 3.81807 19.9521 4.03448 20.2658C4.14311 20.428 4.28114 20.5683 4.44143 20.6796C4.8956 20.9934 5.40598 21.0131 5.94671 21.0339C6.43517 21.0524 6.98883 21.0738 7.62119 21.2824C7.88312 21.369 8.15518 21.5365 8.47051 21.7322C9.22765 22.1977 10.2641 22.8348 11.9988 22.8348C13.7334 22.8348 14.7772 22.1944 15.5399 21.7271C15.853 21.5348 16.1234 21.369 16.378 21.2846C17.0104 21.0755 17.564 21.0547 18.0525 21.0361C18.5932 21.0153 19.1036 20.9956 19.5578 20.6819C19.7476 20.5495 19.9058 20.3767 20.021 20.1759C20.1767 19.911 20.1727 19.726 20.3189 19.5967C20.3985 19.5427 20.4867 19.5024 20.5797 19.4775C21.0654 19.3503 21.5336 19.1637 21.9737 18.922C22.1955 18.803 22.3951 18.6466 22.5639 18.4598L22.5695 18.4531C22.9877 18.0055 23.0928 17.4781 22.9213 17.0126ZM21.3795 17.8413C20.4391 18.3609 19.8141 18.3052 19.3279 18.6184C18.9148 18.8843 19.1593 19.4578 18.8591 19.6648C18.4904 19.9195 17.4005 19.6468 15.9924 20.1118C14.8312 20.4958 14.0903 21.6001 12.0016 21.6001C9.91284 21.6001 9.18943 20.498 8.00903 20.1089C6.6038 19.644 5.51166 19.9167 5.14236 19.6619C4.84277 19.455 5.08615 18.8815 4.67358 18.6156C4.1868 18.3024 3.56176 18.3581 2.62194 17.8413C2.02331 17.5107 2.36281 17.3061 2.56235 17.2094C5.96864 15.5597 6.51218 13.0127 6.53635 12.8237C6.56558 12.5949 6.59818 12.415 6.34636 12.1822C6.10298 11.9573 5.0232 11.2888 4.7236 11.0796C4.22784 10.7333 4.00974 10.3875 4.1705 9.96239C4.28292 9.66833 4.55722 9.55756 4.84501 9.55756C4.93597 9.55784 5.02663 9.56802 5.11538 9.58793C5.65949 9.706 6.18785 9.9787 6.49307 10.0524C6.52982 10.0618 6.56755 10.0669 6.60549 10.0675C6.76849 10.0675 6.82583 9.98545 6.81459 9.79877C6.77974 9.20334 6.69542 8.04283 6.78929 6.95823C6.91801 5.46599 7.3986 4.72662 7.96969 4.07271C8.24399 3.75841 9.53287 2.39605 11.9976 2.39605C14.4624 2.39605 15.7547 3.75279 16.029 4.06596C16.6006 4.71987 17.0818 5.45925 17.2094 6.95149C17.3032 8.03609 17.2223 9.19715 17.1841 9.79203C17.1711 9.98825 17.2302 10.0608 17.3932 10.0608C17.4311 10.0602 17.4688 10.0551 17.5056 10.0456C17.8114 9.97195 18.3397 9.69925 18.8838 9.58118C18.9726 9.56128 19.0632 9.5511 19.1542 9.55082C19.4437 9.55082 19.7163 9.66327 19.8287 9.95564C19.9895 10.3807 19.7725 10.7265 19.2762 11.0729C18.9766 11.282 17.8968 11.95 17.6534 12.1755C17.401 12.4082 17.4342 12.5881 17.4634 12.817C17.4876 13.0087 18.0306 15.5558 21.4374 17.2026C21.6387 17.3033 21.9782 17.5079 21.3795 17.8413Z" fill="black"/>
</svg>
