<svg width="24" height="24" viewBox="0 0 24 24" fill="none" xmlns="http://www.w3.org/2000/svg">
<path fill-rule="evenodd" clip-rule="evenodd" d="M19.7945 4.19719C17.7264 2.13656 14.9761 1.00126 12.0459 1C6.00822 1 1.09422 5.89018 1.0918 11.9009C1.09106 13.8222 1.59536 15.6976 2.554 17.351L1 23L6.80687 21.4841C8.40683 22.3525 10.2082 22.8104 12.0415 22.811H12.046C18.0831 22.811 22.9975 17.9202 23 11.9094C23.0011 8.99664 21.8626 6.25771 19.7945 4.19719ZM12.046 20.9699H12.0423C10.4086 20.9693 8.80626 20.5324 7.40845 19.7068L7.07594 19.5106L3.63005 20.4101L4.5498 17.0665L4.33333 16.7235C3.42201 15.281 2.94058 13.6136 2.94132 11.9014C2.94332 6.9056 7.02756 2.8412 12.0497 2.8412C14.4814 2.84204 16.7674 3.78571 18.4864 5.49853C20.2053 7.21124 21.1513 9.48773 21.1504 11.9089C21.1484 16.9051 17.0641 20.9699 12.046 20.9699ZM17.04 14.1836C16.7663 14.0473 15.4208 13.3883 15.1698 13.2974C14.919 13.2066 14.7364 13.1611 14.554 13.4338C14.3716 13.7065 13.8469 14.32 13.6873 14.5019C13.5276 14.6836 13.3679 14.7064 13.0943 14.57C12.8205 14.4337 11.9387 14.146 10.8932 13.218C10.0796 12.4957 9.5303 11.6037 9.37063 11.3309C9.21097 11.0582 9.35356 10.9108 9.49068 10.775C9.61377 10.6529 9.76438 10.4568 9.90128 10.2978C10.0382 10.1388 10.0837 10.0251 10.175 9.8433C10.2663 9.66153 10.2206 9.50241 10.1521 9.36616C10.0837 9.2297 9.53631 7.88892 9.30824 7.34351C9.08608 6.81246 8.86043 6.88431 8.69244 6.87592C8.53298 6.86805 8.35034 6.86627 8.1678 6.86627C7.98536 6.86627 7.6889 6.93445 7.43796 7.20715C7.18713 7.47986 6.48006 8.13887 6.48006 9.47965C6.48006 10.8204 7.46072 12.1156 7.59763 12.2975C7.73443 12.4792 9.52767 15.2305 12.2732 16.4105C12.9261 16.6912 13.436 16.8587 13.8336 16.9844C14.4893 17.1917 15.0859 17.1624 15.5574 17.0923C16.0834 17.0141 17.1768 16.4333 17.4049 15.797C17.6329 15.1607 17.6329 14.6153 17.5645 14.5017C17.4961 14.3882 17.3137 14.32 17.04 14.1836Z" fill="#04071E"/>
</svg>
