<svg width="24" height="24" viewBox="0 0 24 24" fill="none" xmlns="http://www.w3.org/2000/svg">
<path d="M7.95554 14.5382C8.20612 14.6243 8.37128 14.681 8.37128 14.3578C8.37128 13.8449 7.95572 13.4297 7.44281 13.4297C6.9302 13.4297 6.51465 13.8449 6.51465 14.3578C6.51465 14.681 6.67982 14.6243 6.93035 14.5382C7.0772 14.4877 7.25338 14.4272 7.44281 14.4272C7.63237 14.4272 7.80863 14.4877 7.95554 14.5382Z" fill="#04071E"/>
<path d="M16.6252 14.3578C16.6252 14.681 16.46 14.6243 16.2095 14.5382C16.0626 14.4877 15.8865 14.4272 15.697 14.4272C15.5075 14.4272 15.3312 14.4877 15.1843 14.5382C14.9337 14.6243 14.7686 14.681 14.7686 14.3578C14.7686 13.8449 15.1841 13.4297 15.697 13.4297C16.2096 13.4297 16.6252 13.8449 16.6252 14.3578Z" fill="#04071E"/>
<path fill-rule="evenodd" clip-rule="evenodd" d="M20.3492 6.01423C20.7451 5.92185 21.0052 5.77006 21.417 5.48203L22.0002 5.07362L21.7899 5.75046C21.756 5.86089 21.7196 6.06649 21.6783 6.30444C21.5545 7.01768 21.3647 8.08707 20.8702 8.85598C21.0378 9.46844 21.1473 10.308 20.988 11.4053C20.9747 11.4952 20.919 11.5718 20.8375 11.6119C20.7986 11.6312 20.756 11.6411 20.7146 11.6411C20.7111 11.6411 20.7077 11.6396 20.7044 11.638C20.701 11.6365 20.6977 11.6349 20.6941 11.6349C20.3638 18.0298 16.6505 22.4196 11.4222 22.4196C6.52226 22.4196 2.66312 17.5728 2.43606 11.2875C2.35954 11.2716 2.28894 11.2265 2.24881 11.1512C2.2174 11.0931 1.49919 9.68711 2.65721 7.32531C2.68987 7.25968 2.74586 7.20866 2.81616 7.18533C2.82114 7.18285 2.89392 7.15983 3.023 7.1197C4.27932 3.68603 7.40065 1.55005 11.5693 1.55005C14.686 1.55005 17.1463 2.62286 18.7308 4.52804C18.9457 4.43566 19.1715 4.34359 19.3989 4.25245C19.8546 4.07017 20.3246 3.88168 20.5436 3.74202L21.2456 3.29379L20.8922 4.04933C20.5361 4.81016 20.3843 5.47954 20.3492 6.01423ZM18.0557 5.14671C18.3227 4.94557 18.9168 4.70735 19.4876 4.47849C19.9689 4.28549 20.4337 4.09914 20.6716 3.94731C20.2875 4.76754 20.1273 5.48794 20.0993 6.06524C20.0932 6.06587 20.0883 6.06703 20.0834 6.0682C20.0785 6.06937 20.0736 6.07053 20.0676 6.07115C19.9973 6.08111 19.9254 6.09417 19.8551 6.10755V6.11377C19.8404 6.11678 19.8256 6.12059 19.8109 6.12439C19.7952 6.12844 19.7796 6.13249 19.764 6.13554C19.7627 6.13336 19.7615 6.13088 19.7602 6.12714C19.2134 6.24627 18.6678 6.46619 18.205 6.7735C17.8608 6.65955 17.502 6.5671 17.1427 6.47453L17.1055 6.46494C17.233 5.96789 17.5817 5.50256 18.0557 5.14671ZM19.067 14.0468C18.1451 17.6044 16.6799 17.2104 14.6643 16.6684C13.821 16.4417 12.8814 16.189 11.8449 16.189C10.8028 16.189 9.80218 16.4847 8.88009 16.7572C6.69275 17.4037 4.9476 17.9195 4.14152 14.0468C3.43942 10.6743 6.89699 10.7692 10.1167 10.8576C10.6241 10.8715 11.1257 10.8853 11.6041 10.8853C12.01 10.8853 12.4346 10.8776 12.8667 10.8698C16.1744 10.81 19.9223 10.7422 19.067 14.0468ZM20.7725 8.54027C20.5952 8.0373 20.3959 7.75051 20.3557 7.69577L20.3547 7.69441C20.3543 7.69376 20.354 7.69328 20.3532 7.69328L20.3526 7.69249L20.3513 7.69064L20.3498 7.68862C20.3477 7.68573 20.3451 7.6841 20.3426 7.68251L20.3395 7.6805L20.3374 7.67866L20.337 7.67685L20.3364 7.67524C20.3131 7.64942 20.2864 7.62765 20.2562 7.61303C19.6997 7.33495 19.1153 7.09202 18.5078 6.87802C19.0021 6.58657 19.5697 6.38843 20.1019 6.31191C20.7361 6.21953 21.0301 6.04814 21.5561 5.6811C21.5173 5.806 21.4812 6.01134 21.4369 6.26419C21.3258 6.89731 21.1624 7.82831 20.7725 8.54027ZM20.7135 11.3665C20.7135 11.3665 12.5778 6.85002 2.49095 11.0224C2.49095 11.0224 1.79452 9.70919 2.90526 7.44537C2.90526 7.44537 12.7103 4.1442 20.1341 7.85845C20.1341 7.85845 21.0538 9.02737 20.7135 11.3665Z" fill="#04071E"/>
</svg>
