<svg width="24" height="24" viewBox="0 0 24 24" fill="none" xmlns="http://www.w3.org/2000/svg">
<path fill-rule="evenodd" clip-rule="evenodd" d="M21.417 5.48203C21.0052 5.77006 20.7451 5.92185 20.3492 6.01423C20.3843 5.47954 20.5361 4.81016 20.8922 4.04933L21.2456 3.29379L20.5436 3.74202C20.3246 3.88168 19.8546 4.07017 19.3989 4.25245C19.1715 4.34359 18.9457 4.43566 18.7308 4.52804C17.1463 2.62286 14.686 1.55005 11.5693 1.55005C7.40065 1.55005 4.27932 3.68603 3.023 7.1197C2.89392 7.15983 2.82114 7.18285 2.81616 7.18533C2.74586 7.20866 2.68987 7.25968 2.65721 7.32531C1.49919 9.68711 2.2174 11.0931 2.24881 11.1512C2.28894 11.2265 2.35954 11.2716 2.43606 11.2875C2.66312 17.5728 6.52226 22.4196 11.4222 22.4196C16.6505 22.4196 20.3638 18.0298 20.6941 11.6349C20.7013 11.6349 20.7075 11.6411 20.7146 11.6411C20.756 11.6411 20.7986 11.6312 20.8375 11.6119C20.919 11.5718 20.9747 11.4952 20.988 11.4053C21.1473 10.308 21.0378 9.46844 20.8702 8.85598C21.3647 8.08707 21.5545 7.01768 21.6783 6.30444C21.7196 6.06649 21.756 5.86089 21.7899 5.75046L22.0002 5.07362L21.417 5.48203Z" fill="url(#paint0_linear_113_499)"/>
<path fill-rule="evenodd" clip-rule="evenodd" d="M19.067 14.0467C17.7594 19.0929 15.3587 16.1889 11.8449 16.1889C8.33099 16.1889 5.28741 19.552 4.14152 14.0467C3.32876 10.1428 8.09024 10.8852 11.6041 10.8852C15.1168 10.8852 20.0341 10.3104 19.067 14.0467Z" fill="white"/>
<path fill-rule="evenodd" clip-rule="evenodd" d="M8.37128 14.3577C8.37128 14.8703 7.95572 14.4271 7.44281 14.4271C6.9302 14.4271 6.51465 14.8703 6.51465 14.3577C6.51465 13.8448 6.9302 13.4296 7.44281 13.4296C7.95572 13.4296 8.37128 13.8448 8.37128 14.3577Z" fill="#6C60C9"/>
<path fill-rule="evenodd" clip-rule="evenodd" d="M16.6252 14.3577C16.6252 14.8703 16.2096 14.4271 15.697 14.4271C15.1841 14.4271 14.7686 14.8703 14.7686 14.3577C14.7686 13.8448 15.1841 13.4296 15.697 13.4296C16.2096 13.4296 16.6252 13.8448 16.6252 14.3577Z" fill="#6C60C9"/>
<path fill-rule="evenodd" clip-rule="evenodd" d="M18.0557 5.14667C18.5478 4.7759 20.1515 4.27916 20.6716 3.94727C20.2875 4.7675 20.1273 5.48789 20.0993 6.0652C20.0871 6.06645 20.0797 6.06987 20.0676 6.07111C19.9973 6.08107 19.9254 6.09413 19.8551 6.10751V6.11373C19.8246 6.11995 19.7941 6.12959 19.764 6.1355C19.7627 6.13332 19.7615 6.13083 19.7602 6.1271C19.2134 6.24623 18.6678 6.46615 18.205 6.77346C17.8489 6.65558 17.4772 6.56071 17.1055 6.4649C17.233 5.96784 17.5817 5.50251 18.0557 5.14667Z" fill="white"/>
<path fill-rule="evenodd" clip-rule="evenodd" d="M20.7725 8.5402C20.5952 8.03723 20.3959 7.75044 20.3557 7.6957C20.3545 7.69445 20.3545 7.69321 20.3532 7.69321C20.352 7.69197 20.3508 7.68948 20.3498 7.68854C20.3461 7.68357 20.3411 7.68232 20.3374 7.67859C20.3374 7.67735 20.3364 7.67517 20.3364 7.67517C20.3131 7.64935 20.2864 7.62758 20.2562 7.61296C19.6997 7.33488 19.1153 7.09195 18.5078 6.87795C19.0021 6.5865 19.5697 6.38836 20.1019 6.31184C20.7361 6.21946 21.0301 6.04807 21.5561 5.68103C21.4201 6.11868 21.3181 7.54391 20.7725 8.5402Z" fill="white"/>
<path fill-rule="evenodd" clip-rule="evenodd" d="M20.7135 11.3664C20.7135 11.3664 12.5778 6.84996 2.49095 11.0224C2.49095 11.0224 1.79452 9.70913 2.90526 7.44531C2.90526 7.44531 12.7103 4.14414 20.1341 7.85838C20.1341 7.85838 21.0538 9.02731 20.7135 11.3664Z" fill="white"/>
<defs>
<linearGradient id="paint0_linear_113_499" x1="1002.01" y1="9.57745" x2="1002.01" y2="2735.88" gradientUnits="userSpaceOnUse">
<stop stop-color="#617BE0"/>
<stop offset="1" stop-color="#734CB9"/>
</linearGradient>
</defs>
</svg>
