<svg width="24" height="24" viewBox="0 0 24 24" fill="none" xmlns="http://www.w3.org/2000/svg">
<path d="M9.02955 4.14181V11.4163C9.02955 11.4163 11.6943 11.4163 13.1207 11.3125C14.2427 11.1235 14.4489 11.0197 14.6564 9.94062L15.0687 8.35985H16.289L16.0829 11.8141L16.1908 15.3522H14.9608L14.6564 13.9697C14.3507 12.9864 13.9384 12.7868 13.1207 12.6923C12.0983 12.5885 9.02955 12.5885 9.02955 12.5885V18.6894C9.02955 19.863 9.648 20.3646 11.0758 20.3646H15.3731C16.7013 20.3646 18.0281 20.2609 18.8555 18.3967L19.9679 16.0322H21C20.8921 16.5232 20.3802 20.8556 20.2819 21.831C20.2819 21.831 16.3969 21.7365 14.7643 21.7365H7.39558L3.00006 21.831V20.7612L4.4265 20.4591C5.45862 20.2609 5.763 19.9668 5.763 19.1817C5.763 19.1817 5.87092 16.5232 5.87092 12.0962C5.87092 7.67858 5.763 5.02001 5.763 5.02001C5.763 4.13914 5.45862 3.94088 4.4265 3.74129L3.00006 3.45122V2.37209L7.29874 2.45725H15.4824C17.115 2.45725 19.8682 2.17383 19.8682 2.17383C19.8682 2.17383 19.77 3.83843 19.6621 7.77438H18.54L18.1264 6.39187C17.7238 4.62349 17.1136 3.74262 15.9832 3.74262H9.55115C9.02955 3.74395 9.02955 3.83843 9.02955 4.14181Z" fill="#04071E"/>
</svg>
