<svg width="24" height="24" viewBox="0 0 24 24" fill="none" xmlns="http://www.w3.org/2000/svg">
<path fill-rule="evenodd" clip-rule="evenodd" d="M6.04184 2.00269H17.9586C20.1905 2.00269 21.9976 3.8097 22.0001 6.0416V17.9584C22.0001 20.1903 20.1905 21.9973 17.9611 21.9973H6.04184C3.80994 21.9973 2.00293 20.1903 2.00293 17.9609V6.0416C2.00293 3.8097 3.80994 2.00269 6.04184 2.00269ZM12.3204 5.89664L11.9155 6.59645L11.5181 5.89414C11.2632 5.45676 10.7109 5.3093 10.2735 5.55923C9.83609 5.81416 9.68863 6.36651 9.93856 6.8039L10.8658 8.41346L7.89661 13.5596H5.57724C5.07237 13.5596 4.66748 13.9645 4.66748 14.4693C4.66748 14.9742 5.07237 15.3791 5.57724 15.3791H13.85C14.2474 14.6343 13.735 13.5596 12.8203 13.5596H9.99855L13.9 6.8064C14.1499 6.36901 14.0025 5.81166 13.5651 5.56173C13.1277 5.3118 12.5704 5.45926 12.3204 5.89664ZM7.53171 17.8334L8.40648 16.3163C7.9341 15.7465 7.33676 15.5715 6.60196 15.799L5.95214 16.9237C5.7022 17.3611 5.84966 17.9184 6.28705 18.1683C6.72443 18.4183 7.28178 18.2708 7.53171 17.8334ZM18.3063 13.5646H15.9395C15.7582 13.2507 15.5838 12.9487 15.4164 12.6587C14.4827 11.0417 13.7642 9.79724 13.2577 8.92833C12.7203 9.37571 12.1755 10.6954 12.9378 12.01C13.2683 12.5835 13.6733 13.2846 14.1521 14.1135C14.7521 15.1523 15.4681 16.392 16.2994 17.8334C16.5543 18.2708 17.1066 18.4183 17.544 18.1683C17.9814 17.9134 18.1289 17.3611 17.8789 16.9237L16.9917 15.3841H18.3063C18.8112 15.3841 19.2161 14.9792 19.2161 14.4743C19.2161 13.9695 18.8112 13.5646 18.3063 13.5646Z" fill="#04071E"/>
</svg>
