<svg width="24" height="24" viewBox="0 0 24 24" fill="none" xmlns="http://www.w3.org/2000/svg">
<path d="M17.9586 2.00269H6.04184C3.80994 2.00269 2.00293 3.8097 2.00293 6.0416V17.9609C2.00293 20.1903 3.80994 21.9973 6.04184 21.9973H17.9611C20.1905 21.9973 22.0001 20.1903 22.0001 17.9584V6.0416C21.9976 3.8097 20.1905 2.00269 17.9586 2.00269Z" fill="url(#paint0_linear_103_43)"/>
<path d="M11.9155 6.59643L12.3204 5.89662C12.5703 5.45924 13.1276 5.31178 13.565 5.56171C14.0024 5.81164 14.1499 6.36899 13.8999 6.80638L9.99848 13.5596H12.8202C13.735 13.5596 14.2473 14.6343 13.8499 15.3791H5.57717C5.07231 15.3791 4.66742 14.9742 4.66742 14.4693C4.66742 13.9645 5.07231 13.5596 5.57717 13.5596H7.89655L10.8658 8.41345L9.9385 6.80388C9.68857 6.3665 9.83603 5.81414 10.2734 5.55921C10.7108 5.30928 11.2631 5.45674 11.5181 5.89412L11.9155 6.59643ZM8.40641 16.3163L7.53165 17.8334C7.28171 18.2708 6.72436 18.4183 6.28698 18.1683C5.8496 17.9184 5.70214 17.361 5.95207 16.9237L6.6019 15.799C7.3367 15.5715 7.93404 15.7465 8.40641 16.3163ZM15.9394 13.5646H18.3063C18.8111 13.5646 19.216 13.9695 19.216 14.4743C19.216 14.9792 18.8111 15.3841 18.3063 15.3841H16.9916L17.8789 16.9237C18.1288 17.361 17.9813 17.9134 17.544 18.1683C17.1066 18.4183 16.5542 18.2708 16.2993 17.8334C14.8047 15.2416 13.6825 13.3021 12.9377 12.01C12.1754 10.6953 12.7203 9.37569 13.2576 8.92831C13.8549 9.95303 14.7472 11.5001 15.9394 13.5646Z" fill="white"/>
<defs>
<linearGradient id="paint0_linear_103_43" x1="12.0015" y1="2.00269" x2="12.0015" y2="21.9973" gradientUnits="userSpaceOnUse">
<stop stop-color="#18BFFB"/>
<stop offset="1" stop-color="#2072F3"/>
</linearGradient>
</defs>
</svg>
