<svg width="24" height="24" viewBox="0 0 24 24" fill="none" xmlns="http://www.w3.org/2000/svg">
<path d="M12 16.9978C14.7614 16.9978 17 14.7592 17 11.9978C17 9.23638 14.7614 6.9978 12 6.9978C9.23858 6.9978 7 9.23638 7 11.9978C7 14.7592 9.23858 16.9978 12 16.9978Z" fill="white"/>
<path d="M12.0003 7.00002H20.6591C19.7817 5.47976 18.5195 4.21731 16.9994 3.3396C15.4793 2.4619 13.7549 1.99988 11.9996 2C10.2443 2.00012 8.52 2.46238 7.00004 3.3403C5.48007 4.21822 4.21803 5.48085 3.34082 7.00123L7.67024 14.5L7.67411 14.499C7.2337 13.7395 7.00128 12.8774 7.00029 11.9995C6.99931 11.1215 7.22978 10.2589 7.66849 9.49839C8.1072 8.73794 8.73863 8.10657 9.49914 7.66795C10.2596 7.22932 11.1223 6.99894 12.0003 7.00002Z" fill="url(#paint0_linear_104_272)"/>
<path d="M12.0001 15.9583C14.1862 15.9583 15.9584 14.1861 15.9584 12C15.9584 9.81383 14.1862 8.04163 12.0001 8.04163C9.81395 8.04163 8.04175 9.81383 8.04175 12C8.04175 14.1861 9.81395 15.9583 12.0001 15.9583Z" fill="#1A73E8"/>
<path d="M16.3295 14.5013L12.0001 22.0001C13.7554 22.0003 15.4798 21.5384 16.9999 20.6608C18.5201 19.7832 19.7824 18.5209 20.6599 17.0007C21.5374 15.4805 21.9993 13.756 21.999 12.0008C21.9986 10.2455 21.5362 8.52121 20.6581 7.00134H11.9993L11.9983 7.00522C12.8762 7.00352 13.7391 7.23331 14.4999 7.67142C15.2607 8.10952 15.8926 8.74046 16.3318 9.50063C16.771 10.2608 17.0021 11.1233 17.0017 12.0013C17.0013 12.8792 16.7694 13.7415 16.3295 14.5013Z" fill="url(#paint1_linear_104_272)"/>
<path d="M7.67028 14.5012L3.34087 7.00244C2.463 8.52244 2.0008 10.2468 2.00073 12.0021C2.00067 13.7574 2.46274 15.4817 3.34049 17.0018C4.21824 18.5219 5.48073 19.784 7.00102 20.6614C8.5213 21.5388 10.2458 22.0004 12.0011 21.9999L16.3305 14.5011L16.3277 14.4983C15.8902 15.2595 15.2597 15.8918 14.4999 16.3316C13.7401 16.7715 12.8778 17.0032 11.9998 17.0035C11.1219 17.0038 10.2594 16.7726 9.49929 16.3333C8.73918 15.894 8.10831 15.2621 7.67028 14.5012Z" fill="url(#paint2_linear_104_272)"/>
<defs>
<linearGradient id="paint0_linear_104_272" x1="3.34082" y1="8.25002" x2="20.6591" y2="8.25002" gradientUnits="userSpaceOnUse">
<stop stop-color="#D93025"/>
<stop offset="1" stop-color="#EA4335"/>
</linearGradient>
<linearGradient id="paint1_linear_104_272" x1="10.6339" y1="21.8663" x2="19.2931" y2="6.86826" gradientUnits="userSpaceOnUse">
<stop stop-color="#FCC934"/>
<stop offset="1" stop-color="#FBBC04"/>
</linearGradient>
<linearGradient id="paint2_linear_104_272" x1="13.0826" y1="21.3756" x2="4.42341" y2="6.37744" gradientUnits="userSpaceOnUse">
<stop stop-color="#1E8E3E"/>
<stop offset="1" stop-color="#34A853"/>
</linearGradient>
</defs>
</svg>
