<svg width="24" height="24" viewBox="0 0 24 24" fill="none" xmlns="http://www.w3.org/2000/svg">
<path fill-rule="evenodd" clip-rule="evenodd" d="M2 11.7001C2 6.12756 6.3675 2.00006 12 2.00006C17.6325 2.00006 22 6.13006 22 11.7026C22 17.2751 17.6325 21.4026 12 21.4026C10.9875 21.4026 10.0175 21.2676 9.105 21.0176C8.9275 20.9701 8.7375 20.9826 8.57 21.0576L6.585 21.9326C6.46511 21.9854 6.33407 22.0081 6.2034 21.9985C6.07272 21.9888 5.94641 21.9473 5.83556 21.8774C5.72471 21.8075 5.63271 21.7115 5.56767 21.5978C5.50262 21.484 5.4665 21.356 5.4625 21.2251L5.4075 19.4451C5.4025 19.2251 5.3025 19.0201 5.14 18.8751C3.195 17.1351 2 14.6151 2 11.7001ZM8.93245 9.87757L5.99495 14.5376C5.71245 14.9851 6.26245 15.4876 6.68245 15.1676L9.83745 12.7726C9.94126 12.6937 10.0679 12.6508 10.1983 12.6504C10.3286 12.6499 10.4556 12.6919 10.5599 12.7701L12.8974 14.5226C13.0632 14.6471 13.2531 14.7359 13.4549 14.7833C13.6567 14.8308 13.8662 14.8359 14.0701 14.7983C14.2741 14.7607 14.468 14.6813 14.6396 14.5649C14.8113 14.4486 14.9569 14.298 15.0674 14.1226L18.0074 9.46507C18.2874 9.01757 17.7374 8.51257 17.3174 8.83256L14.1624 11.2276C14.0586 11.3064 13.932 11.3493 13.8016 11.3498C13.6713 11.3502 13.5443 11.3082 13.4399 11.2301L11.1024 9.47757C10.9367 9.35305 10.7468 9.26426 10.545 9.2168C10.3432 9.16934 10.1337 9.16425 9.92976 9.20184C9.72585 9.23942 9.53194 9.31888 9.36029 9.43518C9.18863 9.55149 9.04295 9.70212 8.93245 9.87757Z" fill="#04071E"/>
</svg>
