<svg width="24" height="24" viewBox="0 0 24 24" fill="none" xmlns="http://www.w3.org/2000/svg">
<path d="M4.78523 8.42379C4.51638 8.30171 4.28365 8.20703 4.09419 8.13579C4.05405 7.83714 4.02534 7.53791 4.00676 7.2378C3.99236 6.99072 4.00123 6.74677 4.03088 6.50684C4.19215 6.53335 4.42086 6.57348 4.70568 6.62871C4.67771 6.96822 4.6751 7.32601 4.70568 7.70399C4.725 7.94539 4.75135 8.18553 4.78523 8.42379ZM7.44192 9.99241C6.76231 9.49402 6.1243 9.10731 5.5699 8.81127C5.45758 8.12044 5.40936 7.43603 5.4519 6.7844C5.96469 6.89766 6.57045 7.04364 7.23738 7.22909C7.19301 8.10035 7.27495 9.03753 7.44192 9.99241ZM14.4195 10.3559C14.4131 10.4312 14.4042 10.5075 14.3961 10.5837C13.4677 11.0685 12.5442 11.7216 11.7137 12.6026C11.4449 12.8875 11.2002 13.1731 10.9763 13.4579C10.7253 13.1403 10.4571 12.8184 10.1724 12.4951C10.0449 12.3506 9.91724 12.2103 9.78816 12.0738C9.57474 10.6446 9.43889 9.2342 9.41399 7.91256C11.0662 8.49921 12.85 9.29516 14.4195 10.3559Z" fill="#2AC64B"/>
<path d="M4.98739 5.23987C4.84856 5.66117 4.74746 6.12407 4.70513 6.62873C4.42026 6.57351 4.1916 6.53338 4.03027 6.50686C4.04854 6.35607 4.07521 6.20675 4.10966 6.05998C4.3118 5.84233 4.60476 5.55439 4.98739 5.23987Z" fill="#008A5A"/>
<path d="M8.22126 3.41846C7.73257 4.31477 7.34091 5.52226 7.24222 7.1343C7.2406 7.16562 7.23908 7.19767 7.23747 7.22893C6.57054 7.04354 5.96479 6.89771 5.45215 6.78445C5.45293 6.76274 5.45455 6.74192 5.45601 6.7202C5.51958 5.87525 5.76906 5.10028 6.14616 4.4118C6.72947 4.05151 7.4203 3.70166 8.22126 3.41846Z" fill="#009550"/>
<path d="M14.4195 10.356C12.85 9.29519 11.0662 8.49925 9.41405 7.91259C9.38221 6.33834 9.50487 4.89091 9.83056 3.69203C9.83943 3.6591 9.84825 3.62632 9.85801 3.59412C11.1683 4.36851 12.8757 5.23189 14.4965 5.61139C14.6378 7.04039 14.5952 8.66438 14.4195 10.356Z" fill="#00983E"/>
<path d="M19.983 7.23784C19.9428 7.90294 19.8482 8.561 19.7006 9.21889C19.5135 9.22604 19.2984 9.2382 19.0594 9.25903C19.1645 8.75192 19.2417 8.23291 19.2841 7.70408C19.4262 5.92523 18.8515 4.56988 18.1865 3.62382C18.3815 3.67925 18.566 3.73374 18.7385 3.78677C19.4855 4.73355 20.0616 5.94992 19.983 7.23784ZM18.3221 9.34489C17.8014 9.41947 17.2138 9.53581 16.5937 9.71311C16.7358 8.82013 16.7975 7.94793 16.7476 7.13424C16.6346 5.27846 16.1323 3.95916 15.541 3.03247C16.0969 3.12397 16.6241 3.23227 17.1104 3.3462C17.8864 4.26261 18.4351 5.40586 18.5338 6.72035C18.5964 7.55795 18.5066 8.45113 18.3221 9.34489Z" fill="#009A37"/>
<path d="M14.4969 5.61138C12.876 5.23188 11.1686 4.3685 9.8584 3.59411C9.92745 3.35433 10.005 3.13595 10.09 2.93788C10.3301 2.89696 10.5772 2.8633 10.8316 2.83751C11.8554 2.73328 12.8777 2.74289 13.851 2.82295C13.9657 3.07666 14.0708 3.36466 14.16 3.69202C14.3187 4.277 14.4295 4.92128 14.4969 5.61138Z" fill="#00863F"/>
<path d="M7.49864 1.95886C7.44488 1.99185 5.70376 3.06385 4.98788 5.23984C4.60525 5.5543 4.31234 5.84246 4.11035 6.05995C4.58354 4.00729 6.47325 2.33043 7.49864 1.95886ZM8.60034 2.80544C8.46959 2.99161 8.34203 3.19542 8.22084 3.4186C7.42009 3.70175 6.72926 4.05161 6.14595 4.41195C6.5921 3.5933 7.21867 2.8962 7.92553 2.34327C8.09327 2.46279 8.32267 2.62166 8.60034 2.80544Z" fill="#06CBF6"/>
<path d="M18.739 3.78676C18.5664 3.73373 18.3819 3.67919 18.1869 3.62381C17.4013 2.50541 16.4899 1.95801 16.4899 1.95801C17.0947 2.17638 18.0006 2.85046 18.739 3.78676ZM17.1108 3.34619C16.6245 3.2322 16.0973 3.12395 15.5415 3.03246C14.544 1.46624 13.2915 1.02161 13.2305 1.00078C14.5737 1.26963 16.0533 2.09762 17.1108 3.34619ZM13.8508 2.82306C12.8775 2.74273 11.8553 2.73318 10.8315 2.83757C10.577 2.8632 10.3299 2.89686 10.0898 2.93794C10.8088 1.24249 11.9788 1 11.9788 1H12.0117C12.0117 1 13.1287 1.23106 13.8508 2.82306ZM10.76 1.00083C10.7022 1.02088 9.56908 1.42287 8.60058 2.80547C8.32312 2.6217 8.09369 2.46282 7.92578 2.3433C8.80921 1.6532 9.81805 1.18936 10.76 1.00083Z" fill="url(#paint0_linear_106_361)"/>
<path d="M11.9947 23H13.197L13.6419 21.059H10.3477L10.7925 23H11.9947Z" fill="#666565"/>
<path fill-rule="evenodd" clip-rule="evenodd" d="M7.4533 14.3109C7.68457 14.7892 7.90519 15.216 8.09518 15.5723C8.42107 16.1821 8.73079 16.7003 9.05026 17.1722C9.14249 16.8489 9.25778 16.5079 9.40157 16.1547C9.15355 15.5859 8.9048 14.9752 8.66837 14.3388C8.15395 12.9564 7.6973 11.4529 7.44156 9.99238C6.76195 9.49414 6.12394 9.10744 5.56934 8.8114C5.88714 10.7773 6.72233 12.8016 7.4533 14.3109Z" fill="url(#paint1_linear_106_361)"/>
<path fill-rule="evenodd" clip-rule="evenodd" d="M6.36698 14.2861C6.49788 14.5147 6.6341 14.7449 6.77534 14.9769C7.43563 16.0594 8.19808 17.0592 8.8768 17.8712C8.89684 17.7725 8.92022 17.6712 8.94601 17.5679C8.67131 17.1907 8.40341 16.8071 8.17303 16.4516C7.84254 15.943 7.36434 15.2056 6.8661 14.298C6.01232 12.7414 5.10093 10.6842 4.78474 8.42387C4.51595 8.30179 4.28321 8.20732 4.09375 8.13586C4.36662 10.1627 5.14159 12.1517 6.36698 14.2861Z" fill="url(#paint2_linear_106_361)"/>
<path fill-rule="evenodd" clip-rule="evenodd" d="M9.90756 12.828C9.99337 13.3399 10.0937 13.8599 10.202 14.3734C10.2125 14.4224 10.2228 14.4712 10.2333 14.5202C10.4498 14.1696 10.6964 13.814 10.9762 13.458C10.7168 13.1299 10.4487 12.8088 10.1723 12.4949C10.0449 12.3506 9.91716 12.2103 9.78809 12.0739C9.82561 12.325 9.86487 12.5762 9.90756 12.828Z" fill="url(#paint3_linear_106_361)"/>
<path fill-rule="evenodd" clip-rule="evenodd" d="M19.0597 9.25906C18.7539 10.7442 18.2151 12.1199 17.6423 13.2962C17.758 13.4126 17.8711 13.5286 17.9805 13.6433C18.7969 12.1257 19.3772 10.6737 19.7009 9.21887C19.5138 9.22628 19.2987 9.23803 19.0597 9.25906ZM16.5941 9.7133C16.4821 10.4224 16.3202 11.1444 16.125 11.8603C16.4625 12.1648 16.8318 12.5058 17.1946 12.8558C17.6484 11.7719 18.0727 10.5573 18.3225 9.34481C17.8016 9.41961 17.2142 9.53595 16.5941 9.7133Z" fill="#97CC1A"/>
<path fill-rule="evenodd" clip-rule="evenodd" d="M11.714 12.6025C11.4452 12.8873 11.2005 13.1731 10.9766 13.458C11.953 14.692 12.6794 15.865 13.2049 16.8463C13.396 16.1082 13.5941 15.2913 13.7713 14.4544C13.8861 13.9144 13.992 13.3672 14.0826 12.8281C14.2095 12.0753 14.3154 11.3236 14.3964 10.5837C13.468 11.0684 12.5446 11.7217 11.714 12.6025ZM17.6424 13.2961C17.6205 13.3412 17.5985 13.3859 17.5765 13.4303C16.9286 14.7382 16.2471 15.7884 15.8167 16.4515C15.3199 17.2164 14.6508 18.1127 14.1204 18.7985C14.1397 18.8492 14.1581 18.8965 14.1757 18.9414C14.9972 18.0468 16.2218 16.6049 17.2144 14.9768C17.4634 14.5682 17.6966 14.1654 17.9136 13.7673C17.9362 13.7258 17.9585 13.6845 17.9807 13.6432C17.8713 13.5285 17.7581 13.4125 17.6424 13.2961ZM16.1252 11.8602L16.0994 11.9536C15.4701 14.2264 14.5115 16.4283 13.7528 17.9457C13.8355 18.1261 13.9101 18.294 13.976 18.448C14.6766 17.6142 15.254 16.77 15.8946 15.5723C16.2465 14.9128 16.7026 14.014 17.1375 12.9914L17.1948 12.8557C16.832 12.5057 16.4627 12.1647 16.1252 11.8602Z" fill="url(#paint4_linear_106_361)"/>
<path fill-rule="evenodd" clip-rule="evenodd" d="M12.627 19.9235C13.139 19.3931 13.5772 18.9221 13.9752 18.448C13.9092 18.2941 13.8347 18.1261 13.752 17.9457C13.2145 19.021 12.7763 19.7525 12.627 19.9235Z" fill="url(#paint5_linear_106_361)"/>
<path fill-rule="evenodd" clip-rule="evenodd" d="M13.2559 19.8923C13.2831 19.8658 13.6458 19.5169 14.1753 18.9414C14.1577 18.8965 14.1393 18.8492 14.12 18.7986C13.6459 19.4126 13.2838 19.8586 13.2559 19.8923Z" fill="url(#paint6_linear_106_361)"/>
<path fill-rule="evenodd" clip-rule="evenodd" d="M10.2334 14.5202C10.8384 17.3502 11.6679 19.9461 11.6679 19.9461H12.3221C12.3221 19.9461 12.7432 18.6277 13.2047 16.8463C12.6791 15.8651 11.9528 14.692 10.9763 13.458C10.6965 13.8141 10.4499 14.1696 10.2334 14.5202Z" fill="url(#paint7_linear_106_361)"/>
<path fill-rule="evenodd" clip-rule="evenodd" d="M9.05078 17.1722C9.71197 18.1543 10.4091 18.9352 11.3625 19.9235C11.1402 19.6693 10.28 18.1744 9.40209 16.1547C9.25829 16.5079 9.14301 16.8488 9.05078 17.1722Z" fill="url(#paint8_linear_106_361)"/>
<path fill-rule="evenodd" clip-rule="evenodd" d="M8.87695 17.8711C9.8751 19.0658 10.6928 19.8522 10.7344 19.8923C10.6904 19.8378 9.78945 18.7304 8.94616 17.5679C8.92038 17.6712 8.897 17.7724 8.87695 17.8711Z" fill="url(#paint9_linear_106_361)"/>
<defs>
<linearGradient id="paint0_linear_106_361" x1="8.40669" y1="2.25253" x2="18.0996" y2="2.54628" gradientUnits="userSpaceOnUse">
<stop stop-color="#0288F7"/>
<stop offset="1" stop-color="#2EE2BD"/>
</linearGradient>
<linearGradient id="paint1_linear_106_361" x1="9.15036" y1="16.4516" x2="6.76607" y2="10.5555" gradientUnits="userSpaceOnUse">
<stop stop-color="#CB1918"/>
<stop offset="0.388" stop-color="#A2183D"/>
<stop offset="0.749" stop-color="#902869"/>
<stop offset="1" stop-color="#73358A"/>
</linearGradient>
<linearGradient id="paint2_linear_106_361" x1="7.94562" y1="16.9389" x2="5.56127" y2="11.0427" gradientUnits="userSpaceOnUse">
<stop stop-color="#CB1918"/>
<stop offset="0.388" stop-color="#A2183D"/>
<stop offset="0.749" stop-color="#902869"/>
<stop offset="1" stop-color="#73358A"/>
</linearGradient>
<linearGradient id="paint3_linear_106_361" x1="11.2563" y1="15.6001" x2="8.87195" y2="9.70396" gradientUnits="userSpaceOnUse">
<stop stop-color="#CB1918"/>
<stop offset="0.388" stop-color="#A2183D"/>
<stop offset="0.749" stop-color="#902869"/>
<stop offset="1" stop-color="#73358A"/>
</linearGradient>
<linearGradient id="paint4_linear_106_361" x1="15.9978" y1="12.1173" x2="12.5377" y2="15.8968" gradientUnits="userSpaceOnUse">
<stop stop-color="#ADD816"/>
<stop offset="1" stop-color="#DBD704"/>
</linearGradient>
<linearGradient id="paint5_linear_106_361" x1="13.5393" y1="19.5243" x2="10.5939" y2="14.5573" gradientUnits="userSpaceOnUse">
<stop stop-color="#E1282B"/>
<stop offset="0.388" stop-color="#E3402A"/>
<stop offset="0.702" stop-color="#E76226"/>
<stop offset="1" stop-color="#F19A0A"/>
</linearGradient>
<linearGradient id="paint6_linear_106_361" x1="13.7278" y1="19.4128" x2="10.7825" y2="14.4458" gradientUnits="userSpaceOnUse">
<stop stop-color="#E1282B"/>
<stop offset="0.388" stop-color="#E3402A"/>
<stop offset="0.702" stop-color="#E76226"/>
<stop offset="1" stop-color="#F19A0A"/>
</linearGradient>
<linearGradient id="paint7_linear_106_361" x1="13.2273" y1="19.7097" x2="10.2819" y2="14.7427" gradientUnits="userSpaceOnUse">
<stop stop-color="#E1282B"/>
<stop offset="0.388" stop-color="#E3402A"/>
<stop offset="0.702" stop-color="#E76226"/>
<stop offset="1" stop-color="#F19A0A"/>
</linearGradient>
<linearGradient id="paint8_linear_106_361" x1="11.6037" y1="20.6725" x2="8.65834" y2="15.7054" gradientUnits="userSpaceOnUse">
<stop stop-color="#E1282B"/>
<stop offset="0.388" stop-color="#E3402A"/>
<stop offset="0.702" stop-color="#E76226"/>
<stop offset="1" stop-color="#F19A0A"/>
</linearGradient>
<linearGradient id="paint9_linear_106_361" x1="11.0591" y1="20.9952" x2="8.11369" y2="16.0282" gradientUnits="userSpaceOnUse">
<stop stop-color="#E1282B"/>
<stop offset="0.388" stop-color="#E3402A"/>
<stop offset="0.702" stop-color="#E76226"/>
<stop offset="1" stop-color="#F19A0A"/>
</linearGradient>
</defs>
</svg>
