<svg width="24" height="24" viewBox="0 0 24 24" fill="none" xmlns="http://www.w3.org/2000/svg">
<path d="M18.739 3.78676C18.5665 3.73373 18.382 3.67919 18.187 3.62381C17.4013 2.50541 16.4899 1.95801 16.4899 1.95801C17.0948 2.17638 18.0006 2.85046 18.739 3.78676Z" fill="#04071E"/>
<path d="M17.1108 3.34619C16.6245 3.2322 16.0973 3.12395 15.5415 3.03246C14.5441 1.46624 13.2915 1.02161 13.2305 1.00078C14.5737 1.26963 16.0533 2.09762 17.1108 3.34619Z" fill="#04071E"/>
<path fill-rule="evenodd" clip-rule="evenodd" d="M10.09 2.9379C10.005 3.13597 9.92747 3.35434 9.85842 3.59411C11.1686 4.3685 12.876 5.23188 14.4969 5.61138C14.4295 4.92128 14.3187 4.277 14.16 3.69202C14.0708 3.36466 13.9657 3.07666 13.851 2.82295C13.1288 1.23106 12.0118 1 12.0118 1H11.9788C11.9788 1 10.8091 1.24245 10.09 2.9379Z" fill="#04071E"/>
<path d="M10.7601 1.00083C10.7022 1.02088 9.5691 1.42287 8.6006 2.80547C8.32314 2.6217 8.09371 2.46282 7.9258 2.3433C8.80922 1.6532 9.81807 1.18936 10.7601 1.00083Z" fill="#04071E"/>
<path d="M4.9879 5.23982C5.70378 3.06382 7.4449 1.99183 7.49866 1.95884C6.47342 2.33035 4.58412 4.00677 4.11058 6.05901L4.10968 6.05998C4.07523 6.20675 4.04856 6.35607 4.03029 6.50686C4.00066 6.74676 3.99238 6.99078 4.00678 7.23782C4.02536 7.53794 4.05407 7.83716 4.0942 8.13581C4.28367 8.20705 4.5164 8.30174 4.78525 8.42382C4.75137 8.18555 4.72501 7.94541 4.7057 7.70402C4.67512 7.32603 4.67773 6.96825 4.7057 6.62873C4.74802 6.1243 4.84915 5.66096 4.9879 5.23982Z" fill="#04071E"/>
<path d="M8.22085 3.41858C8.34205 3.1954 8.46986 2.99164 8.6006 2.80547C8.32314 2.6217 8.09371 2.46282 7.9258 2.3433C7.21895 2.89623 6.59211 3.59327 6.14597 4.41193C6.72928 4.05158 7.4201 3.70173 8.22085 3.41858Z" fill="#04071E"/>
<path fill-rule="evenodd" clip-rule="evenodd" d="M19.7006 9.21884C19.8482 8.56096 19.9429 7.90291 19.983 7.23783C20.0617 5.9499 19.486 4.73354 18.739 3.78676C18.5665 3.73373 18.382 3.67919 18.187 3.62381C18.852 4.56986 19.4262 5.92522 19.2841 7.70407C19.2417 8.23289 19.1646 8.7519 19.0594 9.25901C18.7536 10.7442 18.2151 12.1199 17.6423 13.2962C17.6204 13.3412 17.5985 13.386 17.5765 13.4304C16.9286 14.7382 16.2472 15.7884 15.8167 16.4515C15.32 17.2164 14.6508 18.1127 14.1204 18.7986C14.1397 18.8492 14.1581 18.8965 14.1758 18.9414C14.9972 18.0468 16.2218 16.6049 17.2144 14.9768C17.4634 14.5682 17.6966 14.1654 17.9136 13.7673C17.9362 13.7259 17.9585 13.6846 17.9807 13.6433C18.7971 12.1257 19.3769 10.6736 19.7006 9.21884Z" fill="#04071E"/>
<path d="M16.5937 9.71309C16.7359 8.82012 16.7975 7.94792 16.7476 7.13422C16.6346 5.27844 16.1327 3.95915 15.5415 3.03246C16.0973 3.12395 16.6245 3.2322 17.1108 3.34619C17.8868 4.2626 18.4352 5.40584 18.5339 6.72033C18.5964 7.55792 18.5066 8.45108 18.3221 9.34483C18.0723 10.5573 17.6485 11.7718 17.1947 12.8556L17.1375 12.9914C16.7027 14.0141 16.2465 14.9129 15.8946 15.5723C15.254 16.7701 14.6766 17.6143 13.976 18.448C13.9101 18.2941 13.8355 18.1261 13.7528 17.9457C14.5115 16.4284 15.4701 14.2264 16.0995 11.9537L16.1252 11.8604C16.3204 11.1445 16.4817 10.4222 16.5937 9.71309Z" fill="#04071E"/>
<path d="M7.24223 7.13433C7.34093 5.52228 7.73217 4.3149 8.22085 3.41858C7.4201 3.70173 6.72928 4.05158 6.14597 4.41193C5.76887 5.10041 5.5196 5.87527 5.45603 6.72023L5.45516 6.73292C5.45397 6.75015 5.4528 6.76702 5.45217 6.78447C5.40963 7.43611 5.4576 8.12046 5.56992 8.8113C6.12432 9.10734 6.76233 9.49404 7.44194 9.99243C7.27497 9.03756 7.19303 8.10037 7.23739 7.22911L7.24223 7.13433Z" fill="#04071E"/>
<path d="M14.4023 10.5267L14.3961 10.5837C13.4678 11.0685 12.5442 11.7216 11.7137 12.6027C11.445 12.8875 11.2002 13.1731 10.9764 13.4579C10.7801 13.2096 10.5733 12.9586 10.3563 12.7064C10.5681 12.9527 10.7749 13.2031 10.9764 13.4579C10.6965 13.814 10.4498 14.1696 10.2333 14.5202L10.202 14.3735C10.0938 13.86 9.99338 13.34 9.90758 12.8281C9.86488 12.5762 9.82563 12.3251 9.78811 12.0739C9.57469 10.6447 9.43891 9.23422 9.41401 7.91258C11.0662 8.49923 12.85 9.29518 14.4195 10.356C14.4147 10.4125 14.4085 10.4695 14.4023 10.5267Z" fill="#04071E"/>
<path d="M14.4195 10.356C12.85 9.29518 11.0662 8.49923 9.41401 7.91258C9.38217 6.33833 9.50489 4.8909 9.83057 3.69202L9.83085 3.691C9.83963 3.65842 9.84876 3.62597 9.85842 3.59411C11.1686 4.3685 12.876 5.23188 14.4969 5.61138C14.6381 7.04038 14.5952 8.66437 14.4195 10.356Z" fill="#04071E"/>
<path d="M13.1971 23H10.7925L10.3477 21.0589H13.6419L13.1971 23Z" fill="#04071E"/>
<path d="M7.45332 14.3109C7.68459 14.7892 7.90521 15.216 8.0952 15.5723C8.42109 16.1821 8.73081 16.7003 9.05028 17.1722C9.14251 16.8489 9.2578 16.5079 9.40159 16.1547C9.15357 15.5859 8.90482 14.9752 8.66838 14.3388C8.15397 12.9564 7.69768 11.4529 7.44194 9.99243C6.76233 9.49404 6.12432 9.10734 5.56992 8.8113C5.88772 10.7772 6.72235 12.8016 7.45332 14.3109Z" fill="#04071E"/>
<path d="M6.77535 14.9768C6.63412 14.7448 6.4979 14.5147 6.367 14.286C5.14161 12.1516 4.36707 10.1627 4.0942 8.13581C4.28367 8.20705 4.5164 8.30174 4.78525 8.42382C5.10143 10.6842 6.01234 12.7414 6.86612 14.298C7.36436 15.2056 7.84256 15.9429 8.17304 16.4515C8.40343 16.8071 8.67133 17.1906 8.94603 17.5679C8.92024 17.6712 8.89686 17.7724 8.87682 17.8711C8.1981 17.0591 7.43565 16.0593 6.77535 14.9768Z" fill="#04071E"/>
<path d="M11.7137 12.6027C11.445 12.8875 11.2002 13.1731 10.9764 13.4579C11.9528 14.6919 12.6794 15.8651 13.2049 16.8463C13.396 16.1083 13.5941 15.2914 13.7713 14.4545C13.8861 13.9144 13.992 13.3672 14.0826 12.8281C14.2095 12.0754 14.3151 11.3236 14.3961 10.5837C13.4678 11.0685 12.5442 11.7216 11.7137 12.6027Z" fill="#04071E"/>
<path d="M13.976 18.448C13.5781 18.9221 13.139 19.3931 12.627 19.9236C12.7763 19.7525 13.2154 19.021 13.7528 17.9457C13.8355 18.1261 13.9101 18.2941 13.976 18.448Z" fill="#04071E"/>
<path d="M13.2609 19.8874C13.3131 19.8369 13.6679 19.4934 14.1758 18.9414C14.1581 18.8965 14.1397 18.8492 14.1204 18.7986C13.6463 19.4126 13.2839 19.8586 13.2559 19.8923L13.2609 19.8874Z" fill="#04071E"/>
<path d="M11.6679 19.9461C11.6679 19.9461 10.8383 17.3502 10.2333 14.5202C10.4498 14.1696 10.6965 13.814 10.9764 13.4579C11.9528 14.6919 12.6794 15.8651 13.2049 16.8463C12.7435 18.6277 12.3221 19.9461 12.3221 19.9461H11.6679Z" fill="#04071E"/>
<path d="M9.05028 17.1722C9.71147 18.1543 10.4091 18.9352 11.3625 19.9236C11.1403 19.6693 10.2795 18.1744 9.40159 16.1547C9.2578 16.5079 9.14251 16.8489 9.05028 17.1722Z" fill="#04071E"/>
<path d="M10.7331 19.891C10.6776 19.8375 9.86565 19.0546 8.87682 17.8711C8.89686 17.7724 8.92024 17.6712 8.94603 17.5679C9.758 18.6873 10.6236 19.7555 10.726 19.8819C10.73 19.8868 10.7328 19.8903 10.7344 19.8923L10.7331 19.891Z" fill="#04071E"/>
</svg>
