<svg width="24" height="24" viewBox="0 0 24 24" fill="none" xmlns="http://www.w3.org/2000/svg">
<path d="M17.789 12.2785C18.2944 12.277 18.7952 12.3751 19.2627 12.5672C19.7302 12.7592 20.1553 13.0415 20.5137 13.3978C20.8721 13.7542 21.1568 14.1776 21.3515 14.644C21.5463 15.1104 21.6473 15.6105 21.6488 16.116V19.1639C21.6454 20.1844 21.237 21.1618 20.5132 21.8811C19.7894 22.6005 18.8095 23.0029 17.789 23H12.1136C11.3015 23.0011 10.5097 22.746 9.85097 22.271C9.19223 21.796 8.7001 21.1253 8.44463 20.3544L5.06249 22.0392C4.61803 22.2606 4.10397 22.2971 3.63273 22.1405C3.1615 21.9839 2.77142 21.6472 2.54782 21.2038C2.41743 20.9446 2.34971 20.6585 2.3501 20.3683V14.9171C2.35211 14.5981 2.43547 14.2848 2.5923 14.0069C2.74913 13.7291 2.97424 13.4959 3.24635 13.3293C3.51846 13.1627 3.82856 13.0683 4.14734 13.055C4.46611 13.0416 4.78301 13.1099 5.06806 13.2532L8.43488 14.9477C8.68679 14.1708 9.17865 13.4939 9.83969 13.0142C10.5007 12.5346 11.2969 12.277 12.1136 12.2785H17.7904H17.789ZM17.7654 14.2543H12.1707C11.6658 14.2528 11.1806 14.4497 10.8195 14.8026C10.4585 15.1556 10.2507 15.6362 10.2408 16.141V19.1068C10.2411 19.6124 10.4404 20.0975 10.7955 20.4573C11.1507 20.8172 11.6332 21.0228 12.1387 21.0297H17.7333C18.2372 21.0298 18.7211 20.8323 19.0809 20.4795C19.4407 20.1267 19.6478 19.6468 19.6576 19.143V16.1772C19.6566 15.6731 19.4578 15.1895 19.1039 14.8304C18.7501 14.4713 18.2694 14.2655 17.7654 14.2571V14.2543ZM4.84667 15.4448C4.71318 15.4444 4.58486 15.4964 4.4893 15.5896C4.39375 15.6828 4.33858 15.8098 4.33566 15.9433V19.3797C4.33645 19.4661 4.35905 19.5508 4.40136 19.6261C4.44367 19.7014 4.50431 19.7647 4.57765 19.8103C4.651 19.8558 4.73467 19.8821 4.82089 19.8867C4.90711 19.8913 4.99309 19.874 5.07085 19.8364H5.0792L8.25387 18.2268V17.0878L5.07642 15.5033C5.0052 15.4671 4.92654 15.4481 4.84667 15.4476V15.4448ZM9.55855 1.00004C10.4847 0.997492 11.3949 1.24112 12.1959 1.70598C12.9969 2.17083 13.66 2.84022 14.1173 3.64561C14.7806 3.03234 15.6147 2.63518 16.5089 2.5068C17.4031 2.37842 18.3152 2.52489 19.1243 2.92677C19.9333 3.32866 20.6011 3.96698 21.0391 4.75709C21.477 5.5472 21.6645 6.45178 21.5766 7.35087C21.4887 8.24997 21.1295 9.1011 20.5468 9.79141C19.9641 10.4817 19.1853 10.9786 18.3137 11.2161C17.4421 11.4537 16.5189 11.4207 15.6665 11.1215C14.8141 10.8224 14.0728 10.2712 13.5408 9.54103C12.9794 10.2156 12.2566 10.7375 11.4396 11.058C10.6226 11.3786 9.7378 11.4875 8.86742 11.3747C7.99704 11.2619 7.16927 10.931 6.46098 10.4127C5.75269 9.89446 5.18683 9.20562 4.81595 8.41017C4.44507 7.61472 4.28119 6.73846 4.33953 5.86274C4.39786 4.98701 4.67653 4.14023 5.14964 3.401C5.62276 2.66178 6.27499 2.05408 7.04577 1.63434C7.81655 1.21459 8.6809 0.996409 9.55855 1.00004ZM9.55855 3.08865C8.94549 3.09222 8.34722 3.27728 7.83921 3.62049C7.3312 3.96369 6.93622 4.44965 6.70408 5.01708C6.47195 5.5845 6.41306 6.20797 6.53485 6.80882C6.65665 7.40968 6.95366 7.961 7.38843 8.39325C7.82319 8.8255 8.37624 9.1193 8.97779 9.23759C9.57934 9.35589 10.2024 9.29338 10.7685 9.05795C11.3346 8.82251 11.8182 8.42471 12.1585 7.91471C12.4987 7.40472 12.6803 6.80538 12.6803 6.19231C12.6792 5.78352 12.5976 5.37894 12.4401 5.0017C12.2826 4.62446 12.0523 4.28195 11.7624 3.99373C11.4725 3.70551 11.1287 3.47723 10.7505 3.32194C10.3724 3.16664 9.96734 3.08736 9.55855 3.08865ZM17.1652 4.55067C16.5353 4.54882 15.9305 4.79708 15.4835 5.24091C15.0365 5.68475 14.784 6.28786 14.7814 6.91775C14.784 7.54764 15.0365 8.15075 15.4835 8.59458C15.9305 9.03842 16.5353 9.28668 17.1652 9.28483C17.7951 9.28668 18.4 9.03842 18.847 8.59458C19.2939 8.15075 19.5464 7.54764 19.549 6.91775C19.5464 6.28786 19.2939 5.68475 18.847 5.24091C18.4 4.79708 17.7951 4.54882 17.1652 4.55067Z" fill="#04071E"/>
</svg>
