<svg width="24" height="24" viewBox="0 0 24 24" fill="none" xmlns="http://www.w3.org/2000/svg">
<path d="M2 2V22H22V2H2Z" fill="#48A947"/>
<path d="M6.27243 15.9466V19.5C5.70576 19.5266 5.1391 19.5199 4.57243 19.4866C4.5591 19.3133 4.5391 19.1666 4.5391 19.0266C4.5391 16.5266 4.53243 14.0333 4.5391 11.5333C4.54576 9.51995 5.73243 7.82662 7.53243 7.23328C10.2058 6.34662 12.9058 8.27995 13.1524 10.9933C13.3391 13.0333 12.2658 14.8466 10.4791 15.6133C9.90576 15.86 9.30576 15.94 8.69243 15.94C7.90576 15.9466 7.13243 15.9466 6.27243 15.9466ZM6.2791 14.1533C7.15243 14.1533 7.96576 14.14 8.7791 14.1533C10.2258 14.18 11.2591 13.1 11.4391 11.82C11.6391 10.3533 10.6124 9.00662 9.15243 8.79995H9.14576C7.78576 8.61995 6.41243 9.67328 6.2991 11.08C6.21243 12.08 6.2791 13.08 6.2791 14.1533Z" fill="#F9FBF9"/>
<path d="M17.9257 11.3333L21.159 15.8799H19.0657L16.6657 12.5933C15.7923 13.6799 15.0657 14.8066 14.239 15.8799H12.1523L15.379 11.3333L12.5057 7.02661H14.599L16.6523 10.0933L18.7057 7.02661H20.7923L17.9257 11.3333Z" fill="#FAFCFA"/>
<path d="M6.27995 14.1533C6.27995 13.08 6.21328 12.0733 6.29328 11.0867C6.40661 9.68001 7.77995 8.62668 9.13995 8.80668C10.6066 9.00668 11.6333 10.3533 11.4333 11.82C11.2599 13.1 10.2199 14.18 8.77328 14.1533C7.96661 14.14 7.15328 14.1533 6.27995 14.1533Z" fill="#4AA949"/>
</svg>
