<svg width="24" height="24" viewBox="0 0 24 24" fill="none" xmlns="http://www.w3.org/2000/svg">
<path d="M19.4416 8.91554C20.5975 8.91554 21.5346 7.97847 21.5346 6.82252C21.5346 5.66658 20.5975 4.7295 19.4416 4.7295C18.2856 4.7295 17.3486 5.66658 17.3486 6.82252C17.3486 7.97847 18.2856 8.91554 19.4416 8.91554Z" fill="#04071E"/>
<path d="M18.3257 18.6572C18.4603 18.6742 18.5974 18.6829 18.7367 18.6829H18.752C20.5458 18.6829 21.9999 17.2288 21.9999 15.435V10.7294C21.9999 10.2414 21.6043 9.84571 21.1162 9.84571H18.5981C18.7406 10.1154 18.8191 10.4236 18.8138 10.7496V16.096C18.8333 17.004 18.6578 17.8711 18.3257 18.6572Z" fill="#04071E"/>
<path d="M13.2323 8.89158C14.7601 8.73991 15.9533 7.45092 15.9533 5.88325C15.9533 4.21355 14.5997 2.85999 12.93 2.85999C11.2603 2.85999 9.90674 4.21355 9.90674 5.88325C9.90674 5.94091 9.90844 5.99819 9.91154 6.05506H11.3797C12.4029 6.05506 13.2323 6.88449 13.2323 7.90761V8.89158Z" fill="#04071E"/>
<path d="M7.99902 18.2876H11.3795C12.4027 18.2876 13.2321 17.4582 13.2321 16.4351V9.84571H16.9611C17.4433 9.85764 17.8248 10.2579 17.8136 10.7401V16.1071C17.881 19.0012 15.5913 21.4028 12.6974 21.4736C10.5771 21.4217 8.78125 20.1188 7.99902 18.2876Z" fill="#04071E"/>
<path fill-rule="evenodd" clip-rule="evenodd" d="M11.38 7.05506H2.85255C2.38171 7.05506 2 7.43676 2 7.90761V16.4351C2 16.9059 2.3817 17.2876 2.85255 17.2876H11.38C11.8508 17.2876 12.2325 16.9059 12.2325 16.4351V7.90761C12.2325 7.43676 11.8508 7.05506 11.38 7.05506ZM4.80432 10.5359H6.55432V15.0359H7.55432V10.5359H9.30432V9.53589H4.80432V10.5359Z" fill="#04071E"/>
</svg>
