<svg width="24" height="24" viewBox="0 0 24 24" fill="none" xmlns="http://www.w3.org/2000/svg">
<path d="M15.9505 9.83734H21.1163C21.6044 9.83734 22 10.233 22 10.721V15.4264C22 17.2201 20.5459 18.6741 18.7522 18.6741H18.7369C16.9432 18.6744 15.4889 17.2205 15.4887 15.4268C15.4887 15.4267 15.4887 15.4265 15.4887 15.4264V10.2992C15.4887 10.0441 15.6955 9.83734 15.9505 9.83734Z" fill="#5059C9"/>
<path d="M19.4419 8.9071C20.5977 8.9071 21.5348 7.97006 21.5348 6.81417C21.5348 5.65829 20.5977 4.72125 19.4419 4.72125C18.286 4.72125 17.3489 5.65829 17.3489 6.81417C17.3489 7.97006 18.286 8.9071 19.4419 8.9071Z" fill="#5059C9"/>
<path d="M12.9306 8.90712C14.6002 8.90712 15.9537 7.55363 15.9537 5.88401C15.9537 4.21439 14.6002 2.8609 12.9306 2.8609C11.261 2.8609 9.90749 4.21439 9.90749 5.88401C9.90749 7.55363 11.261 8.90712 12.9306 8.90712Z" fill="#7B83EB"/>
<path d="M16.9615 9.83734H8.4345C7.95227 9.84928 7.57079 10.2495 7.58198 10.7317V16.0984C7.51464 18.9924 9.80418 21.3939 12.698 21.4647C15.5919 21.3939 17.8814 18.9924 17.814 16.0984V10.7317C17.8252 10.2495 17.4438 9.84928 16.9615 9.83734Z" fill="#7B83EB"/>
<path opacity="0.1" d="M13.1631 9.83734V17.3579C13.1608 17.7028 12.9518 18.0126 12.6329 18.1439C12.5314 18.1869 12.4223 18.209 12.312 18.209H7.99128C7.93083 18.0555 7.87501 17.9021 7.8285 17.7439C7.6657 17.2103 7.58262 16.6555 7.582 16.0975V10.7303C7.57082 10.2488 7.95166 9.84928 8.43312 9.83734H13.1631Z" fill="black"/>
<path opacity="0.2" d="M12.698 9.83734V17.823C12.698 17.9332 12.6759 18.0424 12.6329 18.1439C12.5016 18.4628 12.1918 18.6718 11.8469 18.6741H8.20988C8.13081 18.5206 8.0564 18.3672 7.99128 18.209C7.92617 18.0509 7.87501 17.9021 7.8285 17.7439C7.6657 17.2103 7.58262 16.6555 7.582 16.0975V10.7303C7.57082 10.2488 7.95166 9.84928 8.43312 9.83734H12.698Z" fill="black"/>
<path opacity="0.2" d="M12.698 9.83734V16.8928C12.6945 17.3614 12.3155 17.7404 11.8469 17.7439H7.8285C7.6657 17.2103 7.58262 16.6555 7.582 16.0975V10.7303C7.57082 10.2488 7.95166 9.84928 8.43312 9.83734H12.698Z" fill="black"/>
<path opacity="0.2" d="M12.2329 9.83734V16.8928C12.2294 17.3614 11.8504 17.7404 11.3818 17.7439H7.8285C7.6657 17.2103 7.58262 16.6555 7.582 16.0975V10.7303C7.57082 10.2488 7.95166 9.84928 8.43312 9.83734H12.2329Z" fill="black"/>
<path opacity="0.1" d="M13.1632 7.43278V8.89782C13.0842 8.90247 13.0098 8.90713 12.9307 8.90713C12.8516 8.90713 12.7772 8.90248 12.6981 8.89782C12.5412 8.8874 12.3855 8.8625 12.2331 8.82341C11.2912 8.60037 10.5131 7.93986 10.1401 7.04676C10.076 6.89677 10.0261 6.74104 9.9913 6.58167H12.3121C12.7814 6.58344 13.1615 6.96345 13.1632 7.43278Z" fill="black"/>
<path opacity="0.2" d="M12.6982 7.89787V8.89782C12.5413 8.8874 12.3856 8.86249 12.2331 8.82341C11.2913 8.60037 10.5132 7.93986 10.1402 7.04675H11.8471C12.3164 7.04853 12.6965 7.42855 12.6982 7.89787Z" fill="black"/>
<path opacity="0.2" d="M12.6982 7.89787V8.89782C12.5413 8.8874 12.3856 8.86249 12.2331 8.82341C11.2913 8.60037 10.5132 7.93986 10.1402 7.04675H11.8471C12.3164 7.04853 12.6965 7.42855 12.6982 7.89787Z" fill="black"/>
<path opacity="0.2" d="M12.2331 7.89787V8.82341C11.2913 8.60037 10.5132 7.93986 10.1402 7.04675H11.382C11.8514 7.04854 12.2314 7.42856 12.2331 7.89787Z" fill="black"/>
<path d="M2.85349 7.04675H11.3805C11.8513 7.04675 12.233 7.42844 12.233 7.89927V16.4263C12.233 16.8971 11.8513 17.2788 11.3805 17.2788H2.85349C2.38266 17.2788 2.00098 16.8971 2.00098 16.4263V7.89927C2.00098 7.42844 2.38266 7.04675 2.85349 7.04675Z" fill="url(#paint0_linear_104_523)"/>
<path d="M9.36077 10.2922H7.6562V14.9338H6.57021V10.2922H4.87355V9.39178H9.36077V10.2922Z" fill="white"/>
<defs>
<linearGradient id="paint0_linear_104_523" x1="3.77849" y1="6.38061" x2="10.4555" y2="17.945" gradientUnits="userSpaceOnUse">
<stop stop-color="#5A62C3"/>
<stop offset="0.5" stop-color="#4D55BD"/>
<stop offset="1" stop-color="#3940AB"/>
</linearGradient>
</defs>
</svg>
