<svg width="24" height="24" viewBox="0 0 24 24" fill="none" xmlns="http://www.w3.org/2000/svg">
<path d="M11.3465 19.7354C7.40695 19.3989 4.31192 16.0664 4.31192 12C4.31192 7.93364 7.40695 4.60108 11.3465 4.26455V2C6.17171 2.3412 2.07736 6.68566 2.07736 12C2.07736 17.3143 6.16938 21.6588 11.344 22V19.7354H11.3465Z" fill="#017DFB"/>
<path d="M11.3464 15.9027C9.4911 15.5873 8.07775 13.9631 8.07775 12C8.07775 10.0369 9.49338 8.41268 11.3464 8.09721V5.61998C8.14713 5.95184 5.65117 8.6791 5.65117 12C5.65117 15.3209 8.14713 18.0458 11.3464 18.38V15.9027Z" fill="#017DFB"/>
<path d="M12.6563 2V4.26455C16.5955 4.60108 19.6906 7.93364 19.6906 12C19.6906 16.0664 16.5955 19.3989 12.6563 19.7354V22C17.8308 21.6588 21.9226 17.3143 21.9226 12C21.9226 6.68566 17.8284 2.3412 12.6563 2Z" fill="#CCCCCC"/>
<path d="M12.6563 5.61998V8.09488C14.5136 8.41035 15.9294 10.0322 15.9294 11.9977C15.9294 13.9631 14.5112 15.5873 12.6563 15.9004V18.3753C15.8576 18.0458 18.3557 15.3162 18.3557 11.9953C18.3557 8.67445 15.8551 5.9495 12.6563 5.61998Z" fill="#CCCCCC"/>
</svg>
