<svg width="24" height="24" viewBox="0 0 24 24" fill="none" xmlns="http://www.w3.org/2000/svg">
<path d="M21.494 4.97978C20.0434 3.3715 17.9035 2.75856 15.9284 3.17825C15.8198 3.20145 15.7162 3.24581 15.6248 3.30881C15.5333 3.3718 15.4552 3.4522 15.3948 3.5454C15.3344 3.6386 15.2929 3.74279 15.2728 3.85201C15.2527 3.96123 15.2542 4.07334 15.2774 4.18195C15.3006 4.29056 15.345 4.39354 15.408 4.485C15.471 4.57647 15.5514 4.65463 15.6446 4.71502C15.7378 4.77542 15.842 4.81686 15.9512 4.83699C16.0604 4.85712 16.1725 4.85554 16.2812 4.83234C17.6862 4.53395 19.2067 4.97097 20.2387 6.11286C20.7277 6.65482 21.0655 7.31599 21.2179 8.02988C21.3704 8.74377 21.3325 9.48551 21.1075 10.18C21.0731 10.2857 21.06 10.3971 21.0688 10.5078C21.0777 10.6186 21.1083 10.7266 21.1589 10.8255C21.2095 10.9244 21.2791 11.0124 21.3638 11.0844C21.4484 11.1563 21.5465 11.2109 21.6523 11.2449C21.8655 11.3138 22.0974 11.2954 22.297 11.1935C22.4966 11.0916 22.6476 10.9147 22.7169 10.7016L22.7172 10.698C23.3363 8.77668 22.9451 6.5863 21.494 4.97978Z" fill="#04071E"/>
<path d="M19.2656 6.99013C18.5596 6.20684 17.5173 5.90933 16.5548 6.11403C16.459 6.13155 16.3678 6.16811 16.2864 6.22154C16.205 6.27497 16.1352 6.34418 16.081 6.42509C16.0268 6.50599 15.9895 6.59694 15.9711 6.69254C15.9527 6.78815 15.9537 6.88647 15.974 6.98169C15.9943 7.07691 16.0335 7.16708 16.0893 7.24688C16.1451 7.32667 16.2163 7.39447 16.2987 7.44625C16.3812 7.49802 16.4732 7.53273 16.5693 7.54832C16.6654 7.56391 16.7636 7.56064 16.8582 7.53758C17.0973 7.48644 17.3457 7.49903 17.5784 7.57408C17.8111 7.64913 18.02 7.784 18.1842 7.9652C18.3481 8.14684 18.4612 8.3685 18.5121 8.60781C18.563 8.84712 18.5505 9.09562 18.4747 9.32824C18.4153 9.51195 18.4313 9.71173 18.5191 9.88366C18.607 10.0556 18.7595 10.1856 18.9432 10.2452C19.1269 10.3044 19.3267 10.2883 19.4986 10.2003C19.6705 10.1123 19.8004 9.95959 19.8598 9.77583C20.1623 8.83983 19.9731 7.77312 19.2656 6.99013Z" fill="#04071E"/>
<path fill-rule="evenodd" clip-rule="evenodd" d="M10.556 12.7874C8.81586 12.3345 6.84898 13.2018 6.0933 14.7352C5.32352 16.2988 6.06804 18.0346 7.82552 18.6023C9.64672 19.1894 11.7931 18.2898 12.5393 16.6016C13.2756 14.9516 12.3567 13.2529 10.556 12.7874ZM10.3921 15.2853C10.2641 15.5044 9.98154 15.6095 9.76009 15.5182C9.54217 15.4283 9.47374 15.184 9.59768 14.969C9.72514 14.7552 9.9971 14.6509 10.2141 14.7369C10.435 14.8177 10.5143 15.0653 10.3921 15.2853ZM9.22703 16.7811C8.87342 17.3453 8.11598 17.5926 7.54533 17.332C6.9832 17.0762 6.81726 16.4204 7.17145 15.8703C7.52066 15.3226 8.25255 15.0782 8.8188 15.3155C9.3915 15.5599 9.57477 16.211 9.22703 16.7811Z" fill="#04071E"/>
<path fill-rule="evenodd" clip-rule="evenodd" d="M17.5048 11.664C17.1937 11.5712 16.9805 11.5075 17.1432 11.0989C17.4959 10.2114 17.5324 9.44601 17.15 8.89974C16.4331 7.87562 14.4712 7.93054 12.2223 8.87243C12.2223 8.87235 12.2205 8.87311 12.2169 8.87453C12.1514 8.90087 11.5257 9.15226 11.6966 8.62132C12.0426 7.50909 11.9903 6.57778 11.452 6.04002C10.2323 4.81913 6.9878 6.08613 4.20532 8.86743C2.12184 10.9512 0.912109 13.1595 0.912109 15.0691C0.912109 18.7218 5.59627 20.9424 10.1788 20.9424C16.1858 20.9424 20.1818 17.4522 20.1818 14.6814C20.1818 13.0071 18.7718 12.057 17.5048 11.664ZM10.1908 19.6334C6.53433 19.9941 3.37798 18.3418 3.14009 15.9408C2.90278 13.5404 5.67556 11.3019 9.33149 10.9403C12.9883 10.5785 16.1449 12.2314 16.3822 14.6312C16.6193 17.0325 13.8477 19.2716 10.1908 19.6334Z" fill="#04071E"/>
</svg>
