<svg width="24" height="24" viewBox="0 0 24 24" fill="none" xmlns="http://www.w3.org/2000/svg">
<path d="M2 2H22V22H2V2ZM14.7863 16.6031L17.4722 15.0534V8.83543L14.7863 7.28576C13.3091 6.43344 12.0802 5.73608 12.0556 5.73608C12.0309 5.73608 10.8021 6.43344 9.32482 7.28576L6.63892 8.83543V10.0534L9.32482 11.6031C10.8021 12.4554 12.0311 13.1528 12.0559 13.1528C12.0808 13.1528 12.8157 12.7403 13.689 12.2361C14.5624 11.7319 15.2834 11.3194 15.2913 11.3194C15.2991 11.3194 15.3053 11.8866 15.3049 12.5798L15.3042 13.8403L13.7131 14.7569C12.8379 15.2611 12.1016 15.6789 12.0767 15.6854C12.0519 15.6918 11.316 15.284 10.4414 14.7791C9.56678 14.2742 8.83092 13.8611 8.80616 13.8611C8.72583 13.8611 6.71837 15.0369 6.73149 15.0763C6.74759 15.1246 11.9742 18.1476 12.0468 18.1505C12.0763 18.1518 13.3091 17.4554 14.7863 16.6031ZM10.9417 10.0763C10.3635 9.74023 9.89035 9.45588 9.89027 9.44442C9.89004 9.4077 11.9906 8.21525 12.0556 8.21525C12.1204 8.21525 14.221 9.40761 14.221 9.44442C14.221 9.47719 12.1273 10.6728 12.0565 10.6805C12.0216 10.6843 11.52 10.4124 10.9417 10.0763Z" fill="#04071E"/>
</svg>
