<svg width="24" height="24" viewBox="0 0 24 24" fill="none" xmlns="http://www.w3.org/2000/svg">
<path d="M5.54167 2.25H18.4583C20.4167 2.25 22 3.83333 22 5.79167V18.2083C22 20.1667 20.4167 21.75 18.4583 21.75H5.54167C3.58333 21.75 2 20.1667 2 18.2083V5.79167C2 3.83333 3.58333 2.25 5.54167 2.25Z" fill="#330000"/>
<path d="M11.6666 13.9166H8.56655L7.93322 15.875C7.91655 15.95 7.84988 16 7.77488 15.9916H6.20822C6.11655 15.9916 6.09155 15.9416 6.11655 15.8416L8.79988 8.11662C8.82488 8.03328 8.84988 7.94162 8.88322 7.84162C8.91655 7.66662 8.93322 7.48328 8.93322 7.29995C8.92488 7.25828 8.95822 7.21662 8.99988 7.20828H11.1582C11.2249 7.20828 11.2582 7.23328 11.2666 7.27495L14.3082 15.8583C14.3332 15.95 14.3082 15.9916 14.2249 15.9916H12.4832C12.4249 16 12.3666 15.9583 12.3499 15.9L11.6666 13.9166ZM9.04988 12.225H11.1666C11.1166 12.05 11.0499 11.8416 10.9749 11.625C10.8999 11.4 10.8249 11.1583 10.7499 10.9083C10.6666 10.65 10.5916 10.4 10.5082 10.1416C10.4249 9.88328 10.3499 9.64162 10.2832 9.39995C10.2166 9.16662 10.1582 8.94995 10.0999 8.74995H10.0832C10.0082 9.10828 9.91655 9.46662 9.79988 9.82495C9.67488 10.225 9.54988 10.6416 9.41655 11.0583C9.29988 11.4833 9.17488 11.875 9.04988 12.225ZM16.1666 8.66662C15.8916 8.67495 15.6249 8.56662 15.4249 8.37495C15.2332 8.16662 15.1332 7.89162 15.1416 7.60828C15.1332 7.32495 15.2416 7.05828 15.4416 6.86662C15.6416 6.67495 15.9082 6.57495 16.1832 6.57495C16.5082 6.57495 16.7582 6.67495 16.9416 6.86662C17.1249 7.06662 17.2249 7.33328 17.2166 7.60828C17.2249 7.89162 17.1249 8.16662 16.9249 8.37495C16.7332 8.57495 16.4499 8.68328 16.1666 8.66662ZM15.2332 15.9V9.48328C15.2332 9.39995 15.2666 9.36662 15.3416 9.36662H16.9915C17.0666 9.36662 17.0999 9.40828 17.0999 9.48328V15.9C17.0999 15.9916 17.0666 16.0333 16.9915 16.0333H15.3582C15.2749 16.0333 15.2332 15.9833 15.2332 15.9Z" fill="#FF9A00"/>
</svg>
