<svg width="24" height="24" viewBox="0 0 24 24" fill="none" xmlns="http://www.w3.org/2000/svg">
<path d="M5.54167 2.25H18.4583C20.4167 2.25 22 3.83333 22 5.79167V18.2083C22 20.1667 20.4167 21.75 18.4583 21.75H5.54167C3.58333 21.75 2 20.1667 2 18.2083V5.79167C2 3.83333 3.58333 2.25 5.54167 2.25Z" fill="#49021F"/>
<path d="M9.26702 7.34996V15.9333C9.26702 16.025 9.22536 16.0666 9.15036 16.0666H7.51702C7.44202 16.0666 7.40869 16.025 7.40869 15.9333V7.34996C7.40869 7.27496 7.45036 7.24162 7.52536 7.24162H9.15036C9.20036 7.23329 9.25036 7.26662 9.25869 7.32496C9.26702 7.33329 9.26702 7.34162 9.26702 7.34996Z" fill="#FF3366"/>
<path d="M14.0838 16.1666C13.4672 16.175 12.8505 16.05 12.2922 15.7916C11.7672 15.55 11.3338 15.15 11.0338 14.6583C10.7255 14.15 10.5755 13.5166 10.5755 12.7583C10.5672 12.1416 10.7255 11.5333 11.0338 11C11.3505 10.4583 11.8088 10.0083 12.3588 9.70831C12.9422 9.38331 13.6422 9.22498 14.4672 9.22498C14.5088 9.22498 14.5672 9.22498 14.6422 9.23331C14.7172 9.24164 14.8005 9.24164 14.9005 9.24998V6.61664C14.9005 6.55831 14.9255 6.52498 14.9838 6.52498H16.6755C16.7172 6.51664 16.7505 6.54998 16.7588 6.58331V6.59998V14.5333C16.7588 14.6833 16.7672 14.85 16.7755 15.0333C16.7922 15.2083 16.8005 15.375 16.8088 15.5166C16.8088 15.575 16.7838 15.625 16.7255 15.65C16.2922 15.8333 15.8338 15.9666 15.3672 16.05C14.9505 16.125 14.5172 16.1666 14.0838 16.1666ZM14.9005 14.5V10.8333C14.8255 10.8166 14.7505 10.8 14.6755 10.7916C14.5838 10.7833 14.4922 10.775 14.4005 10.775C14.0755 10.775 13.7505 10.8416 13.4588 10.9916C13.1755 11.1333 12.9338 11.3416 12.7505 11.6083C12.5672 11.875 12.4755 12.2333 12.4755 12.6666C12.4672 12.9583 12.5172 13.25 12.6172 13.525C12.7005 13.75 12.8255 13.95 12.9922 14.1166C13.1505 14.2666 13.3422 14.3833 13.5588 14.45C13.7838 14.525 14.0172 14.5583 14.2505 14.5583C14.3755 14.5583 14.4922 14.55 14.6005 14.5416C14.7088 14.55 14.8088 14.5333 14.9005 14.5Z" fill="#FF3366"/>
</svg>
