<svg width="24" height="24" viewBox="0 0 24 24" fill="none" xmlns="http://www.w3.org/2000/svg">
<path fill-rule="evenodd" clip-rule="evenodd" d="M18.875 1.99585H5.1206C3.39366 1.99585 1.99609 3.3934 1.99609 5.12035V18.8747C1.99609 20.6017 3.39366 21.9992 5.1206 21.9992H18.875C20.6019 21.9992 21.9995 20.6017 21.9995 18.8747V5.12035C21.9995 3.3934 20.6019 1.99585 18.875 1.99585ZM6.79613 15.7032C6.70673 15.6373 6.65968 15.5338 6.66438 15.4256V14.1503C6.66438 14.1221 6.66908 14.0939 6.67849 14.0656C6.70202 13.9904 6.78202 13.9433 6.85731 13.9668C6.86201 13.9668 6.86671 13.9668 6.86671 13.9715C6.89495 13.9809 6.91848 13.9951 6.94201 14.0139C7.57256 14.4797 8.33015 14.7385 9.11598 14.748C9.59124 14.748 9.91593 14.6538 10.1136 14.4891C10.3159 14.3245 10.4335 14.0798 10.4241 13.8163C10.4288 13.5763 10.3441 13.341 10.1794 13.1622C10.0242 12.9834 9.70889 12.7763 9.2148 12.5505L8.72072 12.3152C8.01959 11.9811 7.50198 11.614 7.182 11.2047C6.85731 10.767 6.69261 10.2353 6.71614 9.69417C6.70202 9.00716 6.99377 8.34837 7.50668 7.89664C8.03841 7.41197 8.78189 7.17669 9.72771 7.17669C10.5135 7.17669 11.1535 7.29903 11.6335 7.54843C11.7323 7.59548 11.7888 7.69901 11.7793 7.80723V8.99304C11.7793 9.0448 11.7605 9.09656 11.7229 9.13421L11.7088 9.14832L11.6946 9.15773C11.6617 9.17185 11.6288 9.17656 11.5958 9.17185C11.5676 9.16714 11.5441 9.15773 11.5205 9.14362L11.5158 9.13891L11.5111 9.13421C10.97 8.7954 10.3441 8.6213 9.70889 8.63071C9.25245 8.63071 8.94659 8.73423 8.75836 8.92246C8.58426 9.07774 8.48544 9.2989 8.47603 9.53418C8.47603 9.76005 8.55603 9.98121 8.71131 10.1506C8.86659 10.3294 9.18186 10.5365 9.66183 10.7623L10.1841 10.9976C10.9559 11.3552 11.497 11.7411 11.8029 12.1646C12.1087 12.5928 12.2687 13.1104 12.2546 13.6327C12.2828 14.3715 11.9582 15.0773 11.3794 15.5385C10.8053 15.9996 10.0383 16.2255 9.08305 16.2255C8.2878 16.249 7.50197 16.0702 6.79613 15.7032ZM16.9924 15.8679L16.9829 15.8726C16.6112 16.0232 16.2065 16.089 15.8066 16.0749C15.2325 16.0749 14.7807 15.9196 14.4749 15.5903C14.169 15.2609 14.0279 14.7809 14.0279 14.1692V10.7812H13.355C13.2985 10.7765 13.2514 10.7482 13.2138 10.7059C13.1808 10.6635 13.1667 10.6118 13.1667 10.5553V9.61888C13.1573 9.50595 13.242 9.41183 13.355 9.40242H14.042C14.042 8.91304 14.089 8.42367 14.1737 7.93899V7.93429C14.1925 7.83547 14.2678 7.75547 14.3667 7.73665L15.6795 7.56725C15.7313 7.55313 15.7877 7.55784 15.8348 7.58607C15.8865 7.61901 15.9148 7.68018 15.9148 7.74136V7.75077C15.8724 8.17427 15.8536 8.72482 15.8489 9.39772H16.9359C17.0394 9.39301 17.1288 9.4683 17.1382 9.57653V10.5741C17.1429 10.6776 17.0676 10.767 16.9594 10.7765H15.8348V13.9998C15.816 14.2021 15.863 14.4092 15.9665 14.5833C16.0842 14.7009 16.2489 14.7574 16.4136 14.7338C16.5783 14.7291 16.743 14.7056 16.903 14.6586C16.9547 14.6397 17.0159 14.6491 17.0629 14.6821C17.1053 14.7197 17.1241 14.7715 17.1241 14.828V15.6091C17.1288 15.7079 17.0818 15.802 16.9971 15.8585L16.9924 15.8679Z" fill="#04071E"/>
</svg>
