<svg width="24" height="24" viewBox="0 0 24 24" fill="none" xmlns="http://www.w3.org/2000/svg">
<path d="M5.54134 2.24963H18.4587C20.4165 2.24963 22 3.837 22 5.79098V18.2091C22 20.167 20.4126 21.7504 18.4587 21.7504H5.54134C3.58736 21.7504 2 20.1631 2 18.2091V5.79098C2 3.837 3.58736 2.24963 5.54134 2.24963Z" fill="#00261A"/>
<path d="M10.2801 13.7356H6.59449V17.4212H10.2801V13.7356Z" fill="#52CCA3"/>
<path d="M17.0468 14.1139H14.1177V17.0429H17.0468V14.1139Z" fill="#52CCA3"/>
<path d="M17.0468 6.95325H14.1177V9.88227H17.0468V6.95325Z" fill="#52CCA3"/>
<path d="M9.90158 6.96875H6.97256V9.89777H9.90158V6.96875Z" fill="#52CCA3"/>
<path d="M17.0505 6.95314V9.88216L11.1379 12.8775L14.1215 6.95314H17.0505ZM17.4249 6.57483H13.8875L10.2799 13.7355L17.4249 10.1162V6.57483Z" fill="#CAFCEB"/>
<path d="M17.0505 14.1139V17.0429H14.1254L11.1964 14.1139H17.0505ZM17.4288 13.7356H10.2799L13.9655 17.4212H17.4249L17.4288 13.7356Z" fill="#CAFCEB"/>
<path d="M9.90183 6.96877V12.8229L6.97281 9.89389V6.96877H9.90183ZM10.2801 6.59045H6.59449V10.0499L10.2801 13.7355V6.59045Z" fill="#CAFCEB"/>
</svg>
