<svg width="24" height="24" viewBox="0 0 24 24" fill="none" xmlns="http://www.w3.org/2000/svg">
<path d="M8.56667 8.85833V11.6583L8.59167 11.6601C8.69885 11.6678 8.79885 11.675 8.89167 11.675H9.33333C9.65833 11.675 9.98333 11.625 10.2917 11.525C10.5583 11.45 10.7917 11.2917 10.975 11.0833C11.15 10.875 11.2333 10.5917 11.2333 10.225C11.2417 9.96667 11.175 9.70833 11.0417 9.48333C10.9 9.26667 10.7 9.1 10.4583 9.00833C10.15 8.88333 9.81667 8.83333 9.475 8.84167C9.25834 8.84167 9.06666 8.84167 8.90833 8.85C8.74167 8.84167 8.625 8.85 8.56667 8.85833Z" fill="#04071E"/>
<path fill-rule="evenodd" clip-rule="evenodd" d="M18.4583 2.25H5.54167C3.58333 2.25 2 3.83333 2 5.79167V18.2083C2 20.1667 3.58333 21.75 5.54167 21.75H18.4583C20.4167 21.75 22 20.1667 22 18.2083V5.79167C22 3.83333 20.4167 2.25 18.4583 2.25ZM6.75 15.9083V7.33333C6.75 7.275 6.775 7.24167 6.83333 7.24167C6.975 7.24167 7.10833 7.24167 7.3 7.23333C7.403 7.22904 7.5082 7.22696 7.61675 7.22481C7.71899 7.22279 7.82421 7.22071 7.93333 7.21667C8.04971 7.21236 8.17054 7.21027 8.29583 7.20812C8.41278 7.2061 8.53362 7.20402 8.65833 7.2C8.91667 7.19167 9.16667 7.19167 9.41667 7.19167C10.1 7.19167 10.6667 7.275 11.1333 7.45C11.55 7.59167 11.9333 7.825 12.25 8.13333C12.5167 8.4 12.725 8.725 12.8583 9.08333C12.9833 9.43333 13.05 9.79167 13.05 10.1667C13.05 10.8833 12.8833 11.475 12.55 11.9417C12.2167 12.4083 11.75 12.7583 11.2083 12.9583C10.6417 13.1667 10.0167 13.2417 9.33333 13.2417C9.13337 13.2417 8.99999 13.2417 8.91667 13.2333C8.83333 13.225 8.71667 13.225 8.55833 13.225V15.9C8.56667 15.9583 8.525 16.0083 8.46667 16.0167H6.85C6.78333 16.0167 6.75 15.9833 6.75 15.9083ZM14.2505 9.35H15.7088C15.7921 9.35 15.8588 9.40833 15.8838 9.48333C15.9088 9.55 15.9255 9.61667 15.9338 9.69167C15.9505 9.775 15.9671 9.86667 15.9755 9.95C15.9838 10.0417 15.9921 10.1417 15.9921 10.25C16.2421 9.95833 16.5421 9.71667 16.8838 9.53333C17.2671 9.31667 17.7088 9.20833 18.1505 9.20833C18.2088 9.2 18.2588 9.24167 18.2671 9.3V10.9583C18.2671 11.025 18.2255 11.05 18.1338 11.05C17.8338 11.0417 17.5255 11.0667 17.2338 11.1333C16.9921 11.1833 16.7588 11.2583 16.5338 11.3583C16.3755 11.4333 16.2255 11.5333 16.1088 11.6667V15.9167C16.1088 16 16.0755 16.0333 16.0005 16.0333H14.3588C14.2921 16.0417 14.2338 16 14.2255 15.9333V11.2833C14.2255 11.0833 14.2255 10.875 14.2171 10.6583C14.213 10.5501 14.2109 10.4419 14.2088 10.3336C14.2067 10.2253 14.2046 10.1167 14.2005 10.0083C14.2005 9.82436 14.1851 9.64806 14.1691 9.46471L14.1671 9.44167C14.1588 9.4 14.1838 9.35833 14.2255 9.35C14.2255 9.34167 14.2421 9.34167 14.2505 9.35Z" fill="#04071E"/>
</svg>
