<svg width="24" height="24" viewBox="0 0 24 24" fill="none" xmlns="http://www.w3.org/2000/svg">
<path d="M17.0508 9.88224V6.95322H14.1217L17.047 6.95322V9.88224H14.118V6.96069L11.1381 12.8776L17.0508 9.88224Z" fill="#04071E"/>
<path d="M17.047 17.0429V14.1139H17.0508V17.0429H14.1256L17.047 17.0429Z" fill="#04071E"/>
<path d="M14.118 17.0353V14.1139H11.1966L14.118 17.0353Z" fill="#04071E"/>
<path d="M9.90181 9.89783V6.96881L9.90206 12.823L6.97693 9.89783H9.90181Z" fill="#04071E"/>
<path fill-rule="evenodd" clip-rule="evenodd" d="M18.4587 2.24963H5.54134C3.58736 2.24963 2 3.837 2 5.79098V18.2091C2 20.1631 3.58736 21.7504 5.54134 21.7504H18.4587C20.4126 21.7504 22 20.167 22 18.2091V5.79098C22 3.837 20.4165 2.24963 18.4587 2.24963ZM13.8877 6.5749H17.4252V10.1162L10.2804 13.7356L13.8877 6.5749ZM10.2804 13.7356H17.4291L17.4252 17.4212H13.9657L10.2804 13.7356ZM10.2804 13.7356V17.4212H6.59473V13.7356H10.2804ZM10.2804 6.59051V13.7356L6.59473 10.05V6.59051H10.2804Z" fill="#04071E"/>
</svg>
