<svg width="24" height="24" viewBox="0 0 24 24" fill="none" xmlns="http://www.w3.org/2000/svg">
<path d="M16.1274 14.5C16.6989 14.6428 17.0202 14.3929 17.0559 14.1429C17.1274 13.7857 16.8417 13.6071 16.556 13.5357C15.8059 13.3928 14.7703 13.4999 14.306 13.5714C14.8417 14 15.4488 14.3215 16.1274 14.5Z" fill="#04071E"/>
<path d="M11.3774 6.60719C11.2703 6.60719 11.1631 6.67859 11.0917 6.7857C10.9131 7.10711 10.8059 8.10719 11.3417 9.53578C11.5916 8.82148 11.7345 8.07156 11.7702 7.32148C11.7702 7 11.6988 6.60719 11.3774 6.60719Z" fill="#04071E"/>
<path d="M11.8417 11.7142C11.6989 12.1428 11.306 13.1429 11.0203 13.7143C11.5324 13.5435 12.1337 13.3983 12.5349 13.3015C12.8052 13.2362 12.9846 13.1929 12.9846 13.1785C12.6988 12.8928 12.1631 12.2498 11.8417 11.7142Z" fill="#04071E"/>
<path d="M6.77019 17.3571C7.23449 17.3571 8.09168 16.5 8.91308 15.1429C7.48449 15.7857 6.5559 16.4643 6.44871 16.9643C6.413 17.1071 6.44871 17.2142 6.5559 17.2857C6.6273 17.3214 6.69879 17.3571 6.77019 17.3571Z" fill="#04071E"/>
<path fill-rule="evenodd" clip-rule="evenodd" d="M18.4642 2H5.5357C3.57141 2 2 3.57141 2 5.5357V18.4643C2 20.4286 3.57141 22 5.5357 22H18.4642C20.4286 22 22 20.4286 22 18.4643V5.5357C22 3.57141 20.4286 2 18.4642 2ZM14.0162 13.0185C14.8015 12.9197 17.0794 12.6329 17.9489 13.5357C18.1988 13.8214 18.3059 14.2143 18.1274 14.5713C18.0203 14.8928 17.6988 15.2499 16.8417 15.2499C16.1988 15.2499 14.9845 15.0714 13.5917 13.8571C12.4131 14.0714 11.2345 14.4286 10.4845 14.6785C9.5916 16.2144 8.3059 18.0357 6.98449 18.0357C6.663 18.0357 6.3416 17.9286 6.0916 17.7143C5.8416 17.4644 5.73449 17.1428 5.8059 16.8215C5.98449 15.75 8.16308 14.7499 9.19879 14.3215C10.1375 12.5446 10.5098 11.4916 10.8768 10.4534C10.9008 10.3856 10.9247 10.3179 10.9488 10.2501C10.2702 8.71437 10.0917 7.21437 10.5202 6.4643C10.6988 6.17859 11.0203 5.96437 11.3774 5.96437C12.3775 5.96437 12.7346 6.92859 12.7346 7.82148C12.6988 8.85711 12.4846 9.82141 12.1632 10.7857C12.1703 10.7976 12.1779 10.8103 12.1859 10.8237C12.4183 11.2117 13.0143 12.2071 13.8774 13.0357C13.9161 13.0311 13.9627 13.0253 14.0162 13.0185Z" fill="#04071E"/>
</svg>
