<svg width="24" height="24" viewBox="0 0 24 24" fill="none" xmlns="http://www.w3.org/2000/svg">
<path d="M14.9005 14.5V10.8333C14.8255 10.8167 14.7505 10.8 14.6755 10.7917C14.5838 10.7833 14.4922 10.775 14.4005 10.775C14.0755 10.775 13.7505 10.8417 13.4588 10.9917C13.1755 11.1333 12.9338 11.3417 12.7505 11.6083C12.5672 11.875 12.4755 12.2333 12.4755 12.6667C12.4672 12.9583 12.5172 13.25 12.6172 13.525C12.7005 13.75 12.8255 13.95 12.9922 14.1167C13.1505 14.2667 13.3422 14.3833 13.5588 14.45C13.7838 14.525 14.0172 14.5583 14.2505 14.5583C14.3755 14.5583 14.4922 14.55 14.6005 14.5417C14.7088 14.55 14.8088 14.5333 14.9005 14.5Z" fill="#04071E"/>
<path fill-rule="evenodd" clip-rule="evenodd" d="M18.4583 2.25H5.54167C3.58333 2.25 2 3.83333 2 5.79167V18.2083C2 20.1667 3.58333 21.75 5.54167 21.75H18.4583C20.4167 21.75 22 20.1667 22 18.2083V5.79167C22 3.83333 20.4167 2.25 18.4583 2.25ZM14.0838 16.1667C13.4672 16.175 12.8505 16.05 12.2922 15.7917C11.7672 15.55 11.3338 15.15 11.0338 14.6583C10.7255 14.15 10.5755 13.5167 10.5755 12.7583C10.5672 12.1417 10.7255 11.5333 11.0338 11C11.3505 10.4583 11.8088 10.0083 12.3588 9.70833C12.9422 9.38333 13.6422 9.225 14.4672 9.225C14.5088 9.225 14.5672 9.225 14.6422 9.23333C14.6825 9.23781 14.7252 9.23988 14.7716 9.24213C14.8115 9.24407 14.8542 9.24614 14.9005 9.25V6.61667C14.9005 6.55833 14.9255 6.525 14.9838 6.525H16.6755C16.7172 6.51667 16.7505 6.55 16.7588 6.58333V14.5333C16.7588 14.6696 16.7657 14.8196 16.7732 14.9833L16.7755 15.0333C16.7896 15.1813 16.7977 15.3234 16.805 15.4494L16.8088 15.5167C16.8088 15.575 16.7838 15.625 16.7255 15.65C16.2922 15.8333 15.8338 15.9667 15.3672 16.05C14.9505 16.125 14.5172 16.1667 14.0838 16.1667ZM9.26702 7.35V15.9333C9.26702 16.025 9.22536 16.0667 9.15036 16.0667H7.51702C7.44202 16.0667 7.40869 16.025 7.40869 15.9333V7.35C7.40869 7.275 7.45036 7.24167 7.52536 7.24167H9.15036C9.20036 7.23333 9.25036 7.26667 9.25869 7.325C9.26702 7.33333 9.26702 7.34167 9.26702 7.35Z" fill="#04071E"/>
</svg>
