<svg width="24" height="24" viewBox="0 0 24 24" fill="none" xmlns="http://www.w3.org/2000/svg">
<path d="M5.54167 2.25H18.4583C20.4167 2.25 22 3.83333 22 5.79167V18.2083C22 20.1667 20.4167 21.75 18.4583 21.75H5.54167C3.58333 21.75 2 20.1667 2 18.2083V5.79167C2 3.83333 3.58333 2.25 5.54167 2.25Z" fill="#00005B"/>
<path d="M10.0335 13.9167H6.9335L6.30016 15.8834C6.28349 15.9584 6.21683 16.0084 6.14183 16.0001H4.57516C4.48349 16.0001 4.45849 15.9501 4.48349 15.8501L7.16683 8.15839C7.19183 8.07506 7.21683 8.00006 7.25016 7.90006C7.28349 7.72506 7.30016 7.54172 7.30016 7.35839C7.29183 7.31672 7.32516 7.27506 7.36683 7.26672H7.39183H9.52516C9.5835 7.26672 9.62516 7.29172 9.63349 7.33339L12.6752 15.8334C12.7002 15.9251 12.6752 15.9667 12.5918 15.9667H10.8502C10.7918 15.9751 10.7335 15.9334 10.7168 15.8751L10.0335 13.8751V13.9167ZM7.41683 12.2584H9.53349C9.4835 12.0834 9.41683 11.8751 9.34183 11.6584C9.26683 11.4334 9.19183 11.1917 9.11683 10.9417C9.03349 10.6834 8.9585 10.4334 8.87516 10.1751C8.79183 9.91672 8.71683 9.67506 8.65016 9.43339C8.5835 9.20006 8.52516 8.98339 8.46683 8.78339H8.45016C8.37516 9.14172 8.28349 9.50006 8.16683 9.85839C8.04183 10.2584 7.91683 10.6751 7.78349 11.0917C7.67516 11.5167 7.54183 11.9084 7.41683 12.2584Z" fill="#9999FF"/>
<path d="M17.5833 13.1666H14.9417C14.975 13.425 15.0583 13.6833 15.2 13.9083C15.35 14.1333 15.5583 14.3083 15.8083 14.4083C16.1417 14.55 16.5083 14.625 16.875 14.6166C17.1667 14.6083 17.4583 14.5833 17.7417 14.525C18 14.4916 18.25 14.425 18.4833 14.3333C18.525 14.3 18.55 14.3166 18.55 14.4V15.675C18.55 15.7083 18.5417 15.7416 18.5333 15.775C18.5167 15.8 18.5 15.8166 18.475 15.8333C18.2083 15.95 17.9333 16.0333 17.6417 16.0833C17.25 16.1583 16.8583 16.1916 16.4583 16.1833C15.825 16.1833 15.2917 16.0833 14.8584 15.8916C14.45 15.7166 14.0917 15.4416 13.8083 15.1C13.5417 14.775 13.35 14.4083 13.2334 14.0083C13.1167 13.6166 13.0583 13.2083 13.0583 12.7916C13.0583 12.3416 13.125 11.9 13.2667 11.4666C13.4 11.05 13.6083 10.6666 13.8917 10.325C14.1667 9.99165 14.5084 9.72498 14.9 9.53331C15.2917 9.34165 15.7583 9.27498 16.2917 9.27498C16.7333 9.26665 17.175 9.34998 17.5833 9.53331C17.925 9.68331 18.225 9.90831 18.4583 10.2C18.675 10.4833 18.85 10.8 18.9583 11.15C19.0667 11.4833 19.1167 11.825 19.1167 12.1666C19.1167 12.3666 19.1083 12.5416 19.1 12.7C19.0833 12.8583 19.075 12.975 19.0667 13.05C19.0583 13.1083 19.0083 13.1583 18.95 13.1583C18.9 13.1583 18.8084 13.1666 18.675 13.175C18.5417 13.1916 18.3833 13.2 18.1917 13.2C18 13.2 17.8 13.1666 17.5833 13.1666ZM14.9417 11.95H16.7C16.9167 11.95 17.075 11.95 17.175 11.9416C17.2417 11.9333 17.3083 11.9166 17.3667 11.875V11.7916C17.3667 11.6833 17.35 11.5833 17.3167 11.4833C17.1667 11.0166 16.725 10.7 16.2334 10.7166C15.775 10.6916 15.3417 10.9333 15.125 11.35C15.025 11.5416 14.9667 11.7416 14.9417 11.95Z" fill="#9999FF"/>
</svg>
