<svg width="24" height="24" viewBox="0 0 24 24" fill="none" xmlns="http://www.w3.org/2000/svg">
<path d="M5.1206 1.99585H18.875C20.6019 1.99585 21.9995 3.3934 21.9995 5.12035V18.8747C21.9995 20.6017 20.6019 21.9992 18.875 21.9992H5.1206C3.39366 21.9992 1.99609 20.6017 1.99609 18.8747V5.12035C1.99609 3.3934 3.39366 1.99585 5.1206 1.99585Z" fill="#000B1D"/>
<path d="M6.79613 15.7033C6.70673 15.6374 6.65968 15.5339 6.66438 15.4256V14.1504C6.66438 14.1222 6.66908 14.094 6.67849 14.0657C6.70202 13.9904 6.78202 13.9434 6.85731 13.9669C6.86201 13.9669 6.86671 13.9669 6.86671 13.9716C6.89495 13.981 6.91848 13.9951 6.94201 14.014C7.57256 14.4798 8.33015 14.7386 9.11598 14.748C9.59124 14.748 9.91593 14.6539 10.1136 14.4892C10.3159 14.3245 10.4335 14.0798 10.4241 13.8163C10.4288 13.5763 10.3441 13.3411 10.1794 13.1622C10.0242 12.9834 9.70889 12.7764 9.2148 12.5505L8.72072 12.3152C8.01959 11.9811 7.50198 11.6141 7.182 11.2047C6.85731 10.7671 6.69261 10.2354 6.71614 9.69424C6.70202 9.00723 6.99377 8.34845 7.50668 7.89671C8.03841 7.41204 8.78189 7.17676 9.72771 7.17676C10.5135 7.17676 11.1535 7.2991 11.6335 7.5485C11.7323 7.59555 11.7888 7.69908 11.7793 7.8073V8.99311C11.7793 9.04487 11.7605 9.09663 11.7229 9.13428L11.7088 9.14839L11.6946 9.1578C11.6617 9.17192 11.6288 9.17663 11.5958 9.17192C11.5676 9.16722 11.5441 9.1578 11.5205 9.14369L11.5158 9.13898L11.5111 9.13428C10.97 8.79548 10.3441 8.62137 9.70889 8.63078C9.25245 8.63078 8.94659 8.7343 8.75836 8.92253C8.58426 9.07781 8.48544 9.29897 8.47603 9.53425C8.47603 9.76012 8.55603 9.98128 8.71131 10.1507C8.86659 10.3295 9.18186 10.5365 9.66183 10.7624L10.1841 10.9977C10.9559 11.3553 11.497 11.7412 11.8029 12.1647C12.1087 12.5929 12.2687 13.1105 12.2546 13.6328C12.2828 14.3716 11.9582 15.0774 11.3794 15.5386C10.8053 15.9997 10.0383 16.2256 9.08304 16.2256C8.2878 16.2491 7.50197 16.0703 6.79613 15.7033Z" fill="white"/>
<path d="M16.9924 15.8679L16.9829 15.8726C16.6112 16.0232 16.2065 16.0891 15.8066 16.075C15.2325 16.075 14.7807 15.9197 14.4749 15.5903C14.169 15.2609 14.0279 14.7809 14.0279 14.1692V10.7812H13.3644H13.355C13.2985 10.7765 13.2514 10.7482 13.2138 10.7059C13.1808 10.6635 13.1667 10.6118 13.1667 10.5553V9.61891C13.1573 9.50598 13.242 9.41186 13.355 9.40245C13.3644 9.40245 13.3738 9.40245 13.3832 9.40245H14.042C14.042 8.91307 14.089 8.42369 14.1737 7.93902V7.93431C14.1925 7.8355 14.2678 7.7555 14.3667 7.73668L15.6795 7.56728C15.7313 7.55316 15.7877 7.55787 15.8348 7.5861C15.8865 7.61904 15.9148 7.68021 15.9148 7.74139V7.74609V7.7508C15.8724 8.1743 15.8536 8.72485 15.8489 9.39775H16.9359C17.0394 9.39304 17.1288 9.46833 17.1382 9.57656C17.1382 9.58597 17.1382 9.59068 17.1382 9.60009V10.5741C17.1429 10.6777 17.0676 10.7671 16.9594 10.7765C16.95 10.7765 16.9453 10.7765 16.9359 10.7765H15.8348V13.9998C15.816 14.2021 15.863 14.4092 15.9665 14.5833C16.0842 14.7009 16.2489 14.7574 16.4136 14.7339C16.5783 14.7292 16.743 14.7056 16.903 14.6586C16.9547 14.6398 17.0159 14.6492 17.0629 14.6821C17.1053 14.7198 17.1241 14.7715 17.1241 14.828V15.6091C17.1288 15.7079 17.0818 15.802 16.9971 15.8585L16.9924 15.8679Z" fill="white"/>
</svg>
