<svg width="24" height="24" viewBox="0 0 24 24" fill="none" xmlns="http://www.w3.org/2000/svg">
<path d="M7.41707 12.2583H9.53374C9.48374 12.0833 9.41707 11.875 9.34207 11.6583C9.26707 11.4333 9.19207 11.1917 9.11707 10.9417C9.07542 10.8125 9.03584 10.6855 8.99627 10.5584C8.95668 10.4313 8.91707 10.3042 8.87541 10.175C8.79207 9.91667 8.71707 9.675 8.65041 9.43333C8.6209 9.33007 8.59303 9.23008 8.56607 9.13334C8.53212 9.01154 8.49958 8.89479 8.46707 8.78333H8.45041C8.37541 9.14167 8.28374 9.5 8.16707 9.85833C8.11951 10.0105 8.07195 10.1651 8.02393 10.3212C7.9458 10.5752 7.86628 10.8337 7.78374 11.0917C7.67541 11.5167 7.54207 11.9083 7.41707 12.2583Z" fill="#04071E"/>
<path d="M14.9419 11.95H16.7003C16.9169 11.95 17.0753 11.95 17.1753 11.9417C17.2419 11.9333 17.3086 11.9167 17.3669 11.875V11.7917C17.3669 11.6833 17.3503 11.5833 17.3169 11.4833C17.1669 11.0167 16.7253 10.7 16.2336 10.7167C15.7753 10.6917 15.3419 10.9333 15.1253 11.35C15.0253 11.5417 14.9669 11.7417 14.9419 11.95Z" fill="#04071E"/>
<path fill-rule="evenodd" clip-rule="evenodd" d="M18.4583 2.25H5.54167C3.58333 2.25 2 3.83333 2 5.79167V18.2083C2 20.1667 3.58333 21.75 5.54167 21.75H18.4583C20.4167 21.75 22 20.1667 22 18.2083V5.79167C22 3.83333 20.4167 2.25 18.4583 2.25ZM10.0337 13.9167H6.93374L6.30041 15.8833C6.28374 15.9583 6.21707 16.0083 6.14207 16H4.57541C4.48374 16 4.45874 15.95 4.48374 15.85L7.16707 8.15833C7.19207 8.075 7.21707 8 7.25041 7.9C7.28374 7.725 7.30041 7.54167 7.30041 7.35833C7.29207 7.31667 7.32541 7.275 7.36707 7.26667H9.52541C9.58374 7.26667 9.62541 7.29167 9.63374 7.33333L12.6754 15.8333C12.7004 15.925 12.6754 15.9667 12.5921 15.9667H10.8504C10.7921 15.975 10.7337 15.9333 10.7171 15.875L10.0337 13.875V13.9167ZM17.5836 13.1667H14.9419C14.9753 13.425 15.0586 13.6833 15.2003 13.9083C15.3503 14.1333 15.5586 14.3083 15.8086 14.4083C16.1419 14.55 16.5086 14.625 16.8753 14.6167C17.1669 14.6083 17.4586 14.5833 17.7419 14.525C18.0003 14.4917 18.2503 14.425 18.4836 14.3333C18.5253 14.3 18.5503 14.3167 18.5503 14.4V15.675C18.5503 15.7083 18.5419 15.7416 18.5336 15.775C18.5169 15.8 18.5003 15.8167 18.4753 15.8333C18.2086 15.95 17.9336 16.0333 17.6419 16.0833C17.2503 16.1583 16.8586 16.1917 16.4586 16.1833C15.8253 16.1833 15.2919 16.0833 14.8586 15.8917C14.4503 15.7167 14.0919 15.4417 13.8086 15.1C13.5419 14.775 13.3503 14.4083 13.2336 14.0083C13.1169 13.6167 13.0586 13.2083 13.0586 12.7917C13.0586 12.3417 13.1253 11.9 13.2669 11.4667C13.4003 11.05 13.6086 10.6667 13.8919 10.325C14.1669 9.99167 14.5086 9.725 14.9003 9.53333C15.2919 9.34167 15.7586 9.275 16.2919 9.275C16.7336 9.26667 17.1753 9.35 17.5836 9.53333C17.9253 9.68333 18.2253 9.90833 18.4586 10.2C18.6753 10.4833 18.8503 10.8 18.9586 11.15C19.0669 11.4833 19.1169 11.825 19.1169 12.1667C19.1169 12.3667 19.1086 12.5417 19.1003 12.7C19.091 12.7877 19.0843 12.8627 19.0788 12.9248C19.0744 12.9748 19.0706 13.0166 19.0669 13.05C19.0586 13.1083 19.0086 13.1583 18.9503 13.1583C18.9178 13.1583 18.8678 13.1618 18.8003 13.1666C18.7637 13.1692 18.7221 13.1721 18.6753 13.175C18.5419 13.1917 18.3836 13.2 18.1919 13.2C18.099 13.2 18.0042 13.1922 17.9064 13.1841C17.8025 13.1755 17.6952 13.1667 17.5836 13.1667Z" fill="#04071E"/>
</svg>
