<svg width="24" height="24" viewBox="0 0 24 24" fill="none" xmlns="http://www.w3.org/2000/svg">
<path fill-rule="evenodd" clip-rule="evenodd" d="M20.0469 2C21.125 2 22 2.875 22 3.95312V20.0469C22 21.125 21.125 22 20.0469 22H3.95312C2.875 22 2 21.125 2 20.0469V3.95312C2 2.875 2.875 2 3.95312 2H20.0469ZM20.5352 19.7539V14.6973H11.2332L14.6051 20.5352H19.7695C20.1938 20.5266 20.5352 20.1797 20.5352 19.7539ZM4.70039 20.5352H13.8367L9.27109 12.6305L4.70039 20.5352ZM3.46719 19.8117C3.48945 20.1191 3.69062 20.3777 3.9668 20.4836L10.0824 9.89531H7.1793L3.46484 16.3262L3.46719 19.8117ZM13.3629 10.2535C13.232 10.0332 12.9898 9.88477 12.7371 9.88359L12.7285 9.8832L11.2797 9.88281C11.2797 9.88281 11.2711 9.8832 11.2668 9.8832C11.0109 9.88672 10.7691 10.0367 10.6418 10.2551L9.8707 11.5922L9.86484 11.602C9.73945 11.8254 9.73945 12.1086 9.86484 12.3281C9.86641 12.3313 10.6344 13.6605 10.6344 13.6605C10.6344 13.6605 10.6395 13.6703 10.6426 13.675C10.7734 13.8953 11.0195 14.0301 11.2723 14.0312C11.2738 14.0312 12.2539 14.0324 12.743 14.0305C12.9992 14.0273 13.2402 13.8848 13.3676 13.6664C13.4514 13.5213 13.5354 13.3764 13.6195 13.2314C13.7955 12.9277 13.9715 12.6241 14.1457 12.3195C14.2711 12.0961 14.2664 11.8199 14.141 11.6004C14.1387 11.5969 14.1344 11.5895 14.1344 11.5895L13.3668 10.2602C13.3668 10.2602 13.3645 10.2559 13.3629 10.2535ZM13.9266 14.0312L20.0055 3.50625C20.3133 3.61133 20.5352 3.90313 20.5352 4.24609V14.0312H13.9266ZM19.2613 3.46484H10.8934L10.552 4.05625L14.7355 11.3L19.2613 3.46484ZM7.56328 9.23047H12.7719L10.1676 4.72148L7.56328 9.23047Z" fill="#04071E"/>
</svg>
