<svg width="24" height="24" viewBox="0 0 24 24" fill="none" xmlns="http://www.w3.org/2000/svg">
<path fill-rule="evenodd" clip-rule="evenodd" d="M22 3.95312C22 2.875 21.125 2 20.0469 2H3.95312C2.875 2 2 2.875 2 3.95312V20.0469C2 21.125 2.875 22 3.95312 22H20.0469C21.125 22 22 21.125 22 20.0469V3.95312Z" fill="#4E3188"/>
<path fill-rule="evenodd" clip-rule="evenodd" d="M20.5352 14.6969V19.7539C20.5352 20.1797 20.1938 20.5266 19.7695 20.5352H14.6051L11.2332 14.6973H20.5352V14.6969ZM13.8367 20.5352H4.70039L9.27109 12.6305L13.8367 20.5352ZM3.9668 20.4836C3.69062 20.3777 3.48945 20.1191 3.46719 19.8117L3.46484 16.3262L7.1793 9.89531H10.0824L3.9668 20.4836ZM12.7371 9.88359C12.9898 9.88477 13.232 10.0332 13.3629 10.2535C13.3645 10.2559 13.3668 10.2602 13.3668 10.2602L14.1344 11.5895C14.1344 11.5895 14.1387 11.5969 14.141 11.6004C14.2664 11.8199 14.2711 12.0961 14.1457 12.3195C13.8883 12.7695 13.627 13.2176 13.3676 13.6664C13.2402 13.8848 12.9992 14.0273 12.743 14.0305C12.2539 14.0324 11.2738 14.0312 11.2723 14.0312C11.0195 14.0301 10.7734 13.8953 10.6426 13.675C10.6395 13.6703 10.6344 13.6605 10.6344 13.6605C10.6344 13.6605 9.86641 12.3313 9.86484 12.3281C9.73945 12.1086 9.73945 11.8254 9.86484 11.602C9.8668 11.5988 9.8707 11.5922 9.8707 11.5922C9.8707 11.5922 10.3848 10.7008 10.6418 10.2551C10.7691 10.0367 11.0109 9.88672 11.2668 9.8832C11.2711 9.8832 11.2797 9.88281 11.2797 9.88281L12.7285 9.8832H12.7371V9.88359ZM20.0055 3.50625L13.9266 14.0312H20.5352V4.24609C20.5352 3.90313 20.3133 3.61133 20.0055 3.50625ZM10.8934 3.46484H19.2613L14.7355 11.3L10.552 4.05625L10.8934 3.46484ZM12.7719 9.23047H7.56328L10.1676 4.72148L12.7719 9.23047Z" fill="url(#paint0_radial_106_401)"/>
<defs>
<radialGradient id="paint0_radial_106_401" cx="0" cy="0" r="1" gradientUnits="userSpaceOnUse" gradientTransform="translate(16.512 0.258705) scale(20.2794 20.2794)">
<stop stop-color="#F9A6FF"/>
<stop offset="1" stop-color="#EA73FF"/>
</radialGradient>
</defs>
</svg>
