<svg width="24" height="24" viewBox="0 0 24 24" fill="none" xmlns="http://www.w3.org/2000/svg">
<path d="M21.3082 16.3508C21.2049 16.1029 21.1015 15.8342 20.9982 15.6069C20.8329 15.235 20.6676 14.8837 20.523 14.5531L20.5023 14.5325C19.0766 11.433 17.5475 8.29229 15.9358 5.19286L15.8738 5.06889C15.7085 4.75894 15.5432 4.42834 15.3779 4.09773C15.1713 3.7258 14.9647 3.33321 14.6341 2.96127C13.9728 2.13476 13.0224 1.68018 12.0099 1.68018C10.9767 1.68018 10.0469 2.13476 9.36502 2.91995C9.05508 3.29188 8.82778 3.68447 8.62116 4.05641C8.45585 4.38701 8.29055 4.71762 8.12525 5.02756L8.06326 5.15154C6.47221 8.25097 4.9225 11.3917 3.49676 14.4912L3.47609 14.5325C3.33145 14.8631 3.16615 15.2144 3.00085 15.5863C2.89753 15.8136 2.79422 16.0615 2.6909 16.3301C2.42229 17.0947 2.33964 17.8179 2.44295 18.5617C2.67024 20.1115 3.70339 21.4132 5.12913 21.9918C5.66636 22.2191 6.22426 22.3224 6.80282 22.3224C6.96812 22.3224 7.17475 22.3017 7.34006 22.2811C8.02193 22.1984 8.72447 21.9711 9.40635 21.5785C10.2535 21.1033 11.0594 20.4214 11.9685 19.4296C12.8777 20.4214 13.7042 21.1033 14.5307 21.5785C15.2126 21.9711 15.9152 22.1984 16.597 22.2811C16.7623 22.3017 16.969 22.3224 17.1343 22.3224C17.7128 22.3224 18.2914 22.2191 18.808 21.9918C20.2544 21.4132 21.2668 20.0908 21.4941 18.5617C21.6594 17.8385 21.5768 17.1153 21.3082 16.3508ZM11.9892 17.4253C10.8734 16.0202 10.1502 14.6978 9.90225 13.582C9.79894 13.1067 9.77828 12.6935 9.84027 12.3216C9.88159 11.9909 10.0056 11.7017 10.1709 11.4537C10.5635 10.8958 11.2247 10.5445 11.9892 10.5445C12.7537 10.5445 13.4356 10.8752 13.8075 11.4537C13.9728 11.7017 14.0968 11.9909 14.1381 12.3216C14.2001 12.6935 14.1795 13.1274 14.0762 13.582C13.8282 14.6771 13.105 15.9995 11.9892 17.4253ZM20.2337 18.3964C20.0891 19.4709 19.3659 20.4007 18.3534 20.814C17.8575 21.0206 17.3202 21.0826 16.783 21.0206C16.2664 20.9586 15.7499 20.7933 15.2126 20.4834C14.4688 20.0701 13.7249 19.4296 12.857 18.4791C14.2208 16.8054 15.0473 15.2763 15.3573 13.9126C15.5019 13.272 15.5226 12.6935 15.4606 12.1562C15.3779 11.6397 15.192 11.1644 14.9027 10.7512C14.2621 9.82135 13.1877 9.28411 11.9892 9.28411C10.7908 9.28411 9.71629 9.84201 9.07574 10.7512C8.78646 11.1644 8.60049 11.6397 8.51784 12.1562C8.43519 12.6935 8.45585 13.2927 8.62116 13.9126C8.9311 15.2763 9.77828 16.8261 11.1214 18.4998C10.2742 19.4502 9.50966 20.0908 8.7658 20.504C8.22856 20.814 7.71199 20.9793 7.19542 21.0413C6.63752 21.1033 6.10028 21.0206 5.62504 20.8347C4.61255 20.4214 3.88935 19.4916 3.74471 18.4171C3.68272 17.9005 3.72405 17.384 3.93068 16.8054C3.99267 16.5988 4.09598 16.3921 4.1993 16.1442C4.34394 15.8136 4.50924 15.4623 4.67454 15.111L4.69521 15.0697C6.12095 11.9909 7.65 8.85019 9.24104 5.79209L9.30303 5.66811C9.46833 5.35817 9.63364 5.02756 9.79894 4.71762C9.96424 4.38701 10.1502 4.07707 10.3775 3.80845C10.8114 3.31254 11.39 3.04393 12.0305 3.04393C12.6711 3.04393 13.2496 3.31254 13.6836 3.80845C13.9109 4.07707 14.0968 4.38701 14.2621 4.71762C14.4274 5.02756 14.5927 5.35817 14.758 5.66811L14.82 5.79209C16.3904 8.87085 17.9195 12.0116 19.3452 15.0904V15.111C19.5105 15.4416 19.6551 15.8136 19.8204 16.1442C19.9238 16.3921 20.0271 16.5988 20.0891 16.8054C20.2544 17.3426 20.3164 17.8592 20.2337 18.3964Z" fill="#FF5A5F"/>
</svg>
