<svg width="24" height="24" viewBox="0 0 24 24" fill="none" xmlns="http://www.w3.org/2000/svg">
<path d="M2.68341 16.397C2.58591 16.3858 2.43403 16.2995 2.32603 16.2095C1.2985 15.2026 2.61778 14.0457 4.14406 13.3745V11.4601C4.50107 11.6877 4.69607 11.6982 4.70658 11.7301L5.8751 10.5728L5.48509 9.57716C8.90516 8.39777 10.2785 7.94326 13.0595 7.47788L12.5607 7.01213L13.3726 6.54712C15.2477 7.16438 17.0087 7.32638 16.7053 8.89465C16.7815 7.83414 15.4611 7.42276 13.4484 6.86025L13.0591 7.098L13.8092 7.71489C10.4768 8.28865 8.43154 8.9374 5.99698 9.77742L6.33187 10.6399L5.10934 11.8407C5.31559 11.8947 7.44639 12.6095 9.66418 11.0618C9.66418 11.0618 9.70806 11.0292 9.70806 11.0183C9.64356 10.9103 9.4913 10.7907 9.30792 10.6291C9.95669 10.6726 10.3782 11.2459 10.3028 11.8411H10.0002C10.018 11.6563 9.98816 11.47 9.91357 11.2999C8.19303 12.5555 6.20211 12.7392 4.50295 12.1437V13.6257C3.68093 13.9182 2.20864 14.8257 2.21539 15.7033C2.2694 16.1248 2.48616 16.2763 2.68041 16.385" fill="black"/>
<path d="M9.64207 16.018C7.80153 16.9488 6.04199 17.6954 3.32243 17.803C-0.215768 17.7269 -0.767404 15.379 0.909257 12.9227C2.48917 10.4451 4.99947 8.20515 8.99256 6.80863C10.1498 6.39837 11.8501 5.93262 13.4934 5.91087C15.8559 5.88912 18.1435 6.62525 17.9946 8.88691C17.9084 10.6183 15.4089 13.0637 14.0882 14.8169C13.5256 15.5841 13.4281 16.0825 14.3908 16.0394C17.8866 15.8118 21.0566 14.6001 24 13.345C22.0095 14.6976 11.7185 19.7936 11.6757 16.321C11.6862 15.8766 11.8917 15.412 12.227 14.914C12.5521 14.4164 13.007 13.8962 13.472 13.3664C14.1752 12.5657 15.9163 10.6506 16.5013 9.50305C17.4861 7.32801 15.2788 7.21551 13.3738 6.54913L12.5619 7.01413L13.0606 7.47989C10.2796 7.9449 8.90555 8.3994 5.48623 9.57917L5.87624 10.5748L4.70771 11.7321C4.67509 11.6998 4.50146 11.6893 4.1452 11.4621V13.3772C2.61892 14.0522 1.29513 15.2054 2.32715 16.2123C2.43516 16.2985 2.58741 16.3855 2.68492 16.3998C4.55996 17.4603 9.65257 16.0248 9.64282 16.0248" fill="#FF6600"/>
</svg>
