<svg width="24" height="24" viewBox="0 0 24 24" fill="none" xmlns="http://www.w3.org/2000/svg">
<path d="M3.5625 2C3.1481 2 2.75067 2.16462 2.45765 2.45765C2.16462 2.75067 2 3.1481 2 3.5625L2 20.4375C2 20.8519 2.16462 21.2493 2.45765 21.5424C2.75067 21.8354 3.1481 22 3.5625 22H20.4375C20.8519 22 21.2493 21.8354 21.5424 21.5424C21.8354 21.2493 22 20.8519 22 20.4375V3.5625C22 3.1481 21.8354 2.75067 21.5424 2.45765C21.2493 2.16462 20.8519 2 20.4375 2H3.5625Z" fill="#E62E04"/>
<path d="M7.50027 8.7038C7.57683 9.0163 7.5337 9.3538 7.60902 9.67162C7.87152 9.47943 8.04652 9.16224 8.01058 8.83193C8.00527 8.24068 7.34027 7.77724 6.7837 7.9763C6.4337 8.0763 6.17495 8.39037 6.1162 8.74505C6.0462 9.1513 6.29027 9.56693 6.65308 9.75255C6.61714 9.40255 6.53308 9.0338 6.62714 8.6913C6.77089 8.31818 7.36745 8.32568 7.50027 8.7038ZM17.8559 9.12755C17.9834 8.6688 17.7059 8.13693 17.2509 7.99005C16.8134 7.81818 16.2718 8.03693 16.079 8.46318C15.864 8.85787 15.994 9.41943 16.3871 9.65068C16.4646 9.3338 16.4075 8.99443 16.4996 8.68662C16.6465 8.3188 17.2356 8.32943 17.3696 8.70224C17.455 9.03537 17.3778 9.38537 17.3456 9.72162C17.6125 9.63912 17.779 9.38412 17.8556 9.12849L17.8559 9.12755Z" fill="#B32100"/>
<path d="M16.5001 8.68635C16.4076 8.99729 16.4648 9.33385 16.3876 9.65042C16.1589 11.0254 15.2382 12.2542 13.9917 12.8701C13.3712 13.1824 12.686 13.3446 11.9914 13.3437C11.2967 13.3428 10.612 13.1789 9.99229 12.8651C8.75729 12.2507 7.84386 11.0323 7.60917 9.67198C7.53417 9.35385 7.57667 9.01979 7.50042 8.70417C7.36792 8.32917 6.77104 8.31823 6.62729 8.69167C6.53354 9.03729 6.61792 9.40323 6.65323 9.75292C6.91573 11.4529 8.05323 12.9795 9.59448 13.7373C10.3028 14.0877 11.0792 14.279 11.8692 14.2976C12.6593 14.3163 13.4438 14.162 14.1679 13.8454C15.8345 13.1257 17.0804 11.5185 17.347 9.72042C17.3792 9.38417 17.4564 9.03385 17.3707 8.70104C17.2364 8.32823 16.6476 8.31792 16.5004 8.68542L16.5001 8.68635Z" fill="white"/>
<path d="M3.5625 2C3.1481 2 2.75067 2.16462 2.45765 2.45765C2.16462 2.75067 2 3.1481 2 3.5625L2 6.53125C2 6.11685 2.16462 5.71942 2.45765 5.4264C2.75067 5.13337 3.1481 4.96875 3.5625 4.96875H20.4375C20.8519 4.96875 21.2493 5.13337 21.5424 5.4264C21.8354 5.71942 22 6.11685 22 6.53125V3.5625C22 3.1481 21.8354 2.75067 21.5424 2.45765C21.2493 2.16462 20.8519 2 20.4375 2H3.5625Z" fill="#FF9900"/>
</svg>
