<svg width="24" height="24" viewBox="0 0 24 24" fill="none" xmlns="http://www.w3.org/2000/svg">
<path d="M22.9386 17.9305C22.9314 17.8854 22.9245 17.8408 22.917 17.7962C22.8716 17.5196 22.815 17.2462 22.7493 16.9766C22.6339 16.5056 22.4888 16.0458 22.3156 15.6006C22.1692 15.2235 22.0025 14.8567 21.8175 14.5011C21.5796 14.0446 21.3112 13.6063 21.0148 13.1895C20.6513 12.6787 20.2454 12.2002 19.8022 11.7593C19.6162 11.5739 19.4237 11.3951 19.225 11.2237C18.7945 10.8516 18.3347 10.5127 17.8503 10.2097C17.8545 10.2027 17.8581 10.1952 17.8624 10.1882C18.0843 9.80422 18.3069 9.42071 18.5288 9.0367C18.7458 8.6618 18.9629 8.28689 19.1799 7.91202C19.3361 7.64294 19.492 7.3733 19.6473 7.10421C19.6842 7.04029 19.7133 6.97423 19.7352 6.90658C19.796 6.71805 19.7986 6.51986 19.7499 6.33561C19.7375 6.28999 19.7224 6.24541 19.7041 6.20191C19.6858 6.15837 19.6646 6.11595 19.6404 6.07514C19.5574 5.93551 19.4387 5.81411 19.2897 5.72547C19.158 5.64708 19.0106 5.60034 18.8596 5.58692C18.7962 5.58155 18.7324 5.58207 18.669 5.58852C18.6167 5.59389 18.5648 5.60358 18.5131 5.617C18.3294 5.66586 18.1588 5.76684 18.0261 5.91292C17.9784 5.96555 17.9353 6.02359 17.8983 6.08748C17.7424 6.35656 17.5865 6.6262 17.431 6.89529L16.7799 8.01997C16.558 8.404 16.3354 8.78749 16.1135 9.17152C16.0893 9.21339 16.0648 9.25528 16.0406 9.29773C16.0069 9.28428 15.9736 9.27086 15.9399 9.25797C14.7162 8.79069 13.3886 8.53506 12.0008 8.53506C11.9629 8.53506 11.9253 8.53506 11.8871 8.53558C10.6533 8.54792 9.4678 8.76277 8.36176 9.14841C8.23397 9.19299 8.10749 9.24026 7.98198 9.28968C7.95943 9.25047 7.93622 9.21126 7.91399 9.17205C7.69207 8.78801 7.46949 8.40453 7.24757 8.02049C7.03055 7.64562 6.81352 7.27071 6.5965 6.89581C6.44027 6.62673 6.28436 6.35712 6.12912 6.08803C6.09186 6.02411 6.04904 5.96611 6.00132 5.91348C5.86863 5.76736 5.69801 5.66639 5.51433 5.61752C5.46269 5.6041 5.41072 5.59445 5.3581 5.58908C5.29502 5.58263 5.23129 5.58207 5.16788 5.58744C5.01688 5.60034 4.86947 5.64708 4.73743 5.72603C4.58839 5.81463 4.47073 5.93603 4.38705 6.07566C4.36287 6.11648 4.34129 6.15893 4.32332 6.20243C4.30502 6.24593 4.28933 6.29051 4.27756 6.33617C4.22886 6.52038 4.23148 6.71857 4.29194 6.9071C4.31417 6.97479 4.34293 7.04084 4.37986 7.10477C4.53609 7.37385 4.692 7.64346 4.84725 7.91254C5.06459 8.28745 5.28162 8.66235 5.49864 9.03723C5.72057 9.42126 5.94282 9.80474 6.16474 10.1888C6.16638 10.192 6.16866 10.1952 6.1703 10.1984C5.72253 10.4772 5.29665 10.786 4.89464 11.1238C4.65376 11.3264 4.4217 11.5385 4.19945 11.7603C3.75658 12.2013 3.35097 12.6798 2.98686 13.1906C2.69009 13.6074 2.42143 14.0451 2.18414 14.5022C1.99915 14.8578 1.83246 15.2246 1.68604 15.6017C1.51281 16.0469 1.3677 16.5066 1.25232 16.9777C1.18663 17.2473 1.13074 17.5202 1.08465 17.7973C1.07713 17.8419 1.07027 17.887 1.06341 17.9316C1.03857 18.0922 1.01765 18.2538 1 18.4166H23C22.9824 18.2538 22.9614 18.0922 22.9369 17.9316L22.9386 17.9305Z" fill="#34A853"/>
<path d="M17.7226 15.3695C18.1628 15.076 18.2269 14.397 17.8654 13.853C17.5042 13.3089 16.8545 13.1058 16.4146 13.3993C15.9743 13.6928 15.9102 14.3717 16.2717 14.9158C16.6329 15.4598 17.2826 15.663 17.7226 15.3695Z" fill="#202124"/>
<path d="M7.74769 14.9177C8.10918 14.3737 8.04511 13.6947 7.60486 13.4013C7.1646 13.1078 6.51517 13.3109 6.15368 13.8549C5.79252 14.399 5.85658 15.0779 6.29651 15.3714C6.73677 15.6649 7.38653 15.4618 7.74769 14.9177Z" fill="#202124"/>
</svg>
