<svg width="24" height="24" viewBox="0 0 24 24" fill="none" xmlns="http://www.w3.org/2000/svg">
<path fill-rule="evenodd" clip-rule="evenodd" d="M8.97875 2.017H15.0399C17.0396 2.017 18.0472 2.017 19.1323 2.35803C20.3104 2.79208 21.2405 3.72217 21.659 4.88479C22.0001 5.9699 22.0001 6.962 22.0001 8.9772V15.0228C22.0001 17.0225 22.0001 18.0301 21.659 19.1152C21.225 20.2933 20.2949 21.2234 19.1323 21.642C18.0472 21.983 17.0551 21.983 15.0399 21.983H8.99426C6.99455 21.983 5.98695 21.983 4.90184 21.642C3.72373 21.2234 2.79363 20.2933 2.35959 19.1152C2.01855 18.0301 2.01855 17.0225 2.01855 15.0228V8.9772C2.01855 6.9775 2.01855 5.9699 2.35959 4.90029C2.79363 3.72217 3.72373 2.79208 4.90184 2.35803C5.97145 2.017 6.97905 2.017 8.97875 2.017Z" fill="#783BF9"/>
<path fill-rule="evenodd" clip-rule="evenodd" d="M16.0473 10.6669C16.0473 12.8836 14.2647 14.6973 12.0324 14.6973C12.0169 14.6973 12.0169 14.6973 12.0014 14.6973C9.78472 14.7128 7.97104 12.9301 7.95553 10.6979C7.95553 10.6824 7.95553 10.6669 7.95553 10.6514V10.5429H9.38168V10.6669C9.38168 12.1085 10.5598 13.2866 12.0014 13.2866C13.4431 13.2866 14.6212 12.1085 14.6212 10.6669V10.5429H16.0473V10.6669ZM15.3963 6.69847C13.9546 6.65197 12.6215 7.47355 12.0014 8.79118C11.3814 7.47355 10.0482 6.65197 8.6066 6.69847C6.51389 6.72947 4.83972 8.41914 4.82422 10.5119C4.82422 14.6198 8.76162 17.9371 12.0014 17.9371C15.2413 17.9371 19.1787 14.6043 19.1787 10.5119C19.1787 8.40364 17.427 6.69847 15.3963 6.69847Z" fill="#F99DF0"/>
</svg>
