<svg width="24" height="24" viewBox="0 0 24 24" fill="none" xmlns="http://www.w3.org/2000/svg">
<path d="M9.68725 10.8832C9.45845 11.052 9.16645 11.1368 8.81125 11.1368L6.79365 11.1384V9.0184H8.65845C8.83125 9.0176 9.00325 9.0328 9.17285 9.0624C9.33765 9.092 9.48325 9.1448 9.61045 9.2208C9.73765 9.2968 9.83925 9.4032 9.91525 9.5384C9.99125 9.6736 10.0296 9.8472 10.0296 10.0584C10.0304 10.4392 9.91605 10.7136 9.68725 10.8832Z" fill="#04071E"/>
<path d="M9.48405 14.9256C9.30085 14.964 9.11365 14.9832 8.92565 14.9824L6.79365 14.9832V12.4952H8.96405C9.39525 12.4952 9.74245 12.5944 10.0048 12.7936C10.2672 12.992 10.3984 13.3248 10.3984 13.7896C10.3984 14.0264 10.3576 14.2216 10.2776 14.3736C10.1968 14.5256 10.0888 14.6464 9.95365 14.7352C9.81845 14.824 9.66165 14.8872 9.48405 14.9256Z" fill="#04071E"/>
<path d="M15.952 10.9848C16.392 10.9848 16.72 11.1032 16.936 11.34C17.1512 11.5768 17.3017 11.924 17.3872 12.38H14.4552C14.4632 12.2536 14.4912 12.1096 14.5376 11.9488C14.584 11.788 14.6641 11.636 14.7785 11.492C14.8928 11.348 15.0448 11.228 15.2352 11.1304C15.4248 11.0336 15.664 10.9848 15.952 10.9848Z" fill="#04071E"/>
<path fill-rule="evenodd" clip-rule="evenodd" d="M22 12C22 17.5228 17.5228 22 12 22C6.47715 22 2 17.5228 2 12C2 6.47715 6.47715 2 12 2C17.5228 2 22 6.47715 22 12ZM10.2456 7.5832C9.88965 7.5072 9.49605 7.4688 9.06485 7.4688H4.80005V16.532H9.19285C9.59285 16.5328 9.99205 16.4816 10.3792 16.38C10.764 16.2784 11.1064 16.1224 11.4072 15.9104C11.708 15.6992 11.9472 15.4264 12.1248 15.092C12.3024 14.7576 12.3912 14.3616 12.3912 13.9048C12.3912 13.3376 12.2536 12.8528 11.9784 12.4512C11.7032 12.0496 11.2864 11.768 10.728 11.6072C11.1336 11.4128 11.4408 11.1632 11.648 10.8584C11.8552 10.5536 11.9592 10.1728 11.9592 9.716C11.9592 9.2928 11.8896 8.9376 11.7496 8.6496C11.6096 8.3616 11.4128 8.1312 11.1592 7.9576C10.9056 7.784 10.6016 7.6592 10.2456 7.5832ZM16.0665 15.1856C15.5584 15.1856 15.1688 15.0544 14.8984 14.792C14.628 14.5304 14.48 14.1072 14.4552 13.5256H19.1896C19.2232 13.0176 19.1808 12.5312 19.0625 12.0656C18.944 11.6 18.7512 11.1856 18.4848 10.8216C18.2185 10.4576 17.8776 10.168 17.4632 9.952C17.048 9.736 16.5616 9.628 16.0032 9.628C15.504 9.628 15.0489 9.7168 14.6384 9.8944C14.228 10.072 13.8744 10.3152 13.5784 10.624C13.2824 10.9328 13.0536 11.2984 12.8928 11.7216C12.732 12.1448 12.652 12.6016 12.652 13.092C12.652 13.5992 12.7304 14.0648 12.8864 14.488C13.0424 14.9112 13.2648 15.2744 13.5528 15.5792C13.8408 15.884 14.192 16.1192 14.6065 16.284C15.0208 16.4488 15.4865 16.5312 16.0024 16.5312C16.7472 16.5312 17.3816 16.3616 17.9065 16.0232C18.4312 15.6848 18.8209 15.1224 19.0744 14.3352H17.488C17.4288 14.5384 17.268 14.7312 17.0056 14.9128C16.7432 15.0944 16.4304 15.1856 16.0665 15.1856ZM17.8096 7.9288H14.1465V8.9448H17.8096V7.9288Z" fill="#04071E"/>
</svg>
