<svg width="24" height="24" viewBox="0 0 24 24" fill="none" xmlns="http://www.w3.org/2000/svg">
<path d="M12 22C17.5228 22 22 17.5228 22 12C22 6.47715 17.5228 2 12 2C6.47715 2 2 6.47715 2 12C2 17.5228 6.47715 22 12 22Z" fill="#1769FF"/>
<path d="M9.06489 7.46875C9.49609 7.46875 9.88969 7.50715 10.2457 7.58315C10.6017 7.65915 10.9057 7.78395 11.1593 7.95755C11.4129 8.13115 11.6097 8.36155 11.7497 8.64955C11.8897 8.93755 11.9593 9.29275 11.9593 9.71595C11.9593 10.1727 11.8553 10.5536 11.6481 10.8584C11.4409 11.1632 11.1337 11.4128 10.7281 11.6072C11.2865 11.768 11.7033 12.0496 11.9785 12.4511C12.2537 12.8527 12.3913 13.3375 12.3913 13.9047C12.3913 14.3615 12.3025 14.7575 12.1249 15.0919C11.9473 15.4263 11.7081 15.6992 11.4073 15.9103C11.1065 16.1223 10.7641 16.2783 10.3793 16.3799C9.99209 16.4815 9.59289 16.5327 9.19289 16.5319H4.80009V7.46875H9.06489ZM8.81129 11.1367C9.16649 11.1367 9.45849 11.052 9.68729 10.8832C9.91609 10.7136 10.0305 10.4391 10.0297 10.0583C10.0297 9.84715 9.99129 9.67355 9.91529 9.53835C9.83929 9.40315 9.73769 9.29675 9.61049 9.22075C9.48329 9.14475 9.33769 9.09195 9.17289 9.06235C9.00329 9.03275 8.83129 9.01755 8.65849 9.01835H6.79369V11.1384L8.81129 11.1367ZM8.92569 14.9823C9.11369 14.9832 9.30089 14.9639 9.48409 14.9255C9.66169 14.8871 9.81849 14.8239 9.95369 14.7351C10.0889 14.6463 10.1969 14.5255 10.2777 14.3735C10.3577 14.2215 10.3985 14.0263 10.3985 13.7895C10.3985 13.3247 10.2673 12.9919 10.0049 12.7935C9.74249 12.5943 9.39529 12.4952 8.96409 12.4952H6.79369V14.9832L8.92569 14.9823ZM14.8985 14.7919C15.1689 15.0543 15.5585 15.1855 16.0665 15.1855C16.4305 15.1855 16.7433 15.0943 17.0057 14.9127C17.2681 14.7311 17.4289 14.5384 17.4881 14.3351H19.0745C18.8209 15.1223 18.4313 15.6847 17.9065 16.0231C17.3817 16.3615 16.7473 16.5311 16.0025 16.5311C15.4865 16.5311 15.0209 16.4487 14.6065 16.2839C14.1921 16.1191 13.8409 15.884 13.5529 15.5792C13.2649 15.2743 13.0425 14.9111 12.8865 14.4879C12.7305 14.0647 12.6521 13.5991 12.6521 13.0919C12.6521 12.6015 12.7321 12.1447 12.8929 11.7215C13.0537 11.2983 13.2825 10.9327 13.5785 10.624C13.8745 10.3152 14.2281 10.0719 14.6385 9.89435C15.0489 9.71675 15.5041 9.62795 16.0033 9.62795C16.5617 9.62795 17.0481 9.73595 17.4633 9.95195C17.8777 10.1679 18.2185 10.4575 18.4849 10.8215C18.7513 11.1855 18.9441 11.5999 19.0625 12.0655C19.1809 12.5311 19.2233 13.0175 19.1897 13.5255H14.4553C14.4801 14.1071 14.6281 14.5303 14.8985 14.7919ZM16.9361 11.3399C16.7201 11.1031 16.3921 10.9847 15.9521 10.9847C15.6641 10.9847 15.4249 11.0336 15.2353 11.1304C15.0449 11.228 14.8929 11.3479 14.7785 11.492C14.6641 11.636 14.5841 11.7879 14.5377 11.9487C14.4913 12.1095 14.4633 12.2536 14.4553 12.38H17.3873C17.3017 11.9239 17.1513 11.5767 16.9361 11.3399ZM14.1465 7.92875H17.8097V8.94475H14.1465V7.92875Z" fill="white"/>
</svg>
