<svg width="24" height="24" viewBox="0 0 24 24" fill="none" xmlns="http://www.w3.org/2000/svg">
<path d="M7.72731 10.2444L11.9997 5.97224L16.2743 10.2467L18.7602 7.76073L11.9997 1L5.24136 7.75847L7.72731 10.2444Z" fill="#F3BA2F"/>
<path d="M5.97184 11.9993L3.48593 9.51343L0.999901 11.9995L3.48581 14.4854L5.97184 11.9993Z" fill="#F3BA2F"/>
<path d="M7.72739 13.7553L11.9997 18.0274L16.2742 13.7532L18.7615 16.2377L18.7603 16.2391L11.9997 22.9997L5.24127 16.2414L5.23779 16.2379L7.72739 13.7553Z" fill="#F3BA2F"/>
<path d="M20.514 14.4865L23 12.0005L20.5141 9.51458L18.0281 12.0006L20.514 14.4865Z" fill="#F3BA2F"/>
<path d="M14.5219 11.9984H14.5229L12.0003 9.47583L10.1361 11.3401H10.1359L9.92181 11.5543L9.47995 11.9962L9.47647 11.9997L9.47995 12.0033L12.0003 14.5237L14.5229 12.001L14.5241 11.9997L14.5219 11.9984Z" fill="#F3BA2F"/>
</svg>
