<svg width="24" height="24" viewBox="0 0 24 24" fill="none" xmlns="http://www.w3.org/2000/svg">
<path d="M3.05725 3.26275C2.96571 3.26157 2.87501 3.28044 2.79154 3.31804C2.70806 3.35564 2.63383 3.41106 2.57405 3.4804C2.51427 3.54975 2.47039 3.63133 2.4455 3.71944C2.42061 3.80754 2.41531 3.90003 2.42996 3.9904L5.0928 20.1556C5.12598 20.3535 5.22779 20.5333 5.38037 20.6635C5.53294 20.7937 5.72652 20.866 5.92709 20.8676H18.7018C18.8521 20.8696 18.9982 20.8174 19.1133 20.7207C19.2285 20.624 19.305 20.4891 19.3291 20.3407L21.9919 3.99354C22.0066 3.90317 22.0013 3.81068 21.9764 3.72258C21.9515 3.63447 21.9076 3.55288 21.8478 3.48354C21.788 3.4142 21.7138 3.35878 21.6303 3.32118C21.5469 3.28358 21.4562 3.2647 21.3646 3.26588L3.05725 3.26275ZM14.27 14.946H10.1926L9.08862 9.17808H15.258L14.27 14.946Z" fill="#04071E"/>
<path d="M21.145 9.1781H15.2579L14.27 14.946H10.1926L5.37817 20.6606C5.53077 20.7926 5.72532 20.866 5.92705 20.8676H18.7049C18.8552 20.8696 19.0013 20.8174 19.1164 20.7207C19.2316 20.624 19.3081 20.4891 19.3322 20.3407L21.145 9.1781Z" fill="#04071E"/>
</svg>
