<svg width="24" height="24" viewBox="0 0 24 24" fill="none" xmlns="http://www.w3.org/2000/svg">
<path d="M18.8223 16.247C17.9334 17.1539 16.6902 17.6666 15.3434 17.6684C13.9958 17.6711 12.7516 17.162 11.8627 16.2578C11.4282 15.817 11.1098 15.3114 10.9118 14.7707C10.7184 14.24 10.6446 13.6723 10.6941 13.11C10.7418 12.5612 10.9037 12.0278 11.1709 11.5456C11.4309 11.0742 11.7881 10.6486 12.2289 10.2888C13.0925 9.58438 14.1919 9.20383 15.3434 9.20203C16.4949 9.20023 17.5934 9.57898 18.4579 10.2798C18.8978 10.6387 19.255 11.0625 19.5141 11.533C19.7813 12.0152 19.9441 12.5478 19.9918 13.0965C20.0413 13.6597 19.9666 14.2265 19.7732 14.7581C19.5753 15.2979 19.2559 15.8044 18.8223 16.247Z" fill="white"/>
<path d="M12.4703 13.1677C12.5108 12.4345 12.8707 11.7876 13.4122 11.3297C13.9439 10.879 14.66 10.6046 15.44 10.6046C16.2209 10.6055 16.9361 10.8799 17.4678 11.3297C18.0093 11.7885 18.3692 12.4345 18.4106 13.1677C18.4519 13.9215 18.1488 14.6224 17.6171 15.1414C17.0755 15.6695 16.3036 16.0015 15.44 16.0015C14.5763 16.0015 13.8036 15.6695 13.262 15.1414C12.7312 14.6224 12.4289 13.9215 12.4703 13.1677Z" fill="#005385"/>
<path d="M7.73815 14.652C7.74355 14.938 7.83531 15.4958 7.97205 15.9321C8.26084 16.8543 8.75023 17.708 9.43215 18.4601C10.1321 19.2329 10.9921 19.8536 11.9871 20.2935C13.0334 20.7568 14.166 20.9934 15.3418 20.9907C16.5176 20.9889 17.6503 20.7487 18.6956 20.2818C19.6897 19.8365 20.5498 19.214 21.2488 18.4394C21.9298 17.6837 22.4183 16.8291 22.7071 15.9069C22.851 15.4472 22.9437 14.9731 22.9815 14.4936C23.0174 14.0258 23.0022 13.5544 22.9365 13.0893C22.8069 12.1771 22.4912 11.3215 22.0054 10.5416C21.5601 9.82545 20.9879 9.19751 20.3069 8.66852L20.3078 8.66762L13.4364 3.3922C13.431 3.3877 13.4247 3.3823 13.4193 3.3778C12.9668 3.03235 12.2093 3.03325 11.7136 3.3805C11.2116 3.73136 11.1549 4.31162 11.6003 4.67777L11.5985 4.67867L14.4647 7.01051L5.72658 7.0195H5.71489C4.99338 7.0204 4.29887 7.49451 4.16123 8.09276C4.02088 8.70271 4.51118 9.2083 5.26237 9.2119L5.26147 9.2146L9.69035 9.2056L1.78711 15.2718C1.77721 15.2799 1.76641 15.2871 1.75742 15.2943C1.01252 15.8647 0.771424 16.8147 1.24013 17.4156C1.71693 18.0265 2.72992 18.0274 3.48381 17.4183L7.79663 13.8891C7.79663 13.8891 7.73365 14.3659 7.73815 14.652ZM18.8216 16.247C17.9327 17.1538 16.6895 17.6666 15.3427 17.6684C13.9951 17.6711 12.7509 17.1619 11.8621 16.2578C11.4275 15.817 11.1091 15.3114 10.9111 14.7707C10.7177 14.2399 10.644 13.6723 10.6934 13.11C10.7411 12.5612 10.903 12.0277 11.1702 11.5455C11.4302 11.0741 11.7874 10.6486 12.2282 10.2888C13.0918 9.58435 14.1912 9.2038 15.3427 9.202C16.4942 9.20021 17.5927 9.57895 18.4572 10.2798C18.8972 10.6387 19.2543 11.0624 19.5134 11.5329C19.7806 12.0151 19.9434 12.5477 19.9911 13.0965C20.0406 13.6597 19.9659 14.2264 19.7725 14.7581C19.5746 15.2979 19.2552 15.8044 18.8216 16.247Z" fill="#FF7021"/>
</svg>
