<svg width="24" height="24" viewBox="0 0 24 24" fill="none" xmlns="http://www.w3.org/2000/svg">
<path d="M13.4125 11.3296C12.8709 11.7875 12.511 12.4344 12.4706 13.1676C12.4292 13.9215 12.7315 14.6223 13.2622 15.1414C13.8038 15.6694 14.5766 16.0014 15.4402 16.0014C16.3039 16.0014 17.0758 15.6694 17.6173 15.1414C18.149 14.6223 18.4522 13.9215 18.4108 13.1676C18.3694 12.4344 18.0096 11.7884 17.468 11.3296C16.9363 10.8798 16.2211 10.6054 15.4402 10.6045C14.6603 10.6045 13.9442 10.8789 13.4125 11.3296Z" fill="#04071E"/>
<path fill-rule="evenodd" clip-rule="evenodd" d="M7.97205 15.9321C7.83531 15.4958 7.74355 14.938 7.73815 14.652C7.73365 14.3659 7.79663 13.8891 7.79663 13.8891L3.48381 17.4183C2.72992 18.0274 1.71693 18.0265 1.24013 17.4156C0.771424 16.8147 1.01252 15.8647 1.75742 15.2943C1.76154 15.291 1.76604 15.2877 1.77066 15.2843C1.77612 15.2803 1.78174 15.2762 1.78711 15.2718L9.69035 9.2056L5.26147 9.2146L5.26237 9.2119C4.51118 9.2083 4.02088 8.70271 4.16123 8.09276C4.29887 7.49451 4.99338 7.0204 5.71489 7.0195H5.72658L14.4647 7.01051L11.5985 4.67867L11.6003 4.67777C11.1549 4.31162 11.2116 3.73136 11.7136 3.3805C12.2093 3.03325 12.9668 3.03235 13.4193 3.3778L13.4364 3.3922L20.3078 8.66762L20.3069 8.66852C20.9879 9.19751 21.5601 9.82545 22.0054 10.5416C22.4912 11.3215 22.8069 12.1771 22.9365 13.0893C23.0022 13.5544 23.0174 14.0258 22.9815 14.4936C22.9437 14.9731 22.851 15.4472 22.7071 15.9069C22.4183 16.8291 21.9298 17.6837 21.2488 18.4394C20.5498 19.214 19.6897 19.8365 18.6956 20.2818C17.6503 20.7487 16.5176 20.9889 15.3418 20.9907C14.166 20.9934 13.0334 20.7568 11.9871 20.2935C10.9921 19.8536 10.1321 19.2329 9.43215 18.4601C8.75023 17.708 8.26084 16.8543 7.97205 15.9321ZM15.3427 17.6684C16.6895 17.6666 17.9327 17.1538 18.8216 16.247C19.2552 15.8044 19.5746 15.2979 19.7725 14.7581C19.9659 14.2264 20.0406 13.6597 19.9911 13.0965C19.9434 12.5477 19.7806 12.0151 19.5134 11.5329C19.2543 11.0624 18.8972 10.6387 18.4572 10.2798C17.5927 9.57895 16.4942 9.20021 15.3427 9.202C14.1912 9.2038 13.0918 9.58435 12.2282 10.2888C11.7874 10.6486 11.4302 11.0741 11.1702 11.5455C10.903 12.0277 10.7411 12.5612 10.6934 13.11C10.644 13.6723 10.7177 14.2399 10.9111 14.7707C11.1091 15.3114 11.4275 15.817 11.8621 16.2578C12.7509 17.1619 13.9951 17.6711 15.3427 17.6684Z" fill="#04071E"/>
</svg>
