<svg width="24" height="24" viewBox="0 0 24 24" fill="none" xmlns="http://www.w3.org/2000/svg">
<path fill-rule="evenodd" clip-rule="evenodd" d="M22.2475 5.80443C22.2475 3.68045 20.5223 1.95605 18.3983 1.95605H5.60163C3.47768 1.95605 1.7525 3.68045 1.7525 5.80443V18.1516C1.7525 20.275 3.47768 22 5.60165 22H18.3983C20.5223 22 22.2475 20.275 22.2475 18.1516L22.2475 5.80443Z" fill="#0C3B7C"/>
<path d="M11.0667 15.2231L9.41602 15.2215V13.2477C9.41602 12.826 9.57961 12.6065 9.9405 12.5563H11.0667C11.8699 12.5563 12.3895 13.0627 12.3895 13.8823C12.3895 14.7241 11.8831 15.2223 11.0667 15.2231ZM9.41602 9.89938V9.37983C9.41602 8.92523 9.60838 8.70902 10.0301 8.68107H10.8752C11.5994 8.68107 12.0335 9.1143 12.0335 9.8402C12.0335 10.3926 11.7359 11.038 10.9015 11.038H9.41602V9.89938ZM13.1745 11.8691L12.8761 11.7014L13.1367 11.4786C13.4401 11.218 13.9481 10.6319 13.9481 9.6207C13.9481 8.07191 12.7471 7.07309 10.8883 7.07309H8.7674V7.07227H8.52571C7.97492 7.09282 7.53346 7.54085 7.52771 8.09493V16.8829H10.9303C12.9962 16.8829 14.3296 15.7583 14.3296 14.0163C14.3296 13.0783 13.8988 12.2768 13.1745 11.8691Z" fill="white"/>
<path d="M15.2164 15.669C15.2164 14.9977 15.7578 14.4546 16.4249 14.4546C17.0937 14.4546 17.6377 14.9977 17.6377 15.669C17.6377 16.3395 17.0937 16.8835 16.4249 16.8835C15.7578 16.8835 15.2164 16.3395 15.2164 15.669Z" fill="#00BAFC"/>
</svg>
