<svg width="24" height="24" viewBox="0 0 24 24" fill="none" xmlns="http://www.w3.org/2000/svg">
<path d="M12 15.3203C13.8338 15.3203 15.3203 13.8338 15.3203 12C15.3203 10.1662 13.8338 8.67969 12 8.67969C10.1662 8.67969 8.67969 10.1662 8.67969 12C8.67969 13.8338 10.1662 15.3203 12 15.3203Z" fill="#04071E"/>
<path d="M7.61163 11.0395C8.05273 9.02254 9.85269 7.50781 12.0001 7.50781H20.94C20.4657 6.56613 19.8384 5.69617 19.0712 4.92891C17.1824 3.0402 14.6712 2 12.0001 2C9.32902 2 6.81781 3.0402 4.92902 4.92891C4.74838 5.1096 4.5746 5.29703 4.40804 5.49078L7.61163 11.0395Z" fill="#04071E"/>
<path d="M13.3625 16.2807C12.922 16.4212 12.4624 16.4925 12 16.4922C10.3313 16.4922 8.87234 15.5776 8.09773 14.2234C8.09211 14.2148 8.08671 14.2062 8.08152 14.1974L3.64105 6.50625C2.57348 8.12344 2 10.0176 2 12C2 14.6711 3.0402 17.1823 4.92891 19.0711C6.3759 20.518 8.1884 21.4663 10.158 21.831L13.3625 16.2807Z" fill="#04071E"/>
<path d="M15.0226 8.67969C15.925 9.50187 16.4922 10.6859 16.4922 12C16.4922 12.8265 16.2676 13.6014 15.8766 14.2673C15.8726 14.275 15.8692 14.2828 15.8648 14.2903L11.4234 21.9831C11.6147 21.9939 11.8069 22 12 22C14.6711 22 17.1823 20.9598 19.0711 19.0711C20.9598 17.1823 22 14.6711 22 12C22 10.8513 21.8071 9.73242 21.4377 8.67969H15.0226Z" fill="#04071E"/>
</svg>
