<svg width="24" height="24" viewBox="0 0 24 24" fill="none" xmlns="http://www.w3.org/2000/svg">
<path d="M2.59642 17.3865C1.71794 17.3865 0.999878 18.1046 0.999878 18.9831C0.999878 19.8615 1.71794 20.5796 2.59642 20.5796C3.4749 20.5796 4.19297 19.8615 4.19297 18.9831C4.19297 18.1046 3.48254 17.3865 2.59642 17.3865Z" fill="#6515DD"/>
<path d="M22.2513 3.44539L12.1985 6.65376V3.48358L1.35876 6.94404V16.1337L10.7089 13.1469V16.3018L23 12.383L19.6694 9.12878L22.2513 3.44539ZM10.7089 11.5733L2.856 14.0788V8.03641L10.7089 5.53083V11.5733ZM20.2194 11.7031L12.1985 14.2622V8.22738L19.5853 5.86694L17.8895 9.44198L20.2194 11.7031Z" fill="#6515DD"/>
</svg>
