<svg width="24" height="24" viewBox="0 0 24 24" fill="none" xmlns="http://www.w3.org/2000/svg">
<path fill-rule="evenodd" clip-rule="evenodd" d="M11.4244 1.17623C11.7732 0.944837 12.2267 0.944837 12.5754 1.17623L22.5345 7.78349C22.8252 7.97637 23 8.30205 23 8.65093V15.349C23 15.6979 22.8252 16.0236 22.5345 16.2165L12.5754 22.8238C12.2267 23.0551 11.7732 23.0551 11.4244 22.8238L1.46537 16.2165C1.17465 16.0236 0.999878 15.6979 0.999878 15.349V8.65093C0.999878 8.30205 1.17465 7.97637 1.46537 7.78349L11.4244 1.17623ZM3.08185 10.5909V13.3944L5.18013 11.9832L3.08185 10.5909ZM7.05806 13.2292L3.91494 15.3431L10.9589 20.0164V15.8175L7.05806 13.2292ZM13.0409 15.8175V20.0164L20.0849 15.3431L16.9418 13.2292L13.0409 15.8175ZM18.8197 11.9832L20.918 13.3944V10.5909L18.8197 11.9832ZM20.0761 8.65098L16.9496 10.7254L13.0409 8.09654V3.98356L20.0761 8.65098ZM10.9589 3.98356V8.09654L7.05022 10.7254L3.92379 8.65098L10.9589 3.98356ZM11.9999 9.90546L8.92815 11.9714L11.9999 14.0096L15.0717 11.9714L11.9999 9.90546Z" fill="#04071E"/>
</svg>
