<svg width="24" height="24" viewBox="0 0 24 24" fill="none" xmlns="http://www.w3.org/2000/svg">
<path d="M11.9839 12.7625L11.9842 11.8596C11.9846 11.3145 11.985 10.7681 11.9785 10.2237C11.9757 9.94773 11.9129 9.68538 11.7107 9.47768C11.5276 9.29459 11.2515 9.24266 11.0138 9.34378C10.8498 9.41483 10.7104 9.53234 10.6093 9.68264C10.4635 9.88973 10.3318 10.1059 10.2001 10.3219C10.1146 10.4622 10.0291 10.6025 9.9398 10.7402C9.53039 11.365 9.13635 11.9992 8.74241 12.6333C8.43163 13.1335 8.12091 13.6336 7.80274 14.1289C7.74536 14.2191 7.69617 14.2218 7.64698 14.1207C7.58685 14.0005 7.53493 13.8775 7.48574 13.7518C7.27531 13.2216 7.166 12.6587 7.1578 12.0875C7.14141 10.896 7.47481 9.81655 8.22633 8.8874C8.96419 7.97464 9.91247 7.38162 11.0712 7.16846C12.7464 6.86239 14.2002 7.3297 15.4109 8.513C16.1651 9.24813 16.6024 10.1609 16.7773 11.2021C16.8429 11.5847 16.8565 11.9755 16.8183 12.3608C16.7882 12.645 16.6734 12.8937 16.4466 13.0768C16.258 13.2271 16.0449 13.3118 15.8071 13.2162C15.5557 13.1178 15.4273 12.9128 15.3835 12.6505C15.3207 12.2679 15.3289 11.8826 15.3371 11.4972C15.3379 11.4483 15.3391 11.3992 15.3403 11.3501C15.347 11.07 15.3538 10.7873 15.2934 10.5107C15.2086 10.1336 14.99 9.86574 14.5992 9.76736C14.4107 9.7209 14.2358 9.78376 14.0718 9.87121C13.8231 10.0051 13.6346 10.2073 13.476 10.4342C13.2759 10.7171 13.0947 11.0136 12.9134 11.3102C12.8373 11.4348 12.7611 11.5594 12.6835 11.6831L12.0277 12.7325C12.0236 12.7379 12.0195 12.7441 12.0154 12.7502C12.0129 12.7539 12.0105 12.7575 12.008 12.761C12.0064 12.7634 12.0047 12.7658 12.0031 12.768L11.9839 12.7625Z" fill="#04071E"/>
<path fill-rule="evenodd" clip-rule="evenodd" d="M21.9999 17.422V6.40328C21.9999 5.92231 21.9507 5.4386 21.8523 4.96583C21.6637 4.05854 21.1828 3.33434 20.4531 2.77685C19.8519 2.31774 19.1496 2.13191 18.4117 2.04719C18.0236 2.00347 17.6328 2.00073 17.2421 2.00073H7.12248C6.58412 2.00073 6.04575 2.0062 5.50739 2.06359C5.133 2.10185 4.76407 2.17017 4.41153 2.30681C3.79119 2.55003 3.28562 2.94628 2.8675 3.46005C2.58875 3.80438 2.36466 4.17878 2.23896 4.60783C2.06406 5.20905 2.00667 5.82939 2.00667 6.45247C2.00393 9.81382 2.00393 13.1752 2.00393 16.5365C2.00393 16.566 2.00393 16.5956 2.00392 16.6251C2.00379 17.1858 2.00366 17.7466 2.05039 18.3074C2.08045 18.6845 2.13784 19.0562 2.25262 19.4196C2.45485 20.0536 2.82924 20.5729 3.31841 21.0129C3.77752 21.4255 4.29949 21.7125 4.90891 21.8409C5.43087 21.9475 5.96104 21.9994 6.49393 21.9967C10.0821 21.9994 13.6703 21.9994 17.2585 21.9994C17.7422 22.0021 18.2259 21.9721 18.7041 21.912C19.3846 21.8245 20.0022 21.5868 20.5351 21.1468C21.1964 20.6002 21.6665 19.9334 21.8441 19.0808C21.9589 18.5315 21.9999 17.9794 21.9999 17.422ZM14.2739 11.1693C14.1646 11.3387 14.0553 11.5109 13.9487 11.6803C13.6433 12.162 13.3472 12.6483 13.051 13.1345C12.9523 13.2966 12.8535 13.4587 12.7545 13.6206C12.6288 13.8256 12.4785 14.0114 12.2817 14.1563C11.6805 14.599 11.0601 14.1508 10.9891 13.6261C10.9399 13.2872 10.9098 12.9456 10.9044 12.604C10.9025 12.3396 10.9032 12.0753 10.9038 11.8117C10.9041 11.6804 10.9044 11.5488 10.9044 11.418C10.9044 11.3797 10.9019 11.3415 10.8995 11.3033C10.8983 11.2841 10.8971 11.2649 10.8962 11.2458C10.8753 11.2458 10.8688 11.2586 10.8632 11.2695C10.8615 11.2728 10.8598 11.276 10.8579 11.2786C10.3756 12.076 9.87741 12.8643 9.37942 13.6524C9.10428 14.0877 8.8292 14.523 8.55689 14.9597C8.53917 14.9878 8.52185 15.0164 8.50448 15.045C8.47629 15.0914 8.44794 15.1381 8.41751 15.1838C8.39565 15.2166 8.39565 15.2384 8.42571 15.2712C9.1991 16.0719 10.1173 16.613 11.2268 16.7825C12.5741 16.9902 13.7984 16.6868 14.8943 15.8725C14.972 15.8153 15.0452 15.7527 15.1185 15.6898C15.1715 15.6445 15.2246 15.599 15.2796 15.5554C15.4408 15.4297 15.6185 15.3532 15.8316 15.4024C15.8617 15.4079 15.8863 15.4215 15.9081 15.4407C15.9573 15.4899 16.0065 15.5336 16.0612 15.5773C16.2251 15.6976 16.2333 15.8588 16.1896 16.0364C16.135 16.2469 15.9901 16.3917 15.8289 16.5229C15.0856 17.1405 14.2493 17.5805 13.2983 17.78C11.4783 18.1653 9.81944 17.7991 8.35739 16.6486C7.24241 15.7713 6.53461 14.6236 6.22307 13.2353C6.06184 12.5166 6.04544 11.7896 6.15475 11.06C6.48815 8.79176 8.10598 7.07282 9.91783 6.38416C10.5026 6.16007 11.1175 6.03709 11.7433 6.01796C12.4265 5.9961 13.0961 6.05622 13.752 6.26664C14.6264 6.54266 15.4244 7.01817 16.083 7.65491C16.9931 8.53487 17.5669 9.59793 17.8074 10.8414C17.9249 11.448 17.9523 12.0602 17.8539 12.6696C17.7364 13.4047 17.1406 14.1344 16.3345 14.2874C15.5365 14.4405 14.7932 14.0278 14.4707 13.249C14.3313 12.9128 14.293 12.5603 14.293 12.2023V11.213C14.293 11.2021 14.293 11.1912 14.2903 11.1802L14.2739 11.1693Z" fill="#04071E"/>
</svg>
