<svg width="24" height="24" viewBox="0 0 24 24" fill="none" xmlns="http://www.w3.org/2000/svg">
<path d="M21.9999 11.8962C21.9999 13.7381 21.9999 15.58 21.9999 17.422C21.9999 17.9794 21.9589 18.5315 21.8441 19.0808C21.6665 19.9334 21.1964 20.6002 20.5351 21.1468C20.0022 21.5868 19.3846 21.8245 18.7041 21.912C18.2259 21.9721 17.7422 22.0021 17.2585 21.9994C13.6703 21.9994 10.0821 21.9994 6.49393 21.9967C5.96104 21.9994 5.43087 21.9475 4.90891 21.8409C4.29949 21.7125 3.77752 21.4255 3.31841 21.0129C2.82924 20.5729 2.45485 20.0536 2.25262 19.4196C2.13784 19.0562 2.08045 18.6845 2.05039 18.3074C2.0012 17.7171 2.00393 17.1268 2.00393 16.5365C2.00393 13.1752 2.00393 9.81382 2.00667 6.45247C2.00667 5.82939 2.06406 5.20905 2.23896 4.60783C2.36466 4.17878 2.58875 3.80438 2.8675 3.46005C3.28562 2.94628 3.79119 2.55003 4.41153 2.30681C4.76407 2.17017 5.133 2.10185 5.50739 2.06359C6.04575 2.0062 6.58412 2.00073 7.12248 2.00073C10.4975 2.00073 13.8698 2.00073 17.2421 2.00073C17.6328 2.00073 18.0236 2.00347 18.4117 2.04719C19.1496 2.13191 19.8519 2.31774 20.4531 2.77685C21.1828 3.33434 21.6637 4.05854 21.8523 4.96583C21.9507 5.4386 21.9999 5.92231 21.9999 6.40328C21.9999 8.23699 21.9999 10.0652 21.9999 11.8962Z" fill="#2B6AFF"/>
<path d="M14.2743 11.1692C14.165 11.3387 14.0557 11.5108 13.9491 11.6803C13.5419 12.3225 13.1511 12.9729 12.7548 13.6206C12.6291 13.8255 12.4788 14.0113 12.2821 14.1562C11.6808 14.5989 11.0605 14.1507 10.9894 13.626C10.9403 13.2872 10.9102 12.9456 10.9047 12.604C10.902 12.2077 10.9047 11.8114 10.9047 11.4179C10.9047 11.3605 10.8993 11.3031 10.8965 11.2458C10.8692 11.2458 10.8665 11.2676 10.8583 11.2785C10.1095 12.5165 9.32244 13.7326 8.55725 14.9596C8.51079 15.0334 8.46707 15.1099 8.41788 15.1837C8.39601 15.2165 8.39602 15.2384 8.42608 15.2712C9.19946 16.0719 10.1177 16.613 11.2272 16.7824C12.5745 16.9901 13.7988 16.6868 14.8946 15.8724C15.0285 15.774 15.1488 15.6592 15.28 15.5554C15.4412 15.4297 15.6188 15.3532 15.832 15.4023C15.862 15.4078 15.8866 15.4215 15.9085 15.4406C15.9577 15.4898 16.0069 15.5335 16.0615 15.5772C16.2255 15.6975 16.2337 15.8587 16.19 16.0364C16.1353 16.2468 15.9905 16.3916 15.8292 16.5228C15.0859 17.1404 14.2497 17.5804 13.2987 17.7799C11.4786 18.1652 9.81981 17.799 8.35776 16.6485C7.24277 15.7713 6.53497 14.6235 6.22344 13.2352C6.0622 12.5165 6.0458 11.7896 6.15511 11.0599C6.48852 8.79169 8.10634 7.07276 9.91819 6.38409C10.503 6.16 11.1179 6.03702 11.7437 6.01789C12.4269 5.99603 13.0964 6.05615 13.7523 6.26658C14.6268 6.54259 15.4248 7.0181 16.0834 7.65484C16.9934 8.53481 17.5673 9.59787 17.8078 10.8413C17.9253 11.448 17.9526 12.0601 17.8543 12.6695C17.7367 13.4047 17.141 14.1343 16.3348 14.2874C15.5368 14.4404 14.7935 14.0277 14.471 13.2489C14.3317 12.9128 14.2934 12.5602 14.2934 12.2022C14.2934 11.8716 14.2934 11.5436 14.2934 11.213C14.2934 11.202 14.2934 11.1911 14.2907 11.1802L14.2743 11.1692Z" fill="#FEFEFE"/>
<path d="M11.984 12.7625V12.2679C11.984 11.5874 11.9867 10.9042 11.9785 10.2237C11.9758 9.94771 11.9129 9.68536 11.7107 9.47767C11.5276 9.29457 11.2516 9.24265 11.0138 9.34376C10.8499 9.41481 10.7105 9.53232 10.6094 9.68263C10.3689 10.0242 10.1667 10.3904 9.93984 10.7402C9.20745 11.8579 8.52425 13.0057 7.80279 14.1289C7.7454 14.2191 7.69621 14.2218 7.64702 14.1207C7.5869 14.0005 7.53498 13.8775 7.48578 13.7518C7.27536 13.2216 7.16605 12.6587 7.15785 12.0875C7.14145 10.896 7.47485 9.81654 8.22637 8.88738C8.96423 7.97462 9.91252 7.38161 11.0712 7.16845C12.7464 6.86237 14.2003 7.32968 15.4109 8.51299C16.1652 9.24811 16.6024 10.1609 16.7773 11.2021C16.8429 11.5847 16.8566 11.9755 16.8183 12.3608C16.7883 12.645 16.6735 12.8937 16.4467 13.0768C16.2581 13.2271 16.0449 13.3118 15.8072 13.2161C15.5558 13.1178 15.4273 12.9128 15.3836 12.6505C15.3207 12.2679 15.3289 11.8825 15.3371 11.4972C15.3426 11.1693 15.3645 10.8359 15.2934 10.5107C15.2087 10.1335 14.9901 9.86573 14.5993 9.76734C14.4107 9.72089 14.2358 9.78374 14.0718 9.87119C13.8232 10.0051 13.6346 10.2073 13.4761 10.4341C13.1919 10.8359 12.9459 11.2649 12.6836 11.683C12.465 12.0328 12.2463 12.3826 12.0277 12.7324C12.0195 12.7434 12.0113 12.757 12.0031 12.768L11.984 12.7625Z" fill="#2B6AFF"/>
</svg>
