<svg width="24" height="24" viewBox="0 0 24 24" fill="none" xmlns="http://www.w3.org/2000/svg">
<path fill-rule="evenodd" clip-rule="evenodd" d="M9.411 15.2342L9.12251 15.9605H9.69431L9.411 15.2342ZM11.1049 7.6714V5.55067C11.1049 5.21262 10.9496 5.05654 10.6256 5.05654H10.0982V8.16627H10.6256C10.9496 8.16627 11.1049 8.00871 11.1049 7.6714ZM19.758 1H4.2412C2.98222 1 2.51917 1.4638 2.51917 2.72203V17.9052L2.53766 18.3025C2.56577 18.5776 2.57242 18.8439 2.82762 19.1457C2.92049 19.2234 3.01596 19.2979 3.11389 19.3691L3.50815 19.5526L11.1486 22.7533C11.5458 22.9345 11.7107 23.0062 11.9992 22.9996H12.0014C12.2899 23.0055 12.4549 22.9345 12.8521 22.7533L20.4925 19.5526L20.8868 19.3691L21.1731 19.1457C21.4282 18.8424 21.4342 18.5761 21.463 18.3025C21.4759 18.1704 21.4821 18.0379 21.4815 17.9052V2.72277C21.4815 1.4638 21.017 1.00074 19.7595 1.00074L19.758 1ZM12.9668 3.92332H14.2502V12.3589H12.9668V3.92332ZM13.8004 14.4131V16.9651H13.0962V15.499L12.4438 16.4976H12.429L11.7803 15.5064V16.9651H11.0872V14.4131H11.8343L12.4431 15.4021L13.0518 14.4131H13.8004ZM8.8148 3.92332H10.829C11.872 3.92332 12.3883 4.44111 12.3883 5.49001V7.73132C12.3883 8.77948 11.8727 9.29802 10.829 9.29802H10.0982V12.3597H8.8148V3.92332ZM5.31673 3.92332H8.17125V5.09205H6.60012V7.4776H8.11134V8.64633H6.60012V11.1894H8.19566V12.3582H5.31673V3.92332ZM7.77033 16.6233C7.50034 16.8452 7.12457 17.0168 6.66225 17.0168C5.86707 17.0168 5.27309 16.4695 5.27309 15.6965V15.6891C5.27309 14.9457 5.85598 14.3613 6.64746 14.3613C7.09646 14.3613 7.41305 14.4996 7.68305 14.7334L7.26733 15.2327C7.08463 15.0796 6.90266 14.9923 6.65116 14.9923C6.28279 14.9923 5.99874 15.3015 5.99874 15.6928V15.7002C5.99388 15.7931 6.00837 15.8861 6.04129 15.9732C6.07421 16.0603 6.12484 16.1396 6.18998 16.2062C6.25512 16.2727 6.33336 16.325 6.41974 16.3598C6.50612 16.3945 6.59878 16.411 6.69184 16.4081C6.86345 16.4081 6.99512 16.3711 7.10016 16.3023V15.9931H6.59716V15.4753H7.77107V16.6241L7.77033 16.6233ZM9.75792 14.3953L10.8438 16.9658H10.0856L9.8992 16.5094H8.91392L8.73121 16.9658H7.98781L9.07369 14.3953H9.75792ZM11.9415 21.2235L8.34508 19.9868H15.6911L11.9415 21.2235ZM16.3406 16.9665H14.2694V14.4146H16.3221V15.0159H14.9699V15.4028H16.1956V15.9613H14.9699V16.3659H16.3413V16.9673V16.9658L16.3406 16.9665ZM14.9299 10.8647V5.41752C14.9299 4.36936 15.4455 3.85082 16.4892 3.85082H17.1128C18.1558 3.85082 18.6603 4.35752 18.6603 5.40569V7.1292H17.4013V5.47818C17.4013 5.14013 17.2445 4.98405 16.922 4.98405H16.706C16.3709 4.98405 16.2141 5.14087 16.2141 5.47818V10.8041C16.2141 11.1421 16.3709 11.2982 16.706 11.2982H16.9464C17.2704 11.2982 17.4257 11.1414 17.4257 10.8041V8.90079H18.6847V10.8647C18.6847 11.9129 18.1691 12.4321 17.1254 12.4321H16.4892C15.4463 12.4321 14.9299 11.9144 14.9299 10.8647ZM18.7505 16.1788C18.7505 16.7002 18.3385 17.0094 17.7186 17.0094C17.2659 17.0094 16.8362 16.8674 16.5225 16.5863L16.916 16.1151C17.1481 16.3095 17.4403 16.4175 17.743 16.4206C17.9331 16.4206 18.0352 16.3555 18.0352 16.2453V16.2379C18.0352 16.1322 17.9516 16.0737 17.6047 15.9938C17.061 15.8696 16.6416 15.7164 16.6416 15.1912V15.1839C16.6416 14.709 17.0174 14.3665 17.6306 14.3665C18.0648 14.3665 18.4036 14.4833 18.681 14.7053L18.3274 15.2046C18.0944 15.0403 17.8392 14.9531 17.6121 14.9531C17.4405 14.9531 17.3569 15.0256 17.3569 15.1173V15.1247C17.3569 15.2415 17.4442 15.2926 17.7985 15.3725C18.3851 15.5004 18.7505 15.6891 18.7505 16.1677V16.1788Z" fill="#04071E"/>
</svg>
