<svg width="24" height="24" viewBox="0 0 24 24" fill="none" xmlns="http://www.w3.org/2000/svg">
<path d="M22 12C22 6.47716 17.5228 1.99999 12 1.99999C6.47716 1.99999 2 6.47716 2 12C2 16.6898 5.2286 20.6249 9.58424 21.7055V15.0558H7.52216V12H9.58424V10.6832C9.58424 7.27956 11.1246 5.70196 14.4662 5.70196C15.0997 5.70196 16.1928 5.82616 16.64 5.9504V8.72056C16.404 8.69572 15.9941 8.68328 15.4848 8.68328C13.845 8.68328 13.2115 9.3044 13.2115 10.9193V12H16.4778L15.9167 15.0558H13.2115V21.9268C18.1629 21.3287 22 17.1127 22 12Z" fill="#0866FF"/>
<path d="M15.9166 15.0559L16.4777 12H13.2114V10.9193C13.2114 9.30437 13.8449 8.68329 15.4846 8.68329C15.9939 8.68329 16.4039 8.69569 16.6399 8.72053V5.95041C16.1927 5.82617 15.0995 5.70193 14.466 5.70193C11.1245 5.70193 9.5841 7.27957 9.5841 10.6833V12H7.52202V15.0559H9.5841V21.7055C10.3578 21.8975 11.1668 22 11.9999 22C12.41 22 12.8142 21.9747 13.2114 21.9268V15.0559H15.9166Z" fill="white"/>
</svg>
