<svg width="24" height="24" viewBox="0 0 24 24" fill="none" xmlns="http://www.w3.org/2000/svg">
<path d="M17.6082 4.19419L17.0784 6.75257C17.0179 7.02506 16.7605 7.26727 16.4426 7.26727H11.8405C11.3258 7.26727 10.902 7.69115 10.902 8.20585V8.76597C10.902 9.28067 11.3258 9.70455 11.8405 9.70455H15.7311C16.0944 9.70455 16.3972 10.0527 16.3215 10.4312C16.2458 10.8248 15.8371 12.823 15.7916 13.035C15.7614 13.2621 15.5192 13.5497 15.1558 13.5497H11.9768C11.3107 13.5648 11.1744 13.58 10.7808 14.0644C10.3872 14.5488 6.90542 18.9087 6.90542 18.9087C6.87515 18.9541 6.84487 18.9389 6.84487 18.8935V4.07308C6.84487 3.7249 7.1325 3.43727 7.48068 3.43727H17.033C17.366 3.43727 17.6991 3.77032 17.6082 4.19419ZM18.3046 1C18.3046 1 8.14677 1 6.51183 1C4.89202 1 4.40759 2.22621 4.40759 2.99826V21.7395C4.40759 22.663 4.87688 22.9355 5.13423 23.0414C5.39159 23.1474 6.07281 23.2231 6.55724 22.7387C6.55724 22.7387 12.1584 16.214 12.2493 16.1081C12.3401 16.0021 12.3855 16.0021 12.4461 16.0021C12.5066 16.0021 14.8228 16.0021 15.9884 16.0021C17.5023 16.0021 17.7899 14.9576 17.9564 14.3217C18.0927 13.7919 19.6519 6.22273 20.1364 3.83087C20.4997 1.98399 20.0304 1 18.3046 1Z" fill="#04071E"/>
</svg>
