<svg width="24" height="24" viewBox="0 0 24 24" fill="none" xmlns="http://www.w3.org/2000/svg">
<path d="M9.43262 5.74831L9.72684 6.4752C11.2965 5.69427 12.9296 5.69561 14.5498 5.69694C14.725 5.69709 14.9 5.69723 15.0747 5.69639L15.1958 4.97815C14.3478 4.64066 13.4911 4.63201 12.6171 4.64931L12.5133 4.32048C12.5357 4.31029 12.5586 4.30011 12.5817 4.28981C12.6569 4.25636 12.7347 4.22172 12.8075 4.18203C13.1536 3.983 13.344 3.59359 13.2834 3.19553C13.2575 2.82343 13.0152 2.50325 12.669 2.3821C12.2883 2.23499 11.9075 2.27826 11.5873 2.57248C11.0508 3.06573 11.1633 3.87915 11.8383 4.22529C12.0373 4.32914 12.1671 4.44163 12.1498 4.70124C11.172 4.83104 10.246 5.0993 9.43262 5.74831Z" fill="#04071E"/>
<path fill-rule="evenodd" clip-rule="evenodd" d="M4.40638 15.4843C4.4388 15.6421 4.47129 15.8003 4.50076 15.9594C5.91993 16.2537 7.30449 16.47 8.69771 16.5046C9.71882 16.5306 10.7399 16.496 11.761 16.4267C12.8341 16.3575 13.9071 16.2537 14.9715 16.0719C16.9185 15.7344 18.7877 15.0854 20.5184 14.1335C20.8566 13.9519 21.1812 13.7521 21.5087 13.5506C21.6335 13.4738 21.7591 13.3965 21.8856 13.3201C21.8683 13.2336 21.8424 13.147 21.8077 13.0692C21.7413 12.9292 21.6751 12.7892 21.609 12.6493C21.3484 12.0976 21.0887 11.5481 20.8126 11.0096C20.0944 9.61642 19.1598 8.37897 17.9483 7.37517C16.7714 6.40598 15.4215 5.83485 13.8725 5.87811C12.1331 5.91273 10.4111 6.28483 8.8102 6.96846C7.47756 7.53959 6.31799 8.36167 5.46995 9.5472C4.38827 11.0529 3.99886 12.7403 4.24116 14.5662C4.2811 14.8743 4.34362 15.1787 4.40638 15.4843ZM9.41595 14.0903C7.91024 14.073 6.67279 12.8442 6.69875 11.3212C6.7074 9.8068 7.94485 8.58666 9.45921 8.58666C10.9217 8.58666 12.2283 9.65969 12.2283 11.3558C12.2283 12.9913 10.8697 14.1076 9.41595 14.0903ZM19.0819 10.3693C19.0732 11.4942 18.156 12.1779 17.3339 12.1173C16.356 12.1173 15.6205 11.3644 15.6205 10.3779V10.352C15.6378 9.40874 16.4166 8.64723 17.3685 8.66454H17.4031C18.3377 8.67319 19.0906 9.4347 19.0819 10.3693Z" fill="#04071E"/>
<path d="M20.9684 17.6209C21.6953 16.444 22.0587 15.1633 21.9376 13.7095C16.5032 17.0325 10.714 17.6555 4.61328 16.245L4.61421 16.2571C4.62257 16.3661 4.63151 16.4827 4.65655 16.5911C5.21903 18.4516 6.29206 19.9141 8.02276 20.8313C9.02656 21.3592 10.1515 21.5236 11.2678 21.6015C13.137 21.74 15.0148 21.489 16.7801 20.8487C18.5108 20.2169 19.9819 19.2131 20.9684 17.6209Z" fill="#04071E"/>
<path d="M21.6519 8.42224C22.1019 8.25783 22.1019 8.24917 22.0586 7.82515C22.0327 7.58285 22.024 7.34056 22.1452 7.10691C22.1855 7.03292 22.1893 6.94325 22.193 6.85415C22.1941 6.82862 22.1952 6.80313 22.1971 6.77808C22.2144 6.43194 22.5 6.16368 22.8461 6.16368C23.1922 6.16368 23.4865 6.44059 23.5038 6.78673C23.5038 7.13287 23.2269 7.41844 22.8807 7.43574C22.8084 7.44131 22.736 7.43972 22.6522 7.43787C22.6056 7.43685 22.5555 7.43574 22.5 7.43574C22.4951 7.48391 22.489 7.53073 22.483 7.57641C22.4674 7.69484 22.4529 7.80552 22.4653 7.91169C22.5173 8.33571 22.448 8.6905 21.9634 8.87222L22.9499 10.6202L21.4702 11.5375C20.8471 10.0924 19.8953 8.89819 18.753 7.80785L19.6357 6.73481C20.4577 7.12422 21.0721 7.74727 21.6519 8.42224Z" fill="#04071E"/>
<path d="M3.84303 13.7788L2.40655 13.2942C2.33732 12.4288 2.51905 11.624 2.83923 10.8366L2.33732 10.0404C2.28063 10.0404 2.22394 10.0438 2.16803 10.0471C2.04474 10.0545 1.92528 10.0616 1.81811 10.0318C1.47197 9.95391 1.13449 9.85007 0.814308 9.72027C0.563357 9.61643 0.450861 9.27029 0.520089 9.01933C0.615278 8.71646 0.900843 8.52608 1.21237 8.55205C1.50659 8.57801 1.74889 8.803 1.79215 9.09722C1.80345 9.18757 1.8 9.28161 1.79624 9.38414C1.79424 9.43873 1.79215 9.49572 1.79215 9.55585H2.55366C2.7409 9.63176 2.81273 9.79645 2.88855 9.97032C2.94238 10.0938 2.99823 10.2218 3.09883 10.326L3.13053 10.2845C3.59564 9.67538 4.05782 9.07011 4.75165 8.63858L5.40931 9.14914C5.34707 9.23499 5.2843 9.32017 5.22173 9.40507C4.77982 10.0048 4.34835 10.5903 4.18917 11.2952C4.06204 11.8643 3.99844 12.4333 3.93318 13.0172C3.90515 13.2679 3.87683 13.5214 3.84303 13.7788Z" fill="#04071E"/>
</svg>
