<svg width="24" height="24" viewBox="0 0 24 24" fill="none" xmlns="http://www.w3.org/2000/svg">
<path d="M8.55658 17.2977C9.23535 18.1466 9.92665 19.2141 10.2884 19.8588C10.729 20.697 10.9117 21.2629 11.2394 22.2766C11.431 22.8318 11.6137 23.0001 11.997 23.0001C12.4161 23.0001 12.6077 22.7171 12.7546 22.2766C13.0608 21.3256 13.2972 20.602 13.6715 19.9125C15.115 17.1903 17.4683 15.2561 18.7936 12.6055C18.7936 12.6055 19.6658 10.9864 19.6658 8.7191C19.6658 6.60578 18.8062 5.13721 18.8062 5.13721L8.56195 17.3156L8.55658 17.2977Z" fill="#34A853"/>
<path d="M5.0808 12.3189C5.90643 14.1994 7.48067 15.847 8.55524 17.2977L14.2505 10.5458C14.2505 10.5458 13.4463 11.5989 11.9939 11.5989C10.3748 11.5989 9.05671 10.3094 9.05671 8.67965C9.05671 7.55852 9.72473 6.78125 9.72473 6.78125C5.53391 7.4045 5.76674 8.41997 5.06827 12.3153L5.0808 12.3189Z" fill="#FBBC04"/>
<path d="M14.3221 1.35278C16.2205 1.9635 17.8323 3.25119 18.7994 5.13168L14.2504 10.5583C14.2504 10.5583 14.9185 9.7774 14.9185 8.65985C14.9185 6.99606 13.5143 5.7406 11.9992 5.7406C10.5611 5.7406 9.74261 6.78114 9.74261 6.78114C10.0918 5.98596 13.7006 1.62322 14.3274 1.35457L14.3221 1.35278Z" fill="#4285F4"/>
<path d="M6.12048 3.74015C7.25236 2.39336 9.23673 1 11.9769 1C13.3004 1 14.3051 1.35103 14.3051 1.35103L9.7382 6.7776C9.43015 6.6105 6.42494 4.27027 6.12048 3.73299V3.74015Z" fill="#1A73E8"/>
<path d="M5.08111 12.3188C5.08111 12.3188 4.33429 10.8359 4.33429 8.70107C4.33429 6.6773 5.12589 4.90426 6.12524 3.75806L9.74295 6.80267L5.08649 12.3188H5.08111Z" fill="#EA4335"/>
</svg>
