<svg width="24" height="24" viewBox="0 0 24 24" fill="none" xmlns="http://www.w3.org/2000/svg">
<path d="M10.9592 10.198H8.87805L5.8404 4.93629C5.34264 4.07464 5.63786 2.97183 6.50037 2.4745C6.78401 2.31058 7.09382 2.23291 7.39978 2.23291C8.02241 2.23291 8.62831 2.55603 8.96216 3.13447L11.9998 8.39533L10.9592 10.198Z" fill="#FCBC05"/>
<path d="M17.4999 21.526C16.6382 22.0238 15.5354 21.7281 15.0372 20.866L11.9996 15.6052L8.96192 20.866C8.46415 21.7277 7.36177 22.0238 6.50013 21.526C5.92212 21.1922 5.59857 20.5863 5.59857 19.9636C5.59857 19.6577 5.67624 19.3478 5.84016 19.0633L8.87781 13.8025H15.1222L18.1598 19.0633C18.6576 19.9259 18.3615 21.0282 17.4999 21.526Z" fill="#E94335"/>
<path d="M22.9997 11.9998C22.9997 12.9953 22.1926 13.8025 21.1971 13.8025H15.1222L14.0812 11.9998L13.041 10.1975L12 8.39483L15.0377 3.13397C15.5354 2.27147 16.6382 1.97624 17.5003 2.47401C18.3619 2.97134 18.658 4.07415 18.1603 4.9358L15.1222 10.1979H21.1971C22.193 10.1979 22.9997 11.0047 22.9997 11.9998Z" fill="#1973E8"/>
<path d="M10.9592 10.198L9.91814 12.0003L8.87799 13.8029H2.80225C1.80715 13.8029 1 12.9958 1 12.0003C1 11.5029 1.20125 11.0524 1.5278 10.7258C1.85435 10.4001 2.30406 10.198 2.80225 10.198H10.9592Z" fill="#34A853"/>
<path d="M15.1221 13.8026H8.8782L9.91836 12L10.9594 10.1981L12 8.39502L13.041 10.1981L14.0811 12L15.1221 13.8026Z" fill="#174FA7"/>
</svg>
