<svg width="24" height="24" viewBox="0 0 24 24" fill="none" xmlns="http://www.w3.org/2000/svg">
<path d="M21.1971 13.8025C22.1926 13.8025 22.9997 12.9953 22.9997 11.9998C22.9997 11.0047 22.193 10.1979 21.1971 10.1979H15.1222L18.1603 4.9358C18.658 4.07415 18.3619 2.97134 17.5003 2.47401C16.6382 1.97624 15.5354 2.27147 15.0377 3.13397L12 8.39483L15.1222 13.8025H21.1971Z" fill="#04071E"/>
<path d="M12 8.39483L8.96222 3.1344C8.62837 2.55597 8.02247 2.23285 7.39984 2.23285C7.09389 2.23285 6.78407 2.31052 6.50043 2.47444C5.63792 2.97177 5.3427 4.07458 5.84046 4.93623L8.87812 10.1979L2.80225 10.1979C2.30406 10.1979 1.85435 10.4001 1.5278 10.7257C1.20125 11.0523 1 11.5029 1 12.0002C1 12.9957 1.80715 13.8029 2.80225 13.8029H8.87763L5.84022 19.0633C5.6763 19.3478 5.59863 19.6576 5.59863 19.9636C5.59863 20.5862 5.92218 21.1921 6.50019 21.526C7.36184 22.0237 8.46421 21.7276 8.96198 20.866L11.9996 15.6051L15.0373 20.866C15.5355 21.7281 16.6383 22.0237 17.4999 21.526C18.3616 21.0282 18.6577 19.9258 18.1599 19.0633L15.1222 13.8025L12 8.39483Z" fill="#04071E"/>
</svg>
