<svg width="24" height="24" viewBox="0 0 24 24" fill="none" xmlns="http://www.w3.org/2000/svg">
<path d="M16.1166 7.36727C15.0636 6.36298 13.6584 5.81586 12.2044 5.83835C9.54379 5.83835 7.28415 7.6333 6.47845 10.0503C6.05125 11.3169 6.05125 12.6885 6.47845 13.9551L6.48218 13.9551C7.29161 16.3684 9.54752 18.1634 12.2081 18.1634C13.5816 18.1634 14.7606 17.8121 15.6745 17.1916V17.1891C16.75 16.4771 17.4844 15.3567 17.713 14.0901H12.2044V10.1628H21.8239C21.9438 10.8448 22 11.5419 22 12.2351C22 15.337 20.8914 17.9595 18.9626 19.7357L18.9646 19.7373C17.2746 21.2962 14.9549 22.1993 12.2044 22.1993C8.34836 22.1993 4.8221 20.0258 3.09082 16.582C1.64436 13.7003 1.64437 10.3052 3.09084 7.42348C4.82212 3.97591 8.34836 1.80245 12.2044 1.80245C14.7376 1.77247 17.1846 2.72429 19.0283 4.45557L16.1166 7.36727Z" fill="#04071E"/>
</svg>
