<svg width="24" height="24" viewBox="0 0 24 24" fill="none" xmlns="http://www.w3.org/2000/svg">
<path d="M13.4444 12L15.5888 14.4511L18.4724 16.2938L18.9752 12.0151L18.4724 7.83179L15.5335 9.4508L13.4444 12Z" fill="#04071E"/>
<path d="M1 15.8966V19.5419C1 20.3753 1.675 21.0503 2.50839 21.0503H6.15366L6.90785 18.295L6.15366 15.8966L3.65225 15.1424L1 15.8966Z" fill="#04071E"/>
<path d="M6.15366 2.94965L1 8.1033L3.65225 8.8575L6.15366 8.1033L6.89528 5.73765L6.15366 2.94965Z" fill="#04071E"/>
<path d="M6.15366 8.1033H1V15.8966H6.15366L6.15366 8.1033Z" fill="#04071E"/>
<path d="M21.7659 5.13178L18.4724 7.83179V16.2938L21.7809 19.0064C22.2762 19.3936 23.0002 19.0404 23.0002 18.4106V5.71502C23.0002 5.07773 22.2599 4.72829 21.7659 5.13178ZM13.4444 12L13.4446 15.8966L6.15366 15.8966V21.0503H16.9642C17.7976 21.0503 18.4726 20.3753 18.4726 19.5419L18.4724 16.2938L13.4444 12Z" fill="#04071E"/>
<path d="M16.9642 2.94965H6.15366V8.1033L13.4446 8.1033L13.4444 12L18.4726 7.83431V4.45803C18.4726 3.62465 17.7976 2.94965 16.9642 2.94965Z" fill="#04071E"/>
</svg>
