<svg width="24" height="24" viewBox="0 0 24 24" fill="none" xmlns="http://www.w3.org/2000/svg">
<path d="M2.66343 19.0193L3.63377 20.6953C3.8354 21.0481 4.12524 21.3254 4.46548 21.527L7.93097 15.5286H1C1 15.9192 1.10081 16.3099 1.30244 16.6627L2.66343 19.0193Z" fill="#0066DA"/>
<path d="M12.0013 8.4716L8.53585 2.47314C8.19561 2.67477 7.90577 2.95201 7.70414 3.30486L1.30244 14.3944C1.10452 14.7397 1.00026 15.1306 1 15.5286H7.93097L12.0013 8.4716Z" fill="#00AC47"/>
<path d="M19.5341 21.527C19.8744 21.3254 20.1642 21.0481 20.3658 20.6953L20.7691 20.0022L22.6971 16.6627C22.8988 16.3099 22.9996 15.9192 22.9996 15.5286H16.0681L17.543 18.427L19.5341 21.527Z" fill="#EA4335"/>
<path d="M12.0005 8.47155L15.466 2.4731C15.1258 2.27147 14.7351 2.17065 14.3318 2.17065H9.66919C9.26594 2.17065 8.87528 2.28407 8.53503 2.4731L12.0005 8.47155Z" fill="#00832D"/>
<path d="M16.0712 15.5286H7.93045L4.46497 21.527C4.80521 21.7286 5.19587 21.8295 5.59912 21.8295H18.4025C18.8058 21.8295 19.1964 21.716 19.5367 21.527L16.0712 15.5286Z" fill="#2684FC"/>
<path d="M19.498 8.84965L16.2972 3.30486C16.0956 2.95201 15.8057 2.67477 15.4655 2.47314L12 8.4716L16.0704 15.5286H22.9887C22.9887 15.1379 22.8879 14.7473 22.6863 14.3944L19.498 8.84965Z" fill="#FFBA00"/>
</svg>
