<svg width="24" height="24" viewBox="0 0 24 24" fill="none" xmlns="http://www.w3.org/2000/svg">
<path d="M13.9994 1.00061H5.49991C4.67496 1.00061 4 1.67557 4 2.50052V21.4994C4 22.3243 4.67496 22.9993 5.49991 22.9993H18.4991C19.3241 22.9993 19.999 22.3243 19.999 21.4994V7.00024L16.4992 4.50039L13.9994 1.00061Z" fill="#F4B400"/>
<path d="M13.9994 1.00061H5.49991C4.67496 1.00061 4 1.67557 4 2.50052V21.4994C4 22.3243 4.67496 22.9993 5.49991 22.9993H18.4991C19.3241 22.9993 19.999 22.3243 19.999 21.4994V7.00024L13.9994 1.00061Z" fill="url(#paint0_radial_114_589)"/>
<path d="M15.2491 11H8.74946C8.33699 11 7.99951 11.3375 7.99951 11.75V18.2496C7.99951 18.662 8.33699 18.9995 8.74946 18.9995H15.2491C15.6615 18.9995 15.999 18.662 15.999 18.2496V11.75C15.999 11.3375 15.6615 11 15.2491 11ZM14.9991 16.7497H8.99945V13.2499H14.9991V16.7497Z" fill="#F1F1F1"/>
<path d="M14.4386 6.56152L19.9995 12.1212V7.00024L14.4386 6.56152Z" fill="url(#paint1_linear_114_589)"/>
<path d="M13.9983 1.00061V5.50035C13.9983 6.32904 14.6695 7.00024 15.4982 7.00024H19.9979L13.9983 1.00061Z" fill="#FADA80"/>
<path d="M15.4982 7.00026C14.6695 7.00026 13.9983 6.32906 13.9983 5.50037V5.62534C13.9983 6.45405 14.6695 7.12525 15.4982 7.12525H19.9979V7.00026H15.4982Z" fill="#BF360C" fill-opacity="0.1"/>
<defs>
<radialGradient id="paint0_radial_114_589" cx="0" cy="0" r="1" gradientUnits="userSpaceOnUse" gradientTransform="translate(4.50686 1.43788) scale(25.7982 25.7982)">
<stop stop-color="white" stop-opacity="0.1"/>
<stop offset="1" stop-color="white" stop-opacity="0"/>
</radialGradient>
<linearGradient id="paint1_linear_114_589" x1="17.2194" y1="7.03888" x2="17.2194" y2="12.122" gradientUnits="userSpaceOnUse">
<stop stop-color="#BF360C" stop-opacity="0.2"/>
<stop offset="1" stop-color="#BF360C" stop-opacity="0.02"/>
</linearGradient>
</defs>
</svg>
