<svg width="24" height="24" viewBox="0 0 24 24" fill="none" xmlns="http://www.w3.org/2000/svg">
<path d="M22 12.2349C22 11.5416 21.9438 10.8446 21.8239 10.1626H12.2044V14.0898H17.713C17.4844 15.3564 16.75 16.4769 15.6745 17.1889V19.7371H18.9609C20.8908 17.9608 22 15.3377 22 12.2349Z" fill="#4285F4"/>
<path d="M12.2044 22.1993C14.955 22.1993 17.2746 21.2961 18.9646 19.7372L15.6782 17.189C14.7638 17.8111 13.5834 18.1634 12.2081 18.1634C9.54752 18.1634 7.29162 16.3684 6.48219 13.9551H3.09083V16.582C4.82211 20.0258 8.34837 22.1993 12.2044 22.1993Z" fill="#34A853"/>
<path d="M6.47845 13.955C6.05125 12.6884 6.05125 11.3168 6.47845 10.0502V7.42334H3.09084C1.64436 10.3051 1.64436 13.7002 3.09084 16.5819L6.47845 13.955Z" fill="#FBBC04"/>
<path d="M12.2044 5.8381C13.6584 5.81562 15.0636 6.36273 16.1166 7.36702L19.0283 4.45533C17.1846 2.72405 14.7376 1.77222 12.2044 1.8022C8.34837 1.8022 4.82211 3.97567 3.09083 7.42323L6.47844 10.0501C7.28412 7.63309 9.54378 5.8381 12.2044 5.8381Z" fill="#EA4335"/>
</svg>
