<svg width="24" height="24" viewBox="0 0 24 24" fill="none" xmlns="http://www.w3.org/2000/svg">
<path d="M8.09533 19.9768C9.55235 21.0561 11.3756 21.6975 13.3541 21.6975C18.1291 21.6975 22 17.9608 22 13.3513C22 11.5111 21.3832 9.81006 20.3381 8.43029C20.6029 9.28227 20.7453 10.1868 20.7453 11.1255C20.7453 16.3071 16.404 20.4485 11.1227 20.4485C10.0669 20.4485 9.04877 20.283 8.09533 19.9768Z" fill="#04071E"/>
<path fill-rule="evenodd" clip-rule="evenodd" d="M20.2453 11.1255C20.2453 16.0142 16.1449 19.9485 11.1227 19.9485C6.1005 19.9485 2 16.0142 2 11.1255C2 6.23686 6.1005 2.30249 11.1227 2.30249C16.1449 2.30249 20.2453 6.23686 20.2453 11.1255ZM6.38135 10.9479C6.38135 13.5139 7.88317 15.5768 10.4363 15.5768C12.9893 15.5768 13.6401 13.5139 13.7903 12.4573V15.3755H15.8641V10.7466H11.1371V11.6523H13.3899C13.1396 12.7591 12.5388 13.8661 11.1371 13.8661C9.58528 13.8661 8.58403 12.5076 8.58403 10.8472C8.58403 9.18685 9.58528 7.82837 11.1371 7.82837C12.5889 7.82837 13.1896 8.88495 13.2396 9.58932H15.5925C15.5424 8.33153 14.4411 6.11766 11.1871 6.11766C8.03333 6.11766 6.38135 8.28115 6.38135 10.9479Z" fill="#04071E"/>
</svg>
