<svg width="24" height="24" viewBox="0 0 24 24" fill="none" xmlns="http://www.w3.org/2000/svg">
<path d="M13.354 21.6974C18.1291 21.6974 22 17.9607 22 13.3512C22 8.74164 18.1291 5.00485 13.354 5.00485C8.57894 5.00485 4.70795 8.74164 4.70795 13.3512C4.70795 17.9607 8.57894 21.6974 13.354 21.6974Z" fill="black"/>
<path d="M11.1227 19.9484C16.1449 19.9484 20.2454 16.0141 20.2454 11.1254C20.2454 6.23676 16.1449 2.30239 11.1227 2.30239C6.10052 2.30239 2.00002 6.23676 2.00002 11.1254C2.00002 16.0141 6.10052 19.9484 11.1227 19.9484Z" fill="#FF90E8"/>
<path fill-rule="evenodd" clip-rule="evenodd" d="M1.95276 11.1254C1.95276 6.20907 6.07603 2.25513 11.1227 2.25513C16.1694 2.25513 20.2926 6.20907 20.2926 11.1254C20.2926 16.0418 16.1694 19.9957 11.1227 19.9957C6.07603 19.9957 1.95276 16.0418 1.95276 11.1254ZM11.1227 2.34965C6.12501 2.34965 2.04728 6.26444 2.04728 11.1254C2.04728 15.9864 6.12501 19.9011 11.1227 19.9011C16.1204 19.9011 20.1981 15.9864 20.1981 11.1254C20.1981 6.26444 16.1204 2.34965 11.1227 2.34965Z" fill="black"/>
<path d="M10.4365 15.5768C7.88335 15.5768 6.38153 13.5139 6.38153 10.9479C6.38153 8.28117 8.03351 6.11768 11.1873 6.11768C14.4413 6.11768 15.5426 8.33155 15.5927 9.58934H13.2398C13.1898 8.88497 12.589 7.82838 11.1373 7.82838C9.58546 7.82838 8.58421 9.18687 8.58421 10.8473C8.58421 12.5076 9.58546 13.8661 11.1373 13.8661C12.539 13.8661 13.1397 12.7592 13.3901 11.6523H11.1373V10.7466H15.8643V15.3755H13.7905V12.4573C13.6403 13.5139 12.9895 15.5768 10.4365 15.5768Z" fill="black"/>
</svg>
