<svg width="24" height="24" viewBox="0 0 24 24" fill="none" xmlns="http://www.w3.org/2000/svg">
<path fill-rule="evenodd" clip-rule="evenodd" d="M19.2298 10.5732C20.3144 11.2636 20.7212 12.5063 20.5404 13.6569L19.275 20.6067C19.0038 21.9874 17.8288 23 16.4278 23H7.57001C6.16902 23 4.994 21.9874 4.72285 20.6067L3.45744 13.6569C3.27666 12.5523 3.7286 11.3096 4.81323 10.6192C5.44594 10.159 5.58152 9.37658 4.81323 9.10042C3.7286 8.68619 3.95456 7.35146 5.03921 7.35146H11.6374C12.6768 7.35146 13.9422 8.13389 13.9422 10.6653C13.9422 13.1967 12.7672 12.9665 12.7672 14.7615C12.7672 15.5439 13.3999 16.3724 14.1682 16.4644C15.4788 16.6025 16.2471 16.0962 16.2471 14.2552C16.2471 12.3682 15.1624 11.4937 15.1624 9.92886C15.1624 8.04182 16.3375 7.30542 17.1058 7.30542H19.0039C20.0885 7.30542 20.3145 8.64014 19.2298 9.05437C18.4615 9.37656 18.5971 10.159 19.2298 10.5732ZM5.71709 6.38494C5.26516 6.38494 4.85841 5.97071 4.85841 5.51046C4.85841 4.45188 7.47962 3.66945 10.4624 3.66945C10.7335 3.66945 10.9143 3.66945 10.9143 3.43933C10.9143 3.0251 10.0104 2.88703 10.0104 2.19666C10.0104 1.46026 10.8691 1 11.9537 1C13.0384 1 13.897 1.46026 13.897 2.19666C13.897 2.88703 12.9932 2.97909 12.9932 3.43933C12.9932 3.57741 13.1288 3.66945 13.4451 3.66945C16.4278 3.66945 19.0942 4.40585 19.0942 5.51046C19.0942 5.97071 18.7327 6.38494 18.2356 6.38494H5.71709Z" fill="#04071E"/>
</svg>
