<svg width="24" height="24" viewBox="0 0 24 24" fill="none" xmlns="http://www.w3.org/2000/svg">
<path d="M12 22C17.5228 22 22 17.5228 22 12C22 6.47715 17.5228 2 12 2C6.47715 2 2 6.47715 2 12C2 17.5228 6.47715 22 12 22Z" fill="black"/>
<path d="M10.0081 10.7109L8.91434 9.61719C8.75809 9.46094 8.36747 9.26563 8.09403 9.1875C7.11747 8.95313 6.14091 9.5 5.90653 10.4766C5.67216 11.4531 6.25809 12.4297 7.23466 12.6641C7.54716 12.7422 7.85966 12.7422 8.13309 12.6641L9.57841 12.2344C9.92997 12.1563 10.2034 11.9219 10.2815 11.5703C10.3597 11.2578 10.2425 10.9063 10.0081 10.7109ZM9.73466 13.1719L7.93778 14.1484C7.54716 14.3438 7.23466 14.6172 7.00028 14.9688C6.29716 16.1016 6.64872 17.5859 7.78153 18.3281C8.91434 19.0313 10.3987 18.6797 11.1018 17.5469C11.3362 17.1563 11.4925 16.7266 11.4925 16.2969L11.5315 14.3438C11.6097 13.9141 11.4143 13.4453 10.9847 13.1719C10.594 12.9375 10.1253 12.9375 9.73466 13.1719ZM12.469 14.2266L12.7034 16.1016C12.7425 16.4531 12.8987 16.8047 13.1331 17.1172C13.8362 18.0938 15.2425 18.2891 16.18 17.5469C17.1565 16.8438 17.3518 15.4375 16.6097 14.5C16.3753 14.1484 16.0628 13.9141 15.6722 13.7578L14.0315 13.0938C13.68 12.8984 13.2112 12.8984 12.8987 13.1719C12.5472 13.4453 12.3909 13.8359 12.469 14.2266ZM14.2268 12.0781L16.2581 12.3906C16.6878 12.4688 17.1175 12.3906 17.5081 12.2344C18.7581 11.7266 19.3831 10.3203 18.8753 9.07032C18.3675 7.82032 16.9612 7.23438 15.7112 7.74219C15.2815 7.89844 14.93 8.17188 14.6565 8.52344L13.3675 10.2031C13.1331 10.5156 13.055 10.9453 13.2112 11.3359C13.3675 11.7656 13.7972 12.0391 14.2268 12.0781ZM12.5862 9.77344L13.4065 8.09375C13.5237 7.70313 13.6409 7.35157 13.6018 7C13.5237 5.82813 12.5081 4.92969 11.2972 5.00782C10.1253 5.08594 9.22684 6.10157 9.30497 7.27344C9.30497 7.70313 9.46122 8.05469 9.65653 8.36719L10.6722 9.85157C10.8675 10.2031 11.2581 10.4375 11.6878 10.3984C12.0784 10.3594 12.43 10.125 12.5862 9.77344Z" fill="#22FF00"/>
</svg>
