<svg width="24" height="24" viewBox="0 0 24 24" fill="none" xmlns="http://www.w3.org/2000/svg">
<path d="M12.1986 21.8027C10.1433 21.8027 8.24272 21.1729 6.67362 20.101C5.93327 20.4878 4.26471 20.5762 3.53541 20.4878C2.47461 20.3662 1.36961 19.4822 2.43041 18.6314C4.08791 17.3164 3.64591 16.786 3.64591 16.786C2.85031 15.3716 2.39726 13.7362 2.39726 12.0014C2.39726 6.58686 6.78412 2.2 12.1986 2.2C17.6131 2.2 22 6.58686 22 12.0014C22 17.4159 17.6131 21.8027 12.1986 21.8027ZM12.1986 3.6365C7.54657 3.6365 3.77851 7.40456 3.77851 12.0677C3.77851 13.6699 4.22051 15.1727 5.00506 16.4435C5.00506 16.4435 5.55757 17.88 4.14316 18.9408C5.02717 19.2391 6.90567 18.6866 6.99407 18.6866C8.43057 19.8137 10.2428 20.4878 12.1986 20.4878C16.8507 20.4878 20.6187 16.7087 20.6187 12.0566C20.6187 7.40456 16.8507 3.6365 12.1986 3.6365ZM16.707 14.4766C15.6794 14.4766 14.8838 13.8025 14.8838 12.6533C14.8838 11.5041 15.6352 10.7859 16.7733 10.7859C17.8562 10.7859 18.5745 11.5262 18.5745 12.587C18.5745 13.8799 17.6573 14.4766 16.707 14.4766ZM16.7402 11.5594C16.2098 11.5594 16.0219 12.1008 16.0219 12.6202C16.0219 13.2279 16.2761 13.681 16.7402 13.681C17.1711 13.681 17.4363 13.25 17.4363 12.6202C17.4363 12.1008 17.2374 11.5594 16.7402 11.5594ZM13.6683 14.3882C13.6683 14.3882 13.2484 14.3882 13.0716 14.3882C12.7953 14.3882 12.8506 13.9793 12.8506 13.9793V12.4655C12.8506 11.9572 12.6848 11.6588 12.3312 11.6588C12.0771 11.6588 11.9003 11.8356 11.8229 12.0456C11.7898 12.1229 11.7787 12.2445 11.7787 12.3329V14.0567C11.7787 14.0567 11.7787 14.3992 11.4693 14.3992C11.2483 14.3992 10.9831 14.3992 10.9831 14.3992C10.9831 14.3992 10.7069 14.3771 10.7069 14.0235C10.7069 13.4489 10.7069 12.4213 10.7069 12.4213C10.7069 11.9682 10.5522 11.6699 10.1986 11.6699C9.92233 11.6699 9.75658 11.8909 9.69028 12.0677C9.65713 12.1561 9.64607 12.2555 9.64607 12.3439V14.0235C9.64607 14.0235 9.69027 14.3992 9.40297 14.3992C9.25932 14.3992 9.08252 14.3992 8.92782 14.3992C8.57422 14.3992 8.57422 14.0235 8.57422 14.0235V11.9903C8.57422 11.6478 8.55212 11.0732 8.55212 11.0732C8.55212 11.0732 8.54107 10.8632 8.77312 10.8632C8.91677 10.8632 9.09357 10.8632 9.22617 10.8632C9.44717 10.8632 9.48032 11.0732 9.48032 11.0732L9.50242 11.3384H9.52453C9.67923 11.1174 9.98863 10.7859 10.5964 10.7859C11.0494 10.7859 11.4141 11.0179 11.5688 11.3826H11.5798C11.7124 11.2058 11.8671 11.0621 12.0329 10.9516C12.2318 10.8301 12.4417 10.7748 12.7069 10.7748C13.381 10.7748 13.9003 11.25 13.9003 12.3108C13.9003 12.3108 13.9003 13.4158 13.9003 14.0125C13.9224 14.3661 13.6683 14.3882 13.6683 14.3882ZM6.86147 10.1339C6.51892 10.1339 6.28687 9.89081 6.28687 9.58141C6.27582 9.26096 6.50787 9.02891 6.86147 9.02891C7.21507 9.02891 7.43607 9.27201 7.44712 9.58141C7.45817 9.87976 7.22612 10.1339 6.86147 10.1339ZM6.54102 10.8632C6.79517 10.8632 7.18192 10.8632 7.18192 10.8632C7.18192 10.8632 7.42502 10.8632 7.42502 11.1395C7.42502 11.7804 7.42502 14.0788 7.42502 14.0788C7.42502 14.0788 7.43607 14.3992 7.17087 14.3992C6.90567 14.3992 6.51892 14.3992 6.51892 14.3992C6.51892 14.3992 6.32002 14.3882 6.32002 14.123C6.32002 13.3274 6.32002 11.0953 6.32002 11.0953C6.32002 11.0953 6.32002 10.8632 6.54102 10.8632Z" fill="#04071E"/>
</svg>
