<svg width="24" height="24" viewBox="0 0 24 24" fill="none" xmlns="http://www.w3.org/2000/svg">
<path d="M11.9983 4.61003C14.4062 4.61003 14.6914 4.62059 15.6384 4.66283C16.5185 4.70156 16.9938 4.84942 17.3106 4.97263C17.7295 5.13457 18.0323 5.33172 18.3456 5.64504C18.6624 5.96188 18.8561 6.26111 19.018 6.68004C19.1412 6.99688 19.2891 7.47566 19.3278 8.35225C19.37 9.30277 19.3806 9.58792 19.3806 11.9924C19.3806 14.4004 19.37 14.6855 19.3278 15.6325C19.2891 16.5126 19.1412 16.9879 19.018 17.3047C18.8561 17.7237 18.6589 18.0264 18.3456 18.3397C18.0288 18.6566 17.7295 18.8502 17.3106 19.0121C16.9938 19.1353 16.515 19.2832 15.6384 19.3219C14.6879 19.3642 14.4027 19.3747 11.9983 19.3747C9.59027 19.3747 9.30512 19.3642 8.35812 19.3219C7.47801 19.2832 7.00275 19.1353 6.68591 19.0121C6.26698 18.8502 5.96422 18.653 5.6509 18.3397C5.33406 18.0229 5.14044 17.7237 4.9785 17.3047C4.85528 16.9879 4.70743 16.5091 4.6687 15.6325C4.62646 14.682 4.61589 14.3968 4.61589 11.9924C4.61589 9.5844 4.62646 9.29925 4.6687 8.35225C4.70743 7.47214 4.85528 6.99688 4.9785 6.68004C5.14044 6.26111 5.33758 5.95835 5.6509 5.64504C5.96774 5.3282 6.26698 5.13457 6.68591 4.97263C7.00275 4.84942 7.48153 4.70156 8.35812 4.66283C9.30512 4.62059 9.59027 4.61003 11.9983 4.61003ZM11.9983 2.98711C9.55155 2.98711 9.24527 2.99767 8.28419 3.03991C7.32663 3.08216 6.66831 3.23706 6.098 3.45884C5.50304 3.69119 4.99962 3.99747 4.49972 4.50089C3.9963 5.0008 3.69002 5.50422 3.45767 6.09565C3.23588 6.66948 3.08098 7.32428 3.03874 8.28184C2.99649 9.24644 2.98593 9.55272 2.98593 11.9994C2.98593 14.4461 2.99649 14.7524 3.03874 15.7135C3.08098 16.671 3.23588 17.3294 3.45767 17.8997C3.69002 18.4946 3.9963 18.9981 4.49972 19.498C4.99962 19.9979 5.50304 20.3077 6.09448 20.5365C6.66831 20.7583 7.32311 20.9132 8.28067 20.9554C9.24175 20.9977 9.54803 21.0082 11.9947 21.0082C14.4414 21.0082 14.7477 20.9977 15.7088 20.9554C16.6663 20.9132 17.3247 20.7583 17.895 20.5365C18.4864 20.3077 18.9898 19.9979 19.4897 19.498C19.9896 18.9981 20.2994 18.4946 20.5283 17.9032C20.7501 17.3294 20.905 16.6746 20.9472 15.717C20.9894 14.7559 21 14.4496 21 12.0029C21 9.55624 20.9894 9.24996 20.9472 8.28888C20.905 7.33133 20.7501 6.673 20.5283 6.10269C20.3065 5.50422 20.0002 5.0008 19.4968 4.50089C18.9969 4.00099 18.4935 3.69119 17.902 3.46237C17.3282 3.24058 16.6734 3.08568 15.7158 3.04343C14.7512 2.99767 14.445 2.98711 11.9983 2.98711Z" fill="#04071E"/>
<path d="M11.9982 7.37005C9.44241 7.37005 7.36888 9.44359 7.36888 11.9994C7.36888 14.5553 9.44241 16.6288 11.9982 16.6288C14.5541 16.6288 16.6276 14.5553 16.6276 11.9994C16.6276 9.44359 14.5541 7.37005 11.9982 7.37005ZM11.9982 15.0024C10.3401 15.0024 8.99532 13.6575 8.99532 11.9994C8.99532 10.3413 10.3401 8.99649 11.9982 8.99649C13.6564 8.99649 15.0012 10.3413 15.0012 11.9994C15.0012 13.6575 13.6564 15.0024 11.9982 15.0024Z" fill="#04071E"/>
<path d="M17.8915 7.18695C17.8915 7.78543 17.4056 8.26773 16.8107 8.26773C16.2122 8.26773 15.7299 7.78191 15.7299 7.18695C15.7299 6.58848 16.2157 6.10618 16.8107 6.10618C17.4056 6.10618 17.8915 6.592 17.8915 7.18695Z" fill="#04071E"/>
</svg>
