<svg width="24" height="24" viewBox="0 0 24 24" fill="none" xmlns="http://www.w3.org/2000/svg">
<path fill-rule="evenodd" clip-rule="evenodd" d="M11.8164 2.02441L12.0175 3.34366L11.3662 2.61268V4.80467L13.6485 7.27812L12.7638 8.79765L8.71887 16.5014H2L4.54789 21.9883H16.5827L16.5709 21.9646L18.3841 14.367H21.9999L19.6245 9.17636L19.6228 9.17627L15.2486 4.53014L14.9747 5.00054L11.8164 2.02441ZM17.3829 10.8495C17.3829 11.4971 16.866 12.022 16.2285 12.022C15.591 12.022 15.0742 11.4971 15.0742 10.8495C15.0742 10.202 15.591 9.67702 16.2285 9.67702C16.866 9.67702 17.3829 10.202 17.3829 10.8495Z" fill="#04071E"/>
</svg>
