<svg width="24" height="24" viewBox="0 0 24 24" fill="none" xmlns="http://www.w3.org/2000/svg">
<path fill-rule="evenodd" clip-rule="evenodd" d="M4.22222 22H19.7778C21.0051 22 22 21.0051 22 19.7778V4.22222C22 2.99492 21.0051 2 19.7778 2H4.22222C2.99492 2 2 2.99492 2 4.22222V19.7778C2 21.0051 2.99492 22 4.22222 22Z" fill="#0B65C2"/>
<path fill-rule="evenodd" clip-rule="evenodd" d="M19 19H16.1234V14.1006C16.1234 12.7573 15.613 12.0066 14.5498 12.0066C13.3932 12.0066 12.7889 12.7878 12.7889 14.1006V19H10.0167V9.66667H12.7889V10.9239C12.7889 10.9239 13.6224 9.38152 15.603 9.38152C17.5827 9.38152 19 10.5904 19 13.0907V19ZM6.70944 8.44454C5.76517 8.44454 5 7.67337 5 6.72227C5 5.77117 5.76517 5 6.70944 5C7.65371 5 8.41842 5.77117 8.41842 6.72227C8.41842 7.67337 7.65371 8.44454 6.70944 8.44454ZM5.27799 19H8.16869V9.66667H5.27799V19Z" fill="white"/>
</svg>
