<svg width="24" height="24" viewBox="0 0 24 24" fill="none" xmlns="http://www.w3.org/2000/svg">
<path d="M20.9271 6.65627C20.6498 4.59545 18.8537 2.97139 16.7245 2.65669C16.3653 2.60352 15.0043 2.40999 11.8515 2.40999H11.828C8.67431 2.40999 7.99772 2.60352 7.6385 2.65669C5.56861 2.96267 3.67834 4.42198 3.21972 6.50719C2.99913 7.53412 2.97559 8.67262 3.01657 9.71696C3.07498 11.2146 3.08632 12.7097 3.22234 14.2012C3.31637 15.192 3.4804 16.1749 3.71321 17.1425C4.14916 18.9296 5.91388 20.4168 7.64286 21.0235C9.49397 21.6562 11.4847 21.7613 13.3921 21.3269C13.602 21.2781 13.8092 21.2214 14.0138 21.1569C14.4776 21.0096 15.0209 20.8448 15.4202 20.5554C15.4257 20.5513 15.4302 20.5461 15.4333 20.54C15.4365 20.534 15.4383 20.5273 15.4385 20.5205V19.0752C15.4384 19.0688 15.4369 19.0625 15.4341 19.0568C15.4312 19.0511 15.4271 19.0461 15.4221 19.0422C15.4171 19.0382 15.4113 19.0355 15.405 19.0341C15.3989 19.0327 15.3924 19.0328 15.3862 19.0342C14.1641 19.3261 12.9118 19.4724 11.6553 19.4701C9.49303 19.4701 8.91146 18.444 8.74495 18.0169C8.61107 17.6477 8.52606 17.2626 8.4921 16.8714C8.49174 16.8648 8.49295 16.8582 8.49561 16.8522C8.49826 16.8462 8.50231 16.8409 8.50741 16.8368C8.51252 16.8326 8.5185 16.8297 8.52494 16.8283C8.53137 16.8269 8.53804 16.827 8.54441 16.8287C9.74611 17.1186 10.978 17.2649 12.2142 17.2645C12.5115 17.2645 12.808 17.2645 13.1053 17.2567C14.3486 17.2218 15.6591 17.1582 16.8824 16.9193C16.9129 16.9132 16.9434 16.908 16.9695 16.9001C18.8991 16.5296 20.7353 15.3667 20.9219 12.422C20.9288 12.3061 20.9463 11.2077 20.9463 11.0874C20.9471 10.6785 21.0779 8.18704 20.9271 6.65627Z" fill="url(#paint0_linear_107_87)"/>
<path d="M17.8709 8.97162V14.0914H15.842V9.12243C15.842 8.07632 15.4061 7.54282 14.5193 7.54282C13.5445 7.54282 13.0563 8.17396 13.0563 9.42058V12.1404H11.0396V9.42058C11.0396 8.17396 10.5505 7.54282 9.57566 7.54282C8.69418 7.54282 8.25387 8.07632 8.25387 9.12243V14.0914H6.22583V8.97162C6.22583 7.92551 6.49293 7.09445 7.02711 6.47842C7.57817 5.86383 8.30096 5.54828 9.19814 5.54828C10.2366 5.54828 11.0213 5.94752 11.5444 6.74517L12.0492 7.59251L12.5549 6.74517C13.0781 5.94752 13.8628 5.54828 14.8995 5.54828C15.7958 5.54828 16.5186 5.86383 17.0714 6.47842C17.605 7.09386 17.8715 7.92495 17.8709 8.97162Z" fill="white"/>
<defs>
<linearGradient id="paint0_linear_107_87" x1="11.9999" y1="2.40999" x2="11.9999" y2="21.59" gradientUnits="userSpaceOnUse">
<stop stop-color="#6364FF"/>
<stop offset="1" stop-color="#563ACC"/>
</linearGradient>
</defs>
</svg>
