<svg width="24" height="24" viewBox="0 0 24 24" fill="none" xmlns="http://www.w3.org/2000/svg">
<path d="M12 2.00006C6.3675 2.00006 2 6.12756 2 11.7001C2 14.6151 3.195 17.1351 5.14 18.8751C5.3025 19.0201 5.4025 19.2251 5.4075 19.4451L5.4625 21.2251C5.4665 21.356 5.50262 21.484 5.56767 21.5978C5.63271 21.7115 5.72471 21.8075 5.83556 21.8774C5.94641 21.9473 6.07272 21.9888 6.2034 21.9985C6.33407 22.0081 6.46511 21.9854 6.585 21.9326L8.57 21.0576C8.7375 20.9826 8.9275 20.9701 9.105 21.0176C10.0175 21.2676 10.9875 21.4026 12 21.4026C17.6325 21.4026 22 17.2751 22 11.7026C22 6.13006 17.6325 2.00006 12 2.00006Z" fill="url(#paint0_radial_97_56)"/>
<path d="M5.99489 14.5376L8.93239 9.87756C9.04289 9.70211 9.18857 9.55148 9.36023 9.43518C9.53188 9.31887 9.72578 9.23941 9.9297 9.20183C10.1336 9.16424 10.3431 9.16934 10.5449 9.2168C10.7468 9.26425 10.9366 9.35304 11.1024 9.47756L13.4399 11.2301C13.5442 11.3082 13.6712 11.3502 13.8016 11.3497C13.9319 11.3493 14.0586 11.3064 14.1624 11.2276L17.3174 8.83256C17.7374 8.51256 18.2874 9.01756 18.0074 9.46506L15.0674 14.1226C14.9569 14.298 14.8112 14.4486 14.6395 14.5649C14.4679 14.6812 14.274 14.7607 14.0701 14.7983C13.8662 14.8359 13.6567 14.8308 13.4548 14.7833C13.253 14.7359 13.0632 14.6471 12.8974 14.5226L10.5599 12.7701C10.4555 12.6919 10.3286 12.6499 10.1982 12.6504C10.0679 12.6508 9.9412 12.6937 9.83739 12.7726L6.68239 15.1676C6.26239 15.4876 5.71239 14.9851 5.99489 14.5376Z" fill="white"/>
<defs>
<radialGradient id="paint0_radial_97_56" cx="0" cy="0" r="1" gradientUnits="userSpaceOnUse" gradientTransform="translate(5.35 22.0001) scale(22 22)">
<stop stop-color="#0099FF"/>
<stop offset="0.6" stop-color="#A033FF"/>
<stop offset="0.9" stop-color="#FF5280"/>
<stop offset="1" stop-color="#FF7061"/>
</radialGradient>
</defs>
</svg>
