<svg width="24" height="24" viewBox="0 0 24 24" fill="none" xmlns="http://www.w3.org/2000/svg">
<path d="M2.59229 14.5127C2.59229 15.4291 2.79343 16.1327 3.05634 16.5583C3.40103 17.1159 3.91515 17.3521 4.43928 17.3521C5.11531 17.3521 5.73376 17.1843 6.92558 15.5359C7.88037 14.2148 9.00543 12.3603 9.76241 11.1977L11.0444 9.22798C11.9349 7.86006 12.9656 6.33941 14.1474 5.30866C15.1123 4.46738 16.153 4 17.2004 4C18.959 4 20.634 5.01906 21.916 6.93031C23.319 9.0235 24 11.66 24 14.3808C24 15.9983 23.6812 17.1868 23.1387 18.1257C22.6145 19.0338 21.593 19.941 19.8745 19.941V17.3521C21.3459 17.3521 21.7132 16 21.7132 14.4526C21.7132 12.2476 21.1991 9.80052 20.0665 8.05202C19.2628 6.81179 18.2212 6.05397 17.0753 6.05397C15.8359 6.05397 14.8385 6.98873 13.7176 8.65544C13.1217 9.54096 12.5099 10.6201 11.8231 11.8378L11.0669 13.1773C9.54792 15.8706 9.16317 16.4841 8.40367 17.4964C7.07247 19.2691 5.93574 19.941 4.43928 19.941C2.66407 19.941 1.54152 19.1723 0.846293 18.0139C0.278759 17.07 0 15.8314 0 14.4201L2.59229 14.5127Z" fill="#0081FB"/>
<path d="M2.04437 7.11309C3.23285 5.28112 4.94798 4 6.91515 4C8.05439 4 9.18695 4.33718 10.3696 5.30282C11.6632 6.3586 13.042 8.09709 14.7621 10.9623L15.3789 11.9905C16.8679 14.471 17.715 15.7471 18.2107 16.3489C18.8484 17.1217 19.2949 17.3521 19.8749 17.3521C21.3464 17.3521 21.7136 16 21.7136 14.4526L24.0004 14.3808C24.0004 15.9983 23.6816 17.1868 23.1391 18.1257C22.615 19.0338 21.5934 19.941 19.8749 19.941C18.8066 19.941 17.8602 19.709 16.8136 18.7216C16.009 17.9638 15.0684 16.6176 14.3448 15.4074L12.1924 11.8119C11.1124 10.0075 10.1217 8.66212 9.54834 8.05285C8.93156 7.39769 8.13868 6.60648 6.87342 6.60648C5.84935 6.60648 4.97969 7.32508 4.25191 8.42425L2.04437 7.11309Z" fill="url(#paint0_linear_110_321)"/>
<path d="M6.873 6.60648C5.84894 6.60648 4.97927 7.32508 4.2515 8.42425C3.22242 9.97746 2.59229 12.291 2.59229 14.5127C2.59229 15.4291 2.79343 16.1327 3.05634 16.5583L0.846293 18.0139C0.278759 17.07 0 15.8314 0 14.4201C0 11.8537 0.70441 9.17874 2.04396 7.11309C3.23244 5.28112 4.94756 4 6.91473 4L6.873 6.60648Z" fill="url(#paint1_linear_110_321)"/>
<defs>
<linearGradient id="paint0_linear_110_321" x1="5.09153" y1="13.7649" x2="21.6168" y2="14.5995" gradientUnits="userSpaceOnUse">
<stop stop-color="#0064E1"/>
<stop offset="0.4" stop-color="#0064E1"/>
<stop offset="0.83" stop-color="#0073EE"/>
<stop offset="1" stop-color="#0082FB"/>
</linearGradient>
<linearGradient id="paint1_linear_110_321" x1="3.75574" y1="15.601" x2="3.75574" y2="9.50841" gradientUnits="userSpaceOnUse">
<stop stop-color="#0082FB"/>
<stop offset="1" stop-color="#0064E0"/>
</linearGradient>
</defs>
</svg>
