<svg width="24" height="24" viewBox="0 0 24 24" fill="none" xmlns="http://www.w3.org/2000/svg">
<path d="M22.0624 1.76733H7.05427C6.53633 1.76733 6.11646 2.18721 6.11646 2.70515V5.37207H11.318C12.3882 5.37207 13.2558 6.23966 13.2558 7.30989V16.6901C13.2558 17.7603 12.3882 18.6279 11.318 18.6279H6.11646V21.2947C6.11646 21.8126 6.53633 22.2325 7.05427 22.2325H22.0624C22.5803 22.2325 23.0002 21.8126 23.0002 21.2947L23.0002 2.70515C23.0002 2.18721 22.5803 1.76733 22.0624 1.76733Z" fill="#04071E"/>
<path fill-rule="evenodd" clip-rule="evenodd" d="M11.318 17.6279C11.8359 17.6279 12.2558 17.208 12.2558 16.6901V7.30989C12.2558 6.79194 11.8359 6.37207 11.318 6.37207H1.93782C1.41987 6.37207 1 6.79194 1 7.30989V16.6901C1 17.208 1.41987 17.6279 1.93782 17.6279H11.318ZM4.88612 13.9432C4.88049 13.8352 4.86821 13.7094 4.84979 13.5646C4.83137 13.4203 4.81244 13.3037 4.79248 13.2162L3.90378 8.95174H2.72192L4.16317 15.0473H5.54252L6.45629 11.0213C6.47608 10.9275 6.50235 10.7829 6.53509 10.5874C6.56783 10.392 6.58984 10.2446 6.60109 10.1454H6.61798C6.62668 10.2313 6.64868 10.3679 6.68398 10.5547C6.71929 10.7414 6.75152 10.8934 6.77965 11.0095L7.75175 15.0483H9.10807L10.5417 8.94971H9.38077L8.56473 13.1671C8.51293 13.4203 8.47738 13.6767 8.45831 13.9345H8.44142C8.41603 13.6684 8.37348 13.4042 8.31402 13.1435L7.29077 8.95175H6.01528L5.02886 13.2075C5.00805 13.3071 4.98469 13.429 4.95876 13.5733C4.93283 13.7176 4.91578 13.8409 4.9076 13.9432H4.88612Z" fill="#04071E"/>
</svg>
