<svg width="24" height="24" viewBox="0 0 24 24" fill="none" xmlns="http://www.w3.org/2000/svg">
<path d="M14.8137 11.4883L6.11621 9.95349V21.2945C6.11621 21.8125 6.53607 22.2323 7.054 22.2323H22.0618C22.5797 22.2323 22.9996 21.8125 22.9996 21.2945V17.1161L14.8137 11.4883Z" fill="#185C37"/>
<path d="M14.8137 1.7677H7.054C6.53607 1.7677 6.11621 2.18756 6.11621 2.70549V6.88388L14.8137 12.0001L19.4183 13.5349L22.9996 12.0001V6.88388L14.8137 1.7677Z" fill="#21A366"/>
<path d="M6.11621 6.88379H14.8137V12H6.11621V6.88379Z" fill="#107C41"/>
<path opacity="0.1" d="M12.3411 5.8606H6.11621V18.651H12.3411C12.8583 18.6494 13.2772 18.2305 13.2789 17.7133V6.79839C13.2772 6.28116 12.8583 5.86228 12.3411 5.8606Z" fill="black"/>
<path opacity="0.2" d="M11.8294 6.37219H6.11621V19.1626H11.8294C12.3467 19.161 12.7656 18.7421 12.7672 18.2248V7.30999C12.7656 6.79276 12.3467 6.37387 11.8294 6.37219Z" fill="black"/>
<path opacity="0.2" d="M11.8294 6.37219H6.11621V18.1394H11.8294C12.3467 18.1377 12.7656 17.7188 12.7672 17.2016V7.30999C12.7656 6.79276 12.3467 6.37387 11.8294 6.37219Z" fill="black"/>
<path opacity="0.2" d="M11.3178 6.37219H6.11621V18.1394H11.3178C11.8351 18.1377 12.2539 17.7188 12.2556 17.2016V7.30999C12.2539 6.79276 11.8351 6.37387 11.3178 6.37219Z" fill="black"/>
<path d="M1.93877 6.37219H11.3188C11.8367 6.37219 12.2566 6.79206 12.2566 7.30999V16.69C12.2566 17.2079 11.8367 17.6278 11.3188 17.6278H1.93877C1.42084 17.6278 1.00098 17.2079 1.00098 16.69V7.30999C1.00098 6.79206 1.42084 6.37219 1.93877 6.37219Z" fill="url(#paint0_linear_114_355)"/>
<path d="M3.90515 15.0483L5.87795 11.9913L4.07041 8.95129H5.52442L6.51082 10.8954C6.60189 11.0801 6.6643 11.2172 6.69808 11.3078H6.71086C6.77567 11.1605 6.84388 11.0174 6.91551 10.8786L7.96995 8.95232H9.30476L7.45117 11.9745L9.35184 15.0482H7.93159L6.79221 12.9143C6.73854 12.8235 6.693 12.7281 6.65613 12.6293H6.63925C6.60587 12.7261 6.56159 12.8188 6.50725 12.9056L5.33411 15.0483H3.90515Z" fill="white"/>
<path d="M22.0614 1.7677H14.8134V6.88388H22.9992V2.70549C22.9992 2.18756 22.5794 1.7677 22.0614 1.7677Z" fill="#33C481"/>
<path d="M14.8134 12H22.9992V17.1162H14.8134V12Z" fill="#107C41"/>
<defs>
<linearGradient id="paint0_linear_114_355" x1="2.9563" y1="5.63942" x2="10.3012" y2="18.3606" gradientUnits="userSpaceOnUse">
<stop stop-color="#18884F"/>
<stop offset="0.5" stop-color="#117E43"/>
<stop offset="1" stop-color="#0B6631"/>
</linearGradient>
</defs>
</svg>
