<svg width="24" height="24" viewBox="0 0 24 24" fill="none" xmlns="http://www.w3.org/2000/svg">
<path d="M18.2258 9.31966C18.5915 9.27787 18.6724 8.9122 18.5915 8.54653L15.7915 8.70973C15.3862 8.74943 15.0616 9.07477 15.1431 9.52255L16.1977 9.64374V15.25L12.0605 8.91304L9.05843 9.11509C8.49008 9.15605 8.28739 9.68407 8.36889 10.0497L9.38293 10.1319V18.1348L8.65223 18.3374C8.36868 18.4183 8.28719 18.8243 8.36868 18.9873L11.1666 18.8249C12.1814 18.8249 12.1814 18.0936 12.1814 18.0936L10.9235 17.8088V11.7561L14.8999 18.0121C15.3858 18.6205 15.5485 18.8243 16.1975 18.8243C16.6037 18.8243 17.0897 18.6619 17.6178 18.3778V9.44022L18.2258 9.31966Z" fill="#04071E"/>
<path fill-rule="evenodd" clip-rule="evenodd" d="M2.00006 3.85724C2.00002 3.86294 2 3.86864 2 3.87435V16.5494C2 16.5588 2.00005 16.5681 2.00016 16.5774C2.00672 17.1347 2.21007 17.6162 2.68954 18.2559L5.4074 21.79C5.85393 22.3589 6.25992 22.481 7.11245 22.4404L20.5389 21.6274C20.8784 21.6033 21.1454 21.5392 21.3529 21.4373C21.84 21.1982 21.9995 20.7511 21.9995 20.1244V5.86483C21.9995 5.40319 21.8173 5.26975 21.2795 4.87595C21.2739 4.87187 21.2683 4.86777 21.2627 4.86363L17.4974 2.20899C16.8224 1.71828 16.4491 1.55156 15.6938 1.552C15.4498 1.55215 15.166 1.56973 14.8193 1.59947L3.25727 2.45367C2.33179 2.5337 2.00511 3.13435 2.00006 3.85724ZM5.44835 5.21582C6.07103 5.72212 6.31968 5.7054 7.41606 5.63164L7.55815 5.62203L19.0366 4.93102C19.2804 4.93102 19.0777 4.68801 18.9962 4.64684L17.09 3.26567C16.7249 2.98149 16.2389 2.65615 15.3055 2.73764L4.19066 3.54984C3.78529 3.59038 3.70443 3.79369 3.86532 3.95667L5.44835 5.21582ZM6.1379 7.89752V20.0028C6.1379 20.6533 6.46198 20.8963 7.19185 20.8559L19.8078 20.1246C20.5377 20.0843 20.6192 19.6371 20.6192 19.1085V7.08386C20.6192 6.55605 20.4171 6.27187 19.97 6.3122L6.78628 7.08407C6.30025 7.12503 6.1379 7.36887 6.1379 7.89752Z" fill="#04071E"/>
</svg>
