<svg width="24" height="24" viewBox="0 0 24 24" fill="none" xmlns="http://www.w3.org/2000/svg">
<path d="M14.8857 8.83789H9.10844C8.86315 8.83789 8.66406 9.02406 8.66406 9.25372V14.6595C8.66406 14.8891 8.86315 15.0753 9.10844 15.0753H14.8857C15.1312 15.0753 15.3301 14.8891 15.3301 14.6595V9.25372C15.3301 9.02406 15.1312 8.83789 14.8857 8.83789Z" fill="black"/>
<path d="M8.22151 2.6001H2.44438C2.19891 2.6001 2 2.78627 2 3.01593V8.42169C2 8.65134 2.19891 8.83752 2.44438 8.83752H8.22151C8.46698 8.83752 8.66607 8.65134 8.66607 8.42169V3.01593C8.66607 2.78627 8.46698 2.6001 8.22151 2.6001Z" fill="black"/>
<path d="M21.5557 2.6001H15.7784C15.5331 2.6001 15.334 2.78627 15.334 3.01593V8.42169C15.334 8.65134 15.5331 8.83752 15.7784 8.83752H21.5557C21.8011 8.83752 22 8.65134 22 8.42169V3.01593C22 2.78627 21.8011 2.6001 21.5557 2.6001Z" fill="black"/>
<path d="M8.22151 15.0752H2.44438C2.19891 15.0752 2 15.2614 2 15.491V20.8968C2 21.1264 2.19891 21.3127 2.44438 21.3127H8.22151C8.46698 21.3127 8.66607 21.1264 8.66607 20.8968V15.491C8.66607 15.2614 8.46698 15.0752 8.22151 15.0752Z" fill="black"/>
<path d="M21.5557 15.0752H15.7784C15.5331 15.0752 15.334 15.2614 15.334 15.491V20.8968C15.334 21.1264 15.5331 21.3127 15.7784 21.3127H21.5557C21.8011 21.3127 22 21.1264 22 20.8968V15.491C22 15.2614 21.8011 15.0752 21.5557 15.0752Z" fill="black"/>
</svg>
