<svg width="24" height="24" viewBox="0 0 24 24" fill="none" xmlns="http://www.w3.org/2000/svg">
<path d="M11.3466 7.78C11.58 7.72667 11.8266 7.7 12.0866 7.7C13.6666 7.7 15.02 9.02 15.02 10.7267C15.02 12.2667 13.6666 13.5867 12.0866 13.5867C10.3333 13.5867 8.97998 12.2667 8.97998 10.7267C8.97998 10.0733 9.17998 9.48 9.51998 8.99333C9.62665 9.54 10.1133 9.95333 10.7066 9.95333C11.3733 9.95333 11.9133 9.42667 11.9133 8.77333C11.9133 8.35333 11.6866 7.98667 11.3466 7.78Z" fill="#04071E"/>
<path fill-rule="evenodd" clip-rule="evenodd" d="M22 12C22 17.5228 17.5228 22 12 22C6.47715 22 2 17.5228 2 12C2 6.47715 6.47715 2 12 2C17.5228 2 22 6.47715 22 12ZM12.0734 18.2667C13.0667 18.2667 16.9867 13.86 16.9867 10.9067C16.9867 8.08 14.7534 5.73333 12.0734 5.73333C9.25335 5.73333 7.02002 8.08 7.02002 10.9067C7.02002 13.86 10.94 18.2667 12.0734 18.2667Z" fill="#04071E"/>
</svg>
