<svg width="24" height="24" viewBox="0 0 24 24" fill="none" xmlns="http://www.w3.org/2000/svg">
<path d="M12.3048 15.492H9.4684V8.2484H13.16C13.7601 8.2484 14.3357 8.4868 14.76 8.91116C15.1844 9.33552 15.4228 9.91107 15.4228 10.5112C15.4228 11.1113 15.1844 11.6869 14.76 12.1112C14.3357 12.5356 13.7601 12.774 13.16 12.774H12.3048V15.492Z" fill="#04071E"/>
<path fill-rule="evenodd" clip-rule="evenodd" d="M5.2 2H18.8C20.5673 2 22 3.43269 22 5.2V18.8C22 20.5673 20.5673 22 18.8 22H5.2C3.43269 22 2 20.5673 2 18.8V5.2C2 3.43269 3.43269 2 5.2 2ZM8 16.9408H13.7736L13.772 14.174C14.7008 14.0323 15.5411 13.5433 16.1233 12.8059C16.7055 12.0685 16.9861 11.1376 16.9083 10.2013C16.8306 9.265 16.4004 8.39309 15.7047 7.76174C15.0089 7.13039 14.0994 6.78666 13.16 6.8H8V16.9408Z" fill="#04071E"/>
</svg>
