<svg width="24" height="24" viewBox="0 0 24 24" fill="none" xmlns="http://www.w3.org/2000/svg">
<path d="M18.8 2H5.2C3.43269 2 2 3.43269 2 5.2V18.8C2 20.5673 3.43269 22 5.2 22H18.8C20.5673 22 22 20.5673 22 18.8V5.2C22 3.43269 20.5673 2 18.8 2Z" fill="#07A081"/>
<path d="M9.4684 15.4921H12.3048V12.7741H13.16C13.7601 12.7741 14.3357 12.5357 14.76 12.1113C15.1844 11.6869 15.4228 11.1114 15.4228 10.5113C15.4228 9.91113 15.1844 9.33558 14.76 8.91122C14.3357 8.48686 13.7601 8.24846 13.16 8.24846H9.4684V15.4921ZM13.7736 16.9409H8V6.80006H13.16C14.0994 6.78672 15.0089 7.13045 15.7047 7.7618C16.4004 8.39315 16.8306 9.26506 16.9083 10.2014C16.9861 11.1377 16.7055 12.0686 16.1233 12.806C15.5411 13.5434 14.7008 14.0324 13.772 14.1741L13.7736 16.9409Z" fill="white"/>
</svg>
