<svg width="24" height="24" viewBox="0 0 24 24" fill="none" xmlns="http://www.w3.org/2000/svg">
<path d="M7.14788 14.1503C7.70318 14.1474 8.24116 14.1445 8.7791 14.1533C10.2258 14.18 11.2591 13.1 11.4391 11.82C11.6391 10.3533 10.6124 9.00666 9.15243 8.8H9.14576C7.78576 8.62 6.41243 9.67333 6.2991 11.08C6.23908 11.7725 6.25259 12.4649 6.26658 13.1817C6.27279 13.5001 6.2791 13.8232 6.2791 14.1533C6.57466 14.1533 6.86374 14.1518 7.14788 14.1503Z" fill="#04071E"/>
<path fill-rule="evenodd" clip-rule="evenodd" d="M2 22V2H22V22H2ZM6.27243 15.9467V19.5C5.70576 19.5267 5.1391 19.52 4.57243 19.4867C4.56815 19.431 4.56317 19.378 4.5584 19.3272C4.54831 19.2198 4.5391 19.1217 4.5391 19.0267C4.5391 18.1934 4.53835 17.3608 4.53761 16.5285L4.53761 16.5267C4.53613 14.8626 4.53465 13.1994 4.5391 11.5333C4.54576 9.52 5.73243 7.82666 7.53243 7.23333C10.2058 6.34666 12.9058 8.28 13.1524 10.9933C13.3391 13.0333 12.2658 14.8467 10.4791 15.6133C9.90576 15.86 9.30576 15.94 8.69243 15.94C7.90588 15.9467 7.13228 15.9467 6.27243 15.9467ZM17.9257 11.3333L21.159 15.88H19.0657L16.6657 12.5933C16.1772 13.2011 15.7347 13.8214 15.2948 14.4378C14.9482 14.9236 14.6033 15.407 14.239 15.88H12.1523L15.379 11.3333L12.5057 7.02666H14.599L16.6523 10.0933L18.7057 7.02666H20.7923L17.9257 11.3333Z" fill="#04071E"/>
</svg>
