<svg width="24" height="24" viewBox="0 0 24 24" fill="none" xmlns="http://www.w3.org/2000/svg">
<path d="M14.3322 7.29869C13.2363 6.75033 11.9245 7.91339 11.4734 8.85389L11.4703 8.84918C10.9088 9.94984 10.964 11.6 10.9773 11.9973C10.9792 12.0543 10.9785 12.0856 10.9785 12.0856C11.9264 11.9376 12.8375 11.6236 13.6594 11.1451C13.977 10.9673 14.2506 10.7353 14.4963 10.4754C14.8386 10.0974 15.0568 9.61853 15.1251 9.11256C15.1381 9.01718 15.1522 8.90806 15.1522 8.79854C15.166 8.47392 15.0839 8.15911 14.9336 7.87257C14.8107 7.62684 14.5921 7.42155 14.3322 7.29869Z" fill="#2A2A2A"/>
<path fill-rule="evenodd" clip-rule="evenodd" d="M12 22C17.5228 22 22 17.5228 22 12C22 6.47715 17.5228 2 12 2C6.47715 2 2 6.47715 2 12C2 17.5228 6.47715 22 12 22ZM16.8295 11.4387C15.6299 13.3271 13.5115 14.2115 11.2823 14.5122L11.2846 14.5208C11.4208 15.7647 11.612 16.9498 11.8719 18.209C12.0316 18.9717 12.2126 19.7344 12.4139 20.49H9.88096C9.53436 19.0753 9.25527 17.6457 9.04409 16.2091C9.02037 16.0341 8.99499 15.8552 8.9691 15.6728C8.92046 15.3299 8.87003 14.9745 8.82545 14.6091C8.0035 14.5817 7.19607 14.4863 6.40356 14.3359C5.81123 14.2178 5.22833 14.0659 4.66309 13.8806V11.3182C5.64087 11.7131 6.70737 11.9804 7.7515 12.1107C8.03804 12.1649 8.33872 12.1931 8.62526 12.179C8.59857 11.3123 8.6394 10.4385 8.76226 9.5942C9.08806 7.69083 10.0509 5.98765 11.8656 5.18022C13.7026 4.35826 15.7909 4.70644 16.939 6.42453C17.8516 7.98012 17.8143 9.92039 16.8295 11.4387Z" fill="#2A2A2A"/>
</svg>
