<svg width="24" height="24" viewBox="0 0 24 24" fill="none" xmlns="http://www.w3.org/2000/svg">
<path d="M22.0001 1.97308H1.97314V22H22.0001V1.97308Z" fill="#B92B27"/>
<path d="M18.8789 16.145H17.949C17.901 16.5779 17.6128 17.1295 16.8987 17.1295C16.2445 17.1295 15.7745 16.6753 15.3181 15.9915C16.7307 14.8976 17.7027 13.2049 17.7027 11.1221C17.7027 7.37747 14.6181 4.85696 11.3837 4.85696C8.20302 4.85696 5.08838 7.39571 5.08838 11.1221C5.08838 14.8133 8.20302 17.3516 11.384 17.3516C11.9358 17.3516 12.4921 17.2741 13.0157 17.1337C13.6399 18.2038 14.4721 19.1162 16.0462 19.1162C18.6451 19.1162 18.9335 16.7214 18.8789 16.145ZM14.3063 14.317C13.6902 13.3871 12.914 12.6586 11.4018 12.6586C10.4296 12.6586 9.67344 12.977 9.20525 13.3787L9.58933 14.1472C9.78737 14.0569 10.0032 14.0211 10.2193 14.0211C11.3499 14.0211 11.9294 15.0033 12.4236 15.9757C12.1076 16.0678 11.7636 16.1097 11.384 16.1097C8.99497 16.1097 7.96291 14.4232 7.96291 11.1223C7.96291 7.80382 8.99519 6.09975 11.384 6.09975C13.8081 6.09975 14.846 7.80382 14.846 11.1223C14.846 12.451 14.6719 13.5231 14.3063 14.317Z" fill="white"/>
</svg>
