<svg width="24" height="24" viewBox="0 0 24 24" fill="none" xmlns="http://www.w3.org/2000/svg">
<path d="M9.22461 8.04297C9.22461 8.38867 8.94531 8.60156 8.64062 8.60156H7.82812V7.48437H8.64062C8.94531 7.48437 9.22461 7.69727 9.22461 8.04297Z" fill="#04071E"/>
<path fill-rule="evenodd" clip-rule="evenodd" d="M22 12C22 17.5229 17.5229 22 12 22C6.47715 22 2 17.5229 2 12C2 6.47715 6.47715 2 12 2C17.5229 2 22 6.47715 22 12ZM16.5117 15.1797V16.7324H17.0762V15.125C17.0762 14.6074 16.7363 14.2441 16.1152 14.2441C15.8906 14.2441 15.6074 14.3477 15.4668 14.5039L15.3262 14.6602C15.1777 14.4062 14.8848 14.2461 14.4785 14.2461C14.252 14.2461 13.9707 14.3496 13.8574 14.5059L13.8301 14.5312L13.8027 14.5059L13.7461 14.2988H13.2383V16.7324H13.8027V15.2598C13.8145 14.959 14.0898 14.7109 14.4238 14.7109C14.7051 14.7109 14.875 14.8672 14.875 15.1777V16.7344H15.4395V15.2617C15.4512 14.9609 15.7266 14.7129 16.0605 14.7129C16.3418 14.7129 16.5117 14.8691 16.5117 15.1797ZM16.6621 7.14062L7.19336 16.6094L7.39062 16.8066L16.8594 7.33789L16.6621 7.14062ZM7.81641 9.15625H7.91992L9.1875 10.834H9.82031V10.7266L8.57422 9.11914C9.17969 9.11914 9.74609 8.69141 9.74609 8.02148C9.74609 7.32617 9.21484 6.92383 8.60938 6.92383H7.26172V10.8359H7.81641V9.15625Z" fill="#04071E"/>
</svg>
