<svg width="24" height="24" viewBox="0 0 24 24" fill="none" xmlns="http://www.w3.org/2000/svg">
<path d="M4.31171 12C4.31171 16.0664 7.40674 19.3989 11.3462 19.7354H11.3438V22C6.16917 21.6588 2.07715 17.3143 2.07715 12C2.07715 6.68566 6.17149 2.3412 11.3462 2V4.26455C7.40674 4.60108 4.31171 7.93364 4.31171 12Z" fill="#04071E"/>
<path d="M8.07754 12C8.07754 13.9631 9.49088 15.5873 11.3462 15.9027V18.38C8.14692 18.0458 5.65096 15.3209 5.65096 12C5.65096 8.6791 8.14692 5.95184 11.3462 5.61998V8.09721C9.49317 8.41268 8.07754 10.0369 8.07754 12Z" fill="#04071E"/>
<path d="M12.6562 4.26455V2C17.8283 2.3412 21.9225 6.68566 21.9225 12C21.9225 17.3143 17.8308 21.6588 12.6562 22V19.7354C16.5954 19.3989 19.6905 16.0664 19.6905 12C19.6905 7.93364 16.5954 4.60108 12.6562 4.26455Z" fill="#04071E"/>
<path d="M12.6562 8.09488V5.61998C15.8551 5.9495 18.3556 8.67445 18.3556 11.9953C18.3556 15.3162 15.8575 18.0458 12.6562 18.3753V15.9004C14.5111 15.5873 15.9293 13.9631 15.9293 11.9977C15.9293 10.0322 14.5136 8.41035 12.6562 8.09488Z" fill="#04071E"/>
</svg>
