<svg width="24" height="24" viewBox="0 0 24 24" fill="none" xmlns="http://www.w3.org/2000/svg">
<path d="M5.57143 21C6.99159 21 8.14286 19.8487 8.14286 18.4286C8.14286 17.0084 6.99159 15.8571 5.57143 15.8571C4.15127 15.8571 3 17.0084 3 18.4286C3 19.8487 4.15127 21 5.57143 21Z" fill="#04071E"/>
<path d="M3 9.00042V12.4294C5.27244 12.4318 7.45115 13.3355 9.05813 14.9422C10.6651 16.549 11.5691 18.7275 11.5719 21H14.9996C14.9996 14.3837 9.61629 9.00042 3 9.00042Z" fill="#04071E"/>
<path d="M3 3V6.429C11.0357 6.429 17.5723 12.9643 17.5723 21H21C21 11.0743 12.9257 3 3 3Z" fill="#04071E"/>
</svg>
