<svg width="24" height="24" viewBox="0 0 24 24" fill="none" xmlns="http://www.w3.org/2000/svg">
<path d="M18.25 2H5.75C3.67893 2 2 3.67893 2 5.75V18.25C2 20.3211 3.67893 22 5.75 22H18.25C20.3211 22 22 20.3211 22 18.25V5.75C22 3.67893 20.3211 2 18.25 2Z" fill="#FFA500"/>
<path d="M7 19.5C8.38071 19.5 9.5 18.3807 9.5 17C9.5 15.6193 8.38071 14.5 7 14.5C5.61929 14.5 4.5 15.6193 4.5 17C4.5 18.3807 5.61929 19.5 7 19.5Z" fill="white"/>
<path d="M4.5 12C6.48912 12 8.39678 12.7902 9.8033 14.1967C11.2098 15.6032 12 17.5109 12 19.5H14.5C14.5 16.8478 13.4464 14.3043 11.5711 12.4289C9.6957 10.5536 7.15216 9.5 4.5 9.5V12Z" fill="white"/>
<path d="M4.5 7C6.14152 7 7.76697 7.32332 9.28354 7.95151C10.8001 8.57969 12.1781 9.50043 13.3388 10.6612C14.4996 11.8219 15.4203 13.1999 16.0485 14.7165C16.6767 16.233 17 17.8585 17 19.5H19.5C19.5 15.5218 17.9196 11.7064 15.1066 8.8934C12.2936 6.08035 8.47825 4.5 4.5 4.5V7Z" fill="white"/>
</svg>
