<svg width="24" height="24" viewBox="0 0 24 24" fill="none" xmlns="http://www.w3.org/2000/svg">
<path d="M5.76191 2.51765L11.9758 1.86072L18.1897 2.51765L23.0004 8.97565L11.9758 21.8137L0.951172 8.97565L5.76191 2.51765Z" fill="#FDB300"/>
<path d="M5.41669 8.97571L11.9758 21.8138L0.951172 8.97571H5.41669Z" fill="#EA6C00"/>
<path d="M18.5345 8.97571L11.9754 21.8138L23 8.97571H18.5345Z" fill="#EA6C00"/>
<path d="M5.4165 8.97571H18.5347L11.9756 21.8138L5.4165 8.97571Z" fill="#FDAD00"/>
<path d="M11.9756 1.86072L5.76171 2.51764L5.4165 8.97564L11.9756 1.86072Z" fill="#FDD231"/>
<path d="M11.9756 1.86072L18.1895 2.51764L18.5347 8.97564L11.9756 1.86072Z" fill="#FDD231"/>
<path d="M23 8.9757L18.1892 2.5177L18.5345 8.9757H23Z" fill="#FDAD00"/>
<path d="M0.951172 8.9757L5.7619 2.5177L5.41669 8.9757H0.951172Z" fill="#FDAD00"/>
<path d="M11.9756 1.86072L5.4165 8.97564H18.5347L11.9756 1.86072Z" fill="#FEEEB7"/>
</svg>
