<svg width="24" height="24" viewBox="0 0 24 24" fill="none" xmlns="http://www.w3.org/2000/svg">
<path d="M6.2162 14.6433C6.2162 15.8057 5.27746 16.7452 4.11597 16.7452C2.95448 16.7452 2.01573 15.8057 2.01573 14.6433C2.01573 13.4809 2.95448 12.5414 4.11597 12.5414H6.2162V14.6433ZM7.26632 14.6433C7.26632 13.4809 8.20506 12.5414 9.36656 12.5414C10.5281 12.5414 11.4668 13.4809 11.4668 14.6433V19.8981C11.4668 21.0605 10.5281 22 9.36656 22C8.20506 22 7.26632 21.0605 7.26632 19.8981V14.6433Z" fill="#04071E"/>
<path d="M9.36673 6.20382C8.20524 6.20382 7.2665 5.26433 7.2665 4.10191C7.2665 2.93949 8.20524 2 9.36673 2C10.5282 2 11.467 2.93949 11.467 4.10191V6.20382H9.36673ZM9.36673 7.2707C10.5282 7.2707 11.467 8.21019 11.467 9.37261C11.467 10.535 10.5282 11.4745 9.36673 11.4745H4.10024C2.93874 11.4745 2 10.535 2 9.37261C2 8.21019 2.93874 7.2707 4.10024 7.2707H9.36673Z" fill="#04071E"/>
<path d="M17.7834 9.37261C17.7834 8.21019 18.7221 7.2707 19.8836 7.2707C21.0451 7.2707 21.9838 8.21019 21.9838 9.37261C21.9838 10.535 21.0451 11.4745 19.8836 11.4745H17.7834V9.37261ZM16.7332 9.37261C16.7332 10.535 15.7945 11.4745 14.633 11.4745C13.4715 11.4745 12.5328 10.535 12.5328 9.37261V4.10191C12.5328 2.93949 13.4715 2 14.633 2C15.7945 2 16.7332 2.93949 16.7332 4.10191V9.37261Z" fill="#04071E"/>
<path d="M14.633 17.7962C15.7945 17.7962 16.7332 18.7357 16.7332 19.8981C16.7332 21.0605 15.7945 22 14.633 22C13.4715 22 12.5328 21.0605 12.5328 19.8981V17.7962H14.633ZM14.633 16.7452C13.4715 16.7452 12.5328 15.8057 12.5328 14.6433C12.5328 13.4809 13.4715 12.5414 14.633 12.5414H19.8995C21.061 12.5414 21.9997 13.4809 21.9997 14.6433C21.9997 15.8057 21.061 16.7452 19.8995 16.7452H14.633Z" fill="#04071E"/>
</svg>
