<svg width="24" height="24" viewBox="0 0 24 24" fill="none" xmlns="http://www.w3.org/2000/svg">
<path d="M6.21622 14.6433C6.21622 15.8057 5.27748 16.7452 4.11598 16.7452C2.95449 16.7452 2.01575 15.8057 2.01575 14.6433C2.01575 13.4809 2.95449 12.5414 4.11598 12.5414H6.21622V14.6433ZM7.26634 14.6433C7.26634 13.4809 8.20508 12.5414 9.36657 12.5414C10.5281 12.5414 11.4668 13.4809 11.4668 14.6433V19.8981C11.4668 21.0605 10.5281 22 9.36657 22C8.20508 22 7.26634 21.0605 7.26634 19.8981V14.6433Z" fill="#E01E5A"/>
<path d="M9.36673 6.20382C8.20524 6.20382 7.2665 5.26433 7.2665 4.10191C7.2665 2.93949 8.20524 2 9.36673 2C10.5282 2 11.467 2.93949 11.467 4.10191V6.20382H9.36673ZM9.36673 7.2707C10.5282 7.2707 11.467 8.21019 11.467 9.37261C11.467 10.535 10.5282 11.4745 9.36673 11.4745H4.10024C2.93874 11.4745 2 10.535 2 9.37261C2 8.21019 2.93874 7.2707 4.10024 7.2707H9.36673Z" fill="#36C5F0"/>
<path d="M17.7833 9.37261C17.7833 8.21019 18.722 7.2707 19.8835 7.2707C21.045 7.2707 21.9838 8.21019 21.9838 9.37261C21.9838 10.535 21.045 11.4745 19.8835 11.4745H17.7833V9.37261ZM16.7332 9.37261C16.7332 10.535 15.7944 11.4745 14.6329 11.4745C13.4715 11.4745 12.5327 10.535 12.5327 9.37261V4.10191C12.5327 2.93949 13.4715 2 14.6329 2C15.7944 2 16.7332 2.93949 16.7332 4.10191V9.37261Z" fill="#2EB67D"/>
<path d="M14.6329 17.7962C15.7944 17.7962 16.7332 18.7357 16.7332 19.8981C16.7332 21.0605 15.7944 22 14.6329 22C13.4715 22 12.5327 21.0605 12.5327 19.8981V17.7962H14.6329ZM14.6329 16.7452C13.4715 16.7452 12.5327 15.8057 12.5327 14.6433C12.5327 13.4809 13.4715 12.5414 14.6329 12.5414H19.8994C21.0609 12.5414 21.9997 13.4809 21.9997 14.6433C21.9997 15.8057 21.0609 16.7452 19.8994 16.7452H14.6329Z" fill="#ECB22E"/>
</svg>
