<svg width="24" height="24" viewBox="0 0 24 24" fill="none" xmlns="http://www.w3.org/2000/svg">
<path fill-rule="evenodd" clip-rule="evenodd" d="M22.9213 17.0126C22.7685 16.5965 22.4773 16.3739 22.1457 16.1894C22.0833 16.1529 22.0259 16.1237 21.977 16.1012C21.9299 16.0768 21.8822 16.0528 21.8343 16.0287C21.7818 16.0022 21.729 15.9756 21.6763 15.9482C20.6426 15.4 19.8355 14.7084 19.2756 13.8887C19.1166 13.6579 18.9787 13.4133 18.8636 13.1577C18.8158 13.0211 18.8181 12.9435 18.8524 12.8727C18.8864 12.8181 18.9314 12.7712 18.9845 12.7349C19.1621 12.6174 19.3453 12.4982 19.4695 12.4178C19.691 12.2744 19.8664 12.1608 19.9794 12.0804C20.4037 11.7836 20.7005 11.4681 20.886 11.1156C21.0154 10.872 21.0909 10.6035 21.1073 10.3281C21.1237 10.0528 21.0806 9.77712 20.981 9.51991C20.7 8.77997 20.0013 8.32061 19.1548 8.32061C18.9762 8.32044 18.7982 8.33929 18.6236 8.37683C18.5769 8.38695 18.5303 8.39764 18.4848 8.40944C18.4926 7.90341 18.4814 7.36926 18.4364 6.84355C18.2768 4.9954 17.6298 4.02662 16.9553 3.25408C16.5234 2.76996 16.0146 2.3604 15.4495 2.04184C14.4259 1.45709 13.2652 1.16022 11.9999 1.16022C10.7346 1.16022 9.57952 1.45709 8.55482 2.04184C7.9883 2.36049 7.4785 2.77088 7.04617 3.25632C6.37166 4.02887 5.72469 4.99933 5.56505 6.8458C5.52009 7.37151 5.50884 7.90847 5.51615 8.41169C5.47062 8.39989 5.42453 8.3892 5.37788 8.37908C5.20331 8.34153 5.02525 8.32269 4.8467 8.32286C3.99963 8.32286 3.29982 8.78222 3.0199 9.52216C2.91984 9.77947 2.87634 10.0553 2.89234 10.331C2.90835 10.6066 2.98348 10.8755 3.11264 11.1195C3.2987 11.4721 3.59548 11.7875 4.01986 12.0844C4.10896 12.1468 4.23796 12.2311 4.3979 12.3356L4.52968 12.4217C4.6494 12.4993 4.82422 12.6129 4.99565 12.7265C5.05564 12.7653 5.10662 12.8165 5.14517 12.8766C5.18114 12.9503 5.18227 13.0295 5.12887 13.1757C5.01529 13.4259 4.87967 13.6654 4.7236 13.8915C4.17612 14.6927 3.39257 15.3719 2.39204 15.9156C2.31437 15.9568 2.23625 15.996 2.15875 16.0349C1.70738 16.2613 1.27704 16.4772 1.07843 17.0171C0.903058 17.4944 1.01772 18.0376 1.46346 18.4953C1.62705 18.6661 1.81679 18.8098 2.02556 18.9209C2.45994 19.1597 2.92183 19.3445 3.401 19.4714C3.49988 19.4969 3.59375 19.5389 3.67867 19.5956C3.76195 19.6685 3.79648 19.7604 3.83951 19.8749C3.88042 19.9837 3.92902 20.1129 4.03448 20.2658C4.14311 20.428 4.28114 20.5683 4.44143 20.6797C4.8956 20.9934 5.40598 21.0131 5.94671 21.0339C6.43517 21.0524 6.98883 21.0738 7.62119 21.2824C7.88312 21.369 8.15518 21.5365 8.47051 21.7322C9.22765 22.1978 10.2641 22.8348 11.9988 22.8348C13.7317 22.8348 14.7752 22.1956 15.5378 21.7285L15.5399 21.7271C15.853 21.5349 16.1234 21.369 16.378 21.2846C17.0096 21.0757 17.5627 21.0547 18.0507 21.0362L18.0525 21.0361C18.5932 21.0153 19.1036 20.9956 19.5578 20.6819C19.7476 20.5495 19.9058 20.3767 20.021 20.1759C20.088 20.0618 20.1255 19.9625 20.1581 19.8761C20.2011 19.762 20.2357 19.6703 20.3189 19.5967C20.3985 19.5427 20.4867 19.5024 20.5797 19.4775C21.0654 19.3503 21.5336 19.1638 21.9737 18.922C22.1955 18.803 22.3951 18.6467 22.5639 18.4599L22.5695 18.4531C22.9877 18.0055 23.0928 17.4781 22.9213 17.0126ZM21.3795 17.8414C20.8646 18.1258 20.4442 18.2379 20.0894 18.3324C19.7963 18.4105 19.5479 18.4767 19.3279 18.6184C19.1451 18.7361 19.091 18.914 19.0616 19.0938C19.0555 19.1313 19.0505 19.1689 19.0456 19.2059C19.0423 19.2306 19.039 19.255 19.0355 19.279C19.0127 19.4378 18.9804 19.5812 18.8591 19.6648C18.6993 19.7752 18.404 19.7865 18.006 19.8017C17.4858 19.8217 16.7902 19.8483 15.9924 20.1118C15.602 20.2409 15.2591 20.4514 14.8966 20.674C14.1807 21.1135 13.3881 21.6001 12.0016 21.6001C10.6201 21.6001 9.83586 21.118 9.12165 20.679C8.75601 20.4542 8.40872 20.2407 8.00903 20.109C7.21282 19.8455 6.51711 19.8189 5.99647 19.7989C5.59823 19.7837 5.30241 19.7724 5.14236 19.662C5.00477 19.5669 4.9817 19.3946 4.95702 19.2102C4.92797 18.9932 4.89668 18.7594 4.67358 18.6156C4.45284 18.4736 4.20367 18.4074 3.9096 18.3293C3.55519 18.2352 3.13558 18.1238 2.62194 17.8414C2.31073 17.6695 2.25306 17.5317 2.29747 17.4253C2.33512 17.3235 2.46705 17.2498 2.56515 17.2023C4.52018 16.2571 5.53218 15.0153 6.0442 14.0925C6.42199 13.4103 6.52608 12.904 6.53635 12.8238L6.53917 12.8018C6.56738 12.5833 6.59007 12.4075 6.34636 12.1822C6.18093 12.0293 5.62911 11.6715 5.1985 11.3923C4.99557 11.2607 4.81956 11.1466 4.7236 11.0796C4.22784 10.7333 4.00974 10.3875 4.1705 9.96241L4.1733 9.9553L4.17454 9.9521C4.28771 9.6621 4.55939 9.55047 4.84781 9.55047C4.93877 9.55075 5.02942 9.56093 5.11818 9.58083C5.43923 9.6505 5.75479 9.774 6.02227 9.87868C6.20812 9.95142 6.37074 10.0151 6.49587 10.0453C6.53262 10.0547 6.57035 10.0598 6.60829 10.0604C6.70952 10.0604 6.76999 10.0288 6.7986 9.96007C6.81385 9.91902 6.81861 9.8656 6.81459 9.79879L6.80531 9.64405C6.7673 9.01668 6.70299 7.95538 6.78929 6.95825C6.8289 6.49905 6.90183 6.11115 7.00047 5.77508C7.22193 5.01504 7.57512 4.51972 7.97248 4.06562C8.24679 3.75244 9.52667 2.39008 11.9999 2.39008C14.0857 2.39008 15.3239 3.35904 15.8262 3.85283C15.9189 3.94314 15.9863 4.01721 16.029 4.06598C16.4378 4.53367 16.8004 5.04508 17.0204 5.84438C17.1087 6.16349 17.1742 6.52852 17.211 6.95507C17.3016 8.00186 17.2294 9.11988 17.1899 9.73136L17.1857 9.79561C17.1822 9.83945 17.1826 9.87711 17.1871 9.90917C17.2041 10.018 17.2679 10.0608 17.3932 10.0608C17.4311 10.0602 17.4688 10.0551 17.5056 10.0456C17.6311 10.0154 17.7942 9.95161 17.9804 9.87875C18.2478 9.77413 18.5631 9.6508 18.8838 9.58119C18.9726 9.56129 19.0632 9.55111 19.1542 9.55083C19.4228 9.55083 19.6769 9.64763 19.8019 9.89513C19.8123 9.91545 19.8218 9.93681 19.8304 9.95923C19.9911 10.3843 19.7731 10.7301 19.2779 11.0764C19.1819 11.1434 19.0059 11.2576 18.8029 11.3891C18.3723 11.6684 17.8205 12.0262 17.6551 12.179C17.4113 12.4039 17.434 12.5795 17.4621 12.7975L17.4651 12.8206C17.4816 12.9491 17.7383 14.1697 18.9742 15.4564C19.5544 16.0596 20.35 16.677 21.4374 17.2026C21.5054 17.2366 21.5892 17.2825 21.6472 17.3412C21.6969 17.3907 21.7279 17.4496 21.7142 17.5183C21.6972 17.6086 21.6048 17.7159 21.3795 17.8414ZM20.0361 18.3398C20.0541 18.335 20.0722 18.3302 20.0905 18.3253L20.0361 18.3398Z" fill="#04071E"/>
</svg>
