<svg width="24" height="24" viewBox="0 0 24 24" fill="none" xmlns="http://www.w3.org/2000/svg">
<path fill-rule="evenodd" clip-rule="evenodd" d="M5 2H19C20.6569 2 22 3.34315 22 5V19C22 20.6569 20.6569 22 19 22H5C3.34315 22 2 20.6569 2 19V5C2 3.34315 3.34315 2 5 2ZM4.1875 13.4062L4.30469 12.5469C4.30469 12.4297 4.42188 12.4297 4.42188 12.5469L4.53906 13.4062L4.42188 14.2656C4.42188 14.3438 4.30469 14.3438 4.30469 14.2656L4.1875 13.4062ZM4.89062 12C4.89062 11.8828 5.00781 11.8828 5.00781 12L5.16406 13.4062L5.00781 14.7734C5.00781 14.8906 4.85156 14.8906 4.85156 14.7734L4.69531 13.4062L4.89062 12ZM7.19531 13.4062L7.3125 10.8281C7.3125 10.6328 7.54688 10.6328 7.54688 10.8281L7.70312 13.4062L7.54688 14.9688C7.54688 15.2812 7.27344 15.2812 7.27344 14.9688L7.19531 13.4062ZM5.94531 13.4062L6.10156 11.6875C6.10156 11.5703 6.25781 11.5703 6.25781 11.6875L6.41406 13.4062L6.25781 14.9688C6.25781 15.2031 6.0625 15.2031 6.0625 14.9688L5.94531 13.4062ZM8.95312 13.4062L8.83594 14.9688C8.83594 15.2812 8.52344 15.2812 8.52344 14.9688L8.44531 13.4062L8.5625 9.96875C8.5625 9.73437 8.83594 9.73437 8.83594 9.96875L8.95312 13.4062ZM11.5703 13.4062L11.4922 14.9688C11.4922 15.2812 11.1016 15.2812 11.1016 14.9688L11.0234 13.4062L11.1016 9.42187C11.1016 9.14844 11.4922 9.14844 11.4922 9.42187L11.5703 13.4062ZM10.2812 13.4062L10.1641 14.9688C10.1641 15.2812 9.8125 15.2812 9.8125 14.9688L9.73438 13.4062L9.8125 9.92969C9.8125 9.69531 10.1641 9.69531 10.1641 9.92969L10.2812 13.4062ZM7.03906 13.4062L6.92188 14.9688C6.92188 15.2422 6.6875 15.2422 6.6875 14.9688L6.57031 13.4062L6.6875 11.8047C6.6875 11.6875 6.92188 11.6875 6.92188 11.8047L7.03906 13.4062ZM5.78906 13.4062L5.63281 14.9688C5.63281 15.125 5.47656 15.125 5.47656 14.9688L5.32031 13.4062L5.47656 11.7266C5.47656 11.6094 5.63281 11.6094 5.63281 11.7266L5.78906 13.4062ZM10.3984 13.4062L10.4766 10.0859C10.4766 9.8125 10.8281 9.8125 10.8281 10.0859L10.9062 13.4062L10.8281 14.9688C10.8281 15.2812 10.4375 15.2812 10.4375 14.9688L10.3984 13.4062ZM8.32812 13.4062L8.21094 14.9688C8.21094 15.2812 7.89844 15.2812 7.89844 14.9688L7.82031 13.4062L7.9375 10.2422C7.9375 10.0078 8.21094 10.0078 8.21094 10.2422L8.32812 13.4062ZM9.61719 13.4062L9.5 14.9688C9.5 15.2812 9.1875 15.2812 9.1875 14.9688L9.07031 13.4062L9.1875 9.85156C9.1875 9.61719 9.5 9.61719 9.5 9.85156L9.61719 13.4062ZM12.5469 8.64062C14.6562 7.82031 16.9609 9.26562 17.1562 11.4922C18.4453 11.0625 19.8125 11.8438 19.8125 13.2891C19.8125 14.3438 18.9531 15.2031 17.8984 15.2031H12.5469C12.4297 15.2031 12.3516 15.0859 12.3516 14.9688V8.875C12.3516 8.75781 12.3906 8.71875 12.5469 8.64062ZM11.6484 13.4062L11.7656 9.07031C11.7656 8.79687 12.1562 8.79687 12.1562 9.07031L12.2734 13.4062L12.1562 14.9688C12.1562 15.2812 11.7656 15.2812 11.7656 14.9688L11.6484 13.4062Z" fill="#04071E"/>
</svg>
