<svg width="24" height="24" viewBox="0 0 24 24" fill="none" xmlns="http://www.w3.org/2000/svg">
<path d="M12 2C6.47727 2 2 6.47682 2 12C2 17.5232 6.47727 22 12 22C17.5227 22 22 17.5232 22 12C22 6.47682 17.5227 2 12 2ZM16.8788 16.4156C16.7182 16.7 16.4227 16.86 16.1182 16.86C15.9758 16.86 15.8288 16.8244 15.6939 16.7494C14.4455 16.0494 13.0849 15.6206 11.647 15.475C10.2061 15.3306 8.78333 15.4768 7.41667 15.9132C6.96061 16.0588 6.4697 15.8068 6.32425 15.35C6.17728 14.8924 6.4303 14.4032 6.88788 14.2568C8.48182 13.7476 10.1439 13.5744 11.8227 13.745C13.4985 13.9156 15.0864 14.4156 16.5439 15.2326C16.9636 15.4662 17.1136 15.9962 16.8788 16.4156ZM18.0758 13.3782C17.9212 13.6756 17.6182 13.8462 17.3045 13.8462C17.1682 13.8462 17.0318 13.815 16.903 13.7476C15.3682 12.9482 13.7106 12.4532 11.9727 12.2768C10.2212 12.0976 8.48637 12.2538 6.81364 12.7362C6.35152 12.8674 5.8697 12.6032 5.73789 12.1412C5.60455 11.68 5.87121 11.1982 6.33181 11.065C8.21969 10.5206 10.1773 10.3462 12.1485 10.5462C14.1061 10.7456 15.9758 11.3032 17.7076 12.2056C18.1318 12.4276 18.2985 12.9524 18.0758 13.3782ZM18.5091 10.8512C18.3788 10.8512 18.247 10.8218 18.1212 10.76C16.3 9.85182 14.3409 9.28621 12.297 9.07879C10.25 8.86939 8.21364 9.03121 6.24242 9.55758C5.77879 9.68061 5.30303 9.40561 5.17879 8.94121C5.05454 8.47742 5.33031 8.00061 5.79546 7.87682C7.9697 7.29621 10.2182 7.11939 12.4742 7.34879C14.7273 7.57682 16.8879 8.20121 18.897 9.20318C19.3273 9.41742 19.5015 9.94 19.2879 10.3694C19.1364 10.675 18.8288 10.8512 18.5091 10.8512Z" fill="#04071E"/>
</svg>
