<svg width="24" height="24" viewBox="0 0 24 24" fill="none" xmlns="http://www.w3.org/2000/svg">
<path d="M15.0019 6.74501C14.5874 6.33053 13.9153 6.33053 13.5011 6.74501L6.74665 13.4996C5.91725 14.3284 4.5735 14.3284 3.74476 13.4996C2.91515 12.6707 2.91515 11.3267 3.74476 10.4973L10.3691 3.87293C9.54019 3.04375 8.196 3.04375 7.36704 3.87293L2.24327 8.99648C0.585577 10.6546 0.585577 13.3423 2.24327 15.0007C3.9014 16.6588 6.58913 16.6588 8.24726 15.0007L15.0019 8.24606C15.4161 7.83159 15.4161 7.15949 15.0019 6.74501ZM17.2534 4.49376C15.5952 2.83541 12.9075 2.83541 11.2494 4.49376L4.49496 11.248C4.0807 11.6622 4.0807 12.3347 4.49496 12.749C4.90944 13.1635 5.58131 13.1635 5.99579 12.749L12.7506 5.99482C13.5796 5.16564 14.9233 5.16564 15.7521 5.99482C16.167 6.40907 16.8389 6.40907 17.2534 5.99482C17.6678 5.5799 17.6678 4.90824 17.2534 4.49376ZM19.505 11.248C19.0906 10.8339 18.4182 10.8339 18.0038 11.248L11.2494 18.0024C10.4204 18.8313 9.07621 18.8313 8.24726 18.0024C7.833 17.5881 7.16112 17.5881 6.74665 18.0024C6.33151 18.4171 6.33151 19.0891 6.74665 19.5032C8.40412 21.1613 11.0925 21.1613 12.7506 19.5032L19.505 12.749C19.9193 12.3347 19.9193 11.6622 19.505 11.248ZM21.7567 8.9967C20.0986 7.33879 17.4104 7.33879 15.7527 8.9967L8.9979 15.7513C8.58342 16.1654 8.58342 16.8379 8.9979 17.2522C9.41259 17.6669 10.0847 17.6669 10.4989 17.2522L17.2534 10.4978C18.0821 9.66858 19.4265 9.66858 20.2552 10.4978C21.0842 11.3267 21.0842 12.6707 20.2552 13.4996L13.6309 20.1242C14.4598 20.953 15.8033 20.953 16.633 20.1242L21.7567 15.0007C23.4144 13.3423 23.4144 10.6546 21.7567 8.9967Z" fill="#04071E"/>
</svg>
