<svg width="24" height="24" viewBox="0 0 24 24" fill="none" xmlns="http://www.w3.org/2000/svg">
<path d="M17.5109 2H6.48909C4.00983 2 2 4.00983 2 6.48909V17.5109C2 19.9902 4.00983 22 6.48909 22H17.5109C19.9902 22 22 19.9902 22 17.5109V6.48909C22 4.00983 19.9902 2 17.5109 2Z" fill="#6772E5"/>
<path fill-rule="evenodd" clip-rule="evenodd" d="M11.2136 9.75894C11.2136 9.28094 11.6084 9.06618 12.2458 9.06618C13.3019 9.08902 14.3383 9.35701 15.2731 9.849V7.01561C14.3113 6.63844 13.2858 6.45026 12.2527 6.4614C9.78647 6.4614 8.1377 7.74994 8.1377 9.92521C8.1377 13.292 12.7653 12.7447 12.7653 14.1995C12.7653 14.7607 12.2735 14.9408 11.6015 14.9408C10.4177 14.8755 9.26519 14.5364 8.23468 13.9501V16.8528C9.28474 17.3066 10.416 17.5423 11.5599 17.5456C14.0885 17.5456 15.8343 16.2986 15.8343 14.0818C15.855 10.4725 11.2136 11.1237 11.2136 9.75894Z" fill="white"/>
</svg>
