<svg width="24" height="24" viewBox="0 0 24 24" fill="none" xmlns="http://www.w3.org/2000/svg">
<path fill-rule="evenodd" clip-rule="evenodd" d="M6.48909 2H17.5109C19.9902 2 22 4.00983 22 6.48909V17.5109C22 19.9902 19.9902 22 17.5109 22H6.48909C4.00983 22 2 19.9902 2 17.5109V6.48909C2 4.00983 4.00983 2 6.48909 2ZM12.2458 9.06616C11.6084 9.06616 11.2136 9.28092 11.2136 9.75892C11.2136 10.2783 11.8857 10.5057 12.7173 10.787C14.071 11.245 15.8471 11.846 15.8343 14.0817C15.8343 16.2986 14.0885 17.5456 11.5599 17.5456C10.416 17.5422 9.28474 17.3065 8.23468 16.8528V13.9501C9.26519 14.5364 10.4177 14.8755 11.6015 14.9408C12.2735 14.9408 12.7653 14.7607 12.7653 14.1995C12.7653 13.6225 12.0374 13.3605 11.1589 13.0442C9.82244 12.5631 8.1377 11.9566 8.1377 9.92518C8.1377 7.74992 9.78647 6.46138 12.2527 6.46138C13.2858 6.45024 14.3113 6.63841 15.2731 7.01559V9.84898C14.3383 9.35699 13.3019 9.089 12.2458 9.06616Z" fill="#04071E"/>
</svg>
