<svg width="24" height="24" viewBox="0 0 24 24" fill="none" xmlns="http://www.w3.org/2000/svg">
<path d="M16.3796 9.18483C17.6818 10.119 19.277 10.6686 21 10.6686V7.34136C20.6739 7.34143 20.3486 7.30731 20.0296 7.23948V9.85853C18.3068 9.85853 16.7118 9.30888 15.4092 8.37478V15.1648C15.4092 18.5615 12.6655 21.3149 9.28101 21.3149C8.0182 21.3149 6.84447 20.9318 5.86945 20.2747C6.98227 21.4166 8.53419 22.1249 10.2511 22.1249C13.6358 22.1249 16.3797 19.3716 16.3797 15.9747V9.18483H16.3796ZM17.5765 5.82801C16.9111 5.09836 16.4741 4.15544 16.3796 3.11299V2.68503H15.46C15.6915 4.00998 16.481 5.14194 17.5765 5.82801ZM8.0101 17.6681C7.63828 17.1789 7.43736 16.5804 7.43826 15.965C7.43826 14.4115 8.69325 13.1518 10.2416 13.1518C10.5301 13.1518 10.8169 13.1961 11.0919 13.2837V9.88202C10.7706 9.83782 10.4462 9.81905 10.122 9.82593V12.4736C9.84684 12.386 9.55988 12.3416 9.27126 12.3418C7.72293 12.3418 6.46801 13.6013 6.46801 15.1551C6.46801 16.2537 7.0953 17.2048 8.0101 17.6681Z" fill="#FF004F"/>
<path d="M15.4092 8.37471C16.7118 9.30881 18.3068 9.85846 20.0296 9.85846V7.23941C19.0679 7.03384 18.2166 6.52951 17.5765 5.82801C16.4809 5.14187 15.6915 4.00991 15.46 2.68503H13.0447V15.9746C13.0393 17.5239 11.7864 18.7783 10.2414 18.7783C9.33096 18.7783 8.52213 18.3428 8.00987 17.6681C7.09514 17.2048 6.46785 16.2536 6.46785 15.1551C6.46785 13.6015 7.72277 12.3419 9.27109 12.3419C9.56775 12.3419 9.85367 12.3883 10.1219 12.4737V9.826C6.79689 9.89495 4.1228 12.6214 4.1228 15.9746C4.1228 17.6485 4.78871 19.166 5.86949 20.2747C6.84451 20.9318 8.01825 21.315 9.28106 21.315C12.6656 21.315 15.4093 18.5614 15.4093 15.1648V8.37471H15.4092Z" fill="black"/>
<path d="M20.0296 7.23943V6.53126C19.1625 6.53258 18.3123 6.28886 17.5766 5.82795C18.2279 6.54356 19.0855 7.03699 20.0296 7.23943ZM15.4601 2.68504C15.438 2.55842 15.421 2.43096 15.4092 2.30302V1.87506H12.0744V15.1647C12.069 16.7138 10.8163 17.9683 9.27112 17.9683C8.81749 17.9683 8.3892 17.8602 8.0099 17.6682C8.52216 18.3428 9.331 18.7783 10.2414 18.7783C11.7863 18.7783 13.0394 17.5239 13.0448 15.9747V2.68504H15.4601ZM10.122 9.82602V9.07212C9.84339 9.0339 9.56245 9.01472 9.28116 9.01486C5.89638 9.01479 3.15259 11.7683 3.15259 15.1647C3.15259 17.2941 4.23095 19.1707 5.86959 20.2746C4.78881 19.1659 4.1229 17.6484 4.1229 15.9746C4.1229 12.6214 6.79692 9.89496 10.122 9.82602Z" fill="#00F2EA"/>
</svg>
