<svg width="24" height="24" viewBox="0 0 24 24" fill="none" xmlns="http://www.w3.org/2000/svg">
<path d="M19.6541 2.09998H4.59591C3.29615 2.09998 2.25 3.14612 2.25 4.44588V19.5358C2.25 20.8355 3.29615 21.8817 4.59591 21.8817H19.6541C20.9539 21.8817 22 20.8355 22 19.5358V4.44588C22 3.14612 20.9539 2.09998 19.6541 2.09998ZM10.746 16.3339C10.746 16.7777 10.3973 17.1265 9.95345 17.1265H6.6565C6.21268 17.1265 5.86397 16.7777 5.86397 16.3339V6.53818C5.86397 6.09436 6.21268 5.74564 6.6565 5.74564H9.95345C10.3973 5.74564 10.746 6.09436 10.746 6.53818V16.3339ZM18.3543 11.8323C18.3543 12.2761 18.0056 12.6249 17.5935 12.6249H14.2648C13.821 12.6249 13.4723 12.2761 13.4723 11.8323V6.53818C13.4723 6.09436 13.821 5.74564 14.2648 5.74564H17.5618C18.0056 5.74564 18.3543 6.09436 18.3543 6.53818V11.8323Z" fill="#04071E"/>
</svg>
