<svg width="24" height="24" viewBox="0 0 24 24" fill="none" xmlns="http://www.w3.org/2000/svg">
<path fill-rule="evenodd" clip-rule="evenodd" d="M5.81532 12.7754C5.81532 14.1542 6.93261 15.2715 8.3114 15.2715C9.69016 15.2715 10.8075 14.1542 10.8075 12.7754C10.8075 11.3966 9.69016 10.2793 8.3114 10.2793C6.93264 10.2793 5.81532 11.3966 5.81532 12.7754ZM8.3114 14.0838C9.03429 14.0838 9.61977 13.4983 9.61977 12.7754C9.61977 12.0525 9.03429 11.4659 8.3114 11.467C7.58851 11.467 7.00302 12.0525 7.00302 12.7754C7.00302 13.4983 7.58851 14.0838 8.3114 14.0838Z" fill="#04071E"/>
<path d="M9.22983 9.04803C10.8064 9.65027 12.0008 11.0603 12.0008 12.7028C12.0008 11.0603 13.1952 9.65139 14.7706 9.04803C13.9181 8.69159 12.9818 8.49383 11.9997 8.49383C11.0175 8.49383 10.0823 8.69159 9.22983 9.04803Z" fill="#04071E"/>
<path fill-rule="evenodd" clip-rule="evenodd" d="M13.193 12.7754C13.193 14.1542 14.3103 15.2715 15.6891 15.2715C17.0678 15.2715 18.1851 14.1542 18.1851 12.7754C18.1851 11.3966 17.0679 10.2793 15.6891 10.2793C14.3103 10.2793 13.193 11.3966 13.193 12.7754ZM14.3807 12.7743C14.3807 12.0514 14.9662 11.4659 15.6891 11.4659C16.412 11.4659 16.9974 12.0525 16.9974 12.7743C16.9974 13.4972 16.412 14.0827 15.6891 14.0827C14.9662 14.0827 14.3807 13.4972 14.3807 12.7743Z" fill="#04071E"/>
<path fill-rule="evenodd" clip-rule="evenodd" d="M22 12C22 17.5228 17.5228 22 12 22C6.47715 22 2 17.5228 2 12C2 6.47715 6.47715 2 12 2C17.5228 2 22 6.47715 22 12ZM19.3829 8.7363L18.1762 10.0492C18.9159 10.7229 19.3795 11.695 19.3785 12.7754C19.3785 14.8123 17.7248 16.4637 15.688 16.4637C14.7203 16.4637 13.8399 16.0916 13.1818 15.4816L11.9997 16.7676L10.8176 15.4804C10.1595 16.0905 9.27791 16.4637 8.31031 16.4637C6.27343 16.4637 4.62202 14.8123 4.62202 12.7754C4.62202 11.6961 5.0857 10.724 5.82536 10.0492L4.61865 8.7363H7.30133C8.63877 7.82234 10.2522 7.28824 11.9997 7.28824C13.7494 7.28824 15.3673 7.8212 16.7069 8.7363H19.3829Z" fill="#04071E"/>
</svg>
