<svg width="24" height="24" viewBox="0 0 24 24" fill="none" xmlns="http://www.w3.org/2000/svg">
<path d="M12 22C17.5228 22 22 17.5228 22 12C22 6.47715 17.5228 2 12 2C6.47715 2 2 6.47715 2 12C2 17.5228 6.47715 22 12 22Z" fill="#34E0A1"/>
<path d="M18.1764 10.049L19.3831 8.73614H16.7071C15.3674 7.82104 13.7495 7.28809 11.9998 7.28809C10.2523 7.28809 8.63893 7.82219 7.30148 8.73614H4.6188L5.82551 10.049C5.08586 10.7238 4.62217 11.6959 4.62217 12.7753C4.62217 14.8121 6.27359 16.4635 8.31046 16.4635C9.27806 16.4635 10.1596 16.0904 10.8177 15.4803L11.9998 16.7674L13.182 15.4814C13.8401 16.0915 14.7205 16.4635 15.6881 16.4635C17.725 16.4635 19.3786 14.8121 19.3786 12.7753C19.3797 11.6948 18.916 10.7228 18.1764 10.049ZM8.31155 15.2713C6.93276 15.2713 5.81548 14.1541 5.81548 12.7753C5.81548 11.3965 6.93279 10.2792 8.31155 10.2792C9.69031 10.2792 10.8076 11.3965 10.8076 12.7753C10.8076 14.1541 9.69031 15.2713 8.31155 15.2713ZM12.0009 12.7026C12.0009 11.0602 10.8065 9.65012 9.22999 9.04787C10.0825 8.69143 11.0177 8.49367 11.9998 8.49367C12.9819 8.49367 13.9182 8.69143 14.7708 9.04787C13.1954 9.65124 12.0009 11.0602 12.0009 12.7026ZM15.6892 15.2713C14.3104 15.2713 13.1931 14.1541 13.1931 12.7753C13.1931 11.3965 14.3104 10.2792 15.6892 10.2792C17.068 10.2792 18.1853 11.3965 18.1853 12.7753C18.1853 14.1541 17.068 15.2713 15.6892 15.2713ZM15.6892 11.4657C14.9663 11.4657 14.3808 12.0512 14.3808 12.7741C14.3808 13.497 14.9663 14.0825 15.6892 14.0825C16.4121 14.0825 16.9976 13.497 16.9976 12.7741C16.9976 12.0523 16.4121 11.4657 15.6892 11.4657ZM9.61993 12.7753C9.61993 13.4982 9.03444 14.0836 8.31155 14.0836C7.58866 14.0836 7.00318 13.4982 7.00318 12.7753C7.00318 12.0523 7.58866 11.4669 8.31155 11.4669C9.03444 11.4657 9.61993 12.0523 9.61993 12.7753Z" fill="black"/>
</svg>
