<svg width="24" height="24" viewBox="0 0 24 24" fill="none" xmlns="http://www.w3.org/2000/svg">
<path d="M20.2349 2.29395H3.76435C2.95217 2.29395 2.29376 2.95235 2.29376 3.76453V20.2351C2.29376 21.0473 2.95217 21.7057 3.76435 21.7057H20.2349C21.0471 21.7057 21.7055 21.0473 21.7055 20.2351V3.76453C21.7055 2.95235 21.0471 2.29395 20.2349 2.29395Z" fill="black"/>
<path fill-rule="evenodd" clip-rule="evenodd" d="M20.2353 2.58824C20.885 2.58824 21.4118 3.11496 21.4118 3.76471V20.2353C21.4118 20.885 20.885 21.4118 20.2353 21.4118H3.76471C3.11496 21.4118 2.58824 20.885 2.58824 20.2353V3.76471C2.58824 3.11496 3.11496 2.58824 3.76471 2.58824H20.2353ZM20.2353 2H3.76471C2.79009 2 2 2.79009 2 3.76471V20.2353C2 21.2099 2.79009 22 3.76471 22H20.2353C21.2099 22 22 21.2099 22 20.2353V3.76471C22 2.79009 21.2099 2 20.2353 2Z" fill="white"/>
<path fill-rule="evenodd" clip-rule="evenodd" d="M12.0001 6.11768C8.97912 6.11764 6.44925 8.40596 6.14716 11.4118H10.2354V10.5294C10.2354 10.367 10.3671 10.2353 10.5295 10.2353H13.4707C13.6331 10.2353 13.7648 10.367 13.7648 10.5294V13.4706C13.7648 13.6331 13.6331 13.7647 13.4707 13.7647H10.5295C10.3671 13.7647 10.2354 13.6331 10.2354 13.4706V12.5883H6.14716C6.46438 15.7446 9.2273 18.0809 12.3925 17.8693C15.5577 17.6576 17.985 14.9742 17.8791 11.8037C17.7732 8.63319 15.1724 6.11772 12.0001 6.11768Z" fill="white"/>
</svg>
