<svg width="24" height="24" viewBox="0 0 24 24" fill="none" xmlns="http://www.w3.org/2000/svg">
<path fill-rule="evenodd" clip-rule="evenodd" d="M18.5113 10.5948C19.4364 10.5948 20.3236 10.2273 20.9778 9.57321C21.632 8.91911 21.9996 8.03195 21.9997 7.10686C21.9997 6.18168 21.6322 5.2944 20.978 4.64021C20.3238 3.98601 19.4365 3.61848 18.5113 3.61848C17.5861 3.61848 16.6989 3.98601 16.0447 4.64021C15.3905 5.2944 15.0229 6.18168 15.0229 7.10686C15.0231 8.03195 15.3907 8.91911 16.0448 9.57321C16.699 10.2273 17.5862 10.5948 18.5113 10.5948Z" fill="#04071E"/>
<path fill-rule="evenodd" clip-rule="evenodd" d="M18.7442 12.4343L18.2791 12.4552C16.9222 12.4552 15.621 11.9163 14.6615 10.9569C13.702 9.99748 13.1629 8.69626 13.1628 7.33942C13.1628 6.40593 13.413 5.53058 13.8498 4.77709L11.8391 3.68314C11.389 3.43832 10.8847 3.31006 10.3723 3.31006C9.85994 3.31006 9.3557 3.43832 8.90558 3.68314L3.60326 6.56732C3.1182 6.83109 2.71326 7.22081 2.4311 7.69541C2.14894 8.17001 2.00001 8.71193 2 9.26407V14.7227C1.99997 15.2748 2.14883 15.8166 2.4309 16.2912C2.71297 16.7658 3.11782 17.1556 3.60279 17.4194L8.90512 20.3036C9.35523 20.5484 9.85947 20.6767 10.3719 20.6767C10.8842 20.6767 11.3885 20.5484 11.8386 20.3036L17.1409 17.4194C17.626 17.1556 18.0309 16.7659 18.3131 16.2913C18.5952 15.8167 18.7442 15.2748 18.7442 14.7227V12.4343Z" fill="#04071E"/>
</svg>
