<svg width="24" height="24" viewBox="0 0 24 24" fill="none" xmlns="http://www.w3.org/2000/svg">
<path fill-rule="evenodd" clip-rule="evenodd" d="M12 22C17.5231 22 22 17.5231 22 12C22 6.47688 17.5231 2 12 2C6.4775 2 2 6.47688 2 12C2 17.5231 6.4775 22 12 22ZM14.5581 17.5594C17.0031 16.4044 17.77 14.2719 17.9425 13.4406C17.0488 14.3563 16.0594 15.2844 15.3938 14.6419C15.3938 14.6419 15.3575 11.2131 15.3575 9.80688C15.3575 7.91625 17.1506 6.50688 17.1506 6.50688C16.1644 6.68313 14.98 7.03438 13.7231 8.2675C13.61 8.38 13.5025 8.49813 13.4013 8.62188C12.8625 8.20938 12.1638 8.33313 12.1638 8.33313C12.5419 8.54 12.9181 9.14375 12.9181 9.64313V14.5538C12.9181 14.5538 12.0956 15.2769 11.4619 15.2769C11.3191 15.2779 11.1781 15.2448 11.0507 15.1803C10.9233 15.1158 10.8132 15.0219 10.7294 14.9063C10.6794 14.8406 10.638 14.7687 10.6063 14.6925V8.62625C10.4188 8.78063 9.78563 8.9075 9.78563 7.8575C9.78563 7.20375 10.2556 6.42625 11.0938 5.94875C9.94343 6.12385 8.86599 6.62042 7.98563 7.38125C7.31687 7.95911 6.78202 8.67572 6.41828 9.48124C6.05454 10.2868 5.87064 11.1618 5.87937 12.0456C5.87937 12.0456 6.49188 10.1319 7.25875 9.955C7.37057 9.92568 7.48768 9.92285 7.60078 9.94674C7.71389 9.97062 7.81986 10.0206 7.91027 10.0926C8.00068 10.1646 8.07305 10.2567 8.12161 10.3616C8.17017 10.4666 8.19359 10.5813 8.19 10.6969V15.1919C8.19 15.6475 7.89625 15.7469 7.62438 15.7419C7.44042 15.729 7.25857 15.6948 7.0825 15.64C7.64298 16.3983 8.37119 17.0168 9.21024 17.4471C10.0493 17.8774 10.9765 18.1079 11.9194 18.1206L13.5756 16.455L14.5581 17.5594Z" fill="#04071E"/>
</svg>
