<svg width="24" height="24" viewBox="0 0 24 24" fill="none" xmlns="http://www.w3.org/2000/svg">
<path d="M17.4647 6.82327C15.3209 6.83359 13.6916 8.25139 13.0816 10.5108C12.0581 8.93576 11.2597 7.13421 10.8019 5.61328L8.54565 5.62391L8.5769 11.6045C8.57824 11.8861 8.5241 12.1651 8.41758 12.4258C8.31107 12.6864 8.15426 12.9235 7.95611 13.1235C7.75796 13.3236 7.52235 13.4826 7.26273 13.5916C7.00311 13.7006 6.72457 13.7574 6.44301 13.7587C5.87437 13.7614 5.32796 13.5381 4.92396 13.1379C4.72393 12.9398 4.56488 12.7041 4.4559 12.4445C4.34692 12.1849 4.29014 11.9064 4.2888 11.6248L4.25755 5.64422L2.00007 5.65516L2.03132 11.6361C2.04007 14.1179 4.02318 16.0845 6.45004 16.072C8.8769 16.0595 10.8422 14.0764 10.8313 11.5939L10.8266 10.5782C11.2816 11.4782 11.8503 12.4345 12.4753 13.2782L11.0956 19.8857L13.4081 19.8751L14.4019 15.0745C15.3069 15.6348 16.3237 15.9682 17.5081 15.9626C19.9906 15.9517 22.0124 13.9117 21.9999 11.3157C21.9887 8.83264 19.9475 6.81171 17.465 6.82296L17.4647 6.82327ZM17.4968 13.6501C16.5944 13.6542 15.69 13.2639 14.9537 12.646L15.175 11.7398V11.6829C15.34 10.7223 15.8394 9.0842 17.5318 9.0767C18.1299 9.07561 18.7041 9.31123 19.129 9.7321C19.5539 10.153 19.795 10.7249 19.7996 11.3229C19.7487 12.6207 18.6818 13.6417 17.4965 13.647L17.4968 13.6501Z" fill="#14A800"/>
</svg>
