<svg width="24" height="24" viewBox="0 0 24 24" fill="none" xmlns="http://www.w3.org/2000/svg">
<path fill-rule="evenodd" clip-rule="evenodd" d="M5 2H19C20.6569 2 22 3.34315 22 5V19C22 20.6569 20.6569 22 19 22H5C3.34315 22 2 20.6569 2 19V5C2 3.34315 3.34315 2 5 2ZM14.1016 12.8594C14.6641 13.3164 15.2891 13.5977 15.9531 13.5977C16.8516 13.5977 17.582 12.8711 17.582 11.9727C17.582 11.0742 16.8516 10.3438 15.9531 10.3438C14.7539 10.3438 14.3672 11.5 14.2422 12.1875L14.2383 12.2109L14.1016 12.8594ZM12.7539 11.3242C13.2383 9.6875 14.4219 8.69531 15.9531 8.69531C17.7578 8.69531 19.2227 10.1641 19.2188 11.9648C19.2188 13.7734 17.75 15.25 15.9453 15.25C15.1016 15.25 14.3672 14.9922 13.7266 14.582L12.9961 18.0195H11.3125L12.3203 13.2773C11.8438 12.6836 11.4531 12.0078 11.1328 11.3398V12.0586C11.1328 13.8125 9.70703 15.2539 7.95312 15.2539C6.19922 15.2539 4.77344 13.8125 4.77344 12.0586V7.77344H6.41797V12.0625C6.41797 12.9102 7.10547 13.5977 7.95312 13.5977C8.80078 13.5977 9.48828 12.9102 9.48828 12.0625V7.77734H11.1367C11.4609 8.89453 12.0195 10.2188 12.7539 11.3242Z" fill="#04071E"/>
</svg>
