<svg width="24" height="24" viewBox="0 0 24 24" fill="none" xmlns="http://www.w3.org/2000/svg">
<path d="M17.4647 6.82303C15.3209 6.83334 13.6916 8.25115 13.0816 10.5105C12.0581 8.93552 11.2597 7.13397 10.8019 5.61304L8.54565 5.62366L8.5769 11.6042C8.57824 11.8858 8.5241 12.1649 8.41758 12.4255C8.31107 12.6862 8.15426 12.9233 7.95611 13.1233C7.75796 13.3233 7.52235 13.4824 7.26273 13.5914C7.00311 13.7003 6.72457 13.7571 6.44301 13.7585C5.87437 13.7611 5.32796 13.5378 4.92396 13.1377C4.72393 12.9395 4.56488 12.7039 4.4559 12.4443C4.34692 12.1847 4.29014 11.9061 4.2888 11.6246L4.25755 5.64397L2.00007 5.65491L2.03132 11.6358C2.04007 14.1177 4.02318 16.0842 6.45004 16.0717C8.8769 16.0592 10.8422 14.0761 10.8313 11.5936L10.8266 10.578C11.2816 11.478 11.8503 12.4342 12.4753 13.278L11.0956 19.8854L13.4081 19.8748L14.4019 15.0742C15.3069 15.6345 16.3237 15.968 17.5081 15.9623C19.9906 15.9514 22.0124 13.9114 21.9999 11.3155C21.9887 8.83239 19.9471 6.81178 17.4647 6.82303ZM17.4968 13.6499C16.5944 13.6539 15.69 13.2636 14.9537 12.6458L15.175 11.7396V11.6827C15.34 10.7221 15.8394 9.08395 17.5318 9.07645C18.1299 9.07536 18.7041 9.31098 19.129 9.73185C19.5539 10.1527 19.795 10.7246 19.7996 11.3227C19.7487 12.6205 18.6818 13.6414 17.4965 13.6467L17.4968 13.6499Z" fill="#04071E"/>
</svg>
