<svg width="24" height="24" viewBox="0 0 24 24" fill="none" xmlns="http://www.w3.org/2000/svg">
<path d="M19.7651 3.60909C19.2391 3.14372 17.1351 1.61072 12.401 1.58335C12.401 1.58335 6.83647 1.25484 4.12339 3.71859C2.60074 5.22421 2.07474 7.38684 2.01937 10.097C1.964 12.8071 1.88095 17.8715 6.83647 19.2676V21.3754C6.83647 21.3754 6.80879 22.2241 7.36248 22.3883C8.05459 22.6073 8.44217 21.9503 9.10659 21.2659C9.46649 20.8827 9.96481 20.3352 10.3247 19.8972C13.7022 20.1709 16.3046 19.5413 16.6091 19.4318C17.3012 19.2128 21.1493 18.7201 21.7861 13.6557C22.4505 8.39972 21.5092 5.08734 19.7651 3.60909ZM20.3465 13.2451C19.8205 17.4882 16.6921 17.7619 16.1108 17.9262C15.8616 18.0083 13.5915 18.5558 10.7123 18.3916C10.7123 18.3916 8.58059 20.9374 7.88848 21.6218C7.77774 21.7313 7.667 21.7587 7.58395 21.7587C7.47321 21.7313 7.44553 21.5944 7.44553 21.4028C7.44553 21.1291 7.47321 17.8988 7.47321 17.8988C3.29286 16.7491 3.54202 12.4238 3.5697 10.1517C3.62507 7.87959 4.04034 6.04546 5.31383 4.78621C7.61164 2.73309 12.3457 3.03422 12.3457 3.03422C16.3322 3.06159 18.2425 4.23871 18.6854 4.64934C20.125 5.90859 20.8725 8.89247 20.3465 13.2451Z" fill="#04071E"/>
<path d="M11.8474 5.31633C11.7001 5.31633 11.5806 5.43442 11.5806 5.58009C11.5806 5.72576 11.7001 5.84385 11.8474 5.84385C13.2768 5.84385 14.4548 6.31244 15.399 7.22013C16.3355 8.12047 16.8409 9.36185 16.8409 10.9732C16.8409 11.1188 16.9603 11.2369 17.1076 11.2369C17.2549 11.2369 17.3744 11.1188 17.3744 10.9732C17.3744 9.24461 16.8277 7.85789 15.7709 6.84191C14.7217 5.83328 13.408 5.31633 11.8474 5.31633Z" fill="#04071E"/>
<path d="M12.1075 6.90071C12.119 6.75549 12.2475 6.64706 12.3944 6.65853C13.4985 6.74472 14.3977 7.12201 15.0617 7.83828C15.6932 8.52224 16.0194 9.41189 15.9899 10.4331C15.9857 10.5787 15.8629 10.6934 15.7157 10.6892C15.5684 10.6851 15.4525 10.5637 15.4567 10.4181C15.4825 9.52308 15.1994 8.76985 14.6682 8.19453C14.1141 7.59688 13.3522 7.26246 12.3524 7.18441C12.2055 7.17294 12.0959 7.04593 12.1075 6.90071Z" fill="#04071E"/>
<path d="M12.4669 8.33073C12.4748 8.18527 12.6005 8.07373 12.7476 8.08159C13.3045 8.11136 13.7647 8.27781 14.0917 8.61376C14.4172 8.94816 14.5756 9.41453 14.6054 9.97366C14.6131 10.1191 14.5001 10.2433 14.353 10.2509C14.2059 10.2586 14.0804 10.1469 14.0726 10.0014C14.047 9.52023 13.9147 9.1927 13.7073 8.97958C13.5014 8.76801 13.1863 8.63333 12.7188 8.60834C12.5717 8.60048 12.4589 8.47619 12.4669 8.33073Z" fill="#04071E"/>
<path d="M12.7886 13.5188C12.7886 13.5188 13.1762 13.5462 13.37 13.2998L13.7576 12.8071C13.9514 12.5607 14.3943 12.3965 14.865 12.6428C15.1141 12.7797 15.5571 13.0535 15.8339 13.2725C16.1385 13.4915 16.7475 13.9842 16.7475 13.9842C17.052 14.2306 17.1074 14.5865 16.9136 14.9697C16.7198 15.3256 16.443 15.6541 16.0831 15.9552C15.8062 16.2016 15.5294 16.3111 15.2526 16.3658H15.1418C15.0311 16.3658 14.8927 16.3385 14.7819 16.3111C14.3666 16.2016 13.6745 15.9005 12.4841 15.2708C11.7366 14.8602 11.0999 14.4222 10.5739 14.0116C10.297 13.7926 9.99251 13.5462 9.71566 13.2451L9.60492 13.1356C9.3004 12.8345 9.05123 12.5607 8.82976 12.287C8.41449 11.7668 7.97154 11.1372 7.55627 10.3981C6.91953 9.24834 6.615 8.56397 6.50426 8.12597C6.47658 8.01647 6.44889 7.90697 6.44889 7.7701V7.66059C6.47657 7.38684 6.615 7.11309 6.86416 6.83934C7.16869 6.51084 7.5009 6.23709 7.8608 6.01809C8.24838 5.82647 8.60828 5.88122 8.85744 6.18234C8.85744 6.18234 9.35576 6.7846 9.57724 7.08572C9.77103 7.35947 10.0479 7.79747 10.214 8.04385C10.4631 8.48185 10.297 8.94722 10.0756 9.13884L9.57724 9.52209C9.32808 9.71372 9.35576 10.097 9.35576 10.097C9.35576 10.097 10.0479 12.8071 12.7886 13.5188Z" fill="#04071E"/>
</svg>
