<svg width="24" height="24" viewBox="0 0 24 24" fill="none" xmlns="http://www.w3.org/2000/svg">
<path d="M2 11.5833C2 7.066 2 4.80667 3.40333 3.40333C4.80667 2 7.06667 2 11.5833 2H12.4167C16.934 2 19.1933 2 20.5967 3.40333C22 4.80667 22 7.06667 22 11.5833V12.4167C22 16.934 22 19.1933 20.5967 20.5967C19.1933 22 16.9333 22 12.4167 22H11.5833C7.066 22 4.80667 22 3.40333 20.5967C2 19.1933 2 16.9333 2 12.4167V11.5833Z" fill="#2787F5"/>
<path fill-rule="evenodd" clip-rule="evenodd" d="M7.41662 8.25H5.95862C5.54195 8.25 5.45862 8.446 5.45862 8.66267C5.45862 9.04867 5.95262 10.9647 7.76062 13.498C8.96528 15.2287 10.6633 16.1667 12.208 16.1667C13.1353 16.1667 13.25 15.958 13.25 15.6V14.292C13.25 13.8753 13.338 13.792 13.6313 13.792C13.848 13.792 14.218 13.9 15.084 14.734C16.0726 15.7233 16.2353 16.1667 16.7913 16.1667H18.25C18.6666 16.1667 18.8753 15.958 18.7546 15.5467C18.6233 15.1373 18.1513 14.5427 17.5246 13.838C17.1846 13.4367 16.6753 13.004 16.5206 12.7873C16.304 12.5093 16.366 12.386 16.5206 12.1387C16.5206 12.1387 18.2973 9.636 18.4826 8.786C18.576 8.47733 18.4826 8.25 18.0413 8.25H16.5833C16.2126 8.25 16.0413 8.446 15.9486 8.66267C15.9486 8.66267 15.2073 10.47 14.1566 11.644C13.8166 11.984 13.662 12.0927 13.4766 12.0927C13.384 12.0927 13.25 11.984 13.25 11.6753V8.786C13.25 8.41533 13.1426 8.25 12.8333 8.25H10.5413C10.31 8.25 10.1706 8.422 10.1706 8.58533C10.1706 8.93667 10.696 9.018 10.75 10.0067V12.154C10.75 12.6253 10.6653 12.7107 10.4793 12.7107C9.98528 12.7107 8.78262 10.8947 8.06928 8.81733C7.92928 8.41333 7.78928 8.25 7.41662 8.25Z" fill="white"/>
</svg>
