<svg width="24" height="24" viewBox="0 0 24 24" fill="none" xmlns="http://www.w3.org/2000/svg">
<path d="M1 23L2.55413 17.351C1.59401 15.6939 1.08969 13.814 1.09201 11.901C1.09454 5.89011 6.00807 1 12.0461 1C14.9761 1.00148 17.7263 2.13664 19.7947 4.19723C21.863 6.25782 23.001 8.99678 23 11.9097C22.9973 17.9202 18.083 22.8112 12.0459 22.8112H12.0412C10.208 22.8104 8.40678 22.3526 6.8068 21.4841L1 23Z" fill="white"/>
<path d="M12.0494 2.84155C7.02734 2.84155 2.9432 6.90597 2.94142 11.9017C2.93894 13.6077 3.42149 15.2794 4.33327 16.7238L4.54988 17.0665L3.62997 20.41L7.07588 19.5105L7.40862 19.7067C8.80613 20.5324 10.4085 20.9691 12.0426 20.97H12.046C17.0642 20.97 21.1483 16.9052 21.1503 11.9092C21.1541 10.7184 20.9205 9.53864 20.4632 8.43831C20.0059 7.33797 19.3339 6.33886 18.4861 5.49884C17.643 4.65419 16.64 3.98442 15.5351 3.5283C14.4303 3.07217 13.2455 2.83875 12.0494 2.84155Z" fill="url(#paint0_linear_98_73)"/>
<path fill-rule="evenodd" clip-rule="evenodd" d="M9.30822 7.34361C9.10307 6.88993 8.8872 6.88074 8.69232 6.87289L8.16768 6.86652C7.98515 6.86652 7.68859 6.93469 7.43788 7.2074C7.18717 7.48011 6.47986 8.13921 6.47986 9.47979C6.47986 10.8204 7.46066 12.1157 7.59733 12.2977C7.734 12.4797 9.49075 15.3185 12.2728 16.4106C14.5847 17.3183 15.0552 17.1378 15.5572 17.0924C16.0592 17.0471 17.1765 16.4333 17.4045 15.797C17.6324 15.1608 17.6325 14.6156 17.5642 14.5017C17.4959 14.3877 17.3133 14.32 17.0394 14.1836C16.7655 14.0472 15.4201 13.3881 15.1692 13.2971C14.9184 13.2061 14.736 13.1609 14.5533 13.4336C14.3706 13.7064 13.8467 14.3198 13.687 14.5017C13.5272 14.6835 13.3678 14.7063 13.0939 14.5701C12.8199 14.4339 11.9386 14.1461 10.8929 13.2178C10.0793 12.4956 9.53005 11.6037 9.37016 11.3311C9.21026 11.0585 9.35318 10.9109 9.49045 10.7752C9.61327 10.653 9.76408 10.457 9.9012 10.2979C10.0383 10.1389 10.0834 10.0252 10.1745 9.84365C10.2657 9.66209 10.2202 9.50262 10.1518 9.36641C10.0833 9.2302 9.55149 7.88251 9.30822 7.34361Z" fill="white"/>
<defs>
<linearGradient id="paint0_linear_98_73" x1="11.8605" y1="3.92942" x2="11.952" y2="19.4213" gradientUnits="userSpaceOnUse">
<stop stop-color="#57D163"/>
<stop offset="1" stop-color="#23B33A"/>
</linearGradient>
</defs>
</svg>
