<svg width="24" height="24" viewBox="0 0 24 24" fill="none" xmlns="http://www.w3.org/2000/svg">
<path d="M3.4213 11.9993C3.4213 15.3948 5.39457 18.3292 8.25598 19.7197L4.16399 8.50818C3.68801 9.57505 3.4213 10.7557 3.4213 11.9993Z" fill="#21759B"/>
<path d="M17.7909 11.5665C17.7909 10.5064 17.4101 9.77215 17.0834 9.20068C16.6486 8.49406 16.241 7.89567 16.241 7.18905C16.241 6.40049 16.8391 5.66644 17.6815 5.66644C17.7195 5.66644 17.7556 5.67118 17.7927 5.6733C16.2665 4.27508 14.2331 3.42139 11.9998 3.42139C9.00294 3.42139 6.36629 4.95901 4.83243 7.28796C5.03369 7.294 5.22336 7.29825 5.38447 7.29825C6.28174 7.29825 7.67066 7.18937 7.67066 7.18937C8.13309 7.16211 8.18761 7.84131 7.72567 7.89599C7.72567 7.89599 7.26095 7.95067 6.74384 7.97777L9.86773 17.2696L11.745 11.6393L10.4085 7.97744C9.94657 7.95035 9.50895 7.89567 9.50895 7.89567C9.04668 7.86857 9.10087 7.16179 9.56314 7.18905C9.56314 7.18905 10.9798 7.29792 11.8227 7.29792C12.7198 7.29792 14.1089 7.18905 14.1089 7.18905C14.5717 7.16179 14.626 7.84098 14.1639 7.89567C14.1639 7.89567 13.6982 7.95035 13.1821 7.97744L16.2821 17.1989L17.1378 14.3396C17.5087 13.1531 17.7909 12.3009 17.7909 11.5665Z" fill="#21759B"/>
<path d="M12.1503 12.7498L9.57651 20.2288C10.345 20.4547 11.1577 20.5782 11.9998 20.5782C12.9988 20.5782 13.9568 20.4055 14.8485 20.092C14.8255 20.0552 14.8046 20.0162 14.7874 19.9738L12.1503 12.7498Z" fill="#21759B"/>
<path d="M19.5267 7.88367C19.5636 8.15691 19.5845 8.45024 19.5845 8.76576C19.5845 9.63626 19.4219 10.6148 18.9322 11.8384L16.3119 19.4143C18.8622 17.9272 20.5776 15.1642 20.5776 11.9995C20.5778 10.5081 20.1968 9.1056 19.5267 7.88367Z" fill="#21759B"/>
<path d="M11.9998 1.99988C6.48603 1.99988 2 6.48558 2 11.9993C2 17.5137 6.48603 21.9992 11.9998 21.9992C17.5133 21.9992 22 17.5137 22 11.9993C21.9998 6.48558 17.5133 1.99988 11.9998 1.99988ZM11.9998 21.5409C6.73887 21.5409 2.45851 17.2605 2.45851 11.9993C2.45851 6.73843 6.73871 2.45839 11.9998 2.45839C17.2605 2.45839 21.5405 6.73843 21.5405 11.9993C21.5405 17.2605 17.2605 21.5409 11.9998 21.5409Z" fill="#21759B"/>
</svg>
