<svg width="24" height="24" viewBox="0 0 24 24" fill="none" xmlns="http://www.w3.org/2000/svg">
<path d="M11.0084 21.971C9.46848 21.8235 7.90953 21.2706 6.57036 20.3968C5.44819 19.6649 5.19495 19.3636 5.19495 18.763C5.19495 17.5565 6.52157 15.4429 8.79146 13.0341C10.0802 11.6657 11.8757 10.0626 12.0697 10.1058C12.4475 10.1901 15.4655 13.134 16.5955 14.5201C18.3822 16.711 19.2032 18.5056 18.786 19.3055C18.4688 19.9135 16.5005 21.1021 15.0547 21.5587C13.8628 21.935 12.2976 22.0944 11.0084 21.971ZM3.6792 17.5086C2.74662 16.0779 2.27545 14.6695 2.04822 12.6324C1.97295 11.9598 1.99943 11.5753 2.21852 10.1943C2.49105 8.47504 3.4708 6.48395 4.64873 5.25955C5.1501 4.73913 5.19471 4.72519 5.80621 4.93196C6.54736 5.18288 7.33961 5.73026 8.56866 6.84174L9.28656 7.49088L8.89392 7.97181C7.07522 10.2045 5.15568 13.3712 4.43312 15.3298C4.04048 16.3939 3.88249 17.4626 4.0521 17.9075C4.16594 18.2082 4.06139 18.0962 3.67804 17.5093L3.6792 17.5086ZM20.0478 17.7519C20.14 17.3021 20.0234 16.4764 19.7504 15.6432C19.1591 13.8392 17.1822 10.4831 15.367 8.20112L14.7954 7.48275L15.4139 6.91516C16.221 6.17402 16.7814 5.73026 17.3864 5.35318C17.8634 5.0558 18.5453 4.79256 18.8385 4.79256C19.019 4.79256 19.6554 5.45471 20.1688 6.17494C20.9643 7.29014 21.5493 8.64465 21.8458 10.0526C22.0375 10.9633 22.0535 12.9103 21.8767 13.8187C21.7303 14.564 21.4237 15.5301 21.1263 16.1855C20.9009 16.6764 20.3456 17.6301 20.1017 17.9405C19.9762 18.1001 19.9762 18.0999 20.0459 17.7556L20.0478 17.7519ZM11.1733 4.45196C10.3355 4.02679 9.04331 3.57026 8.32958 3.44712C8.07959 3.40414 7.6528 3.37974 7.38167 3.39368C6.79247 3.42342 6.81872 3.39275 7.76339 2.94644C8.54868 2.57541 9.20385 2.35725 10.0937 2.17045C11.0939 1.96019 12.9746 1.95786 13.959 2.16534C15.0219 2.38954 16.274 2.85537 16.9794 3.28983L17.1894 3.41854L16.7084 3.39438C15.7522 3.34606 14.3586 3.73243 12.8624 4.46009C12.4112 4.67988 12.019 4.85506 11.9902 4.85041C11.9616 4.84484 11.5948 4.66571 11.1733 4.45196Z" fill="#04071E"/>
</svg>
