<svg width="24" height="24" viewBox="0 0 24 24" fill="none" xmlns="http://www.w3.org/2000/svg">
<path fill-rule="evenodd" clip-rule="evenodd" d="M12 2C15.3154 2 18.0285 2.21008 19.9154 4.08969C21.8061 5.97391 22 8.68965 22 12.0097C22 15.3261 21.8082 18.0394 19.9217 19.9243C18.0357 21.8093 15.3193 22 12 22C8.68074 22 5.96387 21.8093 4.07789 19.9243C2.19129 18.0397 2 15.3261 2 12.0097C2 8.69391 2.19129 5.98109 4.07711 4.09719C5.9632 2.2125 8.68039 2 12 2ZM17.9292 8.31899C17.9292 8.25086 17.872 8.19551 17.8033 8.19551H16.1824C16.1128 8.19551 16.0563 8.2509 16.0563 8.31899V15.7169C16.0563 15.7839 16.1128 15.8395 16.1824 15.8395H17.8033C17.872 15.8395 17.9292 15.7839 17.9292 15.7169V8.31899ZM13.9009 8.88258C13.2703 8.25157 11.9918 8.19551 10.769 8.19551H6.08988C6.02055 8.19551 5.96484 8.2509 5.96484 8.31899V15.7169C5.96484 15.7839 6.02059 15.8395 6.08988 15.8395H7.7116C7.78094 15.8395 7.83805 15.7839 7.83805 15.7169V9.91043C7.83805 9.84336 7.89445 9.78793 7.96336 9.78793H10.9012C11.4788 9.80211 12.0343 9.87047 12.3319 10.1689C12.6777 10.5159 12.7163 11.2051 12.718 11.8757V15.7168C12.718 15.7838 12.7747 15.8395 12.8441 15.8395H14.4648C14.5341 15.8395 14.5906 15.7838 14.5906 15.7168V11.9406C14.588 10.74 14.5209 9.50356 13.9009 8.88258ZM11.2568 11.2647C11.2568 11.1971 11.2008 11.1419 11.1318 11.1419H9.4293C9.3593 11.1419 9.3032 11.1971 9.3032 11.2647V15.7169C9.3032 15.7839 9.3593 15.8395 9.4293 15.8395H11.1318C11.2007 15.8395 11.2568 15.7839 11.2568 15.7169V11.2647Z" fill="#04071E"/>
</svg>
