<svg width="24" height="24" viewBox="0 0 24 24" fill="none" xmlns="http://www.w3.org/2000/svg">
<path fill-rule="evenodd" clip-rule="evenodd" d="M22 12C22 17.5228 17.5228 22 12 22C6.47715 22 2 17.5228 2 12C2 6.47715 6.47715 2 12 2C17.5228 2 22 6.47715 22 12ZM5.58398 13.5686V8.86918C5.58432 8.82314 5.59373 8.77763 5.61169 8.73525C5.62966 8.69286 5.65581 8.65444 5.68865 8.62219C5.7215 8.58993 5.76039 8.56448 5.80309 8.54729C5.84579 8.5301 5.89147 8.52151 5.9375 8.52201H12.7855C13.2952 8.51999 13.7849 8.72041 14.1469 9.07924C14.5089 9.43807 14.7136 9.92594 14.7161 10.4356V15.1351C14.7154 15.2277 14.678 15.3162 14.6122 15.3813C14.5463 15.4464 14.4573 15.4827 14.3647 15.4822H7.51455C7.00485 15.4842 6.51519 15.2838 6.15318 14.925C5.79118 14.5662 5.58645 14.0783 5.58398 13.5686ZM17.9803 8.63632L15.1521 10.7024V13.3061L17.9803 15.3675C18.1835 15.5203 18.4163 15.5711 18.4163 15.152V8.85224C18.4163 8.48391 18.2258 8.43268 17.9803 8.63632Z" fill="#04071E"/>
</svg>
