<svg width="24" height="24" viewBox="0 0 24 24" fill="none" xmlns="http://www.w3.org/2000/svg">
<path fill-rule="evenodd" clip-rule="evenodd" d="M16.7245 2.65669C18.8537 2.97139 20.6498 4.59545 20.9271 6.65627C21.0479 7.88199 20.9881 9.72367 20.959 10.6189C20.9518 10.8417 20.9464 11.0059 20.9463 11.0874C20.9463 11.2077 20.9288 12.3061 20.9219 12.422C20.7353 15.3667 18.8991 16.5296 16.9695 16.9001C16.9487 16.9064 16.9251 16.911 16.901 16.9157C16.8948 16.9169 16.8886 16.9181 16.8824 16.9193C15.6591 17.1582 14.3486 17.2218 13.1053 17.2567C12.808 17.2645 12.5115 17.2645 12.2142 17.2645C10.978 17.2649 9.74611 17.1186 8.54441 16.8287C8.53804 16.827 8.53137 16.8269 8.52494 16.8283C8.5185 16.8297 8.51252 16.8326 8.50741 16.8368C8.50231 16.8409 8.49826 16.8462 8.49561 16.8522C8.49295 16.8582 8.49174 16.8648 8.4921 16.8714C8.52606 17.2626 8.61107 17.6477 8.74495 18.0169C8.91146 18.444 9.49303 19.4701 11.6553 19.4701C12.9118 19.4724 14.1641 19.3261 15.3862 19.0342C15.3924 19.0328 15.3989 19.0327 15.405 19.0341C15.4113 19.0355 15.4171 19.0382 15.4221 19.0422C15.4271 19.0461 15.4312 19.0511 15.4341 19.0568C15.4369 19.0625 15.4384 19.0688 15.4385 19.0752V20.5205C15.4383 20.5273 15.4365 20.534 15.4333 20.54C15.4302 20.5461 15.4257 20.5513 15.4202 20.5554C15.0381 20.8323 14.5243 20.9951 14.0743 21.1377C14.054 21.1441 14.0338 21.1505 14.0138 21.1569C13.8092 21.2214 13.602 21.2781 13.3921 21.3269C11.4847 21.7613 9.49397 21.6562 7.64286 21.0235C5.91388 20.4168 4.14916 18.9296 3.71321 17.1425C3.4804 16.1749 3.31637 15.192 3.22234 14.2012C3.12353 13.1178 3.09052 12.0325 3.05746 10.9457C3.04501 10.5363 3.03255 10.1267 3.01657 9.71696C2.97559 8.67262 2.99913 7.53412 3.21972 6.50719C3.67834 4.42198 5.56861 2.96267 7.6385 2.65669C7.68104 2.65039 7.72803 2.64213 7.78306 2.63245C8.19271 2.56039 9.04778 2.40999 11.828 2.40999H11.8515C15.0043 2.40999 16.3653 2.60352 16.7245 2.65669ZM17.8707 14.0914V8.97162C17.8713 7.92495 17.6047 7.09387 17.0711 6.47843C16.5184 5.86384 15.7956 5.54828 14.8992 5.54828C13.8625 5.54828 13.0778 5.94752 12.5547 6.74517L12.049 7.59252L11.5442 6.74517C11.021 5.94752 10.2363 5.54828 9.1979 5.54828C8.30072 5.54828 7.57792 5.86384 7.02687 6.47843C6.49269 7.09446 6.22559 7.92551 6.22559 8.97162V14.0914H8.25362V9.12244C8.25362 8.07633 8.69394 7.54283 9.57542 7.54283C10.5502 7.54283 11.0394 8.17397 11.0394 9.42058V12.1404H13.056V9.42058C13.056 8.17397 13.5443 7.54283 14.5191 7.54283C15.4058 7.54283 15.8418 8.07633 15.8418 9.12244V14.0914H17.8707Z" fill="#04071E"/>
</svg>
