<svg width="24" height="24" viewBox="0 0 24 24" fill="none" xmlns="http://www.w3.org/2000/svg">
<path d="M20.6812 10.1859C21.141 8.82399 20.9827 7.33208 20.2473 6.09331C19.1413 4.19326 16.9181 3.21574 14.7468 3.67575C13.7808 2.60198 12.393 1.99134 10.9381 2.00009C8.71859 1.99509 6.74932 3.40512 6.0665 5.48892C4.6407 5.77705 3.40998 6.65769 2.6898 7.90584C1.57563 9.80088 1.82963 12.1897 3.31814 13.8147C2.85828 15.1766 3.01664 16.6685 3.75202 17.9073C4.85796 19.8073 7.08123 20.7849 9.25255 20.3249C10.2179 21.3986 11.6063 22.0093 13.0612 21.9999C15.282 22.0055 17.2519 20.5942 17.9347 18.5086C19.3605 18.2204 20.5912 17.3398 21.3114 16.0916C22.4243 14.1966 22.1697 11.8097 20.6818 10.1846L20.6812 10.1859ZM13.0625 20.693C12.1738 20.6942 11.313 20.3874 10.6309 19.8255C10.6619 19.8092 10.7157 19.7798 10.7506 19.7586L14.7867 17.4585C14.9931 17.3429 15.1198 17.126 15.1186 16.8917V11.2772L16.8243 12.2491C16.8427 12.2578 16.8547 12.2753 16.8573 12.2953V16.9448C16.8547 19.0123 15.1578 20.6886 13.0625 20.693ZM4.90166 17.2535C4.45638 16.4948 4.29612 15.6054 4.44878 14.7422C4.47855 14.7597 4.53112 14.7916 4.56849 14.8129L8.60458 17.1129C8.80917 17.231 9.06253 17.231 9.26776 17.1129L14.1951 14.3054V16.2491C14.1963 16.2691 14.1868 16.2885 14.171 16.301L10.0912 18.6254C8.27394 19.658 5.95312 19.0442 4.9023 17.2535H4.90166ZM3.83943 8.56023C4.28282 7.80022 4.98274 7.21895 5.81631 6.91707C5.81631 6.95145 5.81441 7.01207 5.81441 7.05458V11.6553C5.81314 11.8891 5.93982 12.1059 6.14568 12.2216L11.073 15.0285L9.3672 16.0004C9.3501 16.0116 9.32856 16.0135 9.30956 16.0054L5.22914 13.6791C3.41568 12.6428 2.79368 10.3534 3.8388 8.56086L3.83943 8.56023ZM17.8543 11.7784L12.927 8.97087L14.6327 7.9996C14.6498 7.98835 14.6714 7.98647 14.6904 7.9946L18.7708 10.319C20.5874 11.3547 21.2101 13.6478 20.1605 15.4404C19.7165 16.1991 19.0172 16.7804 18.1843 17.0829V12.3447C18.1862 12.1109 18.0601 11.8947 17.8549 11.7784H17.8543ZM19.5518 9.25712C19.522 9.239 19.4695 9.20775 19.4321 9.1865L15.396 6.88645C15.1914 6.76832 14.938 6.76832 14.7328 6.88645L9.80552 9.69401V7.75022C9.80425 7.73022 9.81376 7.71084 9.82959 7.69834L13.9094 5.37579C15.7266 4.34139 18.05 4.95703 19.0976 6.75082C19.5404 7.50834 19.7006 8.39523 19.5505 9.25712H19.5518ZM8.87821 12.7216L7.1718 11.7497C7.15343 11.7409 7.1414 11.7234 7.13887 11.7034V7.05395C7.14013 4.98391 8.84211 3.30637 10.94 3.30762C11.8274 3.30762 12.6863 3.61513 13.3685 4.17514C13.3374 4.19139 13.2842 4.22077 13.2487 4.24202L9.21265 6.54206C9.00616 6.65769 8.87948 6.87395 8.88074 7.10833L8.87821 12.7203V12.7216ZM9.80489 10.7503L11.9997 9.49963L14.1944 10.7497V13.2503L11.9997 14.5004L9.80489 13.2503V10.7503Z" fill="#04071E"/>
</svg>
