<svg width="24" height="24" viewBox="0 0 24 24" fill="none" xmlns="http://www.w3.org/2000/svg">
<path d="M12 22C17.5228 22 22 17.5228 22 12C22 6.47715 17.5228 2 12 2C6.47715 2 2 6.47715 2 12C2 17.5228 6.47715 22 12 22Z" fill="#7D2AE7"/>
<path d="M12 22C17.5228 22 22 17.5228 22 12C22 6.47715 17.5228 2 12 2C6.47715 2 2 6.47715 2 12C2 17.5228 6.47715 22 12 22Z" fill="url(#paint0_radial_106_84)"/>
<path d="M12 22C17.5228 22 22 17.5228 22 12C22 6.47715 17.5228 2 12 2C6.47715 2 2 6.47715 2 12C2 17.5228 6.47715 22 12 22Z" fill="url(#paint1_radial_106_84)"/>
<path d="M12 22C17.5228 22 22 17.5228 22 12C22 6.47715 17.5228 2 12 2C6.47715 2 2 6.47715 2 12C2 17.5228 6.47715 22 12 22Z" fill="url(#paint2_radial_106_84)"/>
<path d="M12 22C17.5228 22 22 17.5228 22 12C22 6.47715 17.5228 2 12 2C6.47715 2 2 6.47715 2 12C2 17.5228 6.47715 22 12 22Z" fill="url(#paint3_radial_106_84)"/>
<path d="M16.3172 14.0513C16.2346 14.0513 16.162 14.121 16.0864 14.2732C15.2329 16.0038 13.7588 17.2284 12.053 17.2284C10.0806 17.2284 8.85912 15.4478 8.85912 12.988C8.85912 8.82137 11.1807 6.41229 13.2198 6.41229C14.1726 6.41229 14.7545 7.01108 14.7545 7.96397C14.7545 9.09491 14.112 9.6937 14.112 10.0926C14.112 10.2716 14.2234 10.38 14.4442 10.38C15.3315 10.38 16.3728 9.36049 16.3728 7.9202C16.3728 6.52369 15.1574 5.49719 13.1183 5.49719C9.74837 5.49719 6.75342 8.62144 6.75342 12.9443C6.75342 16.2904 8.66418 18.5015 11.6124 18.5015C14.7416 18.5015 16.5509 15.3882 16.5509 14.3776C16.5509 14.1538 16.4365 14.0513 16.3172 14.0513Z" fill="white"/>
<defs>
<radialGradient id="paint0_radial_106_84" cx="0" cy="0" r="1" gradientUnits="userSpaceOnUse" gradientTransform="translate(5.86325 19.7264) rotate(-49.416) scale(15.4683)">
<stop stop-color="#6420FF"/>
<stop offset="1" stop-color="#6420FF" stop-opacity="0"/>
</radialGradient>
<radialGradient id="paint1_radial_106_84" cx="0" cy="0" r="1" gradientUnits="userSpaceOnUse" gradientTransform="translate(7.2947 4.27364) rotate(54.703) scale(17.4434)">
<stop stop-color="#00C4CC"/>
<stop offset="1" stop-color="#00C4CC" stop-opacity="0"/>
</radialGradient>
<radialGradient id="paint2_radial_106_84" cx="0" cy="0" r="1" gradientUnits="userSpaceOnUse" gradientTransform="translate(5.86316 19.7263) rotate(-45.1954) scale(15.2811 7.02796)">
<stop stop-color="#6420FF"/>
<stop offset="1" stop-color="#6420FF" stop-opacity="0"/>
</radialGradient>
<radialGradient id="paint3_radial_106_84" cx="0" cy="0" r="1" gradientUnits="userSpaceOnUse" gradientTransform="translate(10.1789 4.69474) rotate(66.5198) scale(15.7459 26.3779)">
<stop stop-color="#00C4CC" stop-opacity="0.725916"/>
<stop offset="0.0001" stop-color="#00C4CC"/>
<stop offset="1" stop-color="#00C4CC" stop-opacity="0"/>
</radialGradient>
</defs>
</svg>
