<svg width="24" height="24" viewBox="0 0 24 24" fill="none" xmlns="http://www.w3.org/2000/svg">
<path fill-rule="evenodd" clip-rule="evenodd" d="M12 22C17.5228 22 22 17.5228 22 12C22 6.47715 17.5228 2 12 2C6.47715 2 2 6.47715 2 12C2 17.5228 6.47715 22 12 22ZM16.0864 14.2733C16.162 14.1211 16.2346 14.0514 16.3172 14.0514C16.4365 14.0514 16.5509 14.1539 16.5509 14.3777C16.5509 15.3882 14.7416 18.5016 11.6124 18.5016C8.66418 18.5016 6.75342 16.2904 6.75342 12.9443C6.75342 8.62151 9.74837 5.49725 13.1183 5.49725C15.1574 5.49725 16.3728 6.52375 16.3728 7.92026C16.3728 9.36055 15.3315 10.3801 14.4442 10.3801C14.2234 10.3801 14.112 10.2717 14.112 10.0926C14.112 9.94401 14.2012 9.76764 14.3131 9.54633C14.5016 9.17367 14.7545 8.67359 14.7545 7.96403C14.7545 7.01114 14.1726 6.41235 13.2198 6.41235C11.1807 6.41235 8.85912 8.82143 8.85912 12.9881C8.85912 15.4479 10.0806 17.2284 12.053 17.2284C13.7588 17.2284 15.2329 16.0039 16.0864 14.2733Z" fill="#04071E"/>
</svg>
