<svg width="24" height="24" viewBox="0 0 24 24" fill="none" xmlns="http://www.w3.org/2000/svg">
<path fill-rule="evenodd" clip-rule="evenodd" d="M6.12256 3.73724L6.12012 3.74015V3.73299L6.12256 3.73724ZM14.1926 10.6144C14.231 10.5713 14.2505 10.5457 14.2505 10.5457L14.1926 10.6144ZM8.55664 17.2976L8.56659 17.3101L8.56201 17.3155L8.55664 17.2976Z" fill="#04071E"/>
<path d="M6.12256 3.73724C6.13003 3.75006 6.13897 3.76385 6.14932 3.77859L6.12493 3.75806C5.12558 4.90427 4.33398 6.6773 4.33398 8.70107C4.33398 10.6931 4.98427 12.1175 5.07124 12.2991L5.06836 12.3152L5.08079 12.3188C5.68573 13.6966 6.69267 14.9495 7.61039 16.0914C7.94517 16.508 8.26811 16.9099 8.55533 17.2976L8.59028 17.2819L14.1916 10.623L14.1926 10.6144C13.9844 10.8482 13.2202 11.5988 11.994 11.5988C10.3749 11.5988 9.0568 10.3093 9.0568 8.67958C9.0568 7.94653 9.34239 7.36048 9.54011 7.04259L9.74264 6.80267L9.72162 6.78498L9.72482 6.78118L9.71826 6.78215L9.63249 6.70997C9.68006 6.74263 9.71582 6.76566 9.73783 6.7776L9.75086 6.76211L9.74219 6.78118C9.74219 6.78118 10.5607 5.74063 11.9988 5.74063C13.5139 5.74063 14.918 6.99609 14.918 8.65988C14.918 9.58452 14.4607 10.2787 14.3028 10.4908L14.1916 10.623L13.6716 15L8.59028 17.2819L8.56659 17.3101C9.24216 18.157 9.92848 19.2171 10.2885 19.8587C10.7283 20.6953 10.9111 21.2608 11.2377 22.271L11.2395 22.2765C11.4311 22.8316 11.6138 23 11.997 23C12.4161 23 12.6078 22.717 12.7546 22.2765C13.0609 21.3255 13.2973 20.6019 13.6716 19.9124C14.3796 18.5773 15.3064 17.4317 16.2234 16.2982C17.1762 15.1206 18.1184 13.9559 18.7937 12.6053C18.7937 12.6053 19.6659 10.9863 19.6659 8.71899C19.6659 6.60567 18.8062 5.13709 18.8062 5.13709L15.3947 9.19277L18.799 5.13171C17.8319 3.25122 16.22 1.96353 14.3216 1.35281L14.327 1.3546C14.3135 1.3604 14.2986 1.36809 14.2824 1.37762L14.3047 1.35103C14.3047 1.35103 13.3 1 11.9765 1C9.23834 1 7.25485 2.39135 6.12256 3.73724Z" fill="#04071E"/>
<path d="M8.59028 17.2819L13.6716 15L14.1916 10.623L8.59028 17.2819Z" fill="#04071E"/>
</svg>
