<svg width="24" height="24" viewBox="0 0 24 24" fill="none" xmlns="http://www.w3.org/2000/svg">
<path d="M17.1837 14.5V10.8333C17.1087 10.8167 17.0337 10.8 16.9587 10.7917C16.867 10.7833 16.7754 10.775 16.6837 10.775C16.3587 10.775 16.0337 10.8417 15.742 10.9917C15.4587 11.1333 15.217 11.3417 15.0337 11.6083C14.8504 11.875 14.7587 12.2333 14.7587 12.6667C14.7504 12.9583 14.8004 13.25 14.9004 13.525C14.9837 13.75 15.1087 13.95 15.2754 14.1167C15.4337 14.2667 15.6254 14.3833 15.842 14.45C16.067 14.525 16.3004 14.5583 16.5337 14.5583C16.6587 14.5583 16.7754 14.55 16.8837 14.5417C16.992 14.55 17.0837 14.5333 17.1837 14.5Z" fill="#04071E"/>
<path fill-rule="evenodd" clip-rule="evenodd" d="M18.4583 2.25H5.54167C3.58333 2.25 2 3.83333 2 5.79167V18.2083C2 20.1667 3.58333 21.75 5.54167 21.75H18.4583C20.4167 21.75 22 20.1667 22 18.2083V5.79167C22 3.83333 20.4167 2.25 18.4583 2.25ZM16.367 16.1667C15.7504 16.175 15.1337 16.05 14.5754 15.7917C14.0504 15.55 13.617 15.15 13.317 14.6583C13.0087 14.15 12.8587 13.5167 12.8587 12.7583C12.8504 12.1417 13.0087 11.5333 13.317 11C13.6337 10.4583 14.092 10.0083 14.642 9.70834C15.2254 9.38334 15.9254 9.22501 16.7504 9.22501C16.792 9.22501 16.8504 9.22501 16.9254 9.23334C16.9657 9.23782 17.0084 9.23989 17.0548 9.24214C17.0947 9.24408 17.1374 9.24615 17.1837 9.25001V6.61667C17.1837 6.55834 17.2087 6.52501 17.267 6.52501H18.9587C19.0004 6.51667 19.0337 6.55001 19.042 6.58334V14.5333C19.042 14.6696 19.0489 14.8196 19.0564 14.9833L19.0587 15.0333C19.0728 15.1814 19.0809 15.3235 19.0882 15.4495L19.092 15.5167C19.092 15.575 19.067 15.625 19.0087 15.65C18.5754 15.8333 18.117 15.9667 17.6504 16.05C17.2254 16.125 16.8004 16.1667 16.367 16.1667ZM12.5168 7.375L10.0168 11.5L12.6835 15.875C12.7002 15.9083 12.7085 15.9417 12.7002 15.975C12.6951 15.9955 12.6805 15.9939 12.6585 15.9916C12.6446 15.9902 12.6278 15.9884 12.6085 15.9917H10.7002C10.5668 15.9917 10.4752 15.9833 10.4168 15.9C10.3294 15.7251 10.2398 15.5522 10.1503 15.3794C10.0607 15.2065 9.97101 15.0333 9.88351 14.8583C9.70851 14.5167 9.51684 14.1667 9.31684 13.8083C9.11685 13.45 8.91683 13.0916 8.71684 12.725H8.70018C8.52518 13.0833 8.33352 13.4416 8.14186 13.8C7.95021 14.1583 7.75849 14.5167 7.57518 14.8667C7.51128 14.9833 7.44739 15.1009 7.3835 15.2185C7.25572 15.4537 7.12795 15.6889 7.00018 15.9167C6.96684 16 6.90018 16.0083 6.80851 16.0083H4.97518C4.96705 16.0083 4.95943 16.0093 4.95254 16.0102C4.93114 16.013 4.91684 16.0148 4.91684 15.9833C4.90851 15.95 4.91684 15.9167 4.93351 15.8917L7.52518 11.6417L5.00018 7.36667C4.97518 7.33333 4.96684 7.3 4.98351 7.28333C5.00018 7.25833 5.03351 7.25 5.06684 7.25H6.95851C7.00018 7.25 7.04184 7.25833 7.07518 7.26667C7.10851 7.28333 7.13351 7.30833 7.15851 7.34167C7.31684 7.7 7.50018 8.05833 7.69184 8.41667L7.80012 8.6111C7.962 8.90211 8.12134 9.18856 8.29184 9.475C8.49184 9.825 8.67518 10.175 8.85018 10.5333H8.86684C9.04184 10.1667 9.22518 9.80833 9.40851 9.45833C9.59184 9.10833 9.78351 8.75833 9.97518 8.40833C10.0886 8.20117 10.1992 7.99109 10.3085 7.78327C10.3839 7.64001 10.4587 7.49774 10.5335 7.35833C10.5418 7.325 10.5585 7.29167 10.5835 7.275C10.6168 7.25833 10.6502 7.25 10.6918 7.25833H12.4502C12.4918 7.25 12.5335 7.275 12.5418 7.31667C12.5502 7.325 12.5335 7.35833 12.5168 7.375Z" fill="#04071E"/>
</svg>
