<svg width="24" height="24" viewBox="0 0 24 24" fill="none" xmlns="http://www.w3.org/2000/svg">
<path d="M5.54167 2.25H18.4583C20.4167 2.25 22 3.83333 22 5.79167V18.2083C22 20.1667 20.4167 21.75 18.4583 21.75H5.54167C3.58333 21.75 2 20.1667 2 18.2083V5.79167C2 3.83333 3.58333 2.25 5.54167 2.25Z" fill="#470137"/>
<path d="M12.5168 7.375L10.0168 11.5L12.6835 15.875C12.7002 15.9083 12.7085 15.9417 12.7002 15.975C12.6918 16.0083 12.6585 15.9833 12.6085 15.9917H10.7002C10.5668 15.9917 10.4752 15.9833 10.4168 15.9C10.2418 15.55 10.0585 15.2083 9.88351 14.8583C9.70851 14.5167 9.51684 14.1667 9.31684 13.8083C9.11684 13.45 8.91684 13.0917 8.71684 12.725H8.70018C8.52518 13.0833 8.33351 13.4417 8.14184 13.8C7.95018 14.1583 7.75851 14.5167 7.57518 14.8667C7.38351 15.2167 7.19184 15.575 7.00018 15.9167C6.96684 16 6.90018 16.0083 6.80851 16.0083H4.97518C4.94184 16.0083 4.91684 16.025 4.91684 15.9833C4.90851 15.95 4.91684 15.9167 4.93351 15.8917L7.52518 11.6417L5.00018 7.36667C4.97518 7.33333 4.96684 7.3 4.98351 7.28333C5.00018 7.25833 5.03351 7.25 5.06684 7.25H6.95851C7.00018 7.25 7.04184 7.25833 7.07518 7.26667C7.10851 7.28333 7.13351 7.30833 7.15851 7.34167C7.31684 7.7 7.50018 8.05833 7.69184 8.41667C7.89184 8.775 8.08351 9.125 8.29184 9.475C8.49184 9.825 8.67518 10.175 8.85018 10.5333H8.86684C9.04184 10.1667 9.22518 9.80833 9.40851 9.45833C9.59184 9.10833 9.78351 8.75833 9.97518 8.40833C10.1668 8.05833 10.3502 7.7 10.5335 7.35833C10.5418 7.325 10.5585 7.29167 10.5835 7.275C10.6168 7.25833 10.6502 7.25 10.6918 7.25833H12.4502C12.4918 7.25 12.5335 7.275 12.5418 7.31667C12.5502 7.325 12.5335 7.35833 12.5168 7.375Z" fill="#FF61F6"/>
<path d="M16.367 16.1666C15.7504 16.175 15.1337 16.05 14.5754 15.7916C14.0504 15.55 13.617 15.15 13.317 14.6583C13.0087 14.15 12.8587 13.5166 12.8587 12.7583C12.8504 12.1416 13.0087 11.5333 13.317 11C13.6337 10.4583 14.092 10.0083 14.642 9.70831C15.2254 9.38331 15.9254 9.22498 16.7504 9.22498C16.792 9.22498 16.8504 9.22498 16.9254 9.23331C17.0004 9.24164 17.0837 9.24164 17.1837 9.24998V6.61664C17.1837 6.55831 17.2087 6.52498 17.267 6.52498H18.9587C19.0004 6.51664 19.0337 6.54998 19.042 6.58331C19.042 6.59164 19.042 6.59998 19.042 6.59998V14.5333C19.042 14.6833 19.0504 14.85 19.0587 15.0333C19.0754 15.2083 19.0837 15.375 19.092 15.5166C19.092 15.575 19.067 15.625 19.0087 15.65C18.5754 15.8333 18.117 15.9666 17.6504 16.05C17.2254 16.125 16.8004 16.1666 16.367 16.1666ZM17.1837 14.5V10.8333C17.1087 10.8166 17.0337 10.8 16.9587 10.7916C16.867 10.7833 16.7754 10.775 16.6837 10.775C16.3587 10.775 16.0337 10.8416 15.742 10.9916C15.4587 11.1333 15.217 11.3416 15.0337 11.6083C14.8504 11.875 14.7587 12.2333 14.7587 12.6666C14.7504 12.9583 14.8004 13.25 14.9004 13.525C14.9837 13.75 15.1087 13.95 15.2754 14.1166C15.4337 14.2666 15.6254 14.3833 15.842 14.45C16.067 14.525 16.3004 14.5583 16.5337 14.5583C16.6587 14.5583 16.7754 14.55 16.8837 14.5416C16.992 14.55 17.0837 14.5333 17.1837 14.5Z" fill="#FF61F6"/>
</svg>
