<svg width="24" height="24" viewBox="0 0 24 24" fill="none" xmlns="http://www.w3.org/2000/svg">
<path fill-rule="evenodd" clip-rule="evenodd" d="M17.4101 1.99963H6.58867C4.046 1.99963 1.99902 4.04662 1.99902 6.58928V17.4107C1.99902 19.9534 4.046 22.0004 6.58867 22.0004H17.4101C19.9528 22.0004 21.9998 19.9534 21.9998 17.4107V6.58928C21.9998 4.04662 19.9528 1.99963 17.4101 1.99963ZM12.3424 5.85912H15.271C15.3401 5.85912 15.396 5.91499 15.396 5.98391V17.0182C15.396 17.0872 15.3401 17.143 15.271 17.143H12.3424C12.2733 17.143 12.2174 17.0872 12.2174 17.0182V5.98391C12.2174 5.91499 12.2733 5.85912 12.3424 5.85912ZM11.5711 11.8571H8.64241C8.57337 11.8571 8.5174 11.9131 8.5174 11.9821V17.018C8.5174 17.0871 8.57337 17.143 8.64241 17.143H11.5711C11.6401 17.143 11.6961 17.0871 11.6961 17.018V11.9821C11.6961 11.9131 11.6401 11.8571 11.5711 11.8571ZM7.91983 14.8572H4.92801C4.87641 14.8572 4.83458 14.8956 4.83458 14.9429V17.0574C4.83458 17.1047 4.87641 17.143 4.92801 17.143H7.91983C7.97144 17.143 8.01327 17.1047 8.01327 17.0574V14.9429C8.01327 14.8956 7.97144 14.8572 7.91983 14.8572ZM18.9844 9.16118H16.0305C15.9684 9.16118 15.9181 9.21348 15.9181 9.27798V17.0262C15.9181 17.0907 15.9684 17.143 16.0305 17.143H18.9844C19.0465 17.143 19.0968 17.0907 19.0968 17.0262V9.27798C19.0968 9.21348 19.0465 9.16118 18.9844 9.16118ZM5.01425 17.7234H18.9344C19.0922 17.7234 19.2201 17.8274 19.2201 17.9558V18.0272C19.2201 18.1555 19.0922 18.2596 18.9344 18.2596H5.01425C4.85644 18.2596 4.72852 18.1555 4.72852 18.0272V17.9558C4.72852 17.8274 4.85644 17.7234 5.01425 17.7234Z" fill="#04071E"/>
</svg>
