<svg width="24" height="24" viewBox="0 0 24 24" fill="none" xmlns="http://www.w3.org/2000/svg">
<path d="M3.70488 11.591C3.33155 12.1645 3.17506 13.9682 3.30515 15.164C3.35041 15.5584 3.42583 15.8877 3.5333 16.0849C3.68225 16.3562 3.93302 16.519 4.21773 16.5281C4.40062 16.5371 4.51564 16.5064 7.95666 15.4444C7.95666 15.4444 9.48579 14.9759 9.49333 14.9722C9.8742 14.8782 10.1325 14.5417 10.157 14.1129C10.1815 13.6715 9.94585 13.2825 9.55367 13.1432L8.47328 12.7217C4.77395 11.2581 4.60803 11.2002 4.42136 11.1984C4.13477 11.1894 3.88211 11.3269 3.70488 11.591ZM11.9784 22.4982C12.0387 22.3317 12.0463 22.2178 12.0557 18.7479C12.0557 18.7479 12.0633 17.2155 12.0651 17.1993C12.0896 16.823 11.837 16.481 11.4222 16.3273C10.9942 16.1699 10.5341 16.2676 10.2758 16.5751C10.2758 16.5751 9.52161 17.4345 9.51784 17.4345C6.92718 20.3544 6.81782 20.4901 6.7556 20.6619C6.716 20.7632 6.70281 20.8718 6.71412 20.9803C6.7292 21.1359 6.80274 21.2879 6.92341 21.4308C7.52488 22.1164 10.4059 23.1332 11.326 22.9812C11.6484 22.9287 11.8804 22.7569 11.9784 22.4982ZM17.8253 21.2915C18.6945 20.9586 20.5894 18.6466 20.7233 17.7547C20.7704 17.4453 20.6686 17.1776 20.4461 17.0075C20.301 16.9026 20.1897 16.861 16.7487 15.7773C16.7487 15.7773 15.2403 15.2997 15.2196 15.2906C14.8538 15.155 14.4371 15.2816 14.158 15.6127C13.8658 15.9528 13.8224 16.4033 14.0562 16.7416L14.6633 17.6895C16.7053 20.8718 16.8618 21.0961 17.0089 21.2065C17.2351 21.3783 17.5236 21.4073 17.8253 21.2915ZM16.0473 13.0998C19.9559 12.1916 20.1086 12.1428 20.2614 12.0451C20.4989 11.8913 20.6177 11.6362 20.597 11.3251C20.597 11.316 20.5989 11.3052 20.597 11.2943C20.497 10.3717 18.8152 7.97639 17.9856 7.58743C17.6914 7.45174 17.3973 7.46079 17.1541 7.61818C17.0032 7.71226 16.892 7.85518 14.7991 10.6032C14.7991 10.6032 13.8545 11.8389 13.8432 11.8515C13.5943 12.1428 13.5905 12.5589 13.8337 12.9171C14.0864 13.288 14.5125 13.4671 14.9028 13.3639C14.9028 13.3639 14.8877 13.3911 14.8839 13.3947C15.0763 13.3241 15.4194 13.2427 16.0473 13.0998ZM12.1236 10.0026C12.0557 8.5155 11.59 1.89595 11.5353 1.5902C11.4561 1.3116 11.2299 1.11441 10.9056 1.03481C9.90625 0.797811 6.09191 1.82358 5.38485 2.5219C5.15671 2.74985 5.07374 3.02845 5.14162 3.2763C5.25287 3.4952 9.97979 10.6304 9.97979 10.6304C10.6774 11.7176 11.2487 11.5476 11.4354 11.4915C11.6202 11.439 12.1877 11.269 12.1236 10.0026Z" fill="#04071E"/>
</svg>
