<svg width="24" height="24" viewBox="0 0 24 24" fill="none" xmlns="http://www.w3.org/2000/svg">
<path d="M6.58948 2H17.4106C19.9531 2 22 4.04693 22 6.58948V17.4105C22 19.9531 19.9531 22 17.4106 22H6.58948C4.04692 22 2 19.9531 2 17.4105V6.58948C2 4.04693 4.04692 2 6.58948 2Z" fill="url(#paint0_linear_114_288)"/>
<path d="M7.20306 17.1348C7.52668 16.9188 7.80448 16.7297 7.82031 16.7146C7.84546 16.6906 7.81303 16.6509 7.56666 16.4041C7.41131 16.2485 7.26966 16.1211 7.25188 16.1211C7.22021 16.1211 6.45543 17.2538 6.41461 17.3612C6.37666 17.461 6.45418 17.5559 6.55853 17.5374C6.58938 17.5319 6.87943 17.3507 7.20306 17.1348ZM8.31101 16.4024C8.83478 16.0527 9.14648 15.803 9.88371 15.1426C10.9678 14.1715 13.4263 11.8287 13.4263 11.7668C13.4263 11.7275 12.2152 10.5156 12.1758 10.5156C12.1264 10.5156 10.1919 12.5335 9.21671 13.6022C8.56326 14.3182 8.24078 14.6878 8.00786 14.9877C7.72423 15.3528 7.35203 15.8981 7.35203 15.9485C7.35203 15.9858 7.96091 16.5899 7.99846 16.5899C8.01588 16.5899 8.15651 16.5055 8.31101 16.4024ZM14.7466 11.9922C14.8012 11.9376 14.813 11.9111 14.813 11.8431C14.813 11.7976 14.8028 11.7264 14.7904 11.6849C14.7598 11.583 14.7894 11.4895 14.8995 11.34C15.0159 11.1818 15.136 11.0527 15.9766 10.1819C17.099 9.01917 17.7735 8.29805 18.0834 7.92937C18.2464 7.73547 18.3177 7.57402 18.317 7.40042C18.3164 7.26442 18.3135 7.25525 18.2022 7.0429C18.1591 6.9606 18.1733 6.88125 18.2516 6.76567C18.5386 6.34252 18.552 5.9491 18.2892 5.66402C18.0569 5.41205 17.6641 5.38907 17.299 5.60615C17.1809 5.6764 16.697 6.09612 16.122 6.62712C14.8546 7.79742 12.313 10.303 12.313 10.3821C12.313 10.4187 13.527 11.6289 13.5637 11.6289C13.5803 11.6289 14.0998 11.1214 14.7181 10.501C15.8809 9.33445 16.4238 8.77467 17.0903 8.05505C17.6646 7.4351 17.6693 7.43045 17.7231 7.42495C17.7632 7.42085 17.7731 7.42945 17.7781 7.47272C17.7861 7.54242 17.767 7.5749 17.5989 7.77665C17.277 8.1631 16.7059 8.76872 15.4487 10.0568C15.0292 10.4866 14.6397 10.8997 14.583 10.9748C14.452 11.1485 14.3346 11.3803 14.304 11.5256C14.2462 11.8004 14.3958 12.0567 14.6147 12.0582C14.6635 12.0585 14.6971 12.0416 14.7466 11.9922ZM6.35828 17.7266C6.22181 17.7266 6.11218 17.848 6.11218 17.9985C6.11218 18.1489 6.22181 18.2696 6.35828 18.2696H21.9255L21.9422 18.1428L21.9646 18.0015L21.9802 17.8668L21.988 17.7266H6.35828V17.7266Z" fill="white"/>
<defs>
<linearGradient id="paint0_linear_114_288" x1="11.9908" y1="21.9208" x2="12.0103" y2="2.24301" gradientUnits="userSpaceOnUse">
<stop stop-color="#FF8500"/>
<stop offset="1" stop-color="#FFB900"/>
</linearGradient>
</defs>
</svg>
