<svg width="24" height="24" viewBox="0 0 24 24" fill="none" xmlns="http://www.w3.org/2000/svg">
<path fill-rule="evenodd" clip-rule="evenodd" d="M17.4106 2H6.58948C4.04692 2 2 4.04693 2 6.58948V17.4105C2 19.9531 4.04692 22 6.58948 22H17.4106C19.6593 22 21.5204 20.3988 21.9204 18.2696H6.3584C6.22193 18.2696 6.1123 18.1489 6.1123 17.9985C6.1123 17.848 6.22193 17.7266 6.3584 17.7266L21.9881 17.7266L21.9844 17.794C21.9947 17.6676 22 17.5397 22 17.4105V6.58948C22 4.04693 19.9531 2 17.4106 2ZM7.82043 16.7146C7.8046 16.7297 7.5268 16.9188 7.20318 17.1348C6.87955 17.3507 6.5895 17.5319 6.55865 17.5374C6.4543 17.5559 6.37678 17.461 6.41473 17.3612C6.45555 17.2538 7.22033 16.1211 7.252 16.1211C7.26978 16.1211 7.41143 16.2484 7.56678 16.4041C7.81315 16.6509 7.84558 16.6906 7.82043 16.7146ZM9.88383 15.1426C9.14661 15.803 8.8349 16.0527 8.31113 16.4024C8.15663 16.5055 8.01601 16.5899 7.99858 16.5899C7.96103 16.5899 7.35215 15.9858 7.35215 15.9485C7.35215 15.8981 7.72435 15.3528 8.00798 14.9877C8.2409 14.6878 8.56338 14.3182 9.21683 13.6022C10.192 12.5335 12.1265 10.5156 12.1759 10.5156C12.2153 10.5156 13.4264 11.7275 13.4264 11.7668C13.4264 11.8287 10.9679 14.1715 9.88383 15.1426ZM14.8131 11.8431C14.8131 11.9111 14.8013 11.9376 14.7467 11.9922C14.6973 12.0416 14.6636 12.0585 14.6149 12.0582C14.3959 12.0567 14.2464 11.8004 14.3042 11.5256C14.3347 11.3803 14.4521 11.1485 14.5831 10.9748C14.6398 10.8997 15.0294 10.4866 15.4488 10.0568C16.706 8.7687 17.2771 8.16308 17.599 7.77663C17.7671 7.57488 17.7862 7.5424 17.7782 7.4727C17.7732 7.42943 17.7633 7.42083 17.7233 7.42493C17.6694 7.43043 17.6647 7.43508 17.0905 8.05503C16.4239 8.77465 15.881 9.33443 14.7182 10.501C14.0999 11.1214 13.5804 11.6289 13.5638 11.6289C13.5271 11.6289 12.3131 10.4187 12.3131 10.3821C12.3131 10.303 14.8548 7.7974 16.1221 6.6271C16.6971 6.0961 17.181 5.67638 17.2992 5.60613C17.6642 5.38905 18.0571 5.41203 18.2893 5.664C18.5521 5.94908 18.5387 6.3425 18.2518 6.76565C18.1734 6.88123 18.1592 6.96058 18.2024 7.04288C18.3136 7.25523 18.3165 7.2644 18.3171 7.4004C18.3179 7.574 18.2466 7.73545 18.0835 7.92935C17.7736 8.29803 17.0991 9.01915 15.9767 10.1819C15.1361 11.0527 15.0161 11.1818 14.8996 11.34C14.7896 11.4895 14.76 11.583 14.7905 11.6849C14.803 11.7264 14.8131 11.7976 14.8131 11.8431Z" fill="#04071E"/>
<path d="M21.9468 18.1147L21.9424 18.1428L21.9421 18.1449C21.9437 18.1349 21.9452 18.1248 21.9468 18.1147Z" fill="#04071E"/>
</svg>
