<svg width="24" height="24" viewBox="0 0 24 24" fill="none" xmlns="http://www.w3.org/2000/svg">
<path fill-rule="evenodd" clip-rule="evenodd" d="M18.1076 4.53411V3.25142C18.1076 2.2842 17.3234 1.5 16.3562 1.5H7.60005C6.63284 1.5 5.84863 2.2842 5.84863 3.25142V4.53411H3.22269C1.94531 4.53411 1.94531 5.27582 1.94531 5.27582V18.5855C1.94531 22.2527 5.81867 22.5 5.81867 22.5H17.7685C22.2187 22.5 22.0539 18.8326 22.0539 18.8326V5.48186C22.0539 4.32811 21.1885 4.53411 21.1885 4.53411H18.1076ZM7.60003 4.53411H16.3562V3.25142H7.60005L7.60003 4.53411ZM11.5422 8.94268H7.60156V12.8833H11.5422V8.94268ZM16.3566 8.94268H12.416V12.8833H16.3566V8.94268ZM16.3566 13.7585H12.416V17.6991H16.3566V13.7585ZM11.5422 13.7585H7.60156V17.6991H11.5422V13.7585Z" fill="#04071E"/>
</svg>
