<svg width="24" height="24" viewBox="0 0 24 24" fill="none" xmlns="http://www.w3.org/2000/svg">
<path fill-rule="evenodd" clip-rule="evenodd" d="M5.03347 4.43286C5.03313 4.42921 5.03281 4.42538 5.03251 4.42135C5.05315 4.39409 5.10467 4.33951 5.22273 4.27477C5.43673 4.15741 5.77349 4.07991 6.18115 4.17814C6.88309 4.34728 8.04404 5.12965 8.9495 7.77207C8.37414 7.85973 7.61898 7.95961 6.84457 8.0197C6.03682 8.08238 5.2491 8.0983 4.63368 8.02646C4.32511 7.99044 4.09901 7.93653 3.9495 7.87717C3.90351 7.85891 3.87195 7.84305 3.85123 7.83122C3.92112 7.73705 4.07668 7.59574 4.35752 7.4133C4.55431 7.28545 4.72917 7.1868 4.91414 7.08245C5.0345 7.01455 5.15914 6.94423 5.29689 6.86188C5.44113 6.77566 5.61696 6.66491 5.76395 6.53772C5.83836 6.47335 5.93615 6.37884 6.02053 6.25342C6.10464 6.12841 6.21042 5.92001 6.21042 5.64767C6.21042 5.3836 6.12387 5.12038 5.93789 4.90499C5.77389 4.71506 5.58112 4.6197 5.46672 4.57168C5.35507 4.52481 5.24095 4.49272 5.17758 4.4749L5.16264 4.47069C5.10255 4.45378 5.06549 4.44335 5.03347 4.43286ZM10.1253 8.49843L10.2998 9.39407L11.264 9.20622L11.0057 8.2585C10.0013 4.57312 8.3469 2.82282 6.60866 2.40396C5.75667 2.19866 4.95488 2.34031 4.34525 2.67461C3.79082 2.97865 3.20534 3.56803 3.20534 4.35584C3.20534 4.81429 3.31546 5.23688 3.58407 5.57956C3.61452 5.6184 3.6459 5.65477 3.67793 5.68886C3.56947 5.75316 3.46168 5.81903 3.36333 5.88292C3.01053 6.1121 2.556 6.44808 2.27407 6.90885C2.12344 7.15505 2.0082 7.45884 2.0022 7.80991C1.99614 8.16458 2.10284 8.49798 2.28684 8.79697C2.53781 9.2048 2.93112 9.43637 3.27606 9.57332C3.62958 9.71369 4.0286 9.79318 4.42209 9.83911C5.21081 9.93118 6.13501 9.90521 6.98576 9.83919C7.84547 9.77248 8.67224 9.66129 9.28106 9.56752C9.58637 9.52051 9.83897 9.47754 10.0161 9.44618C10.1047 9.43049 10.1745 9.41768 10.2227 9.40868L10.2785 9.39817L10.2936 9.39527L10.2998 9.39407C10.2998 9.39407 10.2998 9.39407 10.1253 8.49843ZM4.56984 5.15767L4.56908 5.15832L4.56984 5.15767Z" fill="#04071E"/>
<path fill-rule="evenodd" clip-rule="evenodd" d="M4.94797 3.77472C4.58964 3.97122 4.45945 4.22056 4.45945 4.35584C4.45945 4.61463 4.51957 4.73996 4.57096 4.80553C4.62455 4.87388 4.70273 4.92125 4.82149 4.96328C4.87749 4.9831 4.93399 4.99898 4.9997 5.01745C5.0053 5.01902 5.01097 5.02062 5.01671 5.02223C5.08319 5.04094 5.16769 5.06489 5.24544 5.09753C5.32292 5.13005 5.42401 5.18312 5.50568 5.2777C5.59559 5.38183 5.63958 5.50994 5.63958 5.64767C5.63958 5.76915 5.59237 5.86736 5.54682 5.93506C5.50116 6.00291 5.44402 6.05993 5.39024 6.10646C5.28338 6.19892 5.14412 6.28845 5.00371 6.37238C4.89066 6.43996 4.77479 6.50552 4.65686 6.57225C4.458 6.68476 4.25327 6.80059 4.04628 6.93505C3.72116 7.14626 3.47092 7.35583 3.34375 7.56366C3.2838 7.66166 3.25752 7.74932 3.25612 7.83135C3.25474 7.91204 3.27691 8.0128 3.35483 8.13941C3.40762 8.2252 3.52202 8.32127 3.7385 8.40722C3.95176 8.49189 4.2319 8.5538 4.56701 8.59292C5.23658 8.67107 6.06695 8.65202 6.88814 8.58829C7.70596 8.52483 8.49941 8.41837 9.08954 8.32749C9.32837 8.29071 9.53338 8.25656 9.69261 8.22898C8.73848 4.99969 7.35661 3.87489 6.3142 3.62371C5.76768 3.49202 5.2856 3.58957 4.94797 3.77472ZM10.1253 8.49843L10.1902 8.8343L10.5518 8.76385L10.4549 8.40846C9.47269 4.80459 7.91364 3.30517 6.47452 2.95839C5.76138 2.78655 5.10491 2.90815 4.61892 3.17466C4.15362 3.42981 3.77509 3.86463 3.77509 4.35584C3.77509 4.72354 3.86248 5.01101 4.03236 5.22772C4.20005 5.44165 4.4169 5.54605 4.59317 5.60843C4.67179 5.63626 4.74992 5.65817 4.81242 5.67569C4.81571 5.67662 4.81896 5.67753 4.82216 5.67843C4.77487 5.71021 4.71848 5.74558 4.65256 5.78498C4.56703 5.83611 4.46424 5.89443 4.35252 5.9578C4.13934 6.07874 3.89367 6.21811 3.67346 6.36116C3.33325 6.58218 2.97157 6.86069 2.75999 7.2065C2.65058 7.38532 2.57577 7.59088 2.57186 7.81966C2.56793 8.04979 2.63621 8.27744 2.77199 8.49808C2.93288 8.75953 3.19941 8.9295 3.48596 9.04328C3.77572 9.15833 4.12071 9.22982 4.48766 9.27266C5.22223 9.3584 6.10377 9.33558 6.94108 9.2706C7.78176 9.20537 8.59338 9.09632 9.1937 9.00387C9.4942 8.95759 9.74254 8.91535 9.91607 8.88462C10.0029 8.86925 10.071 8.85675 10.1176 8.84805L10.1711 8.83798L10.1851 8.83529L10.1902 8.8343C10.1902 8.8343 10.1907 8.8343 10.1253 8.49843Z" fill="#04071E"/>
<path d="M4.11765 4.35584C4.11765 3.10286 8.18756 1.38852 10.1253 8.49843C10.1253 8.49843 3.91853 9.7077 3.06379 8.31874C2.20904 6.92978 5.29778 6.14303 5.29778 5.64767C5.29778 5.1523 4.11765 5.60882 4.11765 4.35584Z" fill="#04071E"/>
<path fill-rule="evenodd" clip-rule="evenodd" d="M15.7805 3.47247C15.7687 3.49319 15.7528 3.52476 15.7345 3.57075C15.6752 3.72025 15.6213 3.94636 15.5853 4.25493C15.5134 4.87034 15.5293 5.65807 15.592 6.46581C15.6521 7.24022 15.752 7.99538 15.8396 8.57074C18.4821 7.66529 19.2644 6.50434 19.4336 5.8024C19.5318 5.39474 19.4543 5.05798 19.3369 4.84398C19.2722 4.72585 19.2176 4.67434 19.1903 4.65373C19.1857 4.65407 19.1813 4.65444 19.1771 4.65483C19.1668 4.68655 19.1565 4.72366 19.1398 4.78363L19.1361 4.79678C19.1185 4.85998 19.0868 4.97401 19.0404 5.0855C18.9927 5.19994 18.8978 5.39344 18.7077 5.55816C18.4919 5.74507 18.2281 5.83167 17.964 5.83167C17.6917 5.83167 17.4833 5.72589 17.3583 5.64178C17.2329 5.55739 17.1384 5.4596 17.074 5.3852C16.9468 5.2382 16.8361 5.06238 16.7498 4.91813C16.6675 4.78038 16.5972 4.65574 16.5293 4.53538C16.4249 4.35041 16.3263 4.17555 16.1984 3.97876C16.016 3.69793 15.8747 3.54237 15.7805 3.47247ZM15.1133 9.74655C14.2176 9.92106 14.2176 9.92077 14.2176 9.92077L14.2164 9.91484L14.2135 9.89974L14.203 9.84395C14.194 9.79574 14.1812 9.72592 14.1655 9.63733C14.1342 9.46022 14.0912 9.20762 14.0442 8.9023C13.9504 8.29348 13.8392 7.46671 13.7725 6.607C13.7065 5.75625 13.6805 4.83206 13.7726 4.04334C13.8185 3.64984 13.898 3.25082 14.0384 2.8973C14.1753 2.55236 14.4069 2.15905 14.8147 1.90808C15.1137 1.72409 15.4471 1.61738 15.8018 1.62344C16.1529 1.62944 16.4567 1.74469 16.7029 1.89532C17.1636 2.17724 17.4996 2.63178 17.7288 2.98458C17.7924 3.08254 17.858 3.18987 17.9221 3.2979C17.956 3.26615 17.9921 3.23505 18.0307 3.20488C18.3739 2.93627 18.7971 2.82659 19.2559 2.82659C20.0437 2.82659 20.6331 3.41206 20.9371 3.9665C21.2714 4.57613 21.413 5.37792 21.2078 6.22991C20.7889 7.96815 19.0386 9.6225 15.3532 10.6269L14.4055 10.8852L14.2176 9.92077L15.1133 9.74655ZM18.454 4.19109L18.4534 4.19033L18.454 4.19109Z" fill="#04071E"/>
<path fill-rule="evenodd" clip-rule="evenodd" d="M15.7807 2.87792C15.7 2.87654 15.5993 2.89871 15.4726 2.97662C15.3869 3.02942 15.2908 3.14382 15.2048 3.3603C15.1202 3.57356 15.0583 3.8537 15.0191 4.18881C14.941 4.85838 14.96 5.68875 15.0238 6.50994C15.0872 7.32776 15.1937 8.12121 15.2846 8.71133C15.3214 8.95016 15.3555 9.15518 15.3831 9.31441C18.6124 8.36027 19.7372 6.97841 19.9883 5.936C20.12 5.38948 20.0225 4.9074 19.8373 4.56977C19.6408 4.21143 19.3915 4.08124 19.2562 4.08124C18.9959 4.08124 18.8699 4.14153 18.8043 4.19293C18.736 4.24637 18.6888 4.32426 18.6472 4.4427C18.6274 4.49885 18.6116 4.55556 18.5932 4.62162C18.5918 4.6269 18.5903 4.63223 18.5888 4.63763C18.5703 4.70401 18.5466 4.78855 18.5142 4.86631C18.482 4.9438 18.4292 5.04518 18.3346 5.12711C18.2304 5.21737 18.1021 5.26137 17.9644 5.26137C17.8429 5.26137 17.7447 5.21416 17.677 5.16861C17.6091 5.12296 17.5521 5.06581 17.5056 5.01204C17.4131 4.90517 17.3236 4.76592 17.2397 4.62551C17.1721 4.51246 17.1065 4.39659 17.0398 4.27865C16.9273 4.07979 16.8115 3.87506 16.677 3.66808C16.4658 3.34296 16.2562 3.09271 16.0484 2.96555C15.9504 2.90559 15.8627 2.87932 15.7807 2.87792ZM15.1133 9.74655C14.7774 9.81199 14.7777 9.81184 14.7777 9.81184L14.7768 9.80685L14.7741 9.79286L14.764 9.73938C14.7553 9.69276 14.7428 9.62465 14.7274 9.53787C14.6967 9.36434 14.6545 9.116 14.6082 8.8155C14.5157 8.21518 14.4067 7.40355 14.3415 6.56288C14.2765 5.72557 14.2537 4.84402 14.3394 4.10946C14.3822 3.74251 14.4537 3.39752 14.5688 3.10776C14.6826 2.82121 14.8525 2.55467 15.114 2.39378C15.3346 2.25801 15.5623 2.18973 15.7924 2.19366C16.0212 2.19757 16.2267 2.27237 16.4056 2.38179C16.7514 2.59337 17.0299 2.95504 17.2509 3.29526C17.394 3.51547 17.5333 3.76114 17.6543 3.97432C17.7176 4.08603 17.7759 4.18883 17.8271 4.27436C17.8661 4.33964 17.9012 4.39557 17.9327 4.44258C17.9333 4.44031 17.934 4.43801 17.9346 4.43569C17.952 4.37302 17.9738 4.29457 18.0016 4.21556C18.0637 4.03897 18.168 3.82182 18.3825 3.65399C18.5996 3.48412 18.8876 3.39689 19.2562 3.39689C19.7474 3.39689 20.1822 3.77541 20.4374 4.24071C20.7039 4.72671 20.8255 5.38317 20.6537 6.09631C20.3069 7.53544 18.8075 9.09449 15.2036 10.0767L14.8482 10.1736L14.7777 9.81184L15.1133 9.74655Z" fill="#04071E"/>
<path d="M19.2557 3.73906C20.5087 3.73906 22.2232 7.80881 15.1133 9.74655C15.1133 9.74655 13.9039 3.53995 15.2928 2.6852C16.6818 1.83046 17.4685 4.91919 17.9639 4.91919C18.4592 4.91919 17.9979 3.73906 19.2557 3.73906Z" fill="#04071E"/>
<path fill-rule="evenodd" clip-rule="evenodd" d="M15.058 15.987C15.6378 15.9344 16.3977 15.8805 17.1743 15.8675C17.9845 15.8539 18.7717 15.8857 19.3815 15.9947C19.6873 16.0493 19.9096 16.1168 20.0551 16.185C20.1006 16.2064 20.1313 16.2243 20.1512 16.2374C20.076 16.3271 19.9124 16.459 19.6208 16.6243C19.4163 16.7403 19.2342 16.829 19.0417 16.9228C18.9185 16.9828 18.791 17.0449 18.6506 17.1175C18.5017 17.1946 18.3198 17.2941 18.1657 17.4115C18.0878 17.4709 17.9844 17.5589 17.8924 17.6787C17.8009 17.7978 17.6813 18.0002 17.665 18.2739L17.665 18.2749C17.6498 18.5354 17.7184 18.8008 17.8877 19.0266C18.038 19.227 18.2232 19.3356 18.3356 19.3921C18.4454 19.4472 18.5583 19.4871 18.6208 19.5092L18.6408 19.5163C18.6978 19.5364 18.7329 19.5488 18.7638 19.5612C18.7639 19.5647 18.764 19.5684 18.7641 19.5723C18.7418 19.5984 18.6871 19.65 18.5651 19.7075C18.3448 19.8116 18.0045 19.8684 17.604 19.7455C16.9138 19.5337 15.8025 18.6812 15.058 15.987ZM20.8301 14.5328C21.1657 14.6903 21.544 14.945 21.7697 15.367C21.9355 15.6761 22.0223 16.0149 21.9954 16.3684C21.9687 16.7187 21.8356 17.0153 21.6705 17.2522C21.3615 17.6956 20.8874 18.004 20.5213 18.2117C20.4177 18.2704 20.3047 18.3304 20.1913 18.3887C20.2216 18.425 20.2511 18.4636 20.2795 18.5047C20.5261 18.8619 20.611 19.289 20.5844 19.7458L20.5842 19.7491C20.5355 20.5346 19.9168 21.0875 19.3443 21.3578C18.7153 21.6548 17.9064 21.7473 17.0686 21.4902C15.3597 20.9658 13.8152 19.1173 13.035 15.377L12.8343 14.4151L13.8084 14.2861L13.9282 15.1907C13.8084 14.2861 13.8084 14.2861 13.8084 14.2861L13.8147 14.2853L13.8299 14.2833L13.8863 14.2762C13.9349 14.2702 14.0054 14.2616 14.0948 14.2513C14.2735 14.2308 14.5283 14.2032 14.8359 14.1748C15.4494 14.1181 16.2815 14.0573 17.1437 14.0428C17.9969 14.0285 18.921 14.0585 19.7025 14.1982C20.0924 14.2678 20.4858 14.3713 20.8301 14.5328ZM19.2715 18.8633L19.2723 18.8626L19.2715 18.8633Z" fill="#04071E"/>
<path fill-rule="evenodd" clip-rule="evenodd" d="M14.3439 15.4859C15.1015 18.7684 16.4123 19.9762 17.4372 20.2907C17.9744 20.4556 18.4611 20.3876 18.8091 20.2233C19.1779 20.0492 19.3237 19.8082 19.3324 19.672C19.3473 19.4147 19.2949 19.2863 19.2476 19.2177C19.1981 19.1461 19.123 19.094 19.0072 19.0445C18.9535 19.0216 18.8992 19.0025 18.8362 18.9802C18.8296 18.9779 18.8229 18.9755 18.8161 18.9731C18.7508 18.9501 18.668 18.9205 18.5922 18.8825C18.5166 18.8445 18.4195 18.7844 18.3445 18.6844C18.2623 18.5748 18.2269 18.4448 18.2348 18.3081C18.2421 18.1863 18.2956 18.0906 18.3452 18.0261C18.3949 17.9614 18.4554 17.9081 18.5118 17.8652C18.6239 17.7798 18.7682 17.6991 18.9133 17.624C19.0289 17.5642 19.1472 17.5064 19.2678 17.4475C19.4743 17.3466 19.6872 17.2427 19.9028 17.1204C20.24 16.9291 20.5023 16.7348 20.6416 16.535C20.7072 16.4407 20.7386 16.3548 20.7449 16.2731C20.751 16.1927 20.7348 16.0907 20.6644 15.9597C20.6171 15.8711 20.5086 15.7676 20.2978 15.6687C20.0902 15.5713 19.8145 15.4926 19.4824 15.4333C18.8189 15.3147 17.9889 15.2835 17.1653 15.2973C16.3451 15.311 15.5465 15.3692 14.9519 15.4241C14.7112 15.4463 14.5045 15.468 14.3439 15.4859ZM21.2677 15.6366C21.3903 15.8649 21.4447 16.0955 21.4272 16.3251C21.4098 16.5533 21.323 16.7541 21.2031 16.9262C20.9713 17.2589 20.5934 17.5154 20.2405 17.7156C20.0105 17.8461 19.7557 17.9708 19.5349 18.079C19.4208 18.1348 19.3158 18.1862 19.228 18.2317C19.1583 18.2678 19.0987 18.3003 19.0489 18.3296C19.054 18.3314 19.0593 18.3332 19.0646 18.3351C19.1251 18.3564 19.2006 18.383 19.276 18.4152C19.4473 18.4883 19.6566 18.6057 19.8107 18.8288C19.9668 19.0548 20.037 19.3463 20.0156 19.7126L20.0155 19.7138C19.9851 20.2042 19.5814 20.6154 19.1013 20.8421C18.6001 21.0788 17.9376 21.1601 17.2364 20.9449C15.8216 20.5108 14.3569 18.9184 13.5938 15.2606L13.5185 14.8999L13.8838 14.8515L13.9282 15.1907C13.8833 14.8515 13.8838 14.8515 13.8838 14.8515L13.889 14.8508L13.9031 14.849L13.9571 14.8421C14.0042 14.8363 14.073 14.828 14.1605 14.8179C14.3356 14.7977 14.5861 14.7706 14.8889 14.7427C15.4938 14.6868 16.3107 14.6272 17.1538 14.613C17.9935 14.5989 18.8749 14.6295 19.6027 14.7596C19.9664 14.8246 20.3063 14.9168 20.5885 15.0491C20.8675 15.18 21.1231 15.3658 21.2677 15.6366Z" fill="#04071E"/>
<path d="M19.6738 19.6927C19.5961 20.9456 15.4337 22.4074 13.9282 15.1907C13.9282 15.1907 20.1985 14.3602 20.9658 15.7977C21.738 17.2353 18.6054 17.8375 18.5762 18.328C18.5471 18.8282 19.7466 18.4445 19.6738 19.6927Z" fill="#04071E"/>
<path fill-rule="evenodd" clip-rule="evenodd" d="M9.96786 13.9503L9.09597 14.2194C9.96786 13.9503 9.96786 13.9503 9.96786 13.9503L9.96972 13.9563L9.97421 13.971L9.99062 14.0253C10.0047 14.0723 10.0249 14.1404 10.05 14.2268C10.1001 14.3995 10.1697 14.646 10.2491 14.9446C10.4074 15.5399 10.6063 16.35 10.7645 17.1977C10.9212 18.0366 11.0459 18.9527 11.039 19.7469C11.0355 20.1431 10.9994 20.5483 10.898 20.9147C10.7992 21.2722 10.6117 21.6881 10.2339 21.9817C9.95674 22.1972 9.63684 22.3396 9.28345 22.372C8.93368 22.404 8.61913 22.3222 8.35814 22.199C7.86972 21.9684 7.48668 21.5527 7.2208 21.2266C7.14608 21.135 7.06844 21.0342 6.99238 20.9326C6.96117 20.9688 6.9275 21.0046 6.89118 21.0396C6.57815 21.3416 6.16948 21.4945 5.71406 21.5423C4.93207 21.6258 4.284 21.1087 3.92224 20.5904C3.52417 20.02 3.29781 19.238 3.41115 18.369C3.64233 16.5966 5.2062 14.7644 8.7629 13.3699L9.67796 13.0111L9.96786 13.9503ZM8.4995 15.4666C8.64809 16.0293 8.82803 16.7692 8.97057 17.5327C9.1193 18.3292 9.21948 19.111 9.21409 19.731C9.21139 20.0419 9.18209 20.2728 9.13911 20.4282C9.12594 20.4759 9.11359 20.509 9.10404 20.531C9.00296 20.4713 8.84607 20.332 8.63517 20.0734C8.48675 19.8913 8.36942 19.7275 8.24536 19.5543C8.16514 19.4423 8.08211 19.3263 7.98604 19.199C7.8849 19.065 7.75608 18.9022 7.61415 18.7698C7.54235 18.7029 7.43802 18.6158 7.3044 18.5453C7.17133 18.4751 6.95226 18.3917 6.68063 18.4213C6.41783 18.4499 6.16585 18.5647 5.97226 18.7725C5.80168 18.9557 5.72777 19.157 5.6924 19.2753C5.65797 19.3905 5.63822 19.5067 5.62726 19.5711L5.62519 19.5833C5.61468 19.6451 5.60818 19.6832 5.60124 19.7159C5.5962 19.7169 5.5908 19.7179 5.58501 19.7189C5.55605 19.7017 5.49613 19.6568 5.41874 19.5459C5.27955 19.3465 5.16657 19.0206 5.22078 18.6051C5.31416 17.8891 5.96876 16.6508 8.4995 15.4666Z" fill="#04071E"/>
<path fill-rule="evenodd" clip-rule="evenodd" d="M9.42238 14.1185L9.09597 14.2194C9.42293 14.1185 9.42238 14.1185 9.42238 14.1185L9.42392 14.1235L9.42808 14.1371L9.44381 14.1892C9.45743 14.2346 9.47713 14.301 9.50168 14.3856C9.55076 14.5549 9.61928 14.7973 9.6974 15.0911C9.85344 15.6781 10.0486 16.4734 10.2034 17.3024C10.3575 18.128 10.4746 19.0022 10.4682 19.7419C10.4649 20.1115 10.4309 20.4622 10.3478 20.7627C10.2656 21.0599 10.1256 21.3432 9.88335 21.5315C9.67887 21.6904 9.46002 21.783 9.23083 21.8041C9.003 21.8249 8.79059 21.7728 8.60105 21.6833C8.23454 21.5103 7.91864 21.1807 7.66224 20.8662C7.49585 20.6622 7.3306 20.4326 7.18725 20.2334C7.11255 20.1296 7.0438 20.034 6.98393 19.9547C6.93806 19.8939 6.89714 19.842 6.86071 19.7986C6.86027 19.8011 6.85983 19.8037 6.85939 19.8063C6.84853 19.8705 6.83492 19.9508 6.81535 20.0323C6.77172 20.2142 6.69034 20.4404 6.49467 20.6292C6.29666 20.8202 6.01972 20.9367 5.65392 20.9751C5.16553 21.0277 4.69283 20.6988 4.38934 20.264C4.07218 19.8096 3.88124 19.1701 3.97611 18.4428C4.16752 16.9753 5.49231 15.2645 8.97052 13.9008L9.31367 13.7663L9.42238 14.1185ZM8.87372 14.6781C5.76478 15.9737 4.79338 17.4682 4.65472 18.5313C4.58203 19.0886 4.73044 19.557 4.95053 19.8723C5.18403 20.2068 5.4459 20.3094 5.58111 20.2947L5.58242 20.2945C5.84068 20.2674 5.95954 20.1945 6.01953 20.1366C6.08186 20.0765 6.12068 19.9944 6.14989 19.8726C6.16379 19.8147 6.17367 19.7566 6.18518 19.6889C6.18605 19.6837 6.18694 19.6785 6.18783 19.6733C6.19937 19.6055 6.21418 19.5192 6.23825 19.4386C6.26223 19.3584 6.30404 19.2525 6.38899 19.1613C6.48257 19.0608 6.60495 19.0032 6.74182 18.9883C6.86284 18.9751 6.96568 19.0117 7.03774 19.0497C7.10999 19.0878 7.17273 19.1385 7.22465 19.1869C7.32788 19.2832 7.43175 19.412 7.53024 19.5425C7.60918 19.6471 7.68651 19.7548 7.76524 19.8645C7.89881 20.0505 8.03638 20.2421 8.19263 20.4338C8.43766 20.7343 8.67298 20.9605 8.89319 21.0644C8.99701 21.1134 9.08685 21.13 9.16835 21.1226C9.2485 21.1152 9.34608 21.0823 9.46334 20.9912C9.54288 20.9293 9.62605 20.805 9.68822 20.5803C9.74944 20.3589 9.78089 20.0735 9.78382 19.736C9.78968 19.0616 9.68182 18.2378 9.53063 17.428C9.38005 16.6215 9.18941 15.844 9.03601 15.2669C8.97396 15.0335 8.91813 14.8334 8.87372 14.6781Z" fill="#04071E"/>
<path d="M5.61855 20.6348C4.37042 20.7708 2.23374 16.9099 9.09597 14.2194C9.09597 14.2194 10.9607 20.2609 9.67372 21.2613C8.38675 22.2618 7.26976 19.275 6.77925 19.3284C6.28874 19.3818 6.86667 20.5037 5.61855 20.6348Z" fill="#04071E"/>
</svg>
