<svg width="24" height="24" viewBox="0 0 24 24" fill="none" xmlns="http://www.w3.org/2000/svg">
<path fill-rule="evenodd" clip-rule="evenodd" d="M5.03347 4.43286C5.03313 4.42921 5.03281 4.42537 5.03251 4.42135C5.05315 4.39408 5.10467 4.3395 5.22273 4.27476C5.43673 4.15741 5.77349 4.0799 6.18115 4.17814C6.88309 4.34728 8.04404 5.12965 8.9495 7.77207C8.37414 7.85973 7.61898 7.95961 6.84457 8.0197C6.03682 8.08238 5.2491 8.0983 4.63368 8.02646C4.32511 7.99044 4.09901 7.93653 3.9495 7.87717C3.90351 7.85891 3.87195 7.84304 3.85123 7.83121C3.92112 7.73705 4.07668 7.59573 4.35752 7.41329C4.55431 7.28545 4.72917 7.1868 4.91414 7.08245C5.0345 7.01454 5.15914 6.94423 5.29689 6.86188C5.44113 6.77565 5.61696 6.66491 5.76395 6.53772C5.83836 6.47334 5.93615 6.37883 6.02053 6.25342C6.10464 6.1284 6.21042 5.92 6.21042 5.64766C6.21042 5.38359 6.12387 5.12037 5.93789 4.90498C5.77389 4.71505 5.58112 4.6197 5.46672 4.57167C5.35507 4.52481 5.24095 4.49271 5.17758 4.47489L5.16264 4.47069C5.10255 4.45378 5.06549 4.44335 5.03347 4.43286ZM10.1253 8.49843L10.2998 9.39407L11.264 9.20621L11.0057 8.25849C10.0013 4.57311 8.3469 2.82281 6.60866 2.40396C5.75667 2.19866 4.95488 2.3403 4.34525 2.67461C3.79082 2.97864 3.20534 3.56802 3.20534 4.35584C3.20534 4.81429 3.31546 5.23688 3.58407 5.57955C3.61452 5.61839 3.6459 5.65477 3.67793 5.68886C3.56947 5.75316 3.46168 5.81902 3.36333 5.88291C3.01053 6.1121 2.556 6.44808 2.27407 6.90885C2.12344 7.15504 2.0082 7.45884 2.0022 7.80991C1.99614 8.16458 2.10284 8.49798 2.28684 8.79697C2.53781 9.20479 2.93112 9.43636 3.27606 9.57332C3.62958 9.71368 4.0286 9.79317 4.42209 9.83911C5.21081 9.93117 6.13501 9.9052 6.98576 9.83919C7.84547 9.77247 8.67224 9.66128 9.28106 9.56752C9.58637 9.5205 9.83897 9.47754 10.0161 9.44617C10.1047 9.43048 10.1745 9.41767 10.2227 9.40868L10.2785 9.39816L10.2936 9.39527L10.2998 9.39407C10.3 9.39404 10.2998 9.39407 10.1253 8.49843ZM4.56984 5.15766C4.56959 5.15787 4.56934 5.15809 4.56908 5.15831L4.56984 5.15766Z" fill="#006600"/>
<path fill-rule="evenodd" clip-rule="evenodd" d="M4.94804 3.77471C4.58971 3.97121 4.45952 4.22055 4.45952 4.35583C4.45952 4.61462 4.51964 4.73995 4.57104 4.80552C4.62462 4.87387 4.7028 4.92124 4.82157 4.96328C4.87756 4.98309 4.93406 4.99897 4.99977 5.01744C5.00537 5.01901 5.01104 5.02061 5.01678 5.02222C5.08326 5.04093 5.16776 5.06488 5.24551 5.09752C5.32299 5.13004 5.42409 5.18311 5.50575 5.27769C5.59567 5.38182 5.63965 5.50993 5.63965 5.64766C5.63965 5.76914 5.59244 5.86735 5.54689 5.93505C5.50124 6.0029 5.44409 6.05992 5.39032 6.10645C5.28345 6.19891 5.14419 6.28844 5.00379 6.37237C4.89074 6.43996 4.77487 6.50551 4.65693 6.57224C4.45807 6.68475 4.25334 6.80058 4.04636 6.93504C3.72123 7.14625 3.47099 7.35582 3.34383 7.56366C3.28387 7.66165 3.2576 7.74931 3.2562 7.83134C3.25482 7.91203 3.27699 8.01279 3.3549 8.1394C3.4077 8.22519 3.52209 8.32126 3.73857 8.40721C3.95183 8.49188 4.23197 8.55379 4.56709 8.59291C5.23666 8.67107 6.06703 8.65201 6.88821 8.58828C7.70603 8.52482 8.49948 8.41836 9.08961 8.32748C9.32844 8.2907 9.53346 8.25655 9.69268 8.22897C8.73855 4.99968 7.35668 3.87488 6.31427 3.6237C5.76776 3.49201 5.28568 3.58956 4.94804 3.77471ZM10.1248 8.49842L10.1903 8.83429L10.5518 8.76384L10.455 8.40845C9.47277 4.80458 7.91371 3.30516 6.47459 2.95838C5.76145 2.78654 5.10499 2.90814 4.61899 3.17465C4.15369 3.4298 3.77516 3.86462 3.77516 4.35583C3.77516 4.72353 3.86256 5.011 4.03243 5.22772C4.20012 5.44164 4.41698 5.54604 4.59324 5.60842C4.67187 5.63625 4.75 5.65816 4.8125 5.67568C4.81579 5.67661 4.81904 5.67752 4.82224 5.67842C4.77494 5.7102 4.71855 5.74557 4.65264 5.78497C4.5671 5.8361 4.46431 5.89442 4.3526 5.95779C4.13941 6.07873 3.89374 6.2181 3.67354 6.36115C3.33332 6.58217 2.97164 6.86068 2.76007 7.20649C2.65065 7.38531 2.57585 7.59087 2.57194 7.81965C2.56801 8.04978 2.63629 8.27744 2.77206 8.49807C2.93295 8.75952 3.19948 8.92949 3.48603 9.04327C3.7758 9.15832 4.12078 9.22981 4.48774 9.27265C5.2223 9.3584 6.10385 9.33557 6.94116 9.27059C7.78183 9.20536 8.59345 9.09631 9.19378 9.00386C9.49428 8.95758 9.74262 8.91534 9.91615 8.88461C10.0029 8.86924 10.071 8.85674 10.1177 8.84804L10.1711 8.83797L10.1851 8.83528L10.1903 8.83429C10.1904 8.83427 10.1903 8.83429 10.1248 8.49842Z" fill="#A4CF88"/>
<path d="M4.11769 4.35583C4.11769 3.10285 8.18744 1.3885 10.1252 8.49842C10.1252 8.49842 3.91857 9.70769 3.06383 8.31873C2.20909 6.92977 5.29782 6.14302 5.29782 5.64765C5.29782 5.15229 4.11769 5.6088 4.11769 4.35583Z" fill="url(#paint0_linear_109_142)"/>
<path fill-rule="evenodd" clip-rule="evenodd" d="M15.7805 3.47247C15.7687 3.49319 15.7528 3.52476 15.7345 3.57075C15.6752 3.72025 15.6213 3.94636 15.5853 4.25493C15.5134 4.87034 15.5293 5.65807 15.592 6.46581C15.6521 7.24022 15.752 7.99538 15.8396 8.57074C18.4821 7.66529 19.2644 6.50434 19.4336 5.8024C19.5318 5.39474 19.4543 5.05798 19.3369 4.84398C19.2722 4.72585 19.2176 4.67434 19.1903 4.65373C19.1857 4.65407 19.1813 4.65444 19.1771 4.65483C19.1668 4.68655 19.1565 4.72366 19.1398 4.78363L19.1361 4.79678C19.1185 4.85998 19.0868 4.97401 19.0404 5.0855C18.9927 5.19994 18.8978 5.39344 18.7077 5.55816C18.4919 5.74507 18.2281 5.83167 17.964 5.83167C17.6917 5.83167 17.4833 5.72589 17.3583 5.64178C17.2329 5.55739 17.1384 5.4596 17.074 5.3852C16.9468 5.2382 16.8361 5.06238 16.7498 4.91813C16.6675 4.78038 16.5972 4.65574 16.5293 4.53538C16.4249 4.35041 16.3263 4.17555 16.1984 3.97876C16.016 3.69793 15.8747 3.54237 15.7805 3.47247ZM15.1133 9.74655C14.2176 9.92106 14.2176 9.92093 14.2176 9.92077L14.2164 9.91484L14.2135 9.89974L14.203 9.84395C14.194 9.79574 14.1812 9.72592 14.1655 9.63733C14.1342 9.46022 14.0912 9.20762 14.0442 8.9023C13.9504 8.29348 13.8392 7.46671 13.7725 6.607C13.7065 5.75625 13.6805 4.83206 13.7726 4.04334C13.8185 3.64984 13.898 3.25082 14.0384 2.8973C14.1753 2.55236 14.4069 2.15905 14.8147 1.90808C15.1137 1.72409 15.4471 1.61738 15.8018 1.62344C16.1529 1.62944 16.4567 1.74469 16.7029 1.89532C17.1636 2.17724 17.4996 2.63178 17.7288 2.98458C17.7924 3.08254 17.858 3.18987 17.9221 3.2979C17.956 3.26615 17.9921 3.23505 18.0307 3.20488C18.3739 2.93627 18.7971 2.82659 19.2559 2.82659C20.0437 2.82659 20.6331 3.41206 20.9371 3.9665C21.2714 4.57613 21.4131 5.37792 21.2078 6.22991C20.7889 7.96815 19.0386 9.6225 15.3532 10.6269L14.4055 10.8852L14.2176 9.92077L15.1133 9.74655ZM18.454 4.19109C18.4538 4.19084 18.4536 4.19059 18.4534 4.19033L18.454 4.19109Z" fill="#006600"/>
<path fill-rule="evenodd" clip-rule="evenodd" d="M15.7806 2.87792C15.6999 2.87654 15.5992 2.89871 15.4726 2.97662C15.3868 3.02942 15.2907 3.14381 15.2048 3.36029C15.1201 3.57355 15.0582 3.85369 15.0191 4.1888C14.9409 4.85838 14.96 5.68875 15.0237 6.50993C15.0871 7.32775 15.1936 8.1212 15.2845 8.71133C15.3213 8.95016 15.3554 9.15518 15.383 9.3144C18.6123 8.36027 19.7371 6.9784 19.9883 5.93599C20.12 5.38948 20.0224 4.9074 19.8373 4.56976C19.6408 4.21143 19.3914 4.08124 19.2561 4.08124C18.9958 4.08124 18.8699 4.14152 18.8042 4.19292C18.7359 4.24637 18.6888 4.32426 18.6471 4.4427C18.6273 4.49884 18.6115 4.55556 18.5932 4.62162C18.5917 4.62689 18.5902 4.63223 18.5887 4.63762C18.5702 4.704 18.5465 4.78854 18.5142 4.86631C18.4819 4.9438 18.4291 5.04517 18.3345 5.12711C18.2303 5.21737 18.102 5.26137 17.9643 5.26137C17.8428 5.26137 17.7446 5.21416 17.6769 5.16861C17.6091 5.12296 17.552 5.06581 17.5055 5.01204C17.4131 4.90517 17.3235 4.76591 17.2396 4.62551C17.172 4.51245 17.1065 4.39658 17.0397 4.27865C16.9272 4.07979 16.8114 3.87506 16.6769 3.66808C16.4657 3.34295 16.2562 3.09271 16.0483 2.96555C15.9503 2.90559 15.8627 2.87932 15.7806 2.87792ZM15.1135 9.74655C14.7777 9.81199 14.7777 9.81193 14.7777 9.81184L14.7767 9.80684L14.774 9.79285L14.7639 9.73938C14.7552 9.69276 14.7427 9.62465 14.7274 9.53787C14.6966 9.36434 14.6544 9.116 14.6081 8.8155C14.5157 8.21517 14.4066 7.40355 14.3414 6.56288C14.2764 5.72557 14.2536 4.84402 14.3393 4.10946C14.3822 3.7425 14.4537 3.39752 14.5687 3.10775C14.6825 2.8212 14.8525 2.55467 15.1139 2.39378C15.3345 2.25801 15.5622 2.18972 15.7923 2.19366C16.0211 2.19757 16.2267 2.27237 16.4055 2.38179C16.7513 2.59336 17.0298 2.95504 17.2508 3.29526C17.3939 3.51546 17.5332 3.76113 17.6542 3.97431C17.7176 4.08603 17.7759 4.18882 17.827 4.27436C17.866 4.33963 17.9011 4.39557 17.9326 4.44258C17.9333 4.4403 17.9339 4.43801 17.9345 4.43569C17.9519 4.37302 17.9737 4.29456 18.0015 4.21555C18.0637 4.03896 18.168 3.82182 18.3824 3.65399C18.5995 3.48411 18.8876 3.39688 19.2561 3.39688C19.7473 3.39688 20.1822 3.77541 20.4373 4.24071C20.7038 4.72671 20.8254 5.38317 20.6536 6.09631C20.3068 7.53543 18.8074 9.09449 15.2035 10.0767L14.8481 10.1735L14.7777 9.81184L15.1135 9.74655Z" fill="#A4CF88"/>
<path d="M19.2558 3.73906C20.5087 3.73906 22.2231 7.80881 15.1132 9.74655C15.1132 9.74655 13.9039 3.53994 15.2929 2.6852C16.6818 1.83045 17.4686 4.91919 17.9639 4.91919C18.4593 4.91919 17.9979 3.73906 19.2558 3.73906Z" fill="url(#paint1_linear_109_142)"/>
<path fill-rule="evenodd" clip-rule="evenodd" d="M15.058 15.987C15.6377 15.9344 16.3976 15.8805 17.1742 15.8675C17.9844 15.8539 18.7716 15.8857 19.3815 15.9947C19.6872 16.0493 19.9095 16.1168 20.055 16.185C20.1005 16.2064 20.1313 16.2243 20.1511 16.2374C20.076 16.3271 19.9123 16.459 19.6208 16.6243C19.4163 16.7403 19.2342 16.829 19.0417 16.9228C18.9184 16.9828 18.7909 17.0449 18.6506 17.1175C18.5016 17.1946 18.3197 17.2941 18.1656 17.4115C18.0877 17.4709 17.9843 17.5589 17.8923 17.6787C17.8008 17.7978 17.6812 18.0002 17.6649 18.2739L17.6649 18.2749C17.6497 18.5354 17.7183 18.8008 17.8877 19.0266C18.038 19.227 18.2231 19.3356 18.3356 19.3921C18.4453 19.4472 18.5582 19.4871 18.6207 19.5092L18.6408 19.5163C18.6977 19.5364 18.7328 19.5488 18.7637 19.5612C18.7639 19.5647 18.764 19.5684 18.764 19.5723C18.7418 19.5984 18.687 19.65 18.5651 19.7075C18.3447 19.8116 18.0044 19.8684 17.6039 19.7455C16.9137 19.5337 15.8024 18.6812 15.058 15.987ZM20.83 14.5328C21.1656 14.6903 21.544 14.945 21.7696 15.367C21.9354 15.6761 22.0222 16.0149 21.9953 16.3684C21.9686 16.7187 21.8355 17.0153 21.6704 17.2522C21.3614 17.6956 20.8874 18.004 20.5212 18.2117C20.4176 18.2704 20.3046 18.3304 20.1912 18.3887C20.2215 18.425 20.251 18.4636 20.2794 18.5047C20.526 18.8619 20.611 19.289 20.5843 19.7458L20.5841 19.7491C20.5354 20.5346 19.9168 21.0875 19.3442 21.3578C18.7152 21.6548 17.9063 21.7473 17.0685 21.4902C15.3597 20.9658 13.8152 19.1173 13.0349 15.377L12.8342 14.4151L13.8083 14.2861L13.9281 15.1907C13.8083 14.2861 13.8082 14.2861 13.8083 14.2861L13.8146 14.2853L13.8299 14.2833L13.8862 14.2762C13.9349 14.2702 14.0053 14.2616 14.0947 14.2513C14.2734 14.2308 14.5282 14.2032 14.8359 14.1748C15.4493 14.1181 16.2814 14.0573 17.1436 14.0428C17.9968 14.0285 18.9209 14.0586 19.7024 14.1982C20.0923 14.2679 20.4858 14.3713 20.83 14.5328ZM19.2714 18.8633C19.2717 18.8631 19.272 18.8629 19.2723 18.8626L19.2714 18.8633Z" fill="#006600"/>
<path fill-rule="evenodd" clip-rule="evenodd" d="M14.3439 15.4859C15.1015 18.7684 16.4123 19.9762 17.4372 20.2907C17.9744 20.4555 18.4611 20.3876 18.8092 20.2232C19.1779 20.0492 19.3237 19.8082 19.3325 19.6719C19.3474 19.4147 19.295 19.2863 19.2476 19.2176C19.1981 19.1461 19.123 19.094 19.0072 19.0445C18.9535 19.0216 18.8992 19.0025 18.8362 18.9802C18.8296 18.9779 18.8229 18.9755 18.8161 18.9731C18.7508 18.9501 18.668 18.9205 18.5923 18.8825C18.5166 18.8444 18.4195 18.7844 18.3445 18.6844C18.2623 18.5748 18.2269 18.4448 18.2348 18.3081C18.2421 18.1863 18.2957 18.0906 18.3452 18.0261C18.3949 17.9614 18.4554 17.9081 18.5118 17.8652C18.6239 17.7798 18.7682 17.6991 18.9134 17.624C19.0289 17.5642 19.1473 17.5064 19.2678 17.4475C19.4743 17.3466 19.6872 17.2427 19.9028 17.1204C20.24 16.9291 20.5024 16.7348 20.6416 16.5349C20.7073 16.4407 20.7386 16.3548 20.7449 16.2731C20.751 16.1927 20.7348 16.0907 20.6644 15.9597C20.6171 15.8711 20.5086 15.7676 20.2978 15.6687C20.0902 15.5713 19.8145 15.4926 19.4824 15.4333C18.8189 15.3147 17.9889 15.2834 17.1653 15.2973C16.3451 15.311 15.5465 15.3692 14.9519 15.4241C14.7112 15.4463 14.5045 15.468 14.3439 15.4859ZM21.2677 15.6366C21.3903 15.8649 21.4447 16.0955 21.4273 16.3251C21.4099 16.5533 21.323 16.7541 21.2031 16.9262C20.9713 17.2589 20.5935 17.5154 20.2405 17.7156C20.0105 17.8461 19.7557 17.9708 19.5349 18.079C19.4208 18.1348 19.3158 18.1862 19.228 18.2317C19.1583 18.2678 19.0988 18.3003 19.0489 18.3296C19.054 18.3314 19.0593 18.3332 19.0646 18.3351C19.1251 18.3564 19.2006 18.383 19.276 18.4152C19.4473 18.4883 19.6566 18.6056 19.8107 18.8288C19.9668 19.0548 20.037 19.3463 20.0156 19.7126L20.0155 19.7138C19.9851 20.2041 19.5814 20.6154 19.1013 20.8421C18.6001 21.0788 17.9376 21.1601 17.2364 20.9449C15.8216 20.5108 14.3569 18.9184 13.5938 15.2606L13.5186 14.8998L13.8838 14.8515L13.9288 15.1907C13.8838 14.8515 13.8838 14.8515 13.8838 14.8515L13.889 14.8508L13.9032 14.849L13.9572 14.8421C14.0042 14.8363 14.073 14.8279 14.1606 14.8179C14.3357 14.7977 14.5861 14.7706 14.8889 14.7427C15.4938 14.6868 16.3107 14.6272 17.1538 14.613C17.9936 14.5989 18.8749 14.6295 19.6028 14.7596C19.9664 14.8246 20.3063 14.9168 20.5885 15.0491C20.8675 15.18 21.1232 15.3658 21.2677 15.6366Z" fill="#A4CF88"/>
<path d="M19.6737 19.6927C19.596 20.9456 15.434 22.4074 13.9285 15.1907C13.9285 15.1907 20.1982 14.3602 20.9655 15.7978C21.7377 17.2353 18.6053 17.8375 18.5761 18.328C18.547 18.8282 19.7466 18.4445 19.6737 19.6927Z" fill="url(#paint2_linear_109_142)"/>
<path fill-rule="evenodd" clip-rule="evenodd" d="M9.96774 13.9502L9.09585 14.2194C9.96774 13.9502 9.96769 13.9501 9.96774 13.9502L9.9696 13.9563L9.97409 13.971L9.9905 14.0253C10.0046 14.0723 10.0248 14.1403 10.0498 14.2268C10.0999 14.3995 10.1696 14.646 10.249 14.9446C10.4072 15.5399 10.6061 16.35 10.7644 17.1977C10.921 18.0366 11.0458 18.9527 11.0389 19.7469C11.0354 20.1431 10.9993 20.5483 10.8979 20.9147C10.799 21.2722 10.6115 21.6881 10.2338 21.9817C9.95662 22.1972 9.63672 22.3396 9.28333 22.372C8.93356 22.404 8.61901 22.3222 8.35803 22.199C7.8696 21.9684 7.48656 21.5527 7.22068 21.2266C7.14596 21.135 7.06832 21.0342 6.99226 20.9326C6.96105 20.9688 6.92738 21.0045 6.89106 21.0396C6.57804 21.3416 6.16936 21.4945 5.71394 21.5423C4.93195 21.6258 4.28388 21.1087 3.92212 20.5904C3.52405 20.02 3.29769 19.238 3.41103 18.369C3.64221 16.5966 5.20608 14.7644 8.76278 13.3699L9.67784 13.0111L9.96774 13.9502ZM6.3694 20.1045C6.36964 20.1047 6.36988 20.105 6.37013 20.1052L6.3694 20.1045ZM8.49938 15.4666C8.64797 16.0292 8.82791 16.7692 8.97045 17.5327C9.11918 18.3292 9.21937 19.111 9.21398 19.731C9.21127 20.0419 9.18197 20.2728 9.13899 20.4282C9.12582 20.4758 9.11347 20.509 9.10392 20.531C9.00284 20.4713 8.84595 20.332 8.63505 20.0734C8.48663 19.8913 8.36931 19.7275 8.24524 19.5543C8.16503 19.4423 8.08199 19.3263 7.98592 19.199C7.88479 19.065 7.75596 18.9022 7.61404 18.7698C7.54223 18.7029 7.4379 18.6158 7.30428 18.5453C7.17121 18.4751 6.95214 18.3917 6.68051 18.4213C6.41771 18.4499 6.16573 18.5647 5.97214 18.7725C5.80156 18.9556 5.72765 19.157 5.69228 19.2753C5.65785 19.3905 5.6381 19.5066 5.62714 19.5711L5.62507 19.5833C5.61456 19.6451 5.60806 19.6832 5.60112 19.7159C5.59608 19.7169 5.59068 19.7179 5.5849 19.7189C5.55593 19.7017 5.49601 19.6568 5.41862 19.5459C5.27943 19.3465 5.16645 19.0206 5.22066 18.605C5.31404 17.8891 5.96864 16.6508 8.49938 15.4666Z" fill="#006600"/>
<path fill-rule="evenodd" clip-rule="evenodd" d="M9.42233 14.1185L9.09538 14.2194C9.42233 14.1185 9.42231 14.1184 9.42233 14.1185L9.42387 14.1235L9.42803 14.1371L9.44376 14.1892C9.45738 14.2346 9.47708 14.301 9.50163 14.3856C9.55072 14.5549 9.61924 14.7973 9.69735 15.0911C9.8534 15.6781 10.0485 16.4734 10.2033 17.3024C10.3575 18.128 10.4745 19.0022 10.4681 19.7419C10.4649 20.1115 10.4309 20.4622 10.3478 20.7627C10.2656 21.0599 10.1255 21.3432 9.88331 21.5315C9.67882 21.6904 9.45997 21.783 9.23079 21.8041C9.00295 21.8249 8.79055 21.7728 8.601 21.6833C8.23449 21.5103 7.9186 21.1807 7.66219 20.8662C7.49581 20.6622 7.33055 20.4326 7.18721 20.2334C7.1125 20.1296 7.04375 20.034 6.98389 19.9547C6.93802 19.8939 6.8971 19.842 6.86066 19.7986C6.86023 19.8011 6.85979 19.8037 6.85935 19.8063C6.84848 19.8705 6.83488 19.9508 6.81531 20.0323C6.77167 20.2142 6.69029 20.4404 6.49463 20.6292C6.29662 20.8202 6.01967 20.9367 5.65387 20.9751C5.16549 21.0277 4.69278 20.6988 4.3893 20.264C4.07213 19.8095 3.8812 19.1701 3.97606 18.4428C4.16747 16.9753 5.49226 15.2645 8.97047 13.9008L9.31362 13.7663L9.42233 14.1185ZM8.87367 14.6781C5.76473 15.9737 4.79333 17.4682 4.65467 18.5313C4.58198 19.0886 4.7304 19.557 4.95048 19.8723C5.18398 20.2068 5.44585 20.3094 5.58106 20.2947L5.58237 20.2945C5.84063 20.2674 5.95949 20.1945 6.01948 20.1366C6.08182 20.0765 6.12064 19.9943 6.14985 19.8726C6.16375 19.8147 6.17362 19.7566 6.18513 19.6889C6.18601 19.6837 6.18689 19.6785 6.18779 19.6733C6.19932 19.6055 6.21414 19.5191 6.23821 19.4386C6.26219 19.3584 6.30399 19.2525 6.38894 19.1613C6.48253 19.0608 6.60491 19.0032 6.74178 18.9883C6.8628 18.9751 6.96564 19.0117 7.03769 19.0497C7.10995 19.0878 7.17268 19.1385 7.22461 19.1869C7.32783 19.2832 7.4317 19.412 7.53019 19.5425C7.60913 19.6471 7.68647 19.7548 7.7652 19.8645C7.89876 20.0505 8.03634 20.2421 8.19258 20.4338C8.43761 20.7343 8.67293 20.9605 8.89315 21.0644C8.99696 21.1134 9.0868 21.13 9.1683 21.1226C9.24845 21.1152 9.34604 21.0823 9.46329 20.9912C9.54284 20.9293 9.62601 20.805 9.68817 20.5803C9.7494 20.3589 9.78084 20.0735 9.78377 19.736C9.78964 19.0616 9.68178 18.2378 9.53059 17.428C9.38001 16.6215 9.18937 15.844 9.03596 15.2669C8.97391 15.0335 8.91809 14.8334 8.87367 14.6781Z" fill="#A4CF88"/>
<path d="M5.61847 20.6348C4.37035 20.7708 2.23349 16.9099 9.09572 14.2194C9.09572 14.2194 10.9606 20.2609 9.67365 21.2613C8.38668 22.2618 7.26968 19.275 6.77917 19.3284C6.28867 19.3818 6.86659 20.5037 5.61847 20.6348Z" fill="url(#paint3_linear_109_142)"/>
<defs>
<linearGradient id="paint0_linear_109_142" x1="6.51886" y1="8.8918" x2="6.51886" y2="3.34177" gradientUnits="userSpaceOnUse">
<stop stop-color="#298122"/>
<stop offset="0.2857" stop-color="#016701"/>
<stop offset="0.2858" stop-color="#44942E"/>
<stop offset="1" stop-color="#85BF5A"/>
</linearGradient>
<linearGradient id="paint1_linear_109_142" x1="17.507" y1="8.89181" x2="17.507" y2="3.34178" gradientUnits="userSpaceOnUse">
<stop stop-color="#298122"/>
<stop offset="0.2857" stop-color="#016701"/>
<stop offset="0.2858" stop-color="#44942E"/>
<stop offset="1" stop-color="#85BF5A"/>
</linearGradient>
<linearGradient id="paint2_linear_109_142" x1="17.5073" y1="19.6247" x2="17.5073" y2="14.9584" gradientUnits="userSpaceOnUse">
<stop stop-color="#298122"/>
<stop offset="0.2857" stop-color="#016701"/>
<stop offset="0.2858" stop-color="#44942E"/>
<stop offset="1" stop-color="#85BF5A"/>
</linearGradient>
<linearGradient id="paint3_linear_109_142" x1="7.2094" y1="19.6247" x2="7.2094" y2="14.9584" gradientUnits="userSpaceOnUse">
<stop stop-color="#298122"/>
<stop offset="0.2857" stop-color="#016701"/>
<stop offset="0.2858" stop-color="#44942E"/>
<stop offset="1" stop-color="#85BF5A"/>
</linearGradient>
</defs>
</svg>
