<svg width="24" height="24" viewBox="0 0 24 24" fill="none" xmlns="http://www.w3.org/2000/svg">
<path d="M13.6964 7.73495C13.6964 9.30992 13.0686 10.8204 11.9513 11.9341C10.8339 13.0477 9.3184 13.6734 7.7382 13.6734C6.15799 13.6734 4.64251 13.0477 3.52514 11.9341C2.40776 10.8204 1.78003 9.30992 1.78003 7.73495C1.78003 6.15998 2.40776 4.64951 3.52514 3.53584C4.64251 2.42216 6.15799 1.79651 7.7382 1.79651C9.3184 1.79651 10.8339 2.42216 11.9513 3.53584C13.0686 4.64951 13.6964 6.15998 13.6964 7.73495Z" fill="url(#paint0_linear_97_40)"/>
<path d="M21.9999 16.2631C21.9999 17.0432 21.8457 17.8156 21.5462 18.5364C21.2467 19.2571 20.8077 19.912 20.2542 20.4636C19.7008 21.0152 19.0437 21.4528 18.3206 21.7513C17.5975 22.0499 16.8224 22.2035 16.0397 22.2035C14.459 22.2035 12.943 21.5777 11.8252 20.4636C10.7074 19.3495 10.0795 17.8386 10.0795 16.2631C10.0795 14.6875 10.7074 13.1766 11.8252 12.0625C12.943 10.9484 14.459 10.3226 16.0397 10.3226C16.8224 10.3226 17.5975 10.4762 18.3206 10.7748C19.0437 11.0733 19.7008 11.5109 20.2542 12.0625C20.8077 12.6141 21.2467 13.269 21.5462 13.9897C21.8457 14.7105 21.9999 15.4829 21.9999 16.2631Z" fill="url(#paint1_linear_97_40)"/>
<path opacity="0.05" fill-rule="evenodd" clip-rule="evenodd" d="M1.80182 8.2431C1.89436 9.36513 2.30295 10.438 2.98023 11.3373C3.65751 12.2366 4.57576 12.9256 5.62858 13.3245C6.6814 13.7233 7.82568 13.8157 8.92884 13.5909C10.032 13.366 11.0489 12.8332 11.8616 12.0542C12.6744 11.2751 13.2497 10.2817 13.5211 9.18904C13.7924 8.09639 13.7485 6.94922 13.3946 5.88047C13.0406 4.81171 12.3911 3.86513 11.5212 3.1504C10.6514 2.43567 9.59678 1.98205 8.47967 1.8421C6.96286 2.3495 5.57731 3.18668 4.42266 4.29346C3.26801 5.40024 2.37295 6.74912 1.80182 8.2431Z" fill="black"/>
<path opacity="0.05" fill-rule="evenodd" clip-rule="evenodd" d="M21.9844 15.8365C21.9066 14.7008 21.5051 13.6111 20.8275 12.6964C20.1499 11.7817 19.2245 11.0802 18.1607 10.6749C17.0969 10.2696 15.9393 10.1774 14.8249 10.4093C13.7104 10.6412 12.6856 11.1875 11.8718 11.9834C11.058 12.7794 10.4891 13.7918 10.2326 14.9009C9.97608 16.01 10.0426 17.1693 10.4242 18.2418C10.8058 19.3143 11.4866 20.255 12.3861 20.9528C13.2856 21.6505 14.3661 22.076 15.4998 22.179C16.9751 21.6537 18.319 20.8145 19.4385 19.7193C20.5581 18.6242 21.4267 17.2999 21.9844 15.8365Z" fill="black"/>
<path opacity="0.1" fill-rule="evenodd" clip-rule="evenodd" d="M2.08063 9.60079C2.39358 10.5581 2.94422 11.4205 3.68106 12.1072C4.4179 12.7939 5.31686 13.2824 6.29386 13.5272C7.27086 13.772 8.29399 13.765 9.26756 13.5069C10.2411 13.2488 11.1333 12.748 11.8607 12.0513C12.5881 11.3546 13.1269 10.4848 13.4267 9.52326C13.7266 8.56172 13.7776 7.53984 13.5752 6.55319C13.3727 5.56655 12.9233 4.64737 12.269 3.88163C11.6147 3.11589 10.7769 2.52859 9.83393 2.17468C7.97565 2.56183 6.26352 3.46327 4.89269 4.77624C3.52186 6.08922 2.54749 7.76092 2.08063 9.60079Z" fill="black"/>
<path opacity="0.1" fill-rule="evenodd" clip-rule="evenodd" d="M21.7136 14.4407C21.4053 13.472 20.8542 12.5984 20.1128 11.9029C19.3714 11.2073 18.4643 10.7131 17.4779 10.4672C16.4915 10.2213 15.4586 10.2319 14.4775 10.498C13.4964 10.764 12.5996 11.2768 11.8727 11.9873C11.1457 12.6979 10.6126 13.5826 10.3241 14.5574C10.0357 15.5322 10.0015 16.5646 10.2248 17.5564C10.4481 18.5481 10.9215 19.4662 11.5998 20.2233C12.2782 20.9804 13.1391 21.5514 14.1004 21.8818C15.9349 21.4701 17.6187 20.556 18.9632 19.2419C20.3078 17.9277 21.2601 16.2653 21.7136 14.4407Z" fill="black"/>
<path opacity="0.1" fill-rule="evenodd" clip-rule="evenodd" d="M2.29962 10.1641C2.68729 11.0376 3.27953 11.8049 4.02629 12.4013C4.77305 12.9977 5.6524 13.4055 6.59002 13.5904C7.52764 13.7753 8.49599 13.7318 9.41324 13.4635C10.3305 13.1952 11.1697 12.7101 11.8599 12.0491C12.5501 11.3881 13.0711 10.5707 13.3788 9.66592C13.6865 8.76114 13.7719 7.79558 13.6278 6.85084C13.4837 5.90609 13.1143 5.00993 12.5508 4.23806C11.9873 3.46619 11.2462 2.8413 10.3903 2.4162C8.41086 2.72431 6.57364 3.63247 5.12677 5.01803C3.67991 6.40358 2.6931 8.19979 2.29962 10.1641Z" fill="black"/>
<path opacity="0.1" fill-rule="evenodd" clip-rule="evenodd" d="M21.4938 13.8659C21.1081 12.9822 20.5137 12.2054 19.7616 11.6022C19.0095 10.999 18.1222 10.5873 17.1759 10.4026C16.2296 10.218 15.2526 10.2658 14.3289 10.542C13.4051 10.8181 12.5622 11.3144 11.8726 11.9882C11.183 12.662 10.6672 13.4932 10.3697 14.4102C10.0721 15.3273 10.0016 16.3029 10.1642 17.2532C10.3269 18.2036 10.7178 19.1002 11.3034 19.8661C11.889 20.6321 12.6518 21.2444 13.5263 21.6505C15.4884 21.3171 17.3022 20.3933 18.7257 19.0025C20.1493 17.6116 21.1149 15.8197 21.4938 13.8659Z" fill="black"/>
<path d="M21.3278 12.0442C21.3278 13.2794 21.0837 14.5024 20.6095 15.6436C20.1352 16.7847 19.4401 17.8216 18.5638 18.695C17.6875 19.5683 16.6472 20.2612 15.5023 20.7338C14.3574 21.2065 13.1302 21.4498 11.891 21.4498C10.6517 21.4498 9.42455 21.2065 8.27961 20.7338C7.13468 20.2612 6.09437 19.5683 5.21807 18.695C4.34177 17.8216 3.64666 16.7847 3.17241 15.6436C2.69816 14.5024 2.45407 13.2794 2.45407 12.0442C2.45407 10.809 2.69816 9.58598 3.17241 8.44484C3.64666 7.3037 4.34177 6.26683 5.21807 5.39344C6.09437 4.52005 7.13468 3.82724 8.27961 3.35457C9.42455 2.88189 10.6517 2.63861 11.891 2.63861C13.1302 2.63861 14.3574 2.88189 15.5023 3.35457C16.6472 3.82724 17.6875 4.52005 18.5638 5.39344C19.4401 6.26683 20.1352 7.3037 20.6095 8.44484C21.0837 9.58598 21.3278 10.809 21.3278 12.0442Z" fill="url(#paint2_linear_97_40)"/>
<path fill-rule="evenodd" clip-rule="evenodd" d="M9.23741 11.7177C8.85605 11.4667 8.53782 11.131 8.30753 10.7368C8.0852 10.3203 7.97546 9.85299 7.98918 9.38108C7.97233 8.78218 8.17672 8.19808 8.5633 7.74035C8.96505 7.2807 9.48141 6.93568 10.0598 6.74041C10.6889 6.51817 11.3517 6.40655 12.0189 6.4105C12.4554 6.40637 12.8914 6.43983 13.3222 6.51049C13.6305 6.5581 13.9334 6.63626 14.2262 6.74381C14.4952 6.83483 14.7379 6.98984 14.9337 7.19549C15.0779 7.36468 15.1555 7.58064 15.152 7.80293C15.1572 7.91842 15.1395 8.03379 15.1001 8.14245C15.0606 8.25111 15.0002 8.35094 14.9221 8.43623C14.8483 8.51483 14.7587 8.57691 14.6591 8.61841C14.5596 8.65992 14.4524 8.67989 14.3446 8.67703C14.1963 8.67581 14.0499 8.64288 13.9154 8.58044C13.5837 8.432 13.2421 8.30699 12.893 8.20631C12.5716 8.12157 12.2403 8.08039 11.908 8.08387C11.4749 8.06793 11.0464 8.17754 10.6741 8.3995C10.517 8.49496 10.3884 8.63085 10.3017 8.79299C10.2151 8.95513 10.1736 9.13756 10.1816 9.32122C10.1793 9.56234 10.271 9.79487 10.4373 9.96948C10.635 10.1746 10.8685 10.3417 11.1264 10.4626C11.4153 10.6059 11.8461 10.796 12.4189 11.0327C12.4823 11.0528 12.5441 11.0776 12.6039 11.1068C13.1628 11.3279 13.6987 11.6034 14.2038 11.9292C14.6027 12.1893 14.9391 12.5345 15.1888 12.9401C15.4346 13.3663 15.5578 13.8522 15.5445 14.3441C15.5652 14.9463 15.3926 15.5393 15.052 16.0365C14.7053 16.5072 14.2255 16.8633 13.6746 17.0589C13.0106 17.2961 12.3089 17.4104 11.6039 17.3963C10.6352 17.4302 9.67106 17.2478 8.78165 16.8623C8.55428 16.761 8.35492 16.606 8.20074 16.4106C8.07273 16.2315 8.00636 16.0157 8.01163 15.7957C8.00528 15.6796 8.02419 15.5636 8.06705 15.4555C8.10992 15.3475 8.17572 15.25 8.25992 15.1699C8.43643 15.0153 8.66558 14.9344 8.90002 14.944C9.16122 14.9476 9.41778 15.0136 9.64827 15.1365C9.93488 15.2798 10.1609 15.3873 10.3265 15.459C10.5155 15.5381 10.7113 15.6 10.9115 15.644C11.1583 15.6981 11.4104 15.7241 11.6631 15.7215C12.11 15.7534 12.5546 15.6349 12.9263 15.3848C13.0655 15.2759 13.1767 15.1355 13.2507 14.9751C13.3248 14.8147 13.3595 14.6389 13.3521 14.4624C13.3526 14.2121 13.2572 13.9712 13.0855 13.789C12.8586 13.5548 12.5931 13.3615 12.3005 13.2176C11.9545 13.0353 11.4679 12.8131 10.8407 12.551C10.2798 12.3274 9.74268 12.0483 9.23741 11.7177Z" fill="white"/>
<defs>
<linearGradient id="paint0_linear_97_40" x1="6.809" y1="1.86861" x2="8.66739" y2="13.6013" gradientUnits="userSpaceOnUse">
<stop offset="0.012" stop-color="#00B7F0"/>
<stop offset="0.339" stop-color="#009DE5"/>
<stop offset="0.755" stop-color="#0082D9"/>
<stop offset="1" stop-color="#0078D4"/>
</linearGradient>
<linearGradient id="paint1_linear_97_40" x1="10.8808" y1="19.2411" x2="21.1979" y2="13.285" gradientUnits="userSpaceOnUse">
<stop stop-color="#0078D4"/>
<stop offset="0.37" stop-color="#007AD5"/>
<stop offset="0.573" stop-color="#0082D9"/>
<stop offset="0.735" stop-color="#0090DF"/>
<stop offset="0.875" stop-color="#00A3E7"/>
<stop offset="1" stop-color="#00BCF2"/>
</linearGradient>
<linearGradient id="paint2_linear_97_40" x1="8.20817" y1="5.66633" x2="17.6233" y2="21.9736" gradientUnits="userSpaceOnUse">
<stop stop-color="#00B7F0"/>
<stop offset="1" stop-color="#007CC1"/>
</linearGradient>
</defs>
</svg>
