<svg width="24" height="24" viewBox="0 0 24 24" fill="none" xmlns="http://www.w3.org/2000/svg">
<path fill-rule="evenodd" clip-rule="evenodd" d="M1.80183 8.24309C1.87292 9.10498 2.13049 9.93784 2.55309 10.6853C2.48731 11.1343 2.45408 11.5885 2.45408 12.0442C2.45408 13.2794 2.69817 14.5025 3.17242 15.6436C3.64666 16.7847 4.34178 17.8216 5.21808 18.695C6.09437 19.5684 7.13469 20.2612 8.27962 20.7339C9.42456 21.2065 10.6517 21.4498 11.891 21.4498C12.2677 21.4498 12.6434 21.4273 13.0159 21.3828C13.1812 21.48 13.3515 21.5693 13.5263 21.6505C13.713 21.7373 13.9047 21.8145 14.1004 21.8818L14.1031 21.8812C14.7206 22.0927 15.3744 22.2035 16.0397 22.2035C16.8224 22.2035 17.5975 22.0499 18.3206 21.7513C19.0437 21.4528 19.7008 21.0152 20.2542 20.4636C20.8077 19.912 21.2467 19.2571 21.5462 18.5364C21.8458 17.8156 21.9999 17.0432 21.9999 16.263C21.9999 16.1088 21.9939 15.9548 21.9819 15.8015C21.9171 14.9313 21.6623 14.089 21.2389 13.3327C21.298 12.9066 21.3278 12.4762 21.3278 12.0442C21.3278 10.8091 21.0837 9.58601 20.6095 8.44487C20.1353 7.30373 19.4401 6.26686 18.5638 5.39347C17.6875 4.52008 16.6472 3.82727 15.5023 3.3546C14.3574 2.88192 13.1302 2.63864 11.891 2.63864C11.5544 2.63864 11.2187 2.65659 10.8854 2.69219C10.7252 2.59262 10.56 2.50049 10.3903 2.41621C10.2097 2.32653 10.0237 2.24594 9.83392 2.17471L9.83174 2.17517C9.72268 2.13437 9.61239 2.09675 9.50102 2.06237C9.16909 1.9596 8.82741 1.88565 8.47968 1.84209L8.47845 1.8425C8.23417 1.81202 7.98699 1.79651 7.7382 1.79651C6.15799 1.79651 4.64251 2.42216 3.52514 3.53584C2.40776 4.64951 1.78003 6.15998 1.78003 7.73495C1.78003 7.90519 1.78733 8.07477 1.80183 8.24309ZM8.30753 10.7368C8.53782 11.131 8.85605 11.4667 9.23741 11.7177C9.74268 12.0483 10.2798 12.3275 10.8407 12.551C11.4679 12.8131 11.9545 13.0353 12.3005 13.2176C12.5931 13.3615 12.8586 13.5548 13.0855 13.789C13.2572 13.9712 13.3526 14.2122 13.3521 14.4625C13.3595 14.639 13.3248 14.8147 13.2507 14.9751C13.1767 15.1355 13.0655 15.276 12.9263 15.3848C12.5546 15.6349 12.11 15.7535 11.6631 15.7216C11.4104 15.7242 11.1583 15.6982 10.9115 15.644C10.7113 15.6001 10.5155 15.5381 10.3265 15.459C10.1609 15.3873 9.93488 15.2799 9.64827 15.1366C9.41778 15.0136 9.16122 14.9476 8.90002 14.9441C8.66558 14.9345 8.43643 15.0153 8.25992 15.1699C8.17572 15.25 8.10992 15.3475 8.06705 15.4555C8.02419 15.5636 8.00528 15.6796 8.01163 15.7957C8.00636 16.0158 8.07273 16.2316 8.20074 16.4106C8.35492 16.606 8.55428 16.7611 8.78165 16.8623C9.67106 17.2478 10.6352 17.4302 11.6039 17.3963C12.3089 17.4105 13.0106 17.2961 13.6746 17.0589C14.2255 16.8633 14.7053 16.5072 15.052 16.0365C15.3926 15.5394 15.5652 14.9463 15.5445 14.3441C15.5578 13.8522 15.4346 13.3663 15.1888 12.9401C14.9391 12.5346 14.6027 12.1894 14.2038 11.9293C13.6987 11.6034 13.1628 11.328 12.6039 11.1069C12.5441 11.0776 12.4823 11.0528 12.4189 11.0327C11.8461 10.796 11.4153 10.606 11.1264 10.4627C10.8685 10.3418 10.635 10.1746 10.4373 9.96951C10.271 9.7949 10.1793 9.56237 10.1816 9.32125C10.1736 9.13759 10.2151 8.95516 10.3017 8.79302C10.3884 8.63088 10.517 8.49499 10.6741 8.39953C11.0464 8.17757 11.4749 8.06796 11.908 8.0839C12.2403 8.08042 12.5716 8.1216 12.893 8.20634C13.2421 8.30702 13.5837 8.43203 13.9154 8.58047C14.0499 8.64291 14.1963 8.67584 14.3446 8.67706C14.4524 8.67992 14.5596 8.65995 14.6591 8.61845C14.7587 8.57694 14.8483 8.51486 14.9221 8.43626C15.0002 8.35097 15.0606 8.25114 15.1001 8.14248C15.1395 8.03382 15.1572 7.91845 15.152 7.80296C15.1555 7.58067 15.0779 7.36471 14.9337 7.19552C14.7379 6.98987 14.4952 6.83486 14.2262 6.74384C13.9334 6.63629 13.6305 6.55813 13.3222 6.51052C12.8914 6.43986 12.4554 6.4064 12.0189 6.41053C11.3517 6.40658 10.6889 6.5182 10.0598 6.74044C9.48141 6.93571 8.96505 7.28073 8.5633 7.74038C8.17672 8.19811 7.97233 8.78221 7.98918 9.38111C7.97546 9.85302 8.0852 10.3203 8.30753 10.7368Z" fill="#04071E"/>
</svg>
