<svg width="24" height="24" viewBox="0 0 24 24" fill="none" xmlns="http://www.w3.org/2000/svg">
<path fill-rule="evenodd" clip-rule="evenodd" d="M5.75 2H18.25C20.3211 2 22 3.67893 22 5.75V18.25C22 20.3211 20.3211 22 18.25 22H5.75C3.67893 22 2 20.3211 2 18.25V5.75C2 3.67893 3.67893 2 5.75 2ZM9.5 17C9.5 18.3807 8.38071 19.5 7 19.5C5.61929 19.5 4.5 18.3807 4.5 17C4.5 15.6193 5.61929 14.5 7 14.5C8.38071 14.5 9.5 15.6193 9.5 17ZM4.5 12C6.48912 12 8.39678 12.7902 9.8033 14.1967C11.2098 15.6032 12 17.5109 12 19.5H14.5C14.5 16.8478 13.4464 14.3043 11.5711 12.4289C9.6957 10.5536 7.15216 9.5 4.5 9.5V12ZM9.28354 7.95151C7.76697 7.32332 6.14152 7 4.5 7V4.5C8.47825 4.5 12.2936 6.08035 15.1066 8.8934C17.9196 11.7064 19.5 15.5218 19.5 19.5H17C17 17.8585 16.6767 16.233 16.0485 14.7165C15.4203 13.1999 14.4996 11.8219 13.3388 10.6612C12.1781 9.50043 10.8001 8.57969 9.28354 7.95151Z" fill="#04071E"/>
</svg>
