<svg width="24" height="24" viewBox="0 0 24 24" fill="none" xmlns="http://www.w3.org/2000/svg">
<path fill-rule="evenodd" clip-rule="evenodd" d="M22 12C22 17.5228 17.5228 22 12 22C6.47715 22 2 17.5228 2 12C2 6.47715 6.47715 2 12 2C17.5228 2 22 6.47715 22 12ZM8.91483 9.61719L10.0086 10.7109C10.243 10.9062 10.3601 11.2578 10.282 11.5703C10.2039 11.9219 9.93046 12.1562 9.5789 12.2344L8.13358 12.6641C7.86015 12.7422 7.54765 12.7422 7.23515 12.6641C6.25858 12.4297 5.67265 11.4531 5.90702 10.4766C6.1414 9.5 7.11796 8.95312 8.09452 9.1875C8.36796 9.26562 8.75858 9.46094 8.91483 9.61719ZM7.93827 14.1484L9.73515 13.1719C10.1258 12.9375 10.5945 12.9375 10.9851 13.1719C11.4148 13.4453 11.6101 13.9141 11.532 14.3437L11.493 16.2969C11.493 16.7266 11.3367 17.1562 11.1023 17.5469C10.3992 18.6797 8.91483 19.0312 7.78202 18.3281C6.64921 17.5859 6.29765 16.1016 7.00077 14.9687C7.23515 14.6172 7.54765 14.3437 7.93827 14.1484ZM12.7039 16.1016L12.4695 14.2266C12.3914 13.8359 12.5476 13.4453 12.8992 13.1719C13.2117 12.8984 13.6805 12.8984 14.032 13.0937L15.6726 13.7578C16.0633 13.9141 16.3758 14.1484 16.6101 14.5C17.3523 15.4375 17.157 16.8438 16.1805 17.5469C15.243 18.2891 13.8367 18.0938 13.1336 17.1172C12.8992 16.8047 12.743 16.4531 12.7039 16.1016ZM16.2586 12.3906L14.2273 12.0781C13.7976 12.0391 13.368 11.7656 13.2117 11.3359C13.0555 10.9453 13.1336 10.5156 13.368 10.2031L14.657 8.52344C14.9305 8.17187 15.282 7.89844 15.7117 7.74219C16.9617 7.23437 18.368 7.82031 18.8758 9.07031C19.3836 10.3203 18.7586 11.7266 17.5086 12.2344C17.118 12.3906 16.6883 12.4687 16.2586 12.3906ZM13.407 8.09375L12.5867 9.77344C12.4305 10.125 12.0789 10.3594 11.6883 10.3984C11.2586 10.4375 10.868 10.2031 10.6726 9.85156L9.65702 8.36719C9.46171 8.05469 9.30546 7.70312 9.30546 7.27344C9.22733 6.10156 10.1258 5.08594 11.2976 5.00781C12.5086 4.92969 13.5242 5.82812 13.6023 7C13.6387 7.32687 13.5399 7.65375 13.4317 8.01202C13.4235 8.03908 13.4152 8.06632 13.407 8.09375Z" fill="#04071E"/>
</svg>
