<svg width="24" height="24" viewBox="0 0 24 24" fill="none" xmlns="http://www.w3.org/2000/svg">
<path d="M19 2H5C3.34315 2 2 3.34315 2 5V19C2 20.6569 3.34315 22 5 22H19C20.6569 22 22 20.6569 22 19V5C22 3.34315 20.6569 2 19 2Z" fill="#FF5500"/>
<path d="M4.30469 12.5469L4.1875 13.4063L4.30469 14.2657C4.30469 14.3438 4.42188 14.3438 4.42188 14.2657L4.53906 13.4063L4.42188 12.5469C4.42188 12.4297 4.30469 12.4297 4.30469 12.5469ZM5.00781 12C5.00781 11.8828 4.89062 11.8828 4.89062 12L4.69531 13.4063L4.85156 14.7735C4.85156 14.8907 5.00781 14.8907 5.00781 14.7735L5.16406 13.4063L5.00781 12ZM7.3125 10.8282L7.19531 13.4063L7.27344 14.9688C7.27344 15.2813 7.54688 15.2813 7.54688 14.9688L7.70312 13.4063L7.54688 10.8282C7.54688 10.6328 7.3125 10.6328 7.3125 10.8282ZM6.10156 11.6875L5.94531 13.4063L6.0625 14.9688C6.0625 15.2032 6.25781 15.2032 6.25781 14.9688L6.41406 13.4063L6.25781 11.6875C6.25781 11.5703 6.10156 11.5703 6.10156 11.6875ZM8.83594 14.9688L8.95312 13.4063L8.83594 9.96878C8.83594 9.73441 8.5625 9.73441 8.5625 9.96878L8.44531 13.4063L8.52344 14.9688C8.52344 15.2813 8.83594 15.2813 8.83594 14.9688ZM11.4922 14.9688L11.5703 13.4063L11.4922 9.42191C11.4922 9.14847 11.1016 9.14847 11.1016 9.42191L11.0234 13.4063L11.1016 14.9688C11.1016 15.2813 11.4922 15.2813 11.4922 14.9688ZM10.1641 14.9688L10.2812 13.4063L10.1641 9.92972C10.1641 9.69535 9.8125 9.69535 9.8125 9.92972L9.73438 13.4063L9.8125 14.9688C9.8125 15.2813 10.1641 15.2813 10.1641 14.9688ZM6.92188 14.9688L7.03906 13.4063L6.92188 11.8047C6.92188 11.6875 6.6875 11.6875 6.6875 11.8047L6.57031 13.4063L6.6875 14.9688C6.6875 15.2422 6.92188 15.2422 6.92188 14.9688ZM5.63281 14.9688L5.78906 13.4063L5.63281 11.7266C5.63281 11.6094 5.47656 11.6094 5.47656 11.7266L5.32031 13.4063L5.47656 14.9688C5.47656 15.125 5.63281 15.125 5.63281 14.9688ZM10.4766 10.086L10.3984 13.4063L10.4375 14.9688C10.4375 15.2813 10.8281 15.2813 10.8281 14.9688L10.9062 13.4063L10.8281 10.086C10.8281 9.81253 10.4766 9.81253 10.4766 10.086ZM8.21094 14.9688L8.32812 13.4063L8.21094 10.2422C8.21094 10.0078 7.9375 10.0078 7.9375 10.2422L7.82031 13.4063L7.89844 14.9688C7.89844 15.2813 8.21094 15.2813 8.21094 14.9688ZM9.5 14.9688L9.61719 13.4063L9.5 9.8516C9.5 9.61722 9.1875 9.61722 9.1875 9.8516L9.07031 13.4063L9.1875 14.9688C9.1875 15.2813 9.5 15.2813 9.5 14.9688ZM17.1562 11.4922C16.9609 9.26566 14.6562 7.82035 12.5469 8.64066C12.3906 8.71878 12.3516 8.75785 12.3516 8.87503V14.9688C12.3516 15.086 12.4297 15.2032 12.5469 15.2032H17.8984C18.9531 15.2032 19.8125 14.3438 19.8125 13.2891C19.8125 11.8438 18.4453 11.0625 17.1562 11.4922ZM11.7656 9.07035L11.6484 13.4063L11.7656 14.9688C11.7656 15.2813 12.1562 15.2813 12.1562 14.9688L12.2734 13.4063L12.1562 9.07035C12.1562 8.79691 11.7656 8.79691 11.7656 9.07035Z" fill="white"/>
</svg>
