<svg width="24" height="24" viewBox="0 0 24 24" fill="none" xmlns="http://www.w3.org/2000/svg">
<path d="M18.0045 3.50875C17.072 2.4525 15.3845 2 13.2258 2H6.96076C6.51951 2 6.14451 2.31875 6.07451 2.75L3.4658 19.1638C3.41455 19.4875 3.66705 19.78 3.99705 19.78H7.86455L8.8358 13.6675L8.8058 13.86C8.87455 13.4288 9.2483 13.11 9.68955 13.11H11.527C15.1383 13.11 17.9645 11.655 18.7908 7.44625C18.8158 7.32125 18.8545 7.08125 18.8545 7.08125C19.0895 5.52375 18.8533 4.4675 18.0045 3.50875Z" fill="#04071E"/>
<path d="M19.8332 7.87875C18.9357 12.0225 16.0719 14.215 11.5269 14.215H9.87942L8.64942 22H11.3219C11.7082 22 12.0369 21.7213 12.0969 21.3425L12.1282 21.1775L12.7432 17.3138L12.7832 17.1013C12.8432 16.7225 13.1719 16.4438 13.5569 16.4438H14.0457C17.2044 16.4438 19.6769 15.1713 20.3994 11.49C20.6894 10.0125 20.5494 8.77375 19.8332 7.87875Z" fill="#04071E"/>
</svg>
