<svg width="24" height="24" viewBox="0 0 24 24" fill="none" xmlns="http://www.w3.org/2000/svg">
<path d="M10.2589 5.99927C10.1236 5.99938 9.9929 6.04845 9.89011 6.13766C9.78732 6.22687 9.71922 6.35038 9.69808 6.48598L8.7663 12.4861C8.80974 12.2058 9.04756 11.9994 9.32708 11.9994H12.0575C14.8055 11.9994 17.1373 9.96405 17.5634 7.20592C17.5951 7.00001 17.613 6.79215 17.6171 6.58377C16.9188 6.212 16.0984 5.99927 15.1995 5.99927H10.2589Z" fill="#001C64"/>
<path d="M17.6171 6.58398C17.613 6.79236 17.595 7.00022 17.5633 7.20613C17.1373 9.96427 14.8053 11.9996 12.0575 11.9996H9.32705C9.04775 11.9996 8.80971 12.2058 8.76627 12.4863L7.9095 17.9999L7.37285 21.4588C7.36238 21.5256 7.3663 21.594 7.38437 21.6591C7.40243 21.7242 7.43421 21.7846 7.47749 21.8361C7.52077 21.8875 7.57453 21.9288 7.63506 21.9571C7.6956 21.9855 7.76146 22.0001 7.82811 22.0001H10.7918C10.927 22 11.0577 21.9509 11.1605 21.8617C11.2633 21.7725 11.3314 21.649 11.3526 21.5134L12.1332 16.4865C12.1543 16.3508 12.2225 16.2272 12.3254 16.138C12.4282 16.0488 12.5591 15.9998 12.6944 15.9998H14.4393C17.1873 15.9998 19.5191 13.9645 19.9451 11.2063C20.2477 9.24878 19.2766 7.46742 17.6171 6.58398Z" fill="#0070E0"/>
<path d="M6.89191 1.99976C6.61261 1.99976 6.37457 2.20603 6.33113 2.48603L4.00548 17.4586C3.96138 17.7429 4.17771 17.9999 4.46118 17.9999H7.90993L8.76626 12.4863L9.69804 6.48623C9.71918 6.35063 9.78728 6.22712 9.89007 6.13791C9.99285 6.0487 10.1236 5.99963 10.2588 5.99952H15.1995C16.0986 5.99952 16.9187 6.21247 17.6171 6.58402C17.6649 4.07292 15.624 1.99976 12.8181 1.99976H6.89191Z" fill="#003087"/>
</svg>
