<svg width="24" height="24" viewBox="0 0 24 24" fill="none" xmlns="http://www.w3.org/2000/svg">
<path d="M16.8689 2.23888L13.8453 1.6875L17.247 5.64062L16.8689 2.23888ZM18.6632 8.5625L14.3279 20.1262L23 8.5625H18.6632ZM18.3841 3.40763L18.8035 7.1875H23L18.3841 3.40763ZM5.87988 2.86725L6.29513 6.19887L10.0434 1.6875L5.87988 2.86725ZM12 1.6875L7.26312 7.1875H16.7369L12 1.6875ZM4.61762 3.85587L1 7.1875H5.03425L4.61762 3.85587ZM6.80525 8.5625L12 22.3125L17.1961 8.5625H6.80525ZM5.33538 8.5625H1L9.67212 20.1249L5.33538 8.5625Z" fill="#04071E"/>
</svg>
