<svg width="24" height="24" viewBox="0 0 24 24" fill="none" xmlns="http://www.w3.org/2000/svg">
<path d="M3.25727 2.45347L14.8193 1.59947C16.2395 1.47765 16.6043 1.55977 17.4974 2.20899L21.1881 4.80899C21.7968 5.25615 21.9995 5.37797 21.9995 5.86483V20.1244C21.9995 21.0181 21.675 21.5467 20.5389 21.6274L7.11245 22.4406C6.25992 22.481 5.85393 22.3592 5.4074 21.7902L2.68954 18.2559C2.20206 17.6055 2 17.1186 2 16.5494V3.87435C2 3.14364 2.3245 2.53433 3.25727 2.45347Z" fill="white"/>
<path fill-rule="evenodd" clip-rule="evenodd" d="M14.8193 1.59968L3.25727 2.45367C2.3245 2.53433 2 3.14385 2 3.87435V16.5494C2 17.1184 2.20206 17.6053 2.68954 18.2559L5.4074 21.79C5.85393 22.3589 6.25992 22.481 7.11245 22.4404L20.5391 21.6276C21.6744 21.5467 21.9997 21.0181 21.9997 20.1246V5.86504C21.9997 5.40325 21.8173 5.27015 21.2803 4.87607L17.4974 2.20899C16.6046 1.55977 16.2395 1.47765 14.8193 1.59947V1.59968ZM7.41606 5.63164C6.31968 5.7054 6.07103 5.72212 5.44835 5.21582L3.86532 3.95667C3.70443 3.79369 3.78529 3.59038 4.19066 3.54984L15.3055 2.73764C16.2389 2.65615 16.7249 2.98149 17.09 3.26567L18.9962 4.64684C19.0777 4.68801 19.2804 4.93102 19.0366 4.93102L7.55815 5.62203L7.41606 5.63164ZM6.1379 20.0028V7.89752C6.1379 7.36887 6.30025 7.12503 6.78628 7.08407L19.97 6.3122C20.4171 6.27187 20.6192 6.55605 20.6192 7.08386V19.1085C20.6192 19.6371 20.5377 20.0843 19.8078 20.1246L7.19185 20.8559C6.46198 20.8963 6.1381 20.6533 6.1381 20.0028H6.1379ZM18.5915 8.54653C18.6724 8.9122 18.5915 9.27787 18.2258 9.31966L17.6178 9.44022V18.3778C17.0897 18.6619 16.6037 18.8243 16.1975 18.8243C15.5483 18.8243 15.3862 18.621 14.8999 18.0121L10.9235 11.7561V17.8088L12.1814 18.0936C12.1814 18.0936 12.1814 18.8249 11.1666 18.8249L8.36868 18.9873C8.28719 18.8243 8.36868 18.4183 8.65223 18.3374L9.38293 18.1348V10.1319L8.36889 10.0497C8.28739 9.68407 8.49008 9.15605 9.05843 9.11509L12.0605 8.91304L16.1977 15.25V9.64374L15.1431 9.52255C15.0616 9.07477 15.3862 8.74943 15.7915 8.70973L18.5915 8.54653Z" fill="black"/>
</svg>
