<svg width="24" height="24" viewBox="0 0 24 24" fill="none" xmlns="http://www.w3.org/2000/svg">
<path d="M21.9999 11.9558C22.0086 13.9336 21.4307 15.8695 20.3392 17.5188C19.2477 19.1681 17.6917 20.4567 15.8679 21.2217C14.044 21.9866 12.0343 22.1936 10.0929 21.8164C8.15142 21.4393 6.3654 20.4949 4.96067 19.1026C3.55593 17.7104 2.59557 15.9329 2.20102 13.9949C1.80646 12.0569 1.99544 10.0455 2.74405 8.21485C3.49266 6.38425 4.76728 4.81673 6.40674 3.71052C8.04619 2.60431 9.97686 2.00908 11.9546 2.0001C14.6069 1.98834 17.1552 3.03061 19.039 4.89765C20.9229 6.76468 21.9879 9.30357 21.9999 11.9558Z" fill="#8DC63F"/>
<path d="M21.246 11.9578C21.2543 13.7866 20.7201 15.5767 19.711 17.102C18.7019 18.6272 17.2632 19.8189 15.5768 20.5264C13.8904 21.234 12.0321 21.4255 10.2368 21.0769C8.44155 20.7283 6.78997 19.8552 5.49092 18.5679C4.19188 17.2807 3.30372 15.6371 2.93877 13.8451C2.57381 12.0531 2.74844 10.1931 3.44058 8.5003C4.13271 6.80753 5.31127 5.35801 6.82721 4.33505C8.34316 3.31209 10.1284 2.76162 11.9572 2.75327C13.1715 2.74772 14.375 2.98141 15.4989 3.44098C16.6229 3.90055 17.6454 4.577 18.5079 5.43172C19.3705 6.28644 20.0562 7.30269 20.526 8.42243C20.9958 9.54217 21.2405 10.7435 21.246 11.9578Z" fill="#F9E988"/>
<path d="M12.1685 3.35287C12.7563 3.24794 13.3581 3.24794 13.9459 3.35287C14.5394 3.44691 15.1131 3.6392 15.6433 3.92183C16.1701 4.21158 16.6264 4.60458 17.0794 4.97546C17.5325 5.34634 17.9845 5.72143 18.4144 6.13445C18.8527 6.54054 19.2353 7.00289 19.5523 7.50944C19.8791 8.01256 20.1467 8.55172 20.3499 9.11622C20.7452 10.2437 20.8577 11.451 20.6776 12.6322H20.6186C20.445 11.5038 20.1548 10.3964 19.7525 9.328C19.5597 8.79962 19.3327 8.28436 19.0729 7.78549C18.7999 7.28807 18.4995 6.80617 18.1731 6.34202C17.8401 5.87223 17.4322 5.46038 16.9656 5.12297C16.4968 4.78897 15.9573 4.57192 15.4347 4.36646C14.9121 4.161 14.3895 3.9566 13.8469 3.79961C13.3043 3.64262 12.749 3.52567 12.1706 3.41187L12.1685 3.35287Z" fill="white"/>
<path d="M16.6885 8.69167C16.0174 8.49674 15.3188 8.22175 14.6171 7.94359C14.5771 7.76658 14.4201 7.54637 14.104 7.2777C13.6435 6.87837 12.7796 6.88891 12.0325 7.06697C11.2086 6.8731 10.3942 6.80462 9.6092 6.99216C3.21893 8.75172 6.84342 13.0537 4.49593 17.3736C4.82993 18.0816 8.43019 22.2203 13.6393 21.1066C13.6393 21.1066 11.8587 16.8257 15.8783 14.7711C19.1393 13.099 21.4962 10.0034 16.6885 8.69167Z" fill="#8BC53F"/>
<path d="M17.4776 11.5059C17.4782 11.5827 17.4561 11.6579 17.4139 11.7221C17.3717 11.7862 17.3114 11.8364 17.2407 11.8663C17.17 11.8961 17.092 11.9043 17.0166 11.8898C16.9412 11.8753 16.8718 11.8387 16.8172 11.7847C16.7626 11.7307 16.7253 11.6618 16.71 11.5865C16.6946 11.5113 16.702 11.4332 16.7311 11.3622C16.7601 11.2911 16.8097 11.2303 16.8734 11.1874C16.9371 11.1446 17.012 11.1216 17.0888 11.1213C17.1396 11.1211 17.1899 11.1308 17.237 11.15C17.284 11.1691 17.3268 11.1974 17.3629 11.2331C17.399 11.2688 17.4277 11.3113 17.4474 11.3581C17.4671 11.4049 17.4773 11.4551 17.4776 11.5059Z" fill="white"/>
<path d="M12.0326 7.06484C12.4983 7.09855 14.183 7.64855 14.6171 7.94356C14.2578 6.88993 13.0367 6.75296 12.0326 7.06484Z" fill="#009345"/>
<path d="M12.4761 9.72208C12.4761 10.0763 12.371 10.4226 12.1742 10.7172C11.9774 11.0118 11.6976 11.2413 11.3703 11.3769C11.043 11.5125 10.6829 11.5479 10.3354 11.4788C9.98799 11.4097 9.66884 11.2391 9.41834 10.9886C9.16784 10.7381 8.99725 10.419 8.92813 10.0715C8.85902 9.72406 8.89449 9.36392 9.03006 9.03663C9.16563 8.70933 9.39521 8.42959 9.68977 8.23278C9.98432 8.03596 10.3306 7.93091 10.6849 7.93091C11.1599 7.93091 11.6155 8.11962 11.9514 8.45553C12.2873 8.79144 12.4761 9.24703 12.4761 9.72208Z" fill="white"/>
<path d="M11.9461 9.73794C11.9463 9.9868 11.8727 10.2301 11.7346 10.4371C11.5965 10.6442 11.4001 10.8056 11.1702 10.901C10.9404 10.9963 10.6874 11.0214 10.4433 10.973C10.1992 10.9246 9.9749 10.8048 9.79886 10.6289C9.62281 10.453 9.50289 10.2289 9.45427 9.98481C9.40564 9.74075 9.43049 9.48774 9.52568 9.25781C9.62086 9.02787 9.78211 8.83133 9.98901 8.69305C10.1959 8.55477 10.4392 8.48096 10.688 8.48096C11.0214 8.48124 11.3411 8.61372 11.5769 8.84936C11.8128 9.085 11.9455 9.40455 11.9461 9.73794Z" fill="#58595B"/>
<path d="M18.9261 12.2939C17.4774 13.3149 15.8295 14.0851 13.4925 14.0851C12.3989 14.0851 12.1776 12.9261 11.4548 13.4929C11.0808 13.7869 9.76901 14.4412 8.72065 14.3948C7.67229 14.3485 5.98121 13.7321 5.51235 11.5037C5.32586 13.7321 5.22998 15.3736 4.39339 17.2554C6.06024 19.9243 10.0335 21.982 13.639 21.097C13.2523 18.3912 15.6167 15.7403 16.9495 14.3843C17.4531 13.8712 18.4246 13.0325 18.9261 12.2897V12.2939Z" fill="#8BC53F"/>
<path d="M18.869 12.3615C18.4074 12.7584 17.8925 13.0886 17.3391 13.3424C16.7876 13.6045 16.2126 13.814 15.6217 13.9683C15.0317 14.121 14.4142 14.2359 13.7894 14.179C13.1646 14.1221 12.5251 13.9093 12.1131 13.4415L12.1331 13.4183C12.6431 13.7481 13.2258 13.864 13.8074 13.8808C14.3979 13.898 14.9884 13.8488 15.568 13.7344C16.1535 13.6123 16.7263 13.436 17.2791 13.2075C17.8408 12.9931 18.3696 12.7008 18.85 12.3394L18.869 12.3615Z" fill="#58595B"/>
</svg>
