<svg width="24" height="24" viewBox="0 0 24 24" fill="none" xmlns="http://www.w3.org/2000/svg">
<path d="M13.9454 3.35296C13.3576 3.24802 12.7558 3.24802 12.168 3.35296L12.1701 3.41196C12.7485 3.52575 13.3038 3.64271 13.8464 3.7997C14.389 3.95669 14.9116 4.16109 15.4342 4.36655C15.9568 4.57201 16.4963 4.78906 16.9651 5.12306C17.4317 5.46047 17.8397 5.87232 18.1726 6.3421C18.499 6.80626 18.7994 7.28815 19.0724 7.78558C19.3322 8.28445 19.5592 8.79971 19.752 9.32809C20.1543 10.3965 20.4445 11.5039 20.6181 12.6323H20.6771C20.8572 11.4511 20.7447 10.2438 20.3494 9.11631C20.1462 8.55181 19.8786 8.01265 19.5518 7.50953C19.2349 7.00298 18.8522 6.54063 18.4139 6.13454C17.984 5.72152 17.532 5.34643 17.0789 4.97555C17.0301 4.93558 16.9813 4.89536 16.9323 4.85504C16.5268 4.52124 16.1128 4.18039 15.6428 3.92192C15.1126 3.63929 14.5389 3.447 13.9454 3.35296Z" fill="#04071E"/>
<path d="M11.7343 10.4372C11.8724 10.2301 11.946 9.98681 11.9458 9.73795C11.9452 9.40457 11.8124 9.08501 11.5766 8.84938C11.3408 8.61374 11.0211 8.48125 10.6877 8.48097C10.4389 8.48097 10.1956 8.55478 9.98869 8.69306C9.78178 8.83134 9.62054 9.02788 9.52535 9.25782C9.43016 9.48776 9.40531 9.74076 9.45394 9.98482C9.50257 10.2289 9.62249 10.453 9.79853 10.6289C9.97457 10.8048 10.1988 10.9246 10.4429 10.973C10.687 11.0214 10.94 10.9964 11.1699 10.901C11.3997 10.8056 11.5961 10.6442 11.7343 10.4372Z" fill="#04071E"/>
<path fill-rule="evenodd" clip-rule="evenodd" d="M21.9999 11.9558C22.0086 13.9336 21.4307 15.8695 20.3392 17.5188C19.2477 19.1681 17.6917 20.4567 15.8679 21.2217C14.044 21.9866 12.0343 22.1936 10.0929 21.8164C8.15142 21.4393 6.3654 20.4949 4.96067 19.1026C3.55593 17.7104 2.59557 15.9329 2.20102 13.9949C1.80646 12.0569 1.99544 10.0455 2.74405 8.21485C3.49266 6.38425 4.76728 4.81673 6.40674 3.71052C8.04619 2.60431 9.97686 2.00908 11.9546 2.0001C14.6069 1.98834 17.1552 3.03061 19.039 4.89764C20.9229 6.76468 21.9879 9.30357 21.9999 11.9558ZM19.7112 17.1021C20.7203 15.5769 21.2545 13.7867 21.2461 11.9579C21.2406 10.7437 20.996 9.54234 20.5262 8.4226C20.0564 7.30286 19.3706 6.28661 18.5081 5.43189C17.6455 4.57717 16.6231 3.90072 15.4991 3.44115C14.3751 2.98158 13.1716 2.74789 11.9573 2.75344C10.1286 2.7618 8.34332 3.31226 6.82737 4.33522C5.31143 5.35818 4.13287 6.8077 3.44074 8.50047C2.7486 10.1932 2.57397 12.0532 2.93893 13.8453C3.19147 15.0853 3.69455 16.2543 4.41095 17.2833C4.40512 17.2741 4.39932 17.2648 4.39355 17.2556C5.18396 15.4777 5.31318 13.9142 5.48232 11.8676L5.50884 11.5478C5.65051 9.56665 6.2275 7.92339 9.60936 6.99219C10.3943 6.80465 11.2088 6.87313 12.0327 7.067L12.0393 7.06544L12.0322 7.0649C12.9741 6.77235 14.1069 6.87474 14.5403 7.75815C14.5791 7.82461 14.6043 7.88637 14.6173 7.94362C15.319 8.22178 16.0175 8.49678 16.6887 8.6917C20.2672 9.66807 19.8763 11.6327 18.0979 13.263C17.8668 13.499 17.6289 13.7266 17.4136 13.9326C17.2387 14.0999 17.0788 14.2529 16.9497 14.3845C15.6168 15.7405 13.2525 18.3914 13.6392 21.0971L13.636 21.0979L13.637 21.1005C14.2994 20.9813 14.9501 20.7896 15.577 20.5266C17.2634 19.819 18.7021 18.6273 19.7112 17.1021ZM12.174 10.7173C12.3708 10.4227 12.4759 10.0764 12.4759 9.72215C12.4759 9.2471 12.2872 8.79151 11.9513 8.4556C11.6154 8.11969 11.1598 7.93098 10.6847 7.93098C10.3305 7.93098 9.98416 8.03603 9.68961 8.23284C9.39505 8.42966 9.16547 8.7094 9.0299 9.0367C8.89433 9.36399 8.85886 9.72413 8.92797 10.0716C8.99709 10.419 9.16768 10.7382 9.41818 10.9887C9.66868 11.2392 9.98783 11.4098 10.3353 11.4789C10.6827 11.548 11.0429 11.5125 11.3702 11.377C11.6975 11.2414 11.9772 11.0118 12.174 10.7173ZM18.8692 12.3615C18.4076 12.7584 17.8926 13.0886 17.3393 13.3424C16.7877 13.6045 16.2127 13.814 15.6219 13.9683C15.0318 14.121 14.4144 14.2359 13.7896 14.179C13.1648 14.1221 12.5253 13.9093 12.1133 13.4415L12.1333 13.4183C12.6433 13.7481 13.2259 13.864 13.8075 13.8808C14.398 13.898 14.9886 13.8488 15.5681 13.7344C16.1536 13.6123 16.7265 13.436 17.2792 13.2076C17.8409 12.9931 18.3697 12.7008 18.8502 12.3394L18.8692 12.3615ZM17.4776 11.5059C17.4782 11.5827 17.4561 11.6579 17.4139 11.7221C17.3717 11.7863 17.3114 11.8364 17.2407 11.8663C17.17 11.8962 17.092 11.9044 17.0166 11.8898C16.9412 11.8753 16.8718 11.8388 16.8172 11.7848C16.7626 11.7308 16.7253 11.6618 16.71 11.5866C16.6946 11.5113 16.702 11.4332 16.7311 11.3622C16.7601 11.2911 16.8097 11.2303 16.8734 11.1875C16.9371 11.1446 17.012 11.1216 17.0888 11.1214C17.1396 11.1211 17.1899 11.1308 17.237 11.15C17.284 11.1692 17.3268 11.1974 17.3629 11.2331C17.399 11.2688 17.4277 11.3113 17.4474 11.3581C17.4671 11.4049 17.4773 11.4552 17.4776 11.5059Z" fill="#04071E"/>
</svg>
