<svg width="24" height="24" viewBox="0 0 24 24" fill="none" xmlns="http://www.w3.org/2000/svg">
<path d="M12.0258 7H7.02583V17H17.0225V12L12.0258 16.9967V7ZM17.495 8.92417C17.0423 8.75643 16.6313 8.49268 16.2903 8.15104C15.9492 7.80939 15.6861 7.39796 15.5192 6.945C15.351 7.39782 15.0872 7.80904 14.7456 8.1506C14.404 8.49215 13.9928 8.75601 13.54 8.92417C13.9925 9.0928 14.4035 9.35683 14.745 9.69832C15.0865 10.0398 15.3505 10.4508 15.5192 10.9033C15.686 10.4505 15.949 10.0391 16.2899 9.69744C16.6308 9.3558 17.0425 9.092 17.495 8.92417ZM2 10.0017C2 7.19833 2 5.79917 2.54333 4.73083C3.02497 3.79024 3.79024 3.02497 4.73083 2.54333C5.8 2 7.19833 2 10.0017 2H13.9983C16.8017 2 18.2008 2 19.2692 2.54333C20.2098 3.02497 20.975 3.79024 21.4567 4.73083C22 5.8 22 7.19833 22 10.0017V13.9983C22 16.8017 22 18.2008 21.4567 19.2692C20.975 20.2098 20.2098 20.975 19.2692 21.4567C18.2 22 16.8017 22 13.9983 22H10.0017C7.19833 22 5.79917 22 4.73083 21.4567C3.79024 20.975 3.02497 20.2098 2.54333 19.2692C2 18.2 2 16.8017 2 13.9983V10.0017Z" fill="#04071E"/>
</svg>
