<svg width="24" height="24" viewBox="0 0 24 24" fill="none" xmlns="http://www.w3.org/2000/svg">
<path d="M21.9919 11.1407L21.2826 4.0364C21.2447 3.65918 21.0747 3.30749 20.8026 3.04357C20.5304 2.77964 20.1737 2.6205 19.7954 2.59429L12.9464 2.12243C12.7212 2.10695 12.4952 2.13913 12.2832 2.21688C12.0712 2.29463 11.878 2.4162 11.7162 2.57366L2.48631 11.5585C2.33404 11.7069 2.21275 11.884 2.12946 12.0797C2.04618 12.2753 2.00256 12.4855 2.00113 12.6981C1.99971 12.9107 2.04051 13.1215 2.12117 13.3182C2.20182 13.5149 2.32073 13.6936 2.471 13.844L10.0384 21.4115C10.337 21.7098 10.7409 21.8785 11.163 21.8813C11.585 21.8842 11.9911 21.7208 12.2936 21.4265L21.5141 12.4504C21.8641 12.1098 22.04 11.627 21.9919 11.1407ZM16.7022 13.455L15.546 15.413L13.2858 13.859C13.1367 13.7565 12.9352 13.8715 12.9477 14.0522L13.137 16.7886H10.8628L11.0521 14.0522C11.0646 13.8715 10.8631 13.7565 10.714 13.859L8.45382 15.413L7.29763 13.455L9.81813 12.1932C9.97437 12.1135 9.97437 11.8863 9.81813 11.8066L7.29763 10.5448L8.45382 8.5868L10.714 10.1408C10.8631 10.2433 11.0646 10.1283 11.0521 9.94767L10.8628 7.21124H13.1367L12.9473 9.94767C12.9348 10.1283 13.1364 10.2433 13.2855 10.1408L15.5457 8.5868L16.7019 10.5448L13.7954 12.0001L16.7022 13.455ZM18.1883 6.93657C17.5696 6.93657 17.0678 6.43472 17.0678 5.816C17.0678 5.19728 17.5696 4.69543 18.1883 4.69543C18.8071 4.69543 19.3089 5.19728 19.3089 5.816C19.3089 6.43472 18.8071 6.93657 18.1883 6.93657Z" fill="#04071E"/>
</svg>
