<svg width="24" height="24" viewBox="0 0 24 24" fill="none" xmlns="http://www.w3.org/2000/svg">
<path d="M10.1732 9.61562H10.6457C10.7161 9.61562 10.7732 9.67271 10.7732 9.74312V12.6531C10.7732 12.7235 10.7161 12.7806 10.6457 12.7806H10.1732C10.1027 12.7806 10.0457 12.7235 10.0457 12.6531V9.74312C10.0457 9.67271 10.1027 9.61562 10.1732 9.61562Z" fill="#04071E"/>
<path d="M9.51814 12.7806C9.5513 12.7806 9.58309 12.7675 9.60653 12.744C9.62998 12.7206 9.64314 12.6888 9.64314 12.6556V12.1831C9.64314 12.15 9.62998 12.1182 9.60653 12.0947C9.58309 12.0713 9.5513 12.0581 9.51814 12.0581H8.24502V9.74563C8.24502 9.71248 8.23185 9.68068 8.20841 9.65724C8.18497 9.6338 8.15317 9.62063 8.12002 9.62063H7.64502C7.61187 9.62063 7.58007 9.6338 7.55663 9.65724C7.53319 9.68068 7.52002 9.71248 7.52002 9.74563V12.6538C7.52002 12.6869 7.53319 12.7187 7.55663 12.7421C7.58007 12.7656 7.61187 12.7788 7.64502 12.7788H9.52002L9.51814 12.7806Z" fill="#04071E"/>
<path d="M16.4475 12.7806H14.5725C14.5394 12.7806 14.5076 12.7675 14.4841 12.744C14.4607 12.7206 14.4475 12.6888 14.4475 12.6556V9.74625C14.4475 9.71309 14.4607 9.6813 14.4841 9.65786C14.5076 9.63442 14.5394 9.62125 14.5725 9.62125H16.4475C16.4807 9.62125 16.5125 9.63442 16.5359 9.65786C16.5593 9.6813 16.5725 9.71309 16.5725 9.74625V10.2194C16.5725 10.2525 16.5593 10.2843 16.5359 10.3078C16.5125 10.3312 16.4807 10.3444 16.4475 10.3444H15.1744V10.835H16.4475C16.4807 10.835 16.5125 10.8482 16.5359 10.8716C16.5593 10.8951 16.5725 10.9268 16.5725 10.96V11.4375C16.5725 11.4706 16.5593 11.5024 16.5359 11.5259C16.5125 11.5493 16.4807 11.5625 16.4475 11.5625H15.1744V12.0537H16.4475C16.4807 12.0537 16.5125 12.0669 16.5359 12.0904C16.5593 12.1138 16.5725 12.1456 16.5725 12.1787V12.6512C16.5731 12.668 16.5703 12.6848 16.5643 12.7004C16.5583 12.7161 16.5491 12.7304 16.5375 12.7425C16.5258 12.7546 16.5118 12.7642 16.4964 12.7707C16.4809 12.7773 16.4643 12.7806 16.4475 12.7806Z" fill="#04071E"/>
<path d="M13.865 9.61562H13.3925C13.3593 9.61562 13.3275 9.62879 13.3041 9.65224C13.2806 9.67568 13.2675 9.70747 13.2675 9.74062V11.4694L11.9362 9.67125C11.9332 9.66649 11.9296 9.66208 11.9256 9.65812L11.9181 9.65062L11.9112 9.645H11.9075L11.9006 9.64H11.8968L11.89 9.63625H11.3606C11.3274 9.63625 11.2956 9.64942 11.2722 9.67286C11.2488 9.6963 11.2356 9.7281 11.2356 9.76125V12.6712C11.2356 12.7044 11.2488 12.7362 11.2722 12.7596C11.2956 12.7831 11.3274 12.7962 11.3606 12.7962H11.8337C11.8669 12.7962 11.8987 12.7831 11.9221 12.7596C11.9456 12.7362 11.9587 12.7044 11.9587 12.6712V10.9256L13.2918 12.7256C13.3006 12.7384 13.3116 12.7494 13.3243 12.7581L13.3318 12.7631H13.3356L13.3418 12.7662H13.3612C13.3723 12.769 13.3836 12.7704 13.395 12.7706H13.865C13.8981 12.7706 13.9299 12.7575 13.9534 12.734C13.9768 12.7106 13.99 12.6788 13.99 12.6456V9.74312C13.9903 9.7265 13.9873 9.70998 13.9812 9.69452C13.975 9.67906 13.9659 9.66499 13.9543 9.65311C13.9426 9.64124 13.9287 9.63181 13.9134 9.62537C13.8981 9.61893 13.8816 9.61562 13.865 9.61562Z" fill="#04071E"/>
<path fill-rule="evenodd" clip-rule="evenodd" d="M6.50875 2H17.4913C19.9814 2 22 4.01864 22 6.50875V17.4913C22 19.9814 19.9814 22 17.4913 22H6.50875C4.01864 22 2 19.9814 2 17.4913V6.50875C2 4.01864 4.01864 2 6.50875 2ZM18.6663 11.0575C18.6663 8.07376 15.6751 5.64626 11.9982 5.64626C8.32133 5.64626 5.33008 8.07376 5.33008 11.0575C5.33008 13.7325 7.70508 15.9731 10.9063 16.3963C11.1238 16.4431 11.4195 16.5394 11.4938 16.725C11.5613 16.8938 11.5382 17.1581 11.5157 17.3281C11.5157 17.3281 11.4376 17.7988 11.4207 17.8988L11.4182 17.913C11.3863 18.0932 11.3054 18.5501 11.9982 18.2588C12.7101 17.9594 15.8382 15.9975 17.237 14.3869C18.2032 13.3275 18.6663 12.25 18.6663 11.0575Z" fill="#04071E"/>
</svg>
