<svg width="24" height="24" viewBox="0 0 24 24" fill="none" xmlns="http://www.w3.org/2000/svg">
<path d="M23.8989 7H22.5788C22.3984 6.99997 22.2208 7.04412 22.0614 7.1286C21.9021 7.21309 21.7658 7.33532 21.6646 7.48463L19.899 10.0891C19.8882 10.105 19.8735 10.1181 19.8565 10.1272C19.8394 10.1362 19.8203 10.1409 19.801 10.1409C19.7817 10.1409 19.7626 10.1362 19.7456 10.1272C19.7285 10.1181 19.7139 10.105 19.703 10.0891L17.9375 7.48463C17.8364 7.33531 17.7001 7.21305 17.5408 7.12857C17.3814 7.04409 17.2037 6.99994 17.0234 7H15.7032L18.8482 11.6395L15.7206 16.253H17.0407C17.2211 16.253 17.3987 16.2089 17.5581 16.1244C17.7174 16.0399 17.8537 15.9177 17.9549 15.7684L19.703 13.1897C19.7139 13.1737 19.7285 13.1606 19.7456 13.1516C19.7626 13.1425 19.7817 13.1378 19.801 13.1378C19.8203 13.1378 19.8394 13.1425 19.8565 13.1516C19.8735 13.1606 19.8882 13.1737 19.899 13.1897L21.6471 15.7684C21.7483 15.9177 21.8846 16.04 22.044 16.1245C22.2034 16.2089 22.381 16.2531 22.5614 16.253H23.8816L20.7538 11.6395L23.8989 7ZM12.9872 7.94641V16.253H13.6181C13.7424 16.253 13.8655 16.2286 13.9804 16.181C14.0952 16.1334 14.1996 16.0637 14.2875 15.9758C14.3754 15.8879 14.4451 15.7836 14.4927 15.6687C14.5402 15.5539 14.5647 15.4308 14.5647 15.3065V7H13.9337C13.8094 6.99998 13.6864 7.02445 13.5715 7.072C13.4567 7.11955 13.3523 7.18926 13.2644 7.27715C13.1765 7.36503 13.1068 7.46937 13.0592 7.5842C13.0117 7.69903 12.9872 7.82211 12.9872 7.94641ZM11.8308 7H11.2692C10.9691 6.99995 10.6779 7.10189 10.4433 7.28909C10.2088 7.47629 10.0448 7.73764 9.97836 8.03027L8.72241 13.552L7.62289 8.39749C7.41947 7.44487 6.44198 6.80236 5.44178 7.07865C4.80463 7.2546 4.33229 7.79287 4.19451 8.43913L3.10627 13.5451L1.85248 8.03055C1.78585 7.73792 1.62183 7.47659 1.38727 7.28936C1.15271 7.10213 0.861519 7.00011 0.561398 7H0L2.10434 16.2526H2.90169C3.62516 16.2526 4.25031 15.7467 4.40125 15.0391L5.74655 8.72626C5.76304 8.6479 5.8333 8.59123 5.91325 8.59123C5.99306 8.59123 6.06333 8.6479 6.07995 8.72626L7.42627 15.0396C7.49954 15.3829 7.68846 15.6907 7.96143 15.9115C8.2344 16.1323 8.57489 16.2527 8.92598 16.2526H9.72593L11.8308 7Z" fill="black"/>
</svg>
