<svg width="24" height="24" viewBox="0 0 24 24" fill="none" xmlns="http://www.w3.org/2000/svg">
<path d="M8.99896 16.7498H14.9986V13.25H8.99896V16.7498Z" fill="#04071E"/>
<path fill-rule="evenodd" clip-rule="evenodd" d="M5.49991 1.00073C4.67496 1.00073 4 1.67569 4 2.50064V21.4995C4 22.3244 4.67496 22.9994 5.49991 22.9994H18.4991C19.3241 22.9994 19.999 22.3244 19.999 21.4995L19.999 7.00033L13.9994 1.00073H5.49991ZM8.74897 11.0001H15.2486C15.6611 11.0001 15.9985 11.3376 15.9985 11.7501V18.2497C15.9985 18.6621 15.6611 18.9996 15.2486 18.9996H8.74897C8.33651 18.9996 7.99902 18.6621 7.99902 18.2497V11.7501C7.99902 11.3376 8.33651 11.0001 8.74897 11.0001Z" fill="#04071E"/>
</svg>
