<svg width="24" height="24" viewBox="0 0 24 24" fill="none" xmlns="http://www.w3.org/2000/svg">
<path fill-rule="evenodd" clip-rule="evenodd" d="M6.46027 22H17.5397C20.0055 22 22 20.0055 22 17.5397V6.46027C22 3.99453 20 2 17.5397 2H6.46027C3.99453 2 2 4 2 6.46027V17.5397C2 20.0055 4 22 6.46027 22ZM10.3121 5.51782H11.5066C11.7641 5.51782 11.9778 5.30413 11.9778 5.04658V4.89862C11.9778 4.64106 11.7641 4.42738 11.5066 4.42738H10.3121C10.0863 4.42738 9.89429 4.59156 9.85028 4.80551H8.37806C8.00548 4.80551 7.7041 5.10689 7.7041 5.47947V6.39454H7.27094C6.89832 6.39454 6.59694 6.69591 6.59694 7.06849L6.45996 11.3699H17.4956L17.3586 7.06849C17.3586 6.69587 17.0572 6.39454 16.6846 6.39454H7.97259V5.47947C7.97259 5.2548 8.15339 5.074 8.37806 5.074H9.84163C9.85614 5.31913 10.0637 5.51782 10.3121 5.51782ZM5.93457 11.7315C6.04417 12.0822 6.37293 12.3397 6.76195 12.3397H17.2332C17.6223 12.3397 17.951 12.0822 18.0606 11.7315H5.93457ZM12.4931 17.6767H14.4548C14.6082 17.6767 14.7452 17.7918 14.7397 17.9452C14.7452 18.1151 14.6082 18.2192 14.4383 18.2192H9.44103C9.27663 18.2192 9.13965 18.1151 9.13965 17.9452C9.13965 17.7918 9.27667 17.6768 9.43009 17.6768H11.4136C11.5616 17.6768 11.6822 17.5562 11.6822 17.4083V12.6795H12.2246V17.4082C12.2246 17.5561 12.3452 17.6767 12.4931 17.6767Z" fill="#04071E"/>
</svg>
