<svg width="24" height="24" viewBox="0 0 24 24" fill="none" xmlns="http://www.w3.org/2000/svg">
<path d="M17.5397 22H6.46027C4 22 2 20.0055 2 17.5397V6.46027C2 4 3.99453 2 6.46027 2H17.5397C20 2 22 3.99453 22 6.46027V17.5397C22 20.0055 20.0055 22 17.5397 22Z" fill="url(#paint0_linear_114_250)"/>
<path d="M14.4549 17.6767H12.4932C12.3453 17.6767 12.2247 17.5561 12.2247 17.4082V12.6794H11.6823V17.4082C11.6823 17.5562 11.5617 17.6767 11.4138 17.6767H9.43022C9.27679 17.6767 9.13977 17.7918 9.13977 17.9452C9.13977 18.1151 9.27675 18.2192 9.44115 18.2192H14.4384C14.6083 18.2192 14.7453 18.1151 14.7398 17.9452C14.7453 17.7918 14.6083 17.6767 14.4549 17.6767Z" fill="white"/>
<path d="M5.9342 11.7316C6.0438 12.0822 6.37256 12.3398 6.76158 12.3398H17.2328C17.6219 12.3398 17.9506 12.0822 18.0602 11.7316H5.9342Z" fill="white"/>
<path d="M17.3588 7.06849C17.3588 6.69586 17.0575 6.39453 16.6849 6.39453H7.27118C6.89856 6.39453 6.59718 6.69591 6.59718 7.06849L6.46021 11.3699H17.4958L17.3588 7.06849Z" fill="white"/>
<path d="M7.97222 5.4795C7.97222 5.25483 8.15302 5.07403 8.37769 5.07403H10.8325V4.80554H8.37769C8.00511 4.80554 7.70374 5.10692 7.70374 5.4795V7.52879H7.97222V5.4795Z" fill="white"/>
<path d="M11.5064 5.51781H10.3119C10.0544 5.51781 9.8407 5.30412 9.8407 5.04657V4.89861C9.8407 4.6411 10.0544 4.42737 10.3119 4.42737H11.5064C11.764 4.42737 11.9777 4.64106 11.9777 4.89861V5.04657C11.9777 5.30412 11.764 5.51781 11.5064 5.51781Z" fill="white"/>
<defs>
<linearGradient id="paint0_linear_114_250" x1="12.0012" y1="21.9998" x2="12.0012" y2="1.99943" gradientUnits="userSpaceOnUse">
<stop stop-color="#0054EB"/>
<stop offset="0.0049" stop-color="#0054EB"/>
<stop offset="1" stop-color="#53CFFA"/>
</linearGradient>
</defs>
</svg>
