<svg width="24" height="24" viewBox="0 0 24 24" fill="none" xmlns="http://www.w3.org/2000/svg">
<path d="M3.36364 19.4997H6.54545V11.7724L2 8.36336V18.1361C2 18.8906 2.61136 19.4997 3.36364 19.4997Z" fill="#04071E"/>
<path d="M17.4545 19.4997H20.6363C21.3909 19.4997 22 18.8884 22 18.1361V8.36336L17.4545 11.7724" fill="#04071E"/>
<path d="M17.4545 5.86335V11.7724L22 8.36336V6.54517C22 4.85881 20.075 3.89745 18.7272 4.90881" fill="#04071E"/>
<path d="M6.54545 11.7724L6.54549 5.86336L12 9.95426L17.4545 5.86335V11.7724L12 15.8634" fill="#04071E"/>
<path d="M2 6.54517V8.36336L6.54545 11.7724L6.54549 5.86336L5.27273 4.90881C3.92273 3.89745 2 4.85881 2 6.54517Z" fill="#04071E"/>
</svg>
