<svg width="24" height="24" viewBox="0 0 24 24" fill="none" xmlns="http://www.w3.org/2000/svg">
<path d="M3.36364 19.4996H6.54545V11.7724L2 8.36328V18.136C2 18.8906 2.61136 19.4996 3.36364 19.4996Z" fill="#4285F4"/>
<path d="M17.4545 19.4996H20.6363C21.3909 19.4996 22 18.8883 22 18.136V8.36328L17.4545 11.7724" fill="#34A853"/>
<path d="M17.4545 5.86335V11.7724L22 8.36335V6.54517C22 4.85881 20.075 3.89745 18.7272 4.90881" fill="#FBBC04"/>
<path d="M6.54549 11.7724V5.86328L12 9.95419L17.4546 5.86328V11.7724L12 15.8633" fill="#EA4335"/>
<path d="M2 6.54517V8.36335L6.54545 11.7724V5.86335L5.27273 4.90881C3.92273 3.89745 2 4.85881 2 6.54517Z" fill="#C5221F"/>
</svg>
