<svg width="24" height="24" viewBox="0 0 24 24" fill="none" xmlns="http://www.w3.org/2000/svg">
<path d="M19.9154 4.08969C18.0285 2.21008 15.3154 2 12 2C8.68039 2 5.9632 2.2125 4.07711 4.09719C2.19129 5.98109 2 8.69391 2 12.0097C2 15.3261 2.19129 18.0397 4.07789 19.9243C5.96387 21.8093 8.68074 22 12 22C15.3193 22 18.0357 21.8093 19.9217 19.9243C21.8082 18.0394 22 15.3261 22 12.0097C22 8.68965 21.8061 5.97391 19.9154 4.08969Z" fill="#FF6900"/>
<path d="M17.8033 8.19556C17.872 8.19556 17.9292 8.25091 17.9292 8.31903V15.7169C17.9292 15.7839 17.872 15.8395 17.8033 15.8395H16.1824C16.1128 15.8395 16.0563 15.7839 16.0563 15.7169V8.31903C16.0563 8.25095 16.1128 8.19556 16.1824 8.19556H17.8033ZM10.769 8.19556C11.9918 8.19556 13.2703 8.25161 13.9009 8.88263C14.5209 9.5036 14.588 10.74 14.5906 11.9407V15.7169C14.5906 15.7839 14.5341 15.8395 14.4648 15.8395H12.8441C12.7747 15.8395 12.718 15.7839 12.718 15.7169V11.8757C12.7163 11.2051 12.6777 10.5159 12.3319 10.169C12.0343 9.87052 11.4788 9.80216 10.9013 9.78798H7.96336C7.89445 9.78798 7.83805 9.84341 7.83805 9.91048V15.7169C7.83805 15.7839 7.78094 15.8395 7.7116 15.8395H6.08988C6.02059 15.8395 5.96484 15.7839 5.96484 15.7169V8.31903C5.96484 8.25095 6.02055 8.19556 6.08988 8.19556H10.769ZM11.1318 11.1419C11.2008 11.1419 11.2568 11.1971 11.2568 11.2647V15.7169C11.2568 15.7839 11.2007 15.8395 11.1318 15.8395H9.4293C9.3593 15.8395 9.3032 15.7839 9.3032 15.7169V11.2647C9.3032 11.1971 9.3593 11.1419 9.4293 11.1419H11.1318Z" fill="white"/>
</svg>
