<svg width="24" height="24" viewBox="0 0 24 24" fill="none" xmlns="http://www.w3.org/2000/svg">
<path d="M19.5544 18.6368C11.0875 22.6664 5.83279 19.295 2.4691 17.2472C2.26095 17.1182 1.90718 17.2774 2.21413 17.63C3.33474 18.9887 7.00723 22.2638 11.8009 22.2638C16.5978 22.2638 19.4516 19.6463 19.8086 19.1897C20.1632 18.737 19.9127 18.4873 19.5543 18.6368H19.5544ZM21.9323 17.3236C21.705 17.0275 20.5498 16.9723 19.8227 17.0616C19.0946 17.1484 18.0017 17.5934 18.0967 17.8606C18.1454 17.9607 18.245 17.9158 18.7452 17.8708C19.2467 17.8207 20.6519 17.6434 20.9446 18.0261C21.2388 18.4115 20.4965 20.2474 20.3609 20.5435C20.2299 20.8396 20.411 20.9159 20.657 20.7187C20.8997 20.5216 21.339 20.0111 21.6338 19.2887C21.9265 18.5623 22.1052 17.549 21.9323 17.3236Z" fill="#FF9900"/>
<path fill-rule="evenodd" clip-rule="evenodd" d="M13.8612 10.4146C13.8612 11.4719 13.8879 12.3537 13.3535 13.2926C12.9222 14.0561 12.2389 14.5255 11.4755 14.5255C10.4334 14.5255 9.82655 13.7316 9.82655 12.5598C9.82655 10.2466 11.8991 9.82681 13.8612 9.82681V10.4146ZM16.5979 17.0295C16.4185 17.1898 16.159 17.2013 15.9567 17.0944C15.0559 16.3463 14.8955 15.9989 14.3994 15.2851C12.9107 16.8043 11.8572 17.2585 9.92584 17.2585C7.64326 17.2585 5.8645 15.85 5.8645 13.0293C5.8645 10.8269 7.0593 9.32677 8.75776 8.59396C10.2312 7.94499 12.2886 7.8305 13.8612 7.65116V7.29996C13.8612 6.65485 13.9107 5.89147 13.5329 5.33422C13.2008 4.83418 12.5672 4.62805 12.0098 4.62805C10.9755 4.62805 10.0518 5.15858 9.82655 6.25787C9.78069 6.50222 9.60135 6.74271 9.35708 6.75414L6.72331 6.47173C6.50197 6.42201 6.2577 6.24267 6.31877 5.9029C6.92566 2.71195 9.8074 1.75 12.3877 1.75C13.7084 1.75 15.4336 2.1012 16.4757 3.10128C17.7964 4.33414 17.6704 5.97925 17.6704 7.76943V11.9987C17.6704 13.2697 18.1972 13.827 18.6934 14.5141C18.8689 14.7584 18.9072 15.0524 18.6857 15.2355C18.1323 15.6973 17.1475 16.5562 16.6055 17.0372L16.5979 17.0295" fill="black"/>
</svg>
