<svg width="24" height="24" viewBox="0 0 24 24" fill="none" xmlns="http://www.w3.org/2000/svg">
<path d="M19.2517 3.81389C17.1732 2.51525 14.4369 2.82465 11.9965 4.3581C9.56362 2.82465 6.82562 2.51525 4.74965 3.81389C1.46574 5.86612 1.06649 11.1514 3.85874 15.6195C5.91691 18.9136 9.13554 20.8438 12.0007 20.8081C14.8658 20.8438 18.0845 18.9136 20.1426 15.6195C22.9315 11.1514 22.5356 5.86612 19.2517 3.81389ZM5.36846 14.676C4.7927 13.7633 4.3583 12.7688 4.07999 11.7261C3.83271 10.8211 3.73817 9.88107 3.80025 8.94489C3.92486 7.29361 4.59707 6.00768 5.69227 5.3236C6.78747 4.63953 8.23531 4.59799 9.77723 5.21002C10.0087 5.30241 10.2375 5.40922 10.4647 5.52705C9.60786 6.30833 8.8628 7.204 8.25056 8.18876C6.55521 10.9013 6.03812 13.9199 6.6298 16.3265C6.15802 15.8175 5.73567 15.2649 5.36846 14.676ZM19.9223 11.7253C19.6436 12.7678 19.2092 13.7623 18.6338 14.6752C18.2663 15.2649 17.8439 15.8186 17.3724 16.329C17.9014 14.1717 17.542 11.5286 16.245 9.05C16.2243 9.00918 16.1953 8.97316 16.1598 8.94426C16.1242 8.91537 16.0831 8.89425 16.0389 8.88227C15.9947 8.87028 15.9485 8.8677 15.9033 8.87469C15.858 8.88168 15.8148 8.89809 15.7763 8.92285L11.7328 11.4489C11.6959 11.4719 11.664 11.502 11.6387 11.5374C11.6135 11.5728 11.5954 11.6128 11.5857 11.6552C11.5759 11.6975 11.5746 11.7414 11.5818 11.7843C11.589 11.8271 11.6046 11.8681 11.6277 11.905L12.2211 12.8535C12.244 12.8904 12.274 12.9223 12.3093 12.9476C12.3446 12.9728 12.3846 12.9908 12.4269 13.0006C12.4692 13.0104 12.513 13.0117 12.5558 13.0045C12.5986 12.9973 12.6395 12.9817 12.6763 12.9586L15.2973 11.3209C15.3821 11.5752 15.4669 11.8295 15.5304 12.0838C15.7777 12.9878 15.8725 13.9266 15.811 14.8617C15.6864 16.5121 15.0142 17.798 13.919 18.483C13.3541 18.8283 12.7068 19.0157 12.0448 19.0255H11.9609C11.2988 19.0159 10.6514 18.8285 10.0866 18.483C8.99059 17.798 8.31838 16.5121 8.19377 14.8617C8.13207 13.9255 8.22661 12.9856 8.4735 12.0805C9.0416 9.98637 10.2159 8.10689 11.849 6.67819C12.5532 6.06006 13.3553 5.56333 14.2225 5.20832C15.7601 4.5963 17.2105 4.63698 18.3066 5.32191C19.4026 6.00683 20.074 7.29191 20.1986 8.94319C20.2615 9.87946 20.1681 10.8197 19.9223 11.7253Z" fill="#04071E"/>
</svg>
