<svg width="24" height="24" viewBox="0 0 24 24" fill="none" xmlns="http://www.w3.org/2000/svg">
<path d="M14.8919 2.33203H9.14275C8.91239 2.33203 8.69961 2.45475 8.58446 2.6543C8.4693 2.85384 8.46926 3.09928 8.58446 3.29883L14.7308 13.9336H21.9807L15.4496 2.65365C15.3929 2.55589 15.3116 2.47473 15.2137 2.41828C15.1159 2.36184 15.0049 2.33209 14.8919 2.33203ZM7.61865 4.26335L1.08693 15.5443C1.03163 15.6396 1.00173 15.7475 1.00007 15.8577C0.998418 15.9679 1.02507 16.0767 1.07748 16.1737L3.86207 21.3299C3.91652 21.4308 3.99692 21.5153 4.09496 21.5747C4.193 21.6342 4.30513 21.6663 4.41976 21.6679H4.42921C4.54236 21.6679 4.6535 21.6381 4.7515 21.5815C4.84949 21.525 4.93088 21.4436 4.9875 21.3457L11.2392 10.528L7.61865 4.26335ZM22.9089 15.5368C22.8518 15.441 22.7707 15.3617 22.6738 15.3066C22.5768 15.2516 22.4671 15.2226 22.3556 15.2227H10.049L6.32452 21.668H19.5711C19.6873 21.668 19.8013 21.6366 19.9012 21.5771C20.001 21.5176 20.0829 21.4322 20.1382 21.33L22.9228 16.1737C22.9757 16.0754 23.0023 15.9651 22.9998 15.8534C22.9974 15.7418 22.9661 15.6327 22.9089 15.5368Z" fill="#04071E"/>
</svg>
