<svg width="24" height="24" viewBox="0 0 24 24" fill="none" xmlns="http://www.w3.org/2000/svg">
<path d="M2.41933 14.9189C3.66868 19.0206 7.48245 22.0068 11.9925 22.0068C17.5197 22.0068 21.9999 17.5266 21.9999 12.0002C21.9999 6.47384 17.5197 1.99365 11.9934 1.99365C6.69034 1.99365 2.35101 6.1191 2.0083 11.3354C2.00971 11.3378 2.01113 11.3401 2.01254 11.3425L2.01261 11.3413L7.38957 13.5544C7.53591 13.4584 7.69164 13.3752 7.858 13.3073C8.23574 13.1519 8.63351 13.0822 9.03002 13.1003L11.4785 9.54329L11.4776 9.49388C11.4776 7.39438 13.1827 5.68701 15.2785 5.68701C16.2869 5.68908 17.2534 6.09101 17.966 6.80466C18.6785 7.51831 19.0789 8.48542 19.0794 9.49388C19.0794 11.5934 17.3752 13.3026 15.2785 13.3026L15.1925 13.3011L11.6893 15.8043C11.6996 16.1908 11.6286 16.5785 11.4754 16.9475C11.1921 17.6266 10.6509 18.1656 9.97061 18.4459C9.29031 18.7263 8.52654 18.7252 7.84705 18.4429C6.98336 18.0833 6.39548 17.3353 6.20785 16.4822L2.41933 14.9189Z" fill="#04071E"/>
<path d="M8.09002 17.8569C9.18043 18.3112 10.435 17.7931 10.8897 16.7017H10.8872C11.1067 16.1745 11.1079 15.5907 10.8903 15.0613C10.6727 14.5319 10.2661 14.1178 9.73454 13.898C9.20982 13.6801 8.64883 13.6863 8.15538 13.8739L9.43747 14.404C9.82361 14.5653 10.1299 14.8733 10.2891 15.2604C10.4483 15.6474 10.4473 16.0818 10.2865 16.4681C10.207 16.6593 10.0907 16.833 9.94407 16.9792C9.79748 17.1254 9.62351 17.2413 9.43211 17.3203C9.24071 17.3993 9.03563 17.4397 8.82858 17.4394C8.62153 17.4391 8.41658 17.3979 8.22543 17.3184L6.98805 16.8055C7.20726 17.2633 7.58657 17.6473 8.09002 17.8569Z" fill="#04071E"/>
<path fill-rule="evenodd" clip-rule="evenodd" d="M12.7465 9.49451C12.7465 10.8932 13.8829 12.0315 15.2788 12.0315C15.9508 12.0298 16.5947 11.7619 17.0694 11.2863C17.5442 10.8108 17.8111 10.1665 17.8117 9.49451C17.811 8.82265 17.544 8.17847 17.0692 7.70307C16.5945 7.22767 15.9507 6.95981 15.2788 6.95816C14.607 6.95998 13.9634 7.22791 13.4888 7.70329C13.0142 8.17867 12.7473 8.82276 12.7465 9.49451ZM15.2825 7.5845C14.2334 7.5845 13.3813 8.43788 13.3813 9.49044C13.3811 9.99519 13.5809 10.4794 13.9374 10.8366C14.294 11.1939 14.7778 11.395 15.2825 11.3958C15.7875 11.3953 16.2715 11.1943 16.6283 10.837C16.985 10.4797 17.1853 9.99535 17.185 9.49044C17.185 8.43819 16.3317 7.5845 15.2825 7.5845Z" fill="#04071E"/>
</svg>
