<svg width="24" height="24" viewBox="0 0 24 24" fill="none" xmlns="http://www.w3.org/2000/svg">
<path d="M2.40701 14.8776C3.64327 19.0005 7.46749 22.0068 11.9927 22.0068C17.5199 22.0068 22.0001 17.5266 22.0001 12.0002C22.0001 6.47384 17.5199 1.99365 11.9935 1.99365C6.6905 1.99365 2.35118 6.1191 2.00847 11.3354C2.65696 12.4228 2.9088 13.0953 2.40718 14.8776H2.40701Z" fill="url(#paint0_linear_104_196)"/>
<path d="M11.4776 9.49388L11.4785 9.54329L9.03002 13.1003C8.63351 13.0822 8.23574 13.1519 7.858 13.3073C7.69164 13.3752 7.53591 13.4584 7.38957 13.5544L2.01261 11.3413C2.01261 11.3413 1.88815 13.3883 2.40661 14.9137L6.20785 16.4822C6.39548 17.3353 6.98336 18.0833 7.84705 18.4429C8.52654 18.7252 9.29031 18.7263 9.97061 18.4459C10.6509 18.1656 11.1921 17.6266 11.4754 16.9475C11.6286 16.5785 11.6996 16.1908 11.6893 15.8043L15.1925 13.3011L15.2785 13.3026C17.3752 13.3026 19.0794 11.5934 19.0794 9.49388C19.0789 8.48542 18.6785 7.51831 17.966 6.80466C17.2534 6.09102 16.2869 5.68908 15.2785 5.68701C13.1827 5.68701 11.4776 7.39438 11.4776 9.49388ZM10.8897 16.7017C10.435 17.7931 9.18043 18.3112 8.09002 17.8569C7.58657 17.6473 7.20726 17.2633 6.98805 16.8055L8.22543 17.3184C8.41658 17.3979 8.62153 17.4391 8.82858 17.4394C9.03563 17.4397 9.24071 17.3993 9.43211 17.3203C9.62351 17.2413 9.79748 17.1254 9.94407 16.9792C10.0907 16.833 10.207 16.6593 10.2865 16.4681C10.4473 16.0818 10.4483 15.6474 10.2891 15.2604C10.1299 14.8733 9.82361 14.5653 9.43747 14.404L8.15538 13.8739C8.64883 13.6863 9.20982 13.6801 9.73454 13.898C10.2661 14.1178 10.6727 14.5319 10.8903 15.0613C11.1079 15.5907 11.1067 16.1745 10.8872 16.7017M15.2788 12.0315C13.8829 12.0315 12.7465 10.8932 12.7465 9.49451C12.7473 8.82276 13.0142 8.17867 13.4888 7.70329C13.9634 7.22791 14.607 6.95998 15.2788 6.95816C15.9507 6.95981 16.5945 7.22767 17.0692 7.70307C17.544 8.17847 17.811 8.82265 17.8117 9.49451C17.8111 10.1665 17.5442 10.8108 17.0694 11.2863C16.5947 11.7619 15.9508 12.0298 15.2788 12.0315ZM13.3813 9.49044C13.3813 8.43788 14.2334 7.5845 15.2825 7.5845C16.3317 7.5845 17.185 8.43819 17.185 9.49044C17.1853 9.99535 16.985 10.4797 16.6283 10.837C16.2715 11.1943 15.7875 11.3953 15.2825 11.3958C14.7778 11.395 14.294 11.1939 13.9374 10.8366C13.5809 10.4794 13.3811 9.99519 13.3813 9.49044Z" fill="white"/>
<defs>
<linearGradient id="paint0_linear_104_196" x1="12.0044" y1="1.99365" x2="12.0044" y2="22.0068" gradientUnits="userSpaceOnUse">
<stop stop-color="#111D2E"/>
<stop offset="0.212" stop-color="#051839"/>
<stop offset="0.407" stop-color="#0A1B48"/>
<stop offset="0.581" stop-color="#132E62"/>
<stop offset="0.738" stop-color="#144B7E"/>
<stop offset="0.873" stop-color="#136497"/>
<stop offset="1" stop-color="#1387B8"/>
</linearGradient>
</defs>
</svg>
