<svg width="24" height="24" viewBox="0 0 24 24" fill="none" xmlns="http://www.w3.org/2000/svg">
<path d="M5.54167 2.25H18.4583C20.4167 2.25 22 3.83333 22 5.79167V18.2083C22 20.1667 20.4167 21.75 18.4583 21.75H5.54167C3.58333 21.75 2 20.1667 2 18.2083V5.79167C2 3.83333 3.58333 2.25 5.54167 2.25Z" fill="#00005B"/>
<path d="M6.75018 15.9166V7.33332C6.75018 7.27498 6.77518 7.24165 6.83352 7.24165C6.97518 7.24165 7.10852 7.24165 7.30018 7.23332C7.50018 7.22498 7.70852 7.22498 7.93352 7.21665C8.15852 7.20832 8.40018 7.20832 8.65852 7.19998C8.91685 7.19165 9.16685 7.19165 9.41685 7.19165C10.1002 7.19165 10.6668 7.27498 11.1335 7.44998C11.5502 7.59165 11.9335 7.82498 12.2502 8.13332C12.5168 8.39998 12.7252 8.72498 12.8585 9.08332C12.9835 9.43332 13.0502 9.79165 13.0502 10.1667C13.0502 10.8833 12.8835 11.475 12.5502 11.9417C12.2168 12.4083 11.7502 12.7583 11.2085 12.9583C10.6418 13.1666 10.0168 13.2416 9.33352 13.2416C9.13352 13.2416 9.00018 13.2417 8.91685 13.2333C8.83352 13.225 8.71685 13.225 8.55852 13.225V15.9C8.56685 15.9583 8.52518 16.0083 8.46685 16.0166H8.43352H6.85018C6.78352 16.0166 6.75018 15.9833 6.75018 15.9083V15.9166ZM8.56685 8.85832V11.6583C8.68352 11.6667 8.79185 11.675 8.89185 11.675H9.33352C9.65852 11.675 9.98352 11.625 10.2918 11.525C10.5585 11.45 10.7918 11.2917 10.9752 11.0833C11.1502 10.875 11.2335 10.5917 11.2335 10.225C11.2418 9.96665 11.1752 9.70832 11.0418 9.48332C10.9002 9.26665 10.7002 9.09998 10.4585 9.00832C10.1502 8.88332 9.81685 8.83332 9.47518 8.84165C9.25852 8.84165 9.06685 8.84165 8.90852 8.84998C8.74185 8.84165 8.62518 8.84998 8.56685 8.85832Z" fill="#9999FF"/>
<path d="M14.2505 9.35H15.7088C15.7921 9.35 15.8588 9.40834 15.8838 9.48334C15.9088 9.55 15.9255 9.61667 15.9338 9.69167C15.9505 9.775 15.9671 9.86667 15.9755 9.95C15.9838 10.0417 15.9921 10.1417 15.9921 10.25C16.2421 9.95834 16.5421 9.71667 16.8838 9.53334C17.2671 9.31667 17.7088 9.20834 18.1505 9.20834C18.2088 9.2 18.2588 9.24167 18.2671 9.3V9.33334V10.9583C18.2671 11.025 18.2255 11.05 18.1338 11.05C17.8338 11.0417 17.5255 11.0667 17.2338 11.1333C16.9921 11.1833 16.7588 11.2583 16.5338 11.3583C16.3755 11.4333 16.2255 11.5333 16.1088 11.6667V15.9167C16.1088 16 16.0755 16.0333 16.0005 16.0333H14.3588C14.2921 16.0417 14.2338 16 14.2255 15.9333V15.9V11.2833C14.2255 11.0833 14.2255 10.875 14.2171 10.6583C14.2088 10.4417 14.2088 10.225 14.2005 10.0083C14.2005 9.81667 14.1838 9.63334 14.1671 9.44167C14.1588 9.4 14.1838 9.35834 14.2255 9.35C14.2255 9.34167 14.2421 9.34167 14.2505 9.35Z" fill="#9999FF"/>
</svg>
