<svg width="24" height="24" viewBox="0 0 24 24" fill="none" xmlns="http://www.w3.org/2000/svg">
<path d="M17.929 4.76807V5.15391C17.4201 5.2443 17.0348 5.40419 16.7733 5.6336C16.3987 5.97426 15.957 6.49566 15.6672 7.19781L9.77116 19.2318H9.37887L3.45986 7.04139C3.18419 6.41571 2.80942 6.03335 2.69633 5.8943C2.51962 5.6788 2.30227 5.51021 2.04428 5.38854C1.78629 5.26689 1.43817 5.18868 0.999939 5.15391V4.76807H6.7593V5.15391C6.09488 5.21649 5.77811 5.32772 5.5802 5.4876C5.38229 5.64751 5.28333 5.8526 5.28333 6.10286C5.28333 6.45047 5.4459 6.99273 5.77105 7.72964L10.1423 16.02L14.4161 7.83392C14.7483 7.02749 15.0239 6.46785 15.0239 6.155C15.0239 5.9534 14.9214 5.76048 14.7164 5.57624C14.5115 5.39203 14.2795 5.26168 13.7918 5.18519C13.7565 5.17825 13.6964 5.16782 13.6116 5.15391V4.76807H17.929Z" fill="#04071E"/>
<path d="M23 4.76807V5.15391C22.4911 5.2443 22.1059 5.40419 21.8443 5.6336C21.4697 5.97426 21.028 6.49566 20.7382 7.19781L15.5637 19.2318H15.1714L9.70338 7.04139C9.42772 6.41571 9.05295 6.03335 8.93986 5.8943C8.76315 5.6788 8.5458 5.51021 8.28781 5.38854C8.02981 5.26689 7.7961 5.18868 7.35787 5.15391V4.76807H13.0028V5.15391C12.3384 5.21649 12.0216 5.32772 11.8237 5.4876C11.6258 5.64751 11.5269 5.8526 11.5269 6.10286C11.5269 6.45047 11.6894 6.99273 12.0146 7.72964L15.9348 16.02L19.4871 7.83392C19.8193 7.02749 20.0949 6.46785 20.0949 6.155C20.0949 5.9534 19.9924 5.76048 19.7875 5.57624C19.5825 5.39203 19.2361 5.26168 18.7484 5.18519C18.7131 5.17825 18.653 5.16782 18.5682 5.15391V4.76807H23Z" fill="#04071E"/>
</svg>
