<svg width="24" height="24" viewBox="0 0 24 24" fill="none" xmlns="http://www.w3.org/2000/svg">
<path d="M11.2366 12.4301C8.7653 16.3897 8.26012 20.8271 4.64189 20.8271C2.59384 20.8271 0.286369 18.861 0.0269495 12.3346C-0.0959335 9.22152 0.177142 6.25867 1.35136 4.74311C2.51192 3.24121 4.45074 3.51428 5.26996 4.21062C6.47149 5.23464 6.37591 7.18712 6.13014 9.94516C9.13395 5.02984 11.3322 3.11832 13.0252 3.00909C16.2475 2.79064 16.3431 6.55905 15.9608 8.7846C18.1727 5.86271 19.934 4.47004 21.0263 3.92389C23.1563 2.84525 24.9859 4.34716 23.402 6.65463C21.0126 10.1636 20.33 11.3105 17.9542 16.1712C16.2748 19.6256 12.5747 19.3662 11.496 15.9664C11.223 15.0926 11.141 13.8501 11.2366 12.4301Z" fill="#04071E"/>
</svg>
