<svg width="24" height="24" viewBox="0 0 24 24" fill="none" xmlns="http://www.w3.org/2000/svg">
<path fill-rule="evenodd" clip-rule="evenodd" d="M8.8 2H15.1999C17.1872 2 18.8 3.61271 18.8 5.60003C18.8 6.99269 18.008 8.20134 16.8501 8.79997C18.008 9.39862 18.8 10.6073 18.8 12C18.8 13.9873 17.1872 15.6 15.1999 15.6C14.0694 15.6 13.0602 15.0782 12.4 14.2624V18.4C12.4 20.3873 10.7873 22 8.8 22C6.81268 22 5.19995 20.3873 5.19995 18.4C5.19995 17.0073 5.99194 15.7986 7.14983 15.2C5.99194 14.6013 5.19995 13.3926 5.19995 12C5.19995 10.6073 5.99193 9.39862 7.14981 8.79997C5.99194 8.20134 5.19995 6.99269 5.19995 5.60003C5.19995 3.61271 6.81268 2 8.8 2ZM5.99995 5.60003C5.99995 4.05454 7.2545 2.8 8.8 2.8H11.5999V8.39995H8.8L8.79132 8.39996C7.24979 8.39527 5.99995 7.1426 5.99995 5.60003ZM11.6001 11.9619C11.5999 11.9746 11.5999 11.9873 11.5999 12C11.5999 12.0127 11.5999 12.0254 11.6001 12.0381V14.7999H8.79998C7.2545 14.8 5.99995 13.5455 5.99995 12C5.99995 10.4574 7.24984 9.20461 8.79139 9.19996L8.8 9.19997H11.5999L11.6001 11.9619ZM12.4 12.0335V11.9664C12.418 10.4402 13.6594 9.20612 15.1884 9.19997H15.1999C15.2028 9.19997 15.2056 9.19997 15.2085 9.19996C16.7501 9.20461 18 10.4574 18 12C18 13.5455 16.7454 14.8 15.1999 14.8C13.6656 14.8 12.418 13.5636 12.4 12.0335ZM12.9377 9.19997C12.7402 9.35978 12.5599 9.54005 12.4 9.73755V9.19997H12.9377ZM15.2086 8.39996C15.2057 8.39995 15.2028 8.39995 15.1999 8.39995C15.1955 8.39995 15.1912 8.39996 15.1868 8.39997H12.4V2.8H15.1999C16.7454 2.8 18 4.05454 18 5.60003C18 7.1426 16.7501 8.39527 15.2086 8.39996ZM8.8 15.5999C7.2545 15.5999 5.99995 16.8545 5.99995 18.4C5.99995 19.9455 7.2545 21.2 8.8 21.2C10.3455 21.2 11.6001 19.9455 11.6001 18.4V15.5999H8.8Z" fill="#04071E"/>
<path fill-rule="evenodd" clip-rule="evenodd" d="M4.94995 5.60003C4.94995 3.47464 6.67461 1.75 8.8 1.75H15.1999C17.3253 1.75 19.05 3.47464 19.05 5.60003C19.05 6.93378 18.3708 8.10925 17.3405 8.79998C18.3708 9.49073 19.05 10.6662 19.05 12C19.05 14.1254 17.3253 15.85 15.1999 15.85C14.2221 15.85 13.3291 15.4848 12.65 14.884V18.4C12.65 20.5254 10.9254 22.25 8.8 22.25C6.67461 22.25 4.94995 20.5254 4.94995 18.4C4.94995 17.0662 5.62915 15.8907 6.6594 15.2C5.62915 14.5092 4.94995 13.3337 4.94995 12C4.94995 10.6662 5.62915 9.49073 6.65939 8.79998C5.62915 8.10925 4.94995 6.93378 4.94995 5.60003ZM8.8 2.25C6.95075 2.25 5.44995 3.75078 5.44995 5.60003C5.44995 6.89551 6.18644 8.02047 7.26463 8.57789L7.69416 8.79997L7.26463 9.02204C6.18644 9.5795 5.44995 10.7045 5.44995 12C5.44995 13.2955 6.18645 14.4205 7.26464 14.9779L7.69418 15.2L7.26465 15.422C6.18645 15.9795 5.44995 17.1045 5.44995 18.4C5.44995 20.2492 6.95075 21.75 8.8 21.75C10.6493 21.75 12.15 20.2492 12.15 18.4V13.5561L12.5944 14.1051C13.2092 14.8648 14.1482 15.35 15.1999 15.35C17.0492 15.35 18.55 13.8492 18.55 12C18.55 10.7045 17.8135 9.5795 16.7353 9.02204L16.3057 8.79997L16.7353 8.57789C17.8135 8.02047 18.55 6.89551 18.55 5.60003C18.55 3.75078 17.0492 2.25 15.1999 2.25H8.8ZM5.74995 5.60003C5.74995 3.91647 7.11643 2.55 8.8 2.55H11.8499V8.64995H8.8003L8.79162 8.64996L8.79056 8.64996C7.11131 8.64485 5.74995 7.28043 5.74995 5.60003ZM8.8 3.05C7.39257 3.05 6.24995 4.19262 6.24995 5.60003C6.24995 7.0046 7.388 8.14542 8.79157 8.14996L8.7997 8.14995H11.3499V3.05H8.8ZM12.15 2.55H15.1999C16.8835 2.55 18.25 3.91647 18.25 5.60003C18.25 7.28043 16.8886 8.64485 15.2093 8.64996L15.208 8.64996L15.1999 8.64995L15.1877 8.64997L12.15 8.64997V2.55ZM12.65 3.05V8.14997H15.1867L15.1999 8.14995L15.2078 8.14996C16.6116 8.14569 17.75 7.00477 17.75 5.60003C17.75 4.19262 16.6073 3.05 15.1999 3.05H12.65ZM8.8003 8.94997H11.8498L11.8501 11.9645L11.8499 12L11.85 12.0355L11.8501 12.0381L11.8501 15.0499H8.79999C7.11643 15.05 5.74995 13.6835 5.74995 12C5.74995 10.3195 7.11136 8.95503 8.79064 8.94996L8.79169 8.94996L8.8003 8.94997ZM15.208 8.94996L15.2093 8.94996C16.8885 8.95503 18.25 10.3195 18.25 12C18.25 13.6835 16.8835 15.05 15.1999 15.05C13.5285 15.05 12.1697 13.7033 12.1501 12.0365L12.15 12.0335L12.15 11.9635C12.1696 10.3008 13.5217 8.95667 15.1874 8.94998L15.1884 8.94997L15.1999 8.94997L15.208 8.94996ZM8.79215 9.44996C7.38833 9.45419 6.24995 10.5952 6.24995 12C6.24995 13.4074 7.39257 14.55 8.79998 14.5499H11.3501V12.0381L11.3499 12L11.3501 11.9619L11.3499 9.44997H8.8L8.79215 9.44996ZM15.2078 9.44996L15.1999 9.44997H15.189C13.7972 9.45581 12.6671 10.5789 12.65 11.968V12.032C12.6672 13.4246 13.8032 14.55 15.1999 14.55C16.6073 14.55 17.75 13.4074 17.75 12C17.75 10.5953 16.6114 9.45445 15.2078 9.44996ZM12.15 8.94997H13.6441L13.0949 9.39432C12.911 9.5431 12.7432 9.71094 12.5944 9.89481L12.15 10.4439V8.94997ZM8.8 15.8499C7.39257 15.8499 6.24995 16.9926 6.24995 18.4C6.24995 19.8074 7.39257 20.95 8.8 20.95C10.2074 20.95 11.3501 19.8074 11.3501 18.4V15.8499H8.8ZM5.74995 18.4C5.74995 16.7164 7.11643 15.3499 8.8 15.3499H11.8501V18.4C11.8501 20.0835 10.4836 21.45 8.8 21.45C7.11643 21.45 5.74995 20.0835 5.74995 18.4Z" fill="#04071E"/>
</svg>
