<svg width="24" height="24" viewBox="0 0 24 24" fill="none" xmlns="http://www.w3.org/2000/svg">
<path d="M8.66664 22C10.5067 22 12 20.5066 12 18.6666V15.3333H8.66664C6.82662 15.3333 5.33325 16.8266 5.33325 18.6666C5.33325 20.5066 6.82662 22 8.66664 22Z" fill="#0ACF83"/>
<path d="M5.33325 12C5.33325 10.16 6.82662 8.66663 8.66664 8.66663H12V15.3333H8.66664C6.82662 15.3333 5.33325 13.84 5.33325 12Z" fill="#A259FF"/>
<path d="M5.33325 5.33336C5.33325 3.49336 6.82662 2 8.66664 2H12V8.66664H8.66664C6.82662 8.66664 5.33325 7.17336 5.33325 5.33336Z" fill="#F24E1E"/>
<path d="M11.9999 2H15.3333C17.1733 2 18.6666 3.49336 18.6666 5.33336C18.6666 7.17336 17.1733 8.66664 15.3333 8.66664H11.9999V2Z" fill="#FF7262"/>
<path d="M18.6666 12C18.6666 13.84 17.1733 15.3333 15.3333 15.3333C13.4932 15.3333 11.9999 13.84 11.9999 12C11.9999 10.16 13.4932 8.66663 15.3333 8.66663C17.1733 8.66663 18.6666 10.16 18.6666 12Z" fill="#1ABCFE"/>
</svg>
