<svg width="24" height="24" viewBox="0 0 24 24" fill="none" xmlns="http://www.w3.org/2000/svg">
<path d="M4.38082 2C3.07151 2 1.99985 3.07167 1.99985 4.38097V19.6192C1.99985 20.9285 3.07151 22.0002 4.38082 22.0002H19.619C20.9283 22.0002 22 20.9285 22 19.6192V4.38097C22 3.07167 20.9283 2 19.619 2H4.38082ZM4.38082 2.95239H19.619C20.4136 2.95239 21.0476 3.58645 21.0476 4.38097V5.99092C20.6984 5.59128 20.1914 5.33336 19.619 5.33336H4.38082C3.80849 5.33336 3.30141 5.59128 2.95224 5.99092V4.38097C2.95224 3.58645 3.5863 2.95239 4.38082 2.95239ZM7.23798 8.19052C7.50132 8.19052 7.71418 8.40386 7.71418 8.66672C7.71418 11.0296 9.63657 12.9525 11.9999 12.9525C14.3633 12.9525 16.2857 11.0296 16.2857 8.66672C16.2857 8.40386 16.4985 8.19052 16.7619 8.19052C17.0252 8.19052 17.2381 8.40386 17.2381 8.66672C17.2381 11.5548 14.888 13.9049 11.9999 13.9049C9.11181 13.9049 6.76179 11.5548 6.76179 8.66672C6.76179 8.40386 6.97465 8.19052 7.23798 8.19052Z" fill="black"/>
</svg>
