<svg width="24" height="24" viewBox="0 0 24 24" fill="none" xmlns="http://www.w3.org/2000/svg">
<path fill-rule="evenodd" clip-rule="evenodd" d="M8.64156 12.002L14.5651 17.9265L18.3041 14.1875C18.9727 13.5855 19.9955 13.6123 20.6317 14.2485C21.2679 14.8846 21.2946 15.9075 20.6926 16.5761L15.7585 21.5111C15.0957 22.163 14.0327 22.163 13.3699 21.5111L6.25119 14.3906V18.6229C6.25119 19.5569 5.49398 20.3141 4.55992 20.3141C3.62586 20.3141 2.86865 19.5569 2.86865 18.6229V5.37568C2.86865 4.44162 3.62586 3.68441 4.55992 3.68441C5.49398 3.68441 6.25119 4.44162 6.25119 5.37568V9.60798L13.369 2.48923C14.0316 1.83692 15.095 1.83692 15.7576 2.48923L20.6954 7.42339C21.2974 8.09197 21.2706 9.11482 20.6345 9.75098C19.9983 10.3871 18.9754 10.4139 18.3069 9.81192L14.5679 6.07295L8.64156 12.002ZM14.5679 10.3089C13.883 10.3085 13.2654 10.7208 13.003 11.3535C12.7407 11.9861 12.8853 12.7145 13.3694 13.1989C13.8536 13.6833 14.5819 13.8283 15.2147 13.5663C15.8475 13.3043 16.2601 12.6869 16.2601 12.002C16.2603 11.553 16.0822 11.1222 15.7648 10.8045C15.4475 10.4869 15.0169 10.3082 14.5679 10.308V10.3089Z" fill="#04071E"/>
</svg>
