<svg width="24" height="24" viewBox="0 0 24 24" fill="none" xmlns="http://www.w3.org/2000/svg">
<path fill-rule="evenodd" clip-rule="evenodd" d="M20.2353 2H3.76471C2.79009 2 2 2.79009 2 3.76471V20.2353C2 21.2099 2.79009 22 3.76471 22H20.2353C21.2099 22 22 21.2099 22 20.2353V3.76471C22 2.79009 21.2099 2 20.2353 2ZM6.14746 11.4118C6.44956 8.40594 8.97943 6.11761 12.0004 6.11765C15.1727 6.11769 17.7735 8.63316 17.8794 11.8037C17.9853 14.9742 15.558 17.6576 12.3928 17.8692C9.22761 18.0809 6.46469 15.7446 6.14746 12.5882H10.2357V13.4706C10.2357 13.633 10.3674 13.7647 10.5298 13.7647H13.471C13.6334 13.7647 13.7651 13.633 13.7651 13.4706V10.5294C13.7651 10.367 13.6334 10.2353 13.471 10.2353H10.5298C10.3674 10.2353 10.2357 10.367 10.2357 10.5294V11.4118H6.14746Z" fill="#04071E"/>
</svg>
