<svg width="24" height="24" viewBox="0 0 24 24" fill="none" xmlns="http://www.w3.org/2000/svg">
<path d="M6.59 2H17.41C19.9533 2 22 4.04667 22 6.59V17.41C22 19.9533 19.9533 22 17.41 22H6.59C4.04667 22 2 19.9533 2 17.41V6.59C2 4.04667 4.04667 2 6.59 2Z" fill="url(#paint0_linear_114_170)"/>
<path d="M5.05014 9.57666V14.4467C5.05014 15.51 5.91347 16.37 6.97347 16.37H12.8335C13.8968 16.37 14.7568 15.5067 14.7568 14.4467V9.57666C14.7568 8.51333 13.8935 7.65333 12.8335 7.65333H6.97681C5.91347 7.65 5.05014 8.51333 5.05014 9.57666ZM17.6935 8.27333L15.4868 10.0933C15.2901 10.2567 15.1768 10.4967 15.1768 10.75V13.27C15.1768 13.5233 15.2868 13.76 15.4801 13.9233L17.6868 15.7767C18.1901 16.1967 18.9535 15.84 18.9535 15.1867V8.86666C18.9568 8.21666 18.1968 7.85666 17.6935 8.27333Z" fill="white"/>
<defs>
<linearGradient id="paint0_linear_114_170" x1="11.9417" y1="2.41765" x2="12.061" y2="22.0229" gradientUnits="userSpaceOnUse">
<stop stop-color="#5DF777"/>
<stop offset="1" stop-color="#0ABC28"/>
</linearGradient>
</defs>
</svg>
