<svg width="24" height="24" viewBox="0 0 24 24" fill="none" xmlns="http://www.w3.org/2000/svg">
<path fill-rule="evenodd" clip-rule="evenodd" d="M17.41 2H6.59C4.04667 2 2 4.04667 2 6.59V17.41C2 19.9533 4.04667 22 6.59 22H17.41C19.9533 22 22 19.9533 22 17.41V6.59C22 4.04667 19.9533 2 17.41 2ZM5.0498 14.4467V9.57667C5.0498 8.51333 5.91314 7.65 6.97647 7.65333H12.8331C13.8931 7.65333 14.7565 8.51333 14.7565 9.57667V14.4467C14.7565 15.5067 13.8965 16.37 12.8331 16.37H6.97314C5.91314 16.37 5.0498 15.51 5.0498 14.4467ZM15.4865 10.0933L17.6931 8.27333C18.1965 7.85667 18.9565 8.21667 18.9531 8.86667V15.1867C18.9531 15.84 18.1898 16.1967 17.6865 15.7767L15.4798 13.9233C15.2865 13.76 15.1765 13.5233 15.1765 13.27V10.75C15.1765 10.4967 15.2898 10.2567 15.4865 10.0933Z" fill="#04071E"/>
</svg>
