<svg width="24" height="24" viewBox="0 0 24 24" fill="none" xmlns="http://www.w3.org/2000/svg">
<path d="M11.1666 12.225H9.04988C9.17488 11.875 9.29988 11.4833 9.41655 11.0583C9.4991 10.8004 9.57845 10.5424 9.65659 10.2884C9.70466 10.1321 9.75227 9.97736 9.79988 9.825C9.91655 9.46667 10.0082 9.10834 10.0832 8.75H10.0999C10.1324 8.86149 10.1649 8.97816 10.1989 9.10001C10.2258 9.19674 10.2537 9.29674 10.2832 9.4C10.3499 9.64167 10.4249 9.88334 10.5082 10.1417C10.5499 10.2708 10.5895 10.3979 10.629 10.525C10.6686 10.6521 10.7082 10.7792 10.7499 10.9083C10.8249 11.1583 10.8999 11.4 10.9749 11.625C11.0499 11.8417 11.1166 12.05 11.1666 12.225Z" fill="#04071E"/>
<path fill-rule="evenodd" clip-rule="evenodd" d="M18.4583 2.25H5.54167C3.58333 2.25 2 3.83333 2 5.79167V18.2083C2 20.1667 3.58333 21.75 5.54167 21.75H18.4583C20.4167 21.75 22 20.1667 22 18.2083V5.79167C22 3.83333 20.4167 2.25 18.4583 2.25ZM8.56655 13.9167H11.6666L12.3499 15.9C12.3666 15.9583 12.4249 16 12.4832 15.9917H14.2249C14.3082 15.9917 14.3332 15.95 14.3082 15.8583L11.2666 7.275C11.2582 7.23334 11.2249 7.20834 11.1582 7.20834H8.99988C8.95822 7.21667 8.92488 7.25834 8.93322 7.3C8.93322 7.48334 8.91655 7.66667 8.88322 7.84167C8.8596 7.91252 8.84017 7.97918 8.82195 8.04167C8.81446 8.06738 8.80717 8.09238 8.79988 8.11667L6.11655 15.8417C6.09155 15.9417 6.11655 15.9917 6.20822 15.9917H7.77488C7.84988 16 7.91655 15.95 7.93322 15.875L8.56655 13.9167ZM15.4249 8.375C15.6249 8.56667 15.8916 8.675 16.1666 8.66667C16.4499 8.68334 16.7332 8.575 16.9249 8.375C17.1249 8.16667 17.2249 7.89167 17.2166 7.60834C17.2249 7.33334 17.1249 7.06667 16.9416 6.86667C16.7582 6.675 16.5082 6.575 16.1832 6.575C15.9082 6.575 15.6416 6.675 15.4416 6.86667C15.2416 7.05834 15.1332 7.325 15.1416 7.60834C15.1332 7.89167 15.2332 8.16667 15.4249 8.375ZM15.2332 9.48334V15.9C15.2332 15.9833 15.2749 16.0333 15.3582 16.0333H16.9915C17.0666 16.0333 17.0999 15.9917 17.0999 15.9V9.48334C17.0999 9.40834 17.0666 9.36667 16.9915 9.36667H15.3416C15.2666 9.36667 15.2332 9.4 15.2332 9.48334Z" fill="#04071E"/>
</svg>
